<?xml version="1.0" encoding="utf-8"?>
<!-- Generator: Adobe Illustrator 22.1.0, SVG Export Plug-In . SVG Version: 6.00 Build 0)  -->
<svg version="1.1" id="Layer_1" xmlns="http://www.w3.org/2000/svg" xmlns:xlink="http://www.w3.org/1999/xlink" x="0px" y="0px"
	 viewBox="0 0 639.9 639.5" style="enable-background:new 0 0 639.9 639.5;" xml:space="preserve">
<style type="text/css">
	.st0{fill:none;stroke:#F89012;stroke-width:3;stroke-linecap:round;stroke-linejoin:round;stroke-miterlimit:10;}
</style>
<g>
	<line class="st0" x1="369.4" y1="100.1" x2="335.1" y2="252.1"/>
	<line class="st0" x1="304.7" y1="387.8" x2="270.3" y2="539.4"/>
	<line class="st0" x1="540.5" y1="369.2" x2="387.8" y2="335.1"/>
	<line class="st0" x1="100.1" y1="270.1" x2="252.1" y2="304.7"/>
	<line class="st0" x1="266.2" y1="102.7" x2="301.6" y2="251.4"/>
	<line class="st0" x1="537.2" y1="266.2" x2="388.5" y2="301.6"/>
	<line class="st0" x1="338.3" y1="388.5" x2="373.7" y2="537.2"/>
	<line class="st0" x1="251.4" y1="338.3" x2="102.7" y2="373.7"/>
	<line class="st0" x1="508.8" y1="200.6" x2="380.7" y2="280.3"/>
	<line class="st0" x1="200.6" y1="131.1" x2="280.3" y2="259.1"/>
	<line class="st0" x1="435" y1="127.5" x2="356.3" y2="257.7"/>
	<line class="st0" x1="128.8" y1="202.1" x2="257.7" y2="283.6"/>
	<line class="st0" x1="283.2" y1="382.6" x2="204.8" y2="512.3"/>
	<line class="st0" x1="360" y1="381.1" x2="439.3" y2="508.8"/>
	<line class="st0" x1="258.8" y1="360" x2="131.1" y2="439.3"/>
	<line class="st0" x1="382.6" y1="356.6" x2="510.8" y2="438.2"/>
	<line class="st0" x1="529.4" y1="319.8" x2="463.4" y2="319.8"/>
	<line class="st0" x1="319.8" y1="463.4" x2="319.6" y2="528.3"/>
	<line class="st0" x1="111.6" y1="319.6" x2="176.5" y2="319.8"/>
	<line class="st0" x1="514.6" y1="397.6" x2="455.2" y2="371.5"/>
	<line class="st0" x1="265.1" y1="454.9" x2="242.1" y2="511.2"/>
	<line class="st0" x1="397.6" y1="125.3" x2="371.5" y2="184.6"/>
	<line class="st0" x1="512" y1="239.5" x2="454.5" y2="264.3"/>
	<line class="st0" x1="129" y1="242.1" x2="185" y2="265.1"/>
	<line class="st0" x1="376.7" y1="453.4" x2="400.4" y2="512"/>
	<line class="st0" x1="239.5" y1="127.9" x2="262.5" y2="189.1"/>
	<line class="st0" x1="186.5" y1="376.7" x2="127.9" y2="400.4"/>
	<line class="st0" x1="423.4" y1="419.7" x2="466.4" y2="467.5"/>
	<line class="st0" x1="597.2" y1="319.9" x2="638.4" y2="319.7"/>
	<line class="st0" x1="42.6" y1="319.9" x2="1.5" y2="319.7"/>
	<line class="st0" x1="319.9" y1="597.2" x2="319.9" y2="638"/>
	<line class="st0" x1="516" y1="514.9" x2="545.7" y2="543.7"/>
	<line class="st0" x1="89" y1="319.8" x2="64.1" y2="319.6"/>
	<line class="st0" x1="319.8" y1="550.9" x2="319.6" y2="575.7"/>
	<line class="st0" x1="196.9" y1="319.9" x2="221" y2="320.3"/>
	<line class="st0" x1="320.3" y1="418.9" x2="319.9" y2="443"/>
	<line class="st0" x1="440.8" y1="319.6" x2="417.1" y2="319.6"/>
	<line class="st0" x1="549.8" y1="319.9" x2="573.1" y2="319.8"/>
	<line class="st0" x1="551.3" y1="222.3" x2="528.6" y2="230.6"/>
	<line class="st0" x1="367" y1="208.5" x2="356.6" y2="228.4"/>
	<line class="st0" x1="408.5" y1="356.8" x2="431.1" y2="366.6"/>
	<line class="st0" x1="205.6" y1="271.4" x2="227.6" y2="281.2"/>
	<line class="st0" x1="281.2" y1="412.2" x2="271.4" y2="433.9"/>
	<line class="st0" x1="533.1" y1="405.2" x2="553.5" y2="414.3"/>
	<line class="st0" x1="84.2" y1="223.6" x2="106.8" y2="232.1"/>
	<line class="st0" x1="414.7" y1="87.1" x2="406.7" y2="106.4"/>
	<line class="st0" x1="232.1" y1="533.1" x2="223.6" y2="555.7"/>
	<line class="st0" x1="410.6" y1="534.9" x2="418.9" y2="557.6"/>
	<line class="st0" x1="432.3" y1="273" x2="410.4" y2="281.4"/>
	<line class="st0" x1="356.6" y1="413.7" x2="368.1" y2="435.6"/>
	<line class="st0" x1="104.9" y1="410.6" x2="82.3" y2="418.9"/>
	<line class="st0" x1="226.1" y1="356.6" x2="203.9" y2="367.9"/>
	<line class="st0" x1="273" y1="207.6" x2="281.4" y2="229.5"/>
	<line class="st0" x1="222.3" y1="88.6" x2="230.6" y2="111.2"/>
	<line class="st0" x1="482.1" y1="480.5" x2="498.6" y2="497.5"/>
	<line class="st0" x1="390" y1="386.3" x2="407.8" y2="404.1"/>
	<line class="st0" x1="172.4" y1="172.9" x2="218.2" y2="218.2"/>
	<line class="st0" x1="94.6" y1="94.9" x2="123.9" y2="123.9"/>
	<line class="st0" x1="234.2" y1="234.7" x2="251" y2="251.5"/>
	<line class="st0" x1="140.8" y1="141" x2="157.4" y2="157.4"/>
	<line class="st0" x1="319.6" y1="111.6" x2="319.9" y2="176.1"/>
	<line class="st0" x1="319.8" y1="1.5" x2="319.9" y2="42.6"/>
	<line class="st0" x1="319.6" y1="199.1" x2="319.6" y2="222.8"/>
	<line class="st0" x1="319.8" y1="66.7" x2="319.9" y2="90.1"/>
	<line class="st0" x1="467" y1="172.4" x2="421.6" y2="218.2"/>
	<line class="st0" x1="545" y1="94.6" x2="516" y2="123.9"/>
	<line class="st0" x1="405.1" y1="234.2" x2="388.4" y2="251"/>
	<line class="st0" x1="498.8" y1="140.8" x2="482.5" y2="157.4"/>
	<line class="st0" x1="172.9" y1="467.5" x2="218.2" y2="421.6"/>
	<line class="st0" x1="94.9" y1="545.2" x2="123.9" y2="516"/>
	<line class="st0" x1="234.7" y1="405.7" x2="251.5" y2="388.9"/>
	<line class="st0" x1="141" y1="499.1" x2="157.4" y2="482.5"/>
</g>
</svg>
