<?xml version="1.0" encoding="utf-8"?>
<!-- Generator: Adobe Illustrator 22.1.0, SVG Export Plug-In . SVG Version: 6.00 Build 0)  -->
<svg version="1.1" id="Layer_1" xmlns="http://www.w3.org/2000/svg" xmlns:xlink="http://www.w3.org/1999/xlink" x="0px" y="0px"
	 viewBox="0 0 822.8 1242.3" style="enable-background:new 0 0 822.8 1242.3;" xml:space="preserve">
<style type="text/css">
	.st0{fill:#C7D7F2;}
	.st1{fill:#FFFFFF;}
	.st2{fill:none;stroke:#3C70BA;stroke-width:14;stroke-miterlimit:1;}
	.st3{fill:none;stroke:#3C70BA;stroke-width:14;stroke-miterlimit:10;}
	.st4{fill:none;stroke:#3C70BA;stroke-width:4;stroke-linecap:round;stroke-linejoin:round;stroke-miterlimit:10;}
	.st5{fill:none;stroke:#3C70BA;stroke-width:4;stroke-linecap:round;stroke-linejoin:round;}
	.st6{fill:none;stroke:#3C70BA;stroke-width:4;stroke-linecap:round;stroke-linejoin:round;stroke-dasharray:11.7086,11.7086;}
	.st7{fill:#3C70BA;}
	.st8{clip-path:url(#SVGID_2_);}
	.st9{clip-path:url(#SVGID_4_);}
	.st10{clip-path:url(#SVGID_6_);}
	.st11{clip-path:url(#SVGID_8_);}
</style>
<g>
	<path class="st0" d="M139.3,1108.3c0,0-17-15-17-42s9.2-37.2,30.1-49.6s202.9-118.4,202.9-118.4s-2.3,245-2.3,273.5
		s-19.7,63.5-54.2,63.5s-60.8-28-60.8-51s-1-118-1-118v-13L139.3,1108.3z"/>
	<path class="st0" d="M222.6,848.5l129.7-73.2c0,0,0.2-20.9,0.2-44.4c0-23.6-25.9-51.3-61.6-51.3s-53.7,37.8-53.7,58.8
		s0.3,51.1,0.3,61.6C237.6,810.3,237.9,840.7,222.6,848.5z"/>
	<path class="st0" d="M23.3,372.3l94.5-53.8c0,0-3.5-45-56.5-45S-9.7,345.3,23.3,372.3z"/>
</g>
<path class="st1" d="M58.3,273.4c0,0,64-4.2,64,65.8s0,416.1,0,460.6c0,44.4,24.1,66.3,54,66.3s60.3-24.6,60.3-46.7
	s-2.7-100.3,14-119.2s25.7-17.9,57.7-17.9s44,42,44,56s0,472.5,0,472.5S764,973.7,785.6,961c21.7-12.7,30.2-26.7,30.2-79.2
	s0-360.5,0-399.5s-20.4-68.9-51.4-68.9s-69.5,27.3-69.5,27.3l-103.2,59.6l-7.3-10c0,0,0-392,0-428s-40.2-72.6-79.1-50.8
	s-423.5,244-423.5,244L58.3,273.4z"/>
<g>
	<path class="st2" d="M815.8,470.7c0-31.8-25.8-57.7-57.7-57.7c-4.7,0-9.2,0.6-13.6,1.6c-5.5,1.3-10.7,3.4-15.4,6.2L266.3,688.1"/>
</g>
<g>
	<path class="st2" d="M585.2,504V64.7c0-31.8-25.8-57.7-57.7-57.7c-4.7,0-9.2,0.6-13.6,1.6c-5.5,1.3-10.7,3.4-15.4,6.2L35.7,282"/>
</g>
<g>
	<line class="st2" x1="355.1" y1="774" x2="211.7" y2="856.7"/>
</g>
<g>
	<path class="st2" d="M758.1,413.1c31.8,0,57.7,25.8,57.7,57.7v439.6c0,20.4-10.6,38.3-26.6,48.6l0,0L327,1225.8"/>
</g>
<g>
	<line class="st2" x1="353" y1="901.3" x2="159.9" y2="1012.7"/>
</g>
<path class="st3" d="M122.3,808.6c0,31.8,25.8,57.7,57.7,57.7s57.7-25.8,57.7-57.7V738c0-31.8,25.8-57.7,57.7-57.7
	S353,706.1,353,738v439.6c0,31.8-25.8,57.7-57.7,57.7s-57.7-25.8-57.7-57.7V1067c0-31.8-25.8-57.7-57.7-57.7s-57.7,25.8-57.7,57.7
	c0,15.9,6.5,30.3,16.9,40.8l96.5-55.7"/>
<g>
	<g>
		<path class="st4" d="M594.7,808.3c-2.4,5.9-4.4,7.9-8.3,7.5c-1.5-0.1-3,0.1-4.6,0.8c-1.4,0.7-2.9,1.8-4.2,3.2
			c-1.4,1.4-2.7,3.2-3.9,5.1c-0.9,1.4-1.8,2.9-2.6,4.5c-0.2,0.4-0.4,0.7-0.7,0.9c-1,0.6-1.4-1.1-1.7-2.1c-0.3-0.8-0.5-1.6-0.9-2.3
			c-0.3-0.7-0.8-1.2-1.3-1.4c-0.9-0.4-2.1,0-3.2,0.6c-6.5,3.2-12.9,9.3-19.3,14.7c-6.6,5.6-13.1,11.3-19.6,17.1
			c-6,5.4-12.1,10.9-17.9,17.2c-4.9,5.3-9.7,13.6-11.7,22.7c-1.3,6-1.2,12,0.9,15.4c2.4,3.9,6,2.5,9.6,1.2c4.5-1.6,9.1-4.1,13.6-8
			c5.5-4.7,11.9-12,15.3-21.6c2.8-7.8,3.1-16,1.8-22.5c-1.1-5.5-1.5-11.7-2.5-17.3c-1.6-9-3.4-18.3-9-20.8
			c-6.5-3-13.5,2.3-19.5,17.5c-2.2,5.5-4,11.3-5.8,17c-1.5,4.9-2.9,10.7-5.3,15"/>
		<path class="st4" d="M602,766.5c2.5,7.3,4.1,15.8,4.8,25.1c0.7,9.3,0.1,19.3-0.1,29.1c-0.1,4.3-1.4,9-3.8,12.2
			c-2,2.7-5.8,5.1-7.3,2.6c-0.3-0.6-0.5-1.4-0.5-2.3c-0.2-3.1,0.6-6.6,2.2-9.4c6-10.2,12.2-19.7,17.8-30.7c2.4-4.6,4.3-8.7,5.7-14.1
			c1.5-5.8,2.7-11.6,3.6-17.3c2.1-14.1,1.9-27.1-0.5-38.3c0-0.2-0.1-0.4-0.2-0.5c-0.2-0.1-0.4,0.1-0.7,0.3
			c-4.2,4.3-6.7,12.4-7.8,19.6c-0.8,5.4-1,10.6-1,15.7c-0.1,9.1,0.2,18,0.7,26.7c0.8,13,2.3,25.5,3.6,38.1
			c2.8-5.7,5.4-11.5,8.2-17.1c2.2-4.3,4.3-9.1,7.1-12.3c2.9-3.3,5.7-2.7,7.7-0.7c0.9,0.9,1.8,1.6,2.9,2.6c0,0,3.4-6,3.8-6.5
			c1.3-2,2.7-3.9,4.2-5.6c2.8-3.4,5.8-6.2,8.8-8.6c7.1-5.7,14.5-10.3,21.6-14.9c7.4-4.8,14.9-9.2,22.4-13.2
			c7.3-3.9,14.5-7.2,21.8-10.8c7.4-3.7,14.9-8.7,22.3-13.7c1.8-1.2,3.6-2.5,5.3-3.7"/>
	</g>
	<line class="st4" x1="423.1" y1="908.3" x2="449.5" y2="919.5"/>
	<line class="st4" x1="449.5" y1="893.1" x2="423.1" y2="934.8"/>
	<g>
		<g>
			<line class="st5" x1="473.1" y1="918.7" x2="478.3" y2="915.7"/>
			<line class="st6" x1="488.5" y1="909.9" x2="747" y2="760.6"/>
			<line class="st5" x1="752.1" y1="757.7" x2="757.3" y2="754.7"/>
		</g>
	</g>
</g>
<g>
	<line class="st4" x1="196.7" y1="529.6" x2="521.2" y2="342.2"/>
	<line class="st4" x1="196.7" y1="504" x2="521.2" y2="316.7"/>
	<line class="st4" x1="196.7" y1="554.2" x2="521.2" y2="366.9"/>
	<line class="st4" x1="196.7" y1="578.8" x2="521.2" y2="391.5"/>
	<line class="st4" x1="196.7" y1="603.4" x2="521.2" y2="416.1"/>
	<line class="st4" x1="196.7" y1="628" x2="521.2" y2="440.7"/>
	<line class="st4" x1="196.7" y1="652.6" x2="521.2" y2="465.3"/>
	<line class="st4" x1="196.7" y1="677.2" x2="521.2" y2="489.9"/>
	<line class="st4" x1="196.7" y1="701.8" x2="521.2" y2="514.5"/>
	<line class="st4" x1="196.7" y1="726.4" x2="521.2" y2="539.1"/>
</g>
<g>
	<line class="st4" x1="196.7" y1="750.6" x2="239" y2="726"/>
	<line class="st4" x1="196.7" y1="775.2" x2="239" y2="750.6"/>
	<line class="st4" x1="196.7" y1="799.8" x2="239" y2="775.2"/>
</g>
<g>
	<line class="st4" x1="423.7" y1="795.1" x2="748.2" y2="607.8"/>
	<line class="st4" x1="423.7" y1="767.6" x2="748.2" y2="580.3"/>
	<line class="st4" x1="423.7" y1="740.1" x2="748.2" y2="552.8"/>
	<line class="st4" x1="423.7" y1="712.6" x2="748.2" y2="525.3"/>
	<line class="st4" x1="423.7" y1="1111.4" x2="748.2" y2="924.1"/>
	<line class="st4" x1="423.7" y1="1083.9" x2="748.2" y2="896.6"/>
	<line class="st4" x1="423.7" y1="1056.4" x2="748.2" y2="869.1"/>
	<line class="st4" x1="423.7" y1="1029" x2="748.2" y2="841.6"/>
	<line class="st4" x1="422.1" y1="684.9" x2="746.6" y2="497.6"/>
	<line class="st4" x1="409.8" y1="660.9" x2="734.3" y2="473.6"/>
	<line class="st4" x1="388.2" y1="645.2" x2="712.7" y2="457.9"/>
</g>
<g>
	<path class="st7" d="M499.3,128.4l3.6-2l-25,71.4c-3.3,9.5-11.4,20.5-18,24.3l-11.7,6.8l-24.7,70.4c-3.3,9.5-11.3,20.4-18,24.3
		L230.9,424.1c-9.4,5.4-12.1,16-12.3,16.6l-3.5,2l25-71.4c3.3-9.5,11.4-20.5,18-24.3l11.7-6.8l24.7-70.4c3.3-9.5,11.4-20.5,18-24.3
		L487,145C496.4,139.6,499.1,128.9,499.3,128.4z M432.7,246.5c7.8-4.5,11.1-12.9,12-15.8l-69.6,40.1l-5-26.3l-25.8,44.2l-59,34.1
		c-7.8,4.5-11.1,12.9-12,15.8l52.8-30.5l6.3,1l-25.9,44.4l44.3-39.4l32.6,0.5l-6.1-32.8l6.1-6.5L432.7,246.5"/>
</g>
<path class="st3" d="M120.4,316.8l-96.5,55.7C13.5,362.1,7,347.7,7,331.7c0-31.8,25.8-57.7,57.7-57.7s57.7,25.8,57.7,57.7v0.2v476.7
	"/>
<g>
	<defs>
		<path id="SVGID_1_" d="M234.1,1047c-8.1-22-29.3-37.6-54.1-37.6c-31.8,0-57.7,25.8-57.7,57.7c0,15.9,6.5,30.3,16.9,40.8l96.5-55.7
			L234.1,1047z"/>
	</defs>
	<clipPath id="SVGID_2_">
		<use xlink:href="#SVGID_1_"  style="overflow:visible;"/>
	</clipPath>
	<g class="st8">
		<path class="st4" d="M149.8,1017.8c-16.5,10.1-27.5,28.4-27.5,49.1c0,15.9,6.5,30.3,16.9,40.8"/>
		<path class="st4" d="M160.8,1011.5c-16.5,10.1-27.5,28.4-27.5,49.1c0,15.9,6.5,30.3,16.9,40.8"/>
		<path class="st4" d="M171.8,1005.3c-16.5,10.1-27.5,28.4-27.5,49.1c0,15.9,6.5,30.3,16.9,40.8"/>
		<path class="st4" d="M182.7,999c-16.5,10.1-27.5,28.4-27.5,49.1c0,15.9,6.5,30.3,16.9,40.8"/>
		<path class="st4" d="M193.7,992.8c-16.5,10.1-27.5,28.4-27.5,49.1c0,15.9,6.5,30.3,16.9,40.8"/>
		<path class="st4" d="M204.7,986.5c-16.5,10.1-27.5,28.4-27.5,49.1c0,15.9,6.5,30.3,16.9,40.8"/>
		<path class="st4" d="M215.7,980.3c-16.5,10.1-27.5,28.4-27.5,49.1c0,15.9,6.5,30.3,16.9,40.8"/>
		<path class="st4" d="M226.7,974c-16.5,10.1-27.5,28.4-27.5,49.1c0,15.9,6.5,30.3,16.9,40.8"/>
		<path class="st4" d="M237.6,967.8c-16.5,10.1-27.5,28.4-27.5,49.1c0,15.9,6.5,30.3,16.9,40.8"/>
	</g>
</g>
<g>
	<defs>
		<path id="SVGID_3_" d="M118.1,311c-8.1-22-29.3-37.6-54.1-37.6c-31.8,0-57.7,25.8-57.7,57.7c0,15.9,6.5,30.3,16.9,40.8l96.5-55.7
			L118.1,311z"/>
	</defs>
	<clipPath id="SVGID_4_">
		<use xlink:href="#SVGID_3_"  style="overflow:visible;"/>
	</clipPath>
	<g class="st9">
		<path class="st4" d="M33.8,281.8C17.3,292,6.3,310.2,6.3,331c0,15.9,6.5,30.3,16.9,40.8"/>
		<path class="st4" d="M44.8,275.6c-16.5,10.1-27.5,28.4-27.5,49.1c0,15.9,6.5,30.3,16.9,40.8"/>
		<path class="st4" d="M55.8,269.3c-16.5,10.1-27.5,28.4-27.5,49.1c0,15.9,6.5,30.3,16.9,40.8"/>
		<path class="st4" d="M66.7,263.1c-16.5,10.1-27.5,28.4-27.5,49.1c0,15.9,6.5,30.3,16.9,40.8"/>
		<path class="st4" d="M77.7,256.8C61.2,267,50.2,285.2,50.2,306c0,15.9,6.5,30.3,16.9,40.8"/>
		<path class="st4" d="M88.7,250.6c-16.5,10.1-27.5,28.4-27.5,49.1c0,15.9,6.5,30.3,16.9,40.8"/>
		<path class="st4" d="M99.7,244.3c-16.5,10.1-27.5,28.4-27.5,49.1c0,15.9,6.5,30.3,16.9,40.8"/>
		<path class="st4" d="M110.7,238.1c-16.5,10.1-27.5,28.4-27.5,49.1c0,15.9,6.5,30.3,16.9,40.8"/>
		<path class="st4" d="M121.6,231.8C105.2,242,94.2,260.2,94.2,281c0,15.9,6.5,30.3,16.9,40.8"/>
	</g>
</g>
<g>
	<defs>
		<path id="SVGID_5_" d="M353,898v279.6c0,31.8-25.8,57.7-57.7,57.7s-57.7-25.8-57.7-57.7V1067c0-31.8-25.8-57.7-57.7-57.7
			c-11.7,0-22.6,3.5-31.7,9.5L353,898z"/>
	</defs>
	<clipPath id="SVGID_6_">
		<use xlink:href="#SVGID_5_"  style="overflow:visible;"/>
	</clipPath>
	<g class="st10">
		<g>
			<path class="st4" d="M426.3,940.4"/>
			<path class="st4" d="M515.7,1115.3c-8.7,5.3-18.9,8.3-29.8,8.3c-31.8,0-57.7-25.8-57.7-57.7V955.3c0-31.8-25.8-57.7-57.7-57.7
				c-7.9,0-15.4,1.6-22.3,4.5c-1.4,0.6-2.8,1.2-4.1,1.9"/>
			<path class="st4" d="M398.9,747.1c17.5-9.9,29.4-28.7,29.4-50.3v-70.6c0-22.4,12.8-41.9,31.5-51.4"/>
		</g>
		<g>
			<path class="st4" d="M414.8,947.1"/>
			<path class="st4" d="M504.2,1122c-8.7,5.3-18.9,8.3-29.8,8.3c-31.8,0-57.7-25.8-57.7-57.7V962c0-31.8-25.8-57.7-57.7-57.7
				c-7.9,0-15.4,1.6-22.3,4.5c-1.4,0.6-2.8,1.2-4.1,1.9"/>
			<path class="st4" d="M387.4,753.8c17.5-9.9,29.4-28.7,29.4-50.3V633c0-22.4,12.8-41.9,31.5-51.4"/>
		</g>
		<g>
			<path class="st4" d="M403.3,953.8"/>
			<path class="st4" d="M492.7,1128.7c-8.7,5.3-18.9,8.3-29.8,8.3c-31.8,0-57.7-25.8-57.7-57.7V968.8c0-31.8-25.8-57.7-57.7-57.7
				c-7.9,0-15.4,1.6-22.3,4.5c-1.4,0.6-2.8,1.2-4.1,1.9"/>
			<path class="st4" d="M375.9,760.6c17.5-9.9,29.4-28.7,29.4-50.3v-70.6c0-22.4,12.8-41.9,31.5-51.4"/>
		</g>
		<g>
			<path class="st4" d="M391.8,960.6"/>
			<path class="st4" d="M481.2,1135.5c-8.7,5.3-18.9,8.3-29.8,8.3c-31.8,0-57.7-25.8-57.7-57.7V975.5c0-31.8-25.8-57.7-57.7-57.7
				c-7.9,0-15.4,1.6-22.3,4.5c-1.4,0.6-2.8,1.2-4.1,1.9"/>
			<path class="st4" d="M364.3,767.3c17.5-9.9,29.4-28.7,29.4-50.3v-70.6c0-22.4,12.8-41.9,31.5-51.4"/>
		</g>
		<g>
			<path class="st4" d="M380.2,967.3"/>
			<path class="st4" d="M469.6,1142.2c-8.7,5.3-18.9,8.3-29.8,8.3c-31.8,0-57.7-25.8-57.7-57.7V982.3c0-31.8-25.8-57.7-57.7-57.7
				c-7.9,0-15.4,1.6-22.3,4.5c-1.4,0.6-2.8,1.2-4.1,1.9"/>
			<path class="st4" d="M352.8,774.1c17.5-9.9,29.4-28.7,29.4-50.3v-70.6c0-22.4,12.8-41.9,31.5-51.4"/>
		</g>
		<g>
			<path class="st4" d="M368.7,974.1"/>
			<path class="st4" d="M458.1,1149c-8.7,5.3-18.9,8.3-29.8,8.3c-31.8,0-57.7-25.8-57.7-57.7V989c0-31.8-25.8-57.7-57.7-57.7
				c-7.9,0-15.4,1.6-22.3,4.5c-1.4,0.6-2.8,1.2-4.1,1.9"/>
			<path class="st4" d="M341.3,780.8c17.5-9.9,29.4-28.7,29.4-50.3v-70.6c0-22.4,12.8-41.9,31.5-51.4"/>
		</g>
		<g>
			<path class="st4" d="M357.2,980.8"/>
			<path class="st4" d="M446.6,1155.7c-8.7,5.3-18.9,8.3-29.8,8.3c-31.8,0-57.7-25.8-57.7-57.7V995.7c0-31.8-25.8-57.7-57.7-57.7
				c-7.9,0-15.4,1.6-22.3,4.5c-1.4,0.6-2.8,1.2-4.1,1.9"/>
			<path class="st4" d="M329.7,787.5c17.5-9.9,29.4-28.7,29.4-50.3v-70.6c0-22.4,12.8-41.9,31.5-51.4"/>
		</g>
		<g>
			<path class="st4" d="M345.6,987.5"/>
			<path class="st4" d="M435,1162.4c-8.7,5.3-18.9,8.3-29.8,8.3c-31.8,0-57.7-25.8-57.7-57.7v-110.6c0-31.8-25.8-57.7-57.7-57.7
				c-7.9,0-15.4,1.6-22.3,4.5c-1.4,0.6-2.8,1.2-4.1,1.9"/>
			<path class="st4" d="M318.2,794.3c17.5-9.9,29.4-28.7,29.4-50.3v-70.6c0-22.4,12.8-41.9,31.5-51.4"/>
		</g>
		<g>
			<path class="st4" d="M334.1,994.3"/>
			<path class="st4" d="M423.5,1169.2c-8.7,5.3-18.9,8.3-29.8,8.3c-31.8,0-57.7-25.8-57.7-57.7v-110.6c0-31.8-25.8-57.7-57.7-57.7
				c-7.9,0-15.4,1.6-22.3,4.5c-1.4,0.6-2.8,1.2-4.1,1.9"/>
			<path class="st4" d="M306.7,801c17.5-9.9,29.4-28.7,29.4-50.3v-70.6c0-22.4,12.8-41.9,31.5-51.4"/>
		</g>
		<g>
			<path class="st4" d="M322.6,1001"/>
			<path class="st4" d="M412,1175.9c-8.7,5.3-18.9,8.3-29.8,8.3c-31.8,0-57.7-25.8-57.7-57.7V1016c0-31.8-25.8-57.7-57.7-57.7
				c-7.9,0-15.4,1.6-22.3,4.5c-1.4,0.6-2.8,1.2-4.1,1.9"/>
			<path class="st4" d="M295.2,807.8c17.5-9.9,29.4-28.7,29.4-50.3v-70.6c0-22.4,12.8-41.9,31.5-51.4"/>
		</g>
		<g>
			<path class="st4" d="M311.1,1007.8"/>
			<path class="st4" d="M400.5,1182.7c-8.7,5.3-18.9,8.3-29.8,8.3c-31.8,0-57.7-25.8-57.7-57.7v-110.6c0-31.8-25.8-57.7-57.7-57.7
				c-7.9,0-15.4,1.6-22.3,4.5c-1.4,0.6-2.8,1.2-4.1,1.9"/>
			<path class="st4" d="M283.6,814.5c17.5-9.9,29.4-28.7,29.4-50.3v-70.6c0-22.4,12.8-41.9,31.5-51.4"/>
		</g>
		<g>
			<path class="st4" d="M299.5,1014.5"/>
			<path class="st4" d="M388.9,1189.4c-8.7,5.3-18.9,8.3-29.8,8.3c-31.8,0-57.7-25.8-57.7-57.7v-110.6c0-31.8-25.8-57.7-57.7-57.7
				c-7.9,0-15.4,1.6-22.3,4.5c-1.4,0.6-2.8,1.2-4.1,1.9"/>
			<path class="st4" d="M272.1,821.2c17.5-9.9,29.4-28.7,29.4-50.3v-70.6c0-22.4,12.8-41.9,31.5-51.4"/>
		</g>
		<g>
			<path class="st4" d="M288,1021.2"/>
			<path class="st4" d="M377.4,1196.1c-8.7,5.3-18.9,8.3-29.8,8.3c-31.8,0-57.7-25.8-57.7-57.7v-110.6c0-31.8-25.8-57.7-57.7-57.7
				c-7.9,0-15.4,1.6-22.3,4.5c-1.4,0.6-2.8,1.2-4.1,1.9"/>
			<path class="st4" d="M260.6,828c17.5-9.9,29.4-28.7,29.4-50.3v-70.6c0-22.4,12.8-41.9,31.5-51.4"/>
		</g>
		<g>
			<path class="st4" d="M276.5,1028"/>
			<path class="st4" d="M365.9,1202.9c-8.7,5.3-18.9,8.3-29.8,8.3c-31.8,0-57.7-25.8-57.7-57.7v-110.6c0-31.8-25.8-57.7-57.7-57.7
				c-7.9,0-15.4,1.6-22.3,4.5c-1.4,0.6-2.8,1.2-4.1,1.9"/>
			<path class="st4" d="M249.1,834.7c17.5-9.9,29.4-28.7,29.4-50.3v-70.6c0-22.4,12.8-41.9,31.5-51.4"/>
		</g>
		<g>
			<path class="st4" d="M265,1034.7"/>
			<path class="st4" d="M354.4,1209.6c-8.7,5.3-18.9,8.3-29.8,8.3c-31.8,0-57.7-25.8-57.7-57.7v-110.6c0-31.8-25.8-57.7-57.7-57.7
				c-7.9,0-15.4,1.6-22.3,4.5c-1.4,0.6-2.8,1.2-4.1,1.9"/>
			<path class="st4" d="M237.5,841.5c17.5-9.9,29.4-28.7,29.4-50.3v-70.6c0-22.4,12.8-41.9,31.5-51.4"/>
		</g>
		<g>
			<path class="st4" d="M253.4,1041.5"/>
			<path class="st4" d="M342.8,1216.4c-8.7,5.3-18.9,8.3-29.8,8.3c-31.8,0-57.7-25.8-57.7-57.7v-110.6c0-31.8-25.8-57.7-57.7-57.7
				c-7.9,0-15.4,1.6-22.3,4.5c-1.4,0.6-2.8,1.2-4.1,1.9"/>
			<path class="st4" d="M226,848.2c17.5-9.9,29.4-28.7,29.4-50.3v-70.6c0-22.4,12.8-41.9,31.5-51.4"/>
		</g>
		<g>
			<path class="st4" d="M241.9,1048.2"/>
			<path class="st4" d="M331.3,1223.1c-8.7,5.3-18.9,8.3-29.8,8.3c-31.8,0-57.7-25.8-57.7-57.7v-110.6c0-31.8-25.8-57.7-57.7-57.7
				c-7.9,0-15.4,1.6-22.3,4.5c-1.4,0.6-2.8,1.2-4.1,1.9"/>
			<path class="st4" d="M214.5,854.9c17.5-9.9,29.4-28.7,29.4-50.3v-70.6c0-22.4,12.8-41.9,31.5-51.4"/>
		</g>
		<g>
			<path class="st4" d="M230.4,1054.9"/>
			<path class="st4" d="M319.8,1229.8c-8.7,5.3-18.9,8.3-29.8,8.3c-31.8,0-57.7-25.8-57.7-57.7v-110.6c0-31.8-25.8-57.7-57.7-57.7
				c-7.9,0-15.4,1.6-22.3,4.5c-1.4,0.6-2.8,1.2-4.1,1.9"/>
			<path class="st4" d="M202.9,861.7c17.5-9.9,29.4-28.7,29.4-50.3v-70.6c0-22.4,12.8-41.9,31.5-51.4"/>
		</g>
	</g>
</g>
<g>
	<defs>
		<path id="SVGID_7_" d="M200.2,861.6c21.6-8.3,37-29.3,37-53.8v-70.6c0-31.8,25.8-57.7,57.7-57.7s57.7,25.8,57.7,57.7v38.6
			C352.5,775.8,193.8,864.1,200.2,861.6z"/>
	</defs>
	<clipPath id="SVGID_8_">
		<use xlink:href="#SVGID_7_"  style="overflow:visible;"/>
	</clipPath>
	<g class="st11">
		<g>
			<path class="st4" d="M403.9,745.8c17.5-9.9,29.4-28.7,29.4-50.3v-70.6c0-22.4,12.8-41.9,31.5-51.4"/>
		</g>
		<path class="st4" d="M392.3,752.5c17.5-9.9,29.4-28.7,29.4-50.3v-70.6c0-22.4,12.8-41.9,31.5-51.4"/>
		<path class="st4" d="M380.8,759.2c17.5-9.9,29.4-28.7,29.4-50.3v-70.6c0-22.4,12.8-41.9,31.5-51.4"/>
		<path class="st4" d="M369.3,766c17.5-9.9,29.4-28.7,29.4-50.3v-70.6c0-22.4,12.8-41.9,31.5-51.4"/>
		<path class="st4" d="M357.8,772.7c17.5-9.9,29.4-28.7,29.4-50.3v-70.6c0-22.4,12.8-41.9,31.5-51.4"/>
		<path class="st4" d="M346.2,779.5c17.5-9.9,29.4-28.7,29.4-50.3v-70.6c0-22.4,12.8-41.9,31.5-51.4"/>
		<path class="st4" d="M334.7,786.2c17.5-9.9,29.4-28.7,29.4-50.3v-70.6c0-22.4,12.8-41.9,31.5-51.4"/>
		<path class="st4" d="M323.2,792.9c17.5-9.9,29.4-28.7,29.4-50.3v-70.6c0-22.4,12.8-41.9,31.5-51.4"/>
		<path class="st4" d="M311.7,799.7c17.5-9.9,29.4-28.7,29.4-50.3v-70.6c0-22.4,12.8-41.9,31.5-51.4"/>
		<path class="st4" d="M300.1,806.4c17.5-9.9,29.4-28.7,29.4-50.3v-70.6c0-22.4,12.8-41.9,31.5-51.4"/>
		<path class="st4" d="M288.6,813.2c17.5-9.9,29.4-28.7,29.4-50.3v-70.6c0-22.4,12.8-41.9,31.5-51.4"/>
		<path class="st4" d="M277.1,819.9c17.5-9.9,29.4-28.7,29.4-50.3V699c0-22.4,12.8-41.9,31.5-51.4"/>
		<path class="st4" d="M265.5,826.6c17.5-9.9,29.4-28.7,29.4-50.3v-70.6c0-22.4,12.8-41.9,31.5-51.4"/>
		<path class="st4" d="M254,833.4c17.5-9.9,29.4-28.7,29.4-50.3v-70.6c0-22.4,12.8-41.9,31.5-51.4"/>
		<path class="st4" d="M242.5,840.1c17.5-9.9,29.4-28.7,29.4-50.3v-70.6c0-22.4,12.8-41.9,31.5-51.4"/>
		<path class="st4" d="M231,846.9c17.5-9.9,29.4-28.7,29.4-50.3V726c0-22.4,12.8-41.9,31.5-51.4"/>
		<path class="st4" d="M219.4,853.6c17.5-9.9,29.4-28.7,29.4-50.3v-70.6c0-22.4,12.8-41.9,31.5-51.4"/>
		<g>
			<path class="st4" d="M207.9,860.3c17.5-9.9,29.4-28.7,29.4-50.3v-70.6c0-22.4,12.8-41.9,31.5-51.4"/>
		</g>
	</g>
</g>
</svg>
