<?xml version="1.0" encoding="utf-8"?>
<!-- Generator: Adobe Illustrator 22.1.0, SVG Export Plug-In . SVG Version: 6.00 Build 0)  -->
<svg version="1.1" id="Layer_1" xmlns="http://www.w3.org/2000/svg" xmlns:xlink="http://www.w3.org/1999/xlink" x="0px" y="0px"
	 viewBox="0 0 292.2 201.9" style="enable-background:new 0 0 292.2 201.9;" xml:space="preserve">
<style type="text/css">
	.st0{fill:#EEEEEE;}
</style>
<g>
	<path class="st0" d="M292.2,30.6C292.1,11.4,280.6,0,261.5,0H30.7C11.5,0,0.1,11.4,0.1,30.5C0,77.3,0,124.9,0.1,171.7
		c0.1,18.6,11.8,30.2,30.4,30.2h231.4c19,0,30.3-11.3,30.3-30.2C292.3,124.9,292.3,77.4,292.2,30.6z M271.1,30.2
		c0.1,46.8,0.1,94.3,0,141.1c0,7.3-2.1,9.3-10,9.3H31c-8.1,0-10-1.8-10-9.8V31.6c0-8.4,1.9-10.3,10.4-10.3h230.7
		C269,21.3,271.1,23.4,271.1,30.2z"/>
	<path class="st0" d="M243.9,118c-0.6-3.4-3.9-5.8-6.5-7.8l-0.8-0.6c-0.9-0.6-1.9-0.9-3.3-0.9c-0.6,0-1.2,0.1-1.8,0.1
		c-0.5,0-0.9,0.1-1.2,0.1h-172c-0.3,0-0.8,0-1.2-0.1c-0.6-0.1-1.2-0.1-1.8-0.1c-1.4,0-2.4,0.3-3.3,0.9l-0.6,0.5
		c-2.9,2.1-6.6,4.7-6.7,8.2c-0.1,3.6,3.3,6.8,6.7,9.4l0.1,0.1c1.4,1,3,1.1,4.3,1.1c0.6,0,1.2,0,1.8-0.1c0.5,0,0.9-0.1,1.4-0.1h170.7
		c0.4,0,0.9,0,1.4,0c0.6,0,1.2,0.1,1.7,0.1c1.5,0,3.3-0.1,4.9-1.3C238.6,126.9,244.6,122.5,243.9,118L243.9,118z"/>
	<path class="st0" d="M55.3,96.6c2.5,0,5,0,7.5,0c2.2,0,4.4,0,6.6,0c2.2,0,4.4,0,6.6,0c4.8,0,8.6,0,12.1,0.1h0.3
		c6.8,0,10.8-3.9,10.9-10.6c0.2-11.2,0.2-22.5,0-33.5c-0.2-9.6-6.6-10.8-11.5-10.8c-1.8,0-3.6,0-5.4,0s-3.6,0-5.4,0s-3.6,0-5.3,0
		c-1.9,0-3.8,0-5.7,0c-1.8,0-3.7,0-5.5,0c-2,0-3.8,0-5.5-0.1h-0.3c-6.8,0-10.6,4-10.6,10.9C44,63.5,44,74.5,44,85.5
		C44.2,92.7,47.9,96.5,55.3,96.6z M66.9,61.4c1.7,0,3.4,0,5.1,0c2.7,0,5,0,7,0.1c0.2,0.2,0.4,0.4,0.5,0.6c0.1,4.1,0.1,8.2,0.1,12.5
		c0,0.6,0,1.3,0,1.9H64.4V61.4C65.2,61.4,66,61.4,66.9,61.4z"/>
	<path class="st0" d="M116.9,140.6c-6.9,0-13.7,0-20.6,0s-13.8,0-20.6,0c-6.9,0-13.8,0-20.7,0c-6.7,0-10.8,3.7-10.8,9.8
		c0,4.1,1.7,6.4,3.2,7.6c1.8,1.5,4.4,2.3,7.6,2.3h0.4c4.4-0.1,9.2-0.1,15.4-0.1c2.6,0,5.2,0,7.7,0c2.6,0,5.2,0,7.8,0
		c2.5,0,5,0,7.5,0s5.1,0,7.6,0c6.1,0,10.8,0,15.1,0.1h0.4c6.5,0,10.3-3.5,10.4-9.5c0.1-3.8-1.4-6-2.6-7.2
		C123,141.6,120.2,140.6,116.9,140.6z"/>
	<path class="st0" d="M234.1,41.8h-17.3c-5.7,0-11.5,0-17.3-0.1c-6.2,0-10,3.5-10.2,9.5c-0.1,2.8,0.7,5.3,2.4,7.1s4.1,2.8,6.9,2.9
		c6.3,0.1,13,0.2,19.8,0.2c5.2,0,10.6,0,16.1-0.1c3-0.1,5.5-1.1,7.2-3s2.6-4.5,2.4-7.4C243.7,45.3,239.9,41.8,234.1,41.8z"/>
	<path class="st0" d="M178.1,140.7c-5.3-0.1-10.8-0.1-16.1-0.1s-10.8,0-16.1,0.1c-3,0.1-5.6,1.1-7.4,3c-1.7,1.8-2.6,4.3-2.4,7.2
		c0.2,5.7,4.2,9.3,10.4,9.3H162c1.7,0,3.5,0,5.2,0s3.4,0,5.1,0c1.7,0,3.4,0,5,0h0.1c6.2,0,9.9-3.6,10-9.6
		C187.6,144.8,183.8,140.9,178.1,140.7z"/>
</g>
</svg>
