<?xml version="1.0" encoding="utf-8"?>
<!-- Generator: Adobe Illustrator 22.1.0, SVG Export Plug-In . SVG Version: 6.00 Build 0)  -->
<svg version="1.1" id="Layer_1" xmlns="http://www.w3.org/2000/svg" xmlns:xlink="http://www.w3.org/1999/xlink" x="0px" y="0px"
	 viewBox="0 0 64.7 61.7" style="enable-background:new 0 0 64.7 61.7;" xml:space="preserve">
<style type="text/css">
	.st0{fill:none;stroke:#3C70BA;stroke-width:2.7;stroke-miterlimit:10;}
	.st1{clip-path:url(#SVGID_2_);}
	.st2{fill:none;stroke:#3C70BA;stroke-miterlimit:10;}
	.st3{clip-path:url(#SVGID_4_);}
	.st4{clip-path:url(#SVGID_6_);}
	.st5{clip-path:url(#SVGID_8_);}
	.st6{clip-path:url(#SVGID_10_);}
</style>
<path class="st0" d="M32.6,47.4l18.5,12.8c0.3,0.2,0.6-0.1,0.5-0.4L45,38.2c0-0.1,0-0.3,0.1-0.4l18-13.6c0.3-0.2,0.1-0.6-0.2-0.6
	l-22.5-0.5c-0.1,0-0.3-0.1-0.3-0.2L32.7,1.7c-0.1-0.3-0.5-0.3-0.6,0L24.6,23c0,0.1-0.2,0.2-0.3,0.2L1.8,23.7c-0.3,0-0.4,0.4-0.2,0.6
	l18,13.6c0.1,0.1,0.2,0.2,0.1,0.4l-6.6,21.6c-0.1,0.3,0.2,0.6,0.5,0.4l18.5-12.8C32.3,47.3,32.4,47.3,32.6,47.4z"/>
<g>
	<defs>
		<path id="SVGID_1_" d="M32.3,34l18.5,25.4L32.3,47.7L32.3,34"/>
	</defs>
	<clipPath id="SVGID_2_">
		<use xlink:href="#SVGID_1_"  style="overflow:visible;"/>
	</clipPath>
	<g class="st1">
		<line class="st2" x1="0" y1="0" x2="63.2" y2="0"/>
		<line class="st2" x1="0" y1="2.8" x2="63.2" y2="2.8"/>
		<line class="st2" x1="0" y1="5.6" x2="63.2" y2="5.6"/>
		<line class="st2" x1="0" y1="8.4" x2="63.2" y2="8.4"/>
		<line class="st2" x1="0" y1="11.2" x2="63.2" y2="11.2"/>
		<line class="st2" x1="0" y1="14" x2="63.2" y2="14"/>
		<line class="st2" x1="0" y1="16.8" x2="63.2" y2="16.8"/>
		<line class="st2" x1="0" y1="19.6" x2="63.2" y2="19.6"/>
		<line class="st2" x1="0" y1="22.4" x2="63.2" y2="22.4"/>
		<line class="st2" x1="0" y1="25.3" x2="63.2" y2="25.3"/>
		<line class="st2" x1="0" y1="28.1" x2="63.2" y2="28.1"/>
		<line class="st2" x1="0" y1="30.9" x2="63.2" y2="30.9"/>
		<line class="st2" x1="0" y1="33.7" x2="63.2" y2="33.7"/>
		<line class="st2" x1="0" y1="36.5" x2="63.2" y2="36.5"/>
		<line class="st2" x1="0" y1="39.3" x2="63.2" y2="39.3"/>
		<line class="st2" x1="0" y1="42.1" x2="63.2" y2="42.1"/>
		<line class="st2" x1="0" y1="44.9" x2="63.2" y2="44.9"/>
		<line class="st2" x1="0" y1="47.7" x2="63.2" y2="47.7"/>
		<line class="st2" x1="0" y1="50.5" x2="63.2" y2="50.5"/>
		<line class="st2" x1="0" y1="53.3" x2="63.2" y2="53.3"/>
		<line class="st2" x1="0" y1="56.1" x2="63.2" y2="56.1"/>
		<line class="st2" x1="0" y1="58.9" x2="63.2" y2="58.9"/>
		<line class="st2" x1="0" y1="61.7" x2="63.2" y2="61.7"/>
	</g>
</g>
<g>
	<defs>
		<path id="SVGID_3_" d="M32.3,34l29.8-9.7L45.4,38.2L32.3,34"/>
	</defs>
	<clipPath id="SVGID_4_">
		<use xlink:href="#SVGID_3_"  style="overflow:visible;"/>
	</clipPath>
	<g class="st3">
		<line class="st2" x1="-10" y1="54.2" x2="9.5" y2="-5.9"/>
		<line class="st2" x1="-7.4" y1="55.1" x2="12.2" y2="-5.1"/>
		<line class="st2" x1="-4.7" y1="55.9" x2="14.9" y2="-4.2"/>
		<line class="st2" x1="-2" y1="56.8" x2="17.5" y2="-3.3"/>
		<line class="st2" x1="0.7" y1="57.7" x2="20.2" y2="-2.5"/>
		<line class="st2" x1="3.3" y1="58.5" x2="22.9" y2="-1.6"/>
		<line class="st2" x1="6" y1="59.4" x2="25.5" y2="-0.7"/>
		<line class="st2" x1="8.7" y1="60.3" x2="28.2" y2="0.1"/>
		<line class="st2" x1="11.3" y1="61.1" x2="30.9" y2="1"/>
		<line class="st2" x1="14" y1="62" x2="33.5" y2="1.9"/>
		<line class="st2" x1="16.7" y1="62.9" x2="36.2" y2="2.7"/>
		<line class="st2" x1="19.3" y1="63.7" x2="38.9" y2="3.6"/>
		<line class="st2" x1="22" y1="64.6" x2="41.5" y2="4.5"/>
		<line class="st2" x1="24.7" y1="65.5" x2="44.2" y2="5.3"/>
		<line class="st2" x1="27.3" y1="66.3" x2="46.9" y2="6.2"/>
		<line class="st2" x1="30" y1="67.2" x2="49.6" y2="7.1"/>
		<line class="st2" x1="32.7" y1="68.1" x2="52.2" y2="7.9"/>
		<line class="st2" x1="35.3" y1="68.9" x2="54.9" y2="8.8"/>
		<line class="st2" x1="38" y1="69.8" x2="57.6" y2="9.7"/>
		<line class="st2" x1="40.7" y1="70.7" x2="60.2" y2="10.5"/>
		<line class="st2" x1="43.4" y1="71.6" x2="62.9" y2="11.4"/>
		<line class="st2" x1="46" y1="72.4" x2="65.6" y2="12.3"/>
		<line class="st2" x1="48.7" y1="73.3" x2="68.2" y2="13.1"/>
	</g>
</g>
<g>
	<defs>
		<path id="SVGID_5_" d="M32.3,34l0-31.4l8.1,20.3L32.3,34"/>
	</defs>
	<clipPath id="SVGID_6_">
		<use xlink:href="#SVGID_5_"  style="overflow:visible;"/>
	</clipPath>
	<g class="st4">
		<line class="st2" x1="38.4" y1="80.5" x2="-12.7" y2="43.3"/>
		<line class="st2" x1="40.1" y1="78.2" x2="-11.1" y2="41.1"/>
		<line class="st2" x1="41.7" y1="76" x2="-9.4" y2="38.8"/>
		<line class="st2" x1="43.4" y1="73.7" x2="-7.8" y2="36.5"/>
		<line class="st2" x1="45" y1="71.4" x2="-6.1" y2="34.2"/>
		<line class="st2" x1="46.7" y1="69.1" x2="-4.5" y2="32"/>
		<line class="st2" x1="48.3" y1="66.9" x2="-2.8" y2="29.7"/>
		<line class="st2" x1="50" y1="64.6" x2="-1.2" y2="27.4"/>
		<line class="st2" x1="51.6" y1="62.3" x2="0.5" y2="25.2"/>
		<line class="st2" x1="53.3" y1="60.1" x2="2.1" y2="22.9"/>
		<line class="st2" x1="54.9" y1="57.8" x2="3.8" y2="20.6"/>
		<line class="st2" x1="56.6" y1="55.5" x2="5.4" y2="18.3"/>
		<line class="st2" x1="58.2" y1="53.2" x2="7.1" y2="16.1"/>
		<line class="st2" x1="59.9" y1="51" x2="8.7" y2="13.8"/>
		<line class="st2" x1="61.5" y1="48.7" x2="10.4" y2="11.5"/>
		<line class="st2" x1="63.2" y1="46.4" x2="12" y2="9.3"/>
		<line class="st2" x1="64.8" y1="44.2" x2="13.7" y2="7"/>
		<line class="st2" x1="66.5" y1="41.9" x2="15.3" y2="4.7"/>
		<line class="st2" x1="68.1" y1="39.6" x2="17" y2="2.5"/>
		<line class="st2" x1="69.8" y1="37.4" x2="18.6" y2="0.2"/>
		<line class="st2" x1="71.4" y1="35.1" x2="20.3" y2="-2.1"/>
		<line class="st2" x1="73.1" y1="32.8" x2="21.9" y2="-4.4"/>
		<line class="st2" x1="74.7" y1="30.5" x2="23.6" y2="-6.6"/>
	</g>
</g>
<g>
	<defs>
		<path id="SVGID_7_" d="M32.3,34L2.4,24.3l21.8-1.4L32.3,34"/>
	</defs>
	<clipPath id="SVGID_8_">
		<use xlink:href="#SVGID_7_"  style="overflow:visible;"/>
	</clipPath>
	<g class="st5">
		<line class="st2" x1="78.4" y1="42.5" x2="27.2" y2="79.7"/>
		<line class="st2" x1="76.8" y1="40.3" x2="25.6" y2="77.4"/>
		<line class="st2" x1="75.1" y1="38" x2="23.9" y2="75.2"/>
		<line class="st2" x1="73.5" y1="35.7" x2="22.3" y2="72.9"/>
		<line class="st2" x1="71.8" y1="33.4" x2="20.6" y2="70.6"/>
		<line class="st2" x1="70.2" y1="31.2" x2="19" y2="68.3"/>
		<line class="st2" x1="68.5" y1="28.9" x2="17.3" y2="66.1"/>
		<line class="st2" x1="66.9" y1="26.6" x2="15.7" y2="63.8"/>
		<line class="st2" x1="65.2" y1="24.4" x2="14" y2="61.5"/>
		<line class="st2" x1="63.6" y1="22.1" x2="12.4" y2="59.3"/>
		<line class="st2" x1="61.9" y1="19.8" x2="10.8" y2="57"/>
		<line class="st2" x1="60.3" y1="17.6" x2="9.1" y2="54.7"/>
		<line class="st2" x1="58.6" y1="15.3" x2="7.5" y2="52.5"/>
		<line class="st2" x1="57" y1="13" x2="5.8" y2="50.2"/>
		<line class="st2" x1="55.3" y1="10.7" x2="4.2" y2="47.9"/>
		<line class="st2" x1="53.7" y1="8.5" x2="2.5" y2="45.6"/>
		<line class="st2" x1="52" y1="6.2" x2="0.9" y2="43.4"/>
		<line class="st2" x1="50.4" y1="3.9" x2="-0.8" y2="41.1"/>
		<line class="st2" x1="48.7" y1="1.7" x2="-2.4" y2="38.8"/>
		<line class="st2" x1="47.1" y1="-0.6" x2="-4.1" y2="36.6"/>
		<line class="st2" x1="45.4" y1="-2.9" x2="-5.7" y2="34.3"/>
		<line class="st2" x1="43.8" y1="-5.1" x2="-7.4" y2="32"/>
		<line class="st2" x1="42.1" y1="-7.4" x2="-9" y2="29.8"/>
	</g>
</g>
<g>
	<defs>
		<path id="SVGID_9_" d="M32.3,34L13.9,59.4l5.4-21.1L32.3,34"/>
	</defs>
	<clipPath id="SVGID_10_">
		<use xlink:href="#SVGID_9_"  style="overflow:visible;"/>
	</clipPath>
	<g class="st6">
		<line class="st2" x1="54.7" y1="-7.2" x2="74.2" y2="52.9"/>
		<line class="st2" x1="52" y1="-6.4" x2="71.5" y2="53.8"/>
		<line class="st2" x1="49.3" y1="-5.5" x2="68.9" y2="54.7"/>
		<line class="st2" x1="46.6" y1="-4.6" x2="66.2" y2="55.5"/>
		<line class="st2" x1="44" y1="-3.7" x2="63.5" y2="56.4"/>
		<line class="st2" x1="41.3" y1="-2.9" x2="60.8" y2="57.3"/>
		<line class="st2" x1="38.6" y1="-2" x2="58.2" y2="58.1"/>
		<line class="st2" x1="36" y1="-1.1" x2="55.5" y2="59"/>
		<line class="st2" x1="33.3" y1="-0.3" x2="52.8" y2="59.9"/>
		<line class="st2" x1="30.6" y1="0.6" x2="50.2" y2="60.7"/>
		<line class="st2" x1="28" y1="1.5" x2="47.5" y2="61.6"/>
		<line class="st2" x1="25.3" y1="2.3" x2="44.8" y2="62.5"/>
		<line class="st2" x1="22.6" y1="3.2" x2="42.2" y2="63.3"/>
		<line class="st2" x1="20" y1="4.1" x2="39.5" y2="64.2"/>
		<line class="st2" x1="17.3" y1="4.9" x2="36.8" y2="65.1"/>
		<line class="st2" x1="14.6" y1="5.8" x2="34.2" y2="65.9"/>
		<line class="st2" x1="11.9" y1="6.7" x2="31.5" y2="66.8"/>
		<line class="st2" x1="9.3" y1="7.5" x2="28.8" y2="67.7"/>
		<line class="st2" x1="6.6" y1="8.4" x2="26.2" y2="68.5"/>
		<line class="st2" x1="3.9" y1="9.3" x2="23.5" y2="69.4"/>
		<line class="st2" x1="1.3" y1="10.1" x2="20.8" y2="70.3"/>
		<line class="st2" x1="-1.4" y1="11" x2="18.1" y2="71.1"/>
		<line class="st2" x1="-4.1" y1="11.9" x2="15.5" y2="72"/>
	</g>
</g>
</svg>
