<?xml version="1.0" encoding="utf-8"?>
<!-- Generator: Adobe Illustrator 22.1.0, SVG Export Plug-In . SVG Version: 6.00 Build 0)  -->
<svg version="1.1" id="Layer_1" xmlns="http://www.w3.org/2000/svg" xmlns:xlink="http://www.w3.org/1999/xlink" x="0px" y="0px"
	 viewBox="0 0 99 91.8" style="enable-background:new 0 0 99 91.8;" xml:space="preserve">
<style type="text/css">
	.st0{fill:none;stroke:#3C70BA;stroke-width:4;stroke-miterlimit:10;}
	.st1{clip-path:url(#SVGID_2_);}
	.st2{fill:none;stroke:#3C70BA;stroke-miterlimit:10;}
	.st3{clip-path:url(#SVGID_4_);}
	.st4{clip-path:url(#SVGID_6_);}
</style>
<path class="st0" d="M96.9,50.2c-2.6-6.2-8.6-10.6-15.7-10.6c-7.1,0-13,4.4-15.6,10.6h-0.2c-2.6-6.2-8.7-10.6-15.8-10.6
	S36.3,44,33.7,50.2h-0.1C31.1,44,25,39.6,17.8,39.6c-7.1,0-13,4.4-15.6,10.6l-0.2,0c0-0.2,0-0.5,0-0.7C2,23.3,23.3,2,49.5,2
	S97,23.3,97,49.5c0,0.2,0,0.5,0,0.7L96.9,50.2z"/>
<path class="st0" d="M49.5,2c-8.8,0-16,21.3-16,47.5c0,0.2,0,0.5,0,0.7"/>
<path class="st0" d="M65.5,50.2c0-0.2,0-0.5,0-0.7c0-26.2-7.2-47.5-16-47.5"/>
<path class="st0" d="M30.4,80.2c0,5.3,4.3,9.6,9.6,9.6s9.6-4.3,9.6-9.6v-32"/>
<g>
	<defs>
		<path id="SVGID_1_" d="M44.1,2.3c0,0-25.1,11.6-30.5,37.5c0,0-8.4-0.5-10.4,8.4l-0.3-8.1l1.7-6.2l5.6-11.2l12-12.1l11.2-5.8
			L44.1,2.3z"/>
	</defs>
	<clipPath id="SVGID_2_">
		<use xlink:href="#SVGID_1_"  style="overflow:visible;"/>
	</clipPath>
	<g class="st1">
		<line class="st2" x1="37.5" y1="-23.4" x2="-0.8" y2="14.9"/>
		<line class="st2" x1="37.4" y1="-19.3" x2="-1.9" y2="20"/>
		<line class="st2" x1="37.4" y1="-15.3" x2="-3.1" y2="25.1"/>
		<line class="st2" x1="37.3" y1="-11.3" x2="-4.3" y2="30.3"/>
		<line class="st2" x1="37.3" y1="-7.3" x2="-5.4" y2="35.4"/>
		<line class="st2" x1="37.2" y1="-3.3" x2="-6.6" y2="40.5"/>
		<line class="st2" x1="37.2" y1="0.7" x2="-7.8" y2="45.7"/>
		<line class="st2" x1="37.1" y1="4.7" x2="-8.9" y2="50.8"/>
		<line class="st2" x1="37.1" y1="8.8" x2="-10.1" y2="55.9"/>
		<line class="st2" x1="37" y1="12.8" x2="-11.3" y2="61.1"/>
		<line class="st2" x1="37" y1="16.8" x2="-12.5" y2="66.2"/>
		<line class="st2" x1="36.9" y1="20.8" x2="-13.6" y2="71.4"/>
		<line class="st2" x1="36.9" y1="24.8" x2="-14.8" y2="76.5"/>
		<line class="st2" x1="36.8" y1="28.8" x2="-16" y2="81.6"/>
	</g>
</g>
<g>
	<defs>
		<path id="SVGID_3_" d="M54.9,2.3c0,0,21.8,13.5,22.2,37.5c0,0-12.5,1.3-10.5,10.2l0.3-8.1L64,29.2L61.8,19L57.5,8.4l-1.8-2.7
			L54.9,2.3z"/>
	</defs>
	<clipPath id="SVGID_4_">
		<use xlink:href="#SVGID_3_"  style="overflow:visible;"/>
	</clipPath>
	<g class="st3">
		<line class="st2" x1="43.5" y1="-23.4" x2="81.8" y2="14.9"/>
		<line class="st2" x1="43.6" y1="-19.3" x2="82.9" y2="20"/>
		<line class="st2" x1="43.6" y1="-15.3" x2="84.1" y2="25.1"/>
		<line class="st2" x1="43.7" y1="-11.3" x2="85.3" y2="30.3"/>
		<line class="st2" x1="43.7" y1="-7.3" x2="86.4" y2="35.4"/>
		<line class="st2" x1="43.8" y1="-3.3" x2="87.6" y2="40.5"/>
		<line class="st2" x1="43.8" y1="0.7" x2="88.8" y2="45.7"/>
		<line class="st2" x1="43.9" y1="4.7" x2="90" y2="50.8"/>
		<line class="st2" x1="43.9" y1="8.8" x2="91.1" y2="55.9"/>
		<line class="st2" x1="44" y1="12.8" x2="92.3" y2="61.1"/>
		<line class="st2" x1="44" y1="16.8" x2="93.5" y2="66.2"/>
		<line class="st2" x1="44.1" y1="20.8" x2="94.6" y2="71.4"/>
		<line class="st2" x1="44.1" y1="24.8" x2="95.8" y2="76.5"/>
		<line class="st2" x1="44.2" y1="28.8" x2="97" y2="81.6"/>
	</g>
</g>
<g>
	<defs>
		<path id="SVGID_5_" d="M49.6,3.8c0,0-6.3,2.1-6.3,36.4c0,0.6-2.9-1.5-8.5,8l-1.2-6.5l2.8-19l4.4-12.8l3.5-5.1
			C44.1,4.8,46.1,3,49.6,3.8z"/>
	</defs>
	<clipPath id="SVGID_6_">
		<use xlink:href="#SVGID_5_"  style="overflow:visible;"/>
	</clipPath>
	<g class="st4">
		<line class="st2" x1="66.7" y1="-24.5" x2="28.5" y2="13.7"/>
		<line class="st2" x1="66.6" y1="-20.5" x2="27.3" y2="18.9"/>
		<line class="st2" x1="66.6" y1="-16.5" x2="26.1" y2="24"/>
		<line class="st2" x1="66.5" y1="-12.5" x2="25" y2="29.1"/>
		<line class="st2" x1="66.5" y1="-8.4" x2="23.8" y2="34.3"/>
		<line class="st2" x1="66.4" y1="-4.4" x2="22.6" y2="39.4"/>
		<line class="st2" x1="66.4" y1="-0.4" x2="21.4" y2="44.5"/>
		<line class="st2" x1="66.3" y1="3.6" x2="20.3" y2="49.7"/>
		<line class="st2" x1="66.3" y1="7.6" x2="19.1" y2="54.8"/>
		<line class="st2" x1="66.2" y1="11.6" x2="17.9" y2="59.9"/>
		<line class="st2" x1="66.2" y1="15.7" x2="16.8" y2="65.1"/>
		<line class="st2" x1="66.1" y1="19.7" x2="15.6" y2="70.2"/>
		<line class="st2" x1="66.1" y1="23.7" x2="14.4" y2="75.4"/>
		<line class="st2" x1="66" y1="27.7" x2="13.3" y2="80.5"/>
	</g>
</g>
</svg>
