<?xml version="1.0" encoding="utf-8"?>
<!-- Generator: Adobe Illustrator 22.1.0, SVG Export Plug-In . SVG Version: 6.00 Build 0)  -->
<svg version="1.1" id="Layer_1" xmlns="http://www.w3.org/2000/svg" xmlns:xlink="http://www.w3.org/1999/xlink" x="0px" y="0px"
	 viewBox="0 0 92.4 108.3" style="enable-background:new 0 0 92.4 108.3;" xml:space="preserve">
<style type="text/css">
	.st0{fill:none;stroke:#3C70BA;stroke-width:4;stroke-miterlimit:10;}
	.st1{fill:none;stroke:#3C70BA;stroke-width:3.6;stroke-miterlimit:10;}
	.st2{clip-path:url(#SVGID_4_);}
	.st3{fill:none;stroke:#3C70BA;stroke-miterlimit:10;}
	.st4{clip-path:url(#SVGID_6_);}
</style>
<polyline class="st0" points="10.2,67.1 10.2,106.3 82.2,106.3 82.2,67.1 "/>
<polyline class="st0" points="91,75.6 46.2,34.8 1.3,75.6 "/>
<path class="st0" d="M53.6,79.6H38.8c-1.9,0-3.5,1.5-3.5,3.5v23.2h21.8V83.1C57.1,81.2,55.5,79.6,53.6,79.6z"/>
<polyline class="st0" points="63.1,50.7 63.1,37.6 76.2,37.6 76.2,61.3 "/>
<path class="st1" d="M80.5,15.9c1.9,0,3.5,1.6,3.5,3.5s-1.6,3.5-3.5,3.5h-7.6c1.9,0,3.5,1.6,3.5,3.5s-1.6,3.5-3.5,3.5h-8.1
	c-1.9,0-3.5-1.6-3.5-3.5s1.6-3.5,3.5-3.5H43.3c-1.9,0-3.5-1.6-3.5-3.5s1.6-3.5,3.5-3.5c-3.8,0-7-3.1-7-7s3.1-7,7-7h24.2
	C69.4,2,71,3.6,71,5.5S69.4,9,67.5,9H54.4c-1.9,0-3.5,1.6-3.5,3.5s1.6,3.5,3.5,3.5"/>
<g>
	<defs>
		<polygon id="SVGID_1_" points="69.3,38 69.3,52.2 64.1,54.2 62.3,58.8 65,64.1 69.3,65.2 69.3,72.5 18.2,72.5 		"/>
	</defs>
	<clipPath id="SVGID_2_">
		<use xlink:href="#SVGID_1_"  style="overflow:visible;"/>
	</clipPath>
</g>
<g>
	<defs>
		<rect id="SVGID_3_" x="35.3" y="80.4" width="21.8" height="26.4"/>
	</defs>
	<clipPath id="SVGID_4_">
		<use xlink:href="#SVGID_3_"  style="overflow:visible;"/>
	</clipPath>
	<g class="st2">
		<g>
			<g>
				<line class="st3" x1="63.9" y1="21.7" x2="18.2" y2="67.3"/>
				<line class="st3" x1="64.8" y1="26" x2="18.6" y2="72.3"/>
				<line class="st3" x1="65.8" y1="30.3" x2="18.9" y2="77.3"/>
				<line class="st3" x1="66.8" y1="34.6" x2="19.2" y2="82.2"/>
				<line class="st3" x1="67.8" y1="38.9" x2="19.5" y2="87.2"/>
				<line class="st3" x1="68.7" y1="43.2" x2="19.8" y2="92.1"/>
				<line class="st3" x1="69.7" y1="47.5" x2="20.2" y2="97.1"/>
				<line class="st3" x1="70.7" y1="51.8" x2="20.5" y2="102.1"/>
				<line class="st3" x1="71.7" y1="56.2" x2="20.8" y2="107"/>
				<line class="st3" x1="72.7" y1="60.5" x2="21.1" y2="112"/>
				<line class="st3" x1="73.6" y1="64.8" x2="21.4" y2="117"/>
				<line class="st3" x1="74.6" y1="69.1" x2="21.8" y2="121.9"/>
				<line class="st3" x1="75.6" y1="73.4" x2="22.1" y2="126.9"/>
				<line class="st3" x1="76.6" y1="77.7" x2="22.4" y2="131.8"/>
				<line class="st3" x1="77.5" y1="82" x2="22.7" y2="136.8"/>
				<line class="st3" x1="78.5" y1="86.3" x2="23" y2="141.8"/>
			</g>
		</g>
	</g>
</g>
<g>
	<defs>
		<path id="SVGID_5_" d="M43.2,2.6c0,0-2.3,8.8,7.1,9.3l2.9,4c0,0-1.3,1.6,4.2,1.3s21.7,0,21.7,0s4.8-0.8,4.9,2.1
			c0,2.9-3,3.4-8.4,3.5c0,0,4.2,6.4-2.7,7c-7,0.6-13.9,0.3-10.3-6.2c0,0-19.4,0.1-21.4-1.5c-2-1.6-0.3-5.7-2.9-7.5
			c-2.6-1.8-3.1-7.2-0.8-9.4S43.2,2.6,43.2,2.6z"/>
	</defs>
	<clipPath id="SVGID_6_">
		<use xlink:href="#SVGID_5_"  style="overflow:visible;"/>
	</clipPath>
	<g class="st4">
		<g>
			<g>
				<line class="st3" x1="37.2" y1="11.3" x2="82.9" y2="-34.3"/>
				<line class="st3" x1="36.5" y1="17.4" x2="84.2" y2="-30.3"/>
				<line class="st3" x1="35.8" y1="23.4" x2="85.5" y2="-26.4"/>
				<line class="st3" x1="35" y1="29.4" x2="86.9" y2="-22.4"/>
				<line class="st3" x1="34.3" y1="35.4" x2="88.2" y2="-18.5"/>
				<line class="st3" x1="33.5" y1="41.5" x2="89.5" y2="-14.5"/>
				<line class="st3" x1="32.8" y1="47.5" x2="90.9" y2="-10.6"/>
				<line class="st3" x1="32.1" y1="53.5" x2="92.2" y2="-6.6"/>
				<line class="st3" x1="31.3" y1="59.5" x2="93.5" y2="-2.7"/>
				<line class="st3" x1="30.6" y1="65.5" x2="94.9" y2="1.3"/>
				<line class="st3" x1="29.8" y1="71.6" x2="96.2" y2="5.2"/>
				<line class="st3" x1="29.1" y1="77.6" x2="97.5" y2="9.2"/>
				<line class="st3" x1="28.3" y1="83.6" x2="98.9" y2="13.1"/>
				<line class="st3" x1="27.6" y1="89.6" x2="100.2" y2="17"/>
				<line class="st3" x1="26.9" y1="95.7" x2="101.5" y2="21"/>
				<line class="st3" x1="26.1" y1="101.7" x2="102.9" y2="24.9"/>
			</g>
		</g>
	</g>
</g>
</svg>
