<?xml version="1.0" encoding="utf-8"?>
<!-- Generator: Adobe Illustrator 22.1.0, SVG Export Plug-In . SVG Version: 6.00 Build 0)  -->
<svg version="1.1" id="Layer_1" xmlns="http://www.w3.org/2000/svg" xmlns:xlink="http://www.w3.org/1999/xlink" x="0px" y="0px"
	 viewBox="0 0 82.5 73.5" style="enable-background:new 0 0 82.5 73.5;" xml:space="preserve">
<style type="text/css">
	.st0{fill:none;stroke:#3C70BA;stroke-width:3.2;stroke-miterlimit:10;}
	.st1{clip-path:url(#SVGID_2_);}
	.st2{clip-path:url(#SVGID_4_);}
	.st3{fill:none;stroke:#3C70BA;stroke-miterlimit:10;}
</style>
<path class="st0" d="M1.6,59.5v-44c0-3.1,2.5-5.6,5.6-5.6h68.2c3.1,0,5.6,2.5,5.6,5.6v44"/>
<path class="st0" d="M80.9,52.7v13.6c0,3.1-2.5,5.6-5.6,5.6H7.2c-3.1,0-5.6-2.5-5.6-5.6V53.7"/>
<path class="st0" d="M25.9,9.9v-4c0-2.4,1.9-4.3,4.3-4.3h22c2.4,0,4.3,1.9,4.3,4.3v4"/>
<path class="st0" d="M46.8,39.7c0,3.1-2.5,5.6-5.6,5.6s-5.6-2.5-5.6-5.6"/>
<path class="st0" d="M80.6,29.9c-6.9,5.7-21.9,9.6-39.3,9.6c-17.4,0-32.5-3.9-39.3-9.6"/>
<g>
	<defs>
		<path id="SVGID_1_" d="M75.3,65.1H7.2c-3.1,0-5.6-2.5-5.6-5.6v6.8c0,3.1,2.5,5.6,5.6,5.6h68.2c3.1,0,5.6-2.5,5.6-5.6v-6.8
			C80.9,62.6,78.4,65.1,75.3,65.1z"/>
	</defs>
	<clipPath id="SVGID_2_">
		<use xlink:href="#SVGID_1_"  style="overflow:visible;"/>
	</clipPath>
	<g class="st1">
		<defs>
			<polygon id="SVGID_3_" points="2.6,78.1 5.7,77.3 79.9,77.3 79.9,60.1 76.2,59.5 3.5,59.5 2.6,62.1 			"/>
		</defs>
		<clipPath id="SVGID_4_">
			<use xlink:href="#SVGID_3_"  style="overflow:visible;"/>
		</clipPath>
		<g class="st2">
			<line class="st3" x1="-6" y1="79.6" x2="5" y2="59.6"/>
			<line class="st3" x1="-2.3" y1="79.6" x2="8.7" y2="59.6"/>
			<line class="st3" x1="1.5" y1="79.6" x2="12.5" y2="59.6"/>
			<line class="st3" x1="5.2" y1="79.6" x2="16.2" y2="59.6"/>
			<line class="st3" x1="9" y1="79.6" x2="20" y2="59.6"/>
			<line class="st3" x1="12.8" y1="79.6" x2="23.8" y2="59.6"/>
			<line class="st3" x1="16.5" y1="79.6" x2="27.5" y2="59.6"/>
			<line class="st3" x1="20.3" y1="79.6" x2="31.3" y2="59.6"/>
			<line class="st3" x1="24" y1="79.6" x2="35" y2="59.6"/>
			<line class="st3" x1="27.8" y1="79.6" x2="38.8" y2="59.6"/>
			<line class="st3" x1="31.5" y1="79.6" x2="42.5" y2="59.6"/>
			<line class="st3" x1="35.3" y1="79.6" x2="46.3" y2="59.6"/>
			<line class="st3" x1="39.1" y1="79.6" x2="50.1" y2="59.6"/>
			<line class="st3" x1="42.8" y1="79.6" x2="53.8" y2="59.6"/>
			<line class="st3" x1="46.6" y1="79.6" x2="57.6" y2="59.6"/>
			<line class="st3" x1="50.3" y1="79.6" x2="61.3" y2="59.6"/>
			<line class="st3" x1="54.1" y1="79.6" x2="65.1" y2="59.6"/>
			<line class="st3" x1="57.8" y1="79.6" x2="68.8" y2="59.6"/>
			<line class="st3" x1="61.6" y1="79.6" x2="72.6" y2="59.6"/>
			<line class="st3" x1="65.4" y1="79.6" x2="76.4" y2="59.6"/>
			<line class="st3" x1="69.1" y1="79.6" x2="80.1" y2="59.6"/>
			<line class="st3" x1="72.9" y1="79.6" x2="83.9" y2="59.6"/>
			<line class="st3" x1="76.6" y1="79.6" x2="87.6" y2="59.6"/>
			<line class="st3" x1="80.4" y1="79.6" x2="91.4" y2="59.6"/>
			<line class="st3" x1="84.1" y1="79.6" x2="95.1" y2="59.6"/>
		</g>
	</g>
</g>
</svg>
