<?xml version="1.0" encoding="utf-8"?>
<!-- Generator: Adobe Illustrator 22.1.0, SVG Export Plug-In . SVG Version: 6.00 Build 0)  -->
<svg version="1.1" id="Layer_1" xmlns="http://www.w3.org/2000/svg" xmlns:xlink="http://www.w3.org/1999/xlink" x="0px" y="0px"
	 viewBox="0 0 58.8 71.2" style="enable-background:new 0 0 58.8 71.2;" xml:space="preserve">
<style type="text/css">
	.st0{fill:none;stroke:#3C70BA;stroke-width:2.8;stroke-miterlimit:10;}
	.st1{clip-path:url(#SVGID_2_);}
	.st2{fill:none;stroke:#3C70BA;stroke-miterlimit:10;}
</style>
<g>
	<path class="st0" d="M16.2,18.3c-1.5,3.5-2.9,6.6-4.3,9.8c-1.6,3.7-0.1,7.2,3.5,8.9c2.3,1.1,4.5,2.4,6.6,3.9
		c4.4,3.1,7.4,7,7.6,12.7c0.1,2,1.8,3.3,3.7,3.1c1.8-0.1,3.3-1.8,3-3.7c-0.8-5.5-2.4-10.8-6.7-14.7c-1.8-1.6-3.8-3.1-5.8-4.7
		c1.1-2.6,2.3-5.2,3.5-8c1.1,1.3,1.9,2.5,2.9,3.5c1,0.9,2.1,1.9,3.3,2.1c3.1,0.6,6.3,0.9,9.4,1.2c1.7,0.1,2.9-1,3-2.5
		c0.1-1.6-1.1-2.6-2.9-2.8c-2.2-0.2-4.5-0.3-6.7-0.7c-1-0.2-2.2-0.8-2.8-1.6c-1.9-2.5-3-4.5-4.7-7.1c-0.3-0.5-0.8-1.2-1.2-1.8
		c-1-1.4-2.7-2.1-4.1-2.4c-1.9-0.4-3.8-0.7-5.8-0.8c-7.6-0.3-12.8,2.5-15.4,11.5c-0.5,1.8,0.2,3,1.7,3.5c1.6,0.4,2.7-0.4,3.4-2.1
		c0.9-2,1.9-3.9,3.2-5.6C12,18.6,14,18.4,16.2,18.3z"/>
	<path class="st0" d="M15.5,37.5C12.7,42,7.3,48.2,3,51.1c-1.7,1.1-2,3.1-1,4.6c1,1.5,3,2.1,4.7,1c5.7-3.5,11.1-9.7,14.5-15.7"/>
	<path class="st0" d="M34.1,8.5c0.7-3.3-1.3-6.3-4.5-7c-3.4-0.7-6.4,1.2-7.1,4.5c-0.7,3.3,1.4,6.4,4.6,7.1
		C30.3,13.8,33.4,11.7,34.1,8.5z"/>
</g>
<polyline class="st0" points="58.8,55.5 43.4,55.5 43.4,62.6 28,62.6 28,69.8 12.7,69.8 "/>
<g>
	<defs>
		<polygon id="SVGID_1_" points="14.5,38.9 11.3,43.1 15.9,48.4 16.5,47.8 19.5,43.6 22,40.2 15.9,36.5 		"/>
	</defs>
	<clipPath id="SVGID_2_">
		<use xlink:href="#SVGID_1_"  style="overflow:visible;"/>
	</clipPath>
	<g class="st1">
		<g>
			<g>
				<line class="st2" x1="-35.1" y1="22" x2="-7.2" y2="58.4"/>
				<line class="st2" x1="-31.7" y1="21.8" x2="-3.4" y2="58.7"/>
				<line class="st2" x1="-28.2" y1="21.6" x2="0.5" y2="59"/>
				<line class="st2" x1="-24.7" y1="21.3" x2="4.3" y2="59.3"/>
				<line class="st2" x1="-21.3" y1="21.1" x2="8.2" y2="59.5"/>
				<line class="st2" x1="-17.8" y1="20.8" x2="12.1" y2="59.8"/>
				<line class="st2" x1="-14.4" y1="20.6" x2="15.9" y2="60.1"/>
				<line class="st2" x1="-10.9" y1="20.3" x2="19.8" y2="60.4"/>
				<line class="st2" x1="-7.5" y1="20.1" x2="23.6" y2="60.7"/>
				<line class="st2" x1="-4" y1="19.8" x2="27.5" y2="60.9"/>
				<line class="st2" x1="-0.6" y1="19.6" x2="31.3" y2="61.2"/>
				<line class="st2" x1="2.9" y1="19.3" x2="35.2" y2="61.5"/>
				<line class="st2" x1="6.3" y1="19.1" x2="39.1" y2="61.8"/>
				<line class="st2" x1="9.8" y1="18.9" x2="42.9" y2="62.1"/>
				<line class="st2" x1="13.2" y1="18.6" x2="46.8" y2="62.3"/>
				<line class="st2" x1="16.7" y1="18.4" x2="50.6" y2="62.6"/>
			</g>
		</g>
	</g>
</g>
</svg>
