<?xml version="1.0" encoding="utf-8"?>
<!-- Generator: Adobe Illustrator 22.1.0, SVG Export Plug-In . SVG Version: 6.00 Build 0)  -->
<svg version="1.1" id="Layer_1" xmlns="http://www.w3.org/2000/svg" xmlns:xlink="http://www.w3.org/1999/xlink" x="0px" y="0px"
	 viewBox="0 0 52.2 52.7" style="enable-background:new 0 0 52.2 52.7;" xml:space="preserve">
<style type="text/css">
	.st0{fill:none;stroke:#3C70BA;stroke-width:2;stroke-miterlimit:10;}
	.st1{fill:none;stroke:#3C70BA;stroke-width:1.8;stroke-miterlimit:10;}
	.st2{fill:none;stroke:#3C70BA;stroke-width:2.3;stroke-miterlimit:10;}
	.st3{clip-path:url(#SVGID_2_);}
	.st4{fill:none;stroke:#3C70BA;stroke-width:0.7;stroke-miterlimit:10;}
	.st5{clip-path:url(#SVGID_4_);}
</style>
<g>
	<path class="st0" d="M50.7,27.2H13.9c-0.2,0-0.3,0.1-0.3,0.3v23.4c0,0.2,0.1,0.3,0.3,0.3h36.8c0.2,0,0.3-0.1,0.3-0.3V27.5
		C51,27.3,50.9,27.2,50.7,27.2z"/>
	<circle class="st0" cx="32.3" cy="39.2" r="6.2"/>
	<path class="st0" d="M45,27.2c0,3.3,2.7,6,6,6"/>
	<path class="st0" d="M19.6,27.2c0,3.3-2.7,6-6,6"/>
	<path class="st0" d="M45,51.2c0-3.3,2.7-6,6-6"/>
	<path class="st0" d="M19.6,51.2c0-3.3-2.7-6-6-6"/>
</g>
<g>
	<path class="st1" d="M13.5,27.2H7.8c-0.2,0-0.3,0.1-0.3,0.3v23.4c0,0.2,0.1,0.3,0.3,0.3h5.7"/>
</g>
<g>
	<path class="st0" d="M18.5,27.2H1.8c-0.2,0-0.3,0.1-0.3,0.3v23.4c0,0.2,0.1,0.3,0.3,0.3h16.7"/>
</g>
<path class="st2" d="M5.8,20.8L18.2,8.4c0.2-0.2,0.4-0.2,0.6,0l8.6,8.6c0.2,0.2,0.4,0.2,0.6,0L43.7,1.3"/>
<polyline class="st2" points="43.7,8.7 43.7,1.3 36,1.3 "/>
<g>
	<defs>
		<polygon id="SVGID_1_" points="14.1,27.2 10.2,27.2 10.2,51.2 14.2,51.2 		"/>
	</defs>
	<clipPath id="SVGID_2_">
		<use xlink:href="#SVGID_1_"  style="overflow:visible;"/>
	</clipPath>
	<g class="st3">
		<line class="st4" x1="14.7" y1="8.4" x2="0.6" y2="22.5"/>
		<line class="st4" x1="14.7" y1="12" x2="0.6" y2="26.2"/>
		<line class="st4" x1="14.7" y1="15.7" x2="0.6" y2="29.8"/>
		<line class="st4" x1="14.7" y1="19.4" x2="0.6" y2="33.5"/>
		<line class="st4" x1="14.7" y1="23.1" x2="0.6" y2="37.2"/>
		<line class="st4" x1="14.7" y1="26.8" x2="0.6" y2="40.9"/>
		<line class="st4" x1="14.7" y1="30.5" x2="0.6" y2="44.6"/>
		<line class="st4" x1="14.7" y1="34.1" x2="0.6" y2="48.3"/>
		<line class="st4" x1="14.7" y1="37.8" x2="0.6" y2="51.9"/>
		<line class="st4" x1="14.7" y1="41.5" x2="0.6" y2="55.6"/>
		<line class="st4" x1="14.7" y1="45.2" x2="0.6" y2="59.3"/>
		<line class="st4" x1="14.7" y1="48.9" x2="0.6" y2="63"/>
		<line class="st4" x1="14.7" y1="52.6" x2="0.6" y2="66.7"/>
		<line class="st4" x1="14.7" y1="56.2" x2="0.6" y2="70.4"/>
		<line class="st4" x1="14.7" y1="59.9" x2="0.6" y2="74"/>
	</g>
</g>
<g>
	<defs>
		<polygon id="SVGID_3_" points="8.1,27.2 4.4,27.2 4.4,51.2 8.2,51.2 		"/>
	</defs>
	<clipPath id="SVGID_4_">
		<use xlink:href="#SVGID_3_"  style="overflow:visible;"/>
	</clipPath>
	<g class="st5">
		<line class="st4" x1="9.7" y1="9.4" x2="-4.4" y2="23.5"/>
		<line class="st4" x1="9.7" y1="13" x2="-4.4" y2="27.2"/>
		<line class="st4" x1="9.7" y1="16.7" x2="-4.4" y2="30.8"/>
		<line class="st4" x1="9.7" y1="20.4" x2="-4.4" y2="34.5"/>
		<line class="st4" x1="9.7" y1="24.1" x2="-4.4" y2="38.2"/>
		<line class="st4" x1="9.7" y1="27.8" x2="-4.4" y2="41.9"/>
		<line class="st4" x1="9.7" y1="31.5" x2="-4.4" y2="45.6"/>
		<line class="st4" x1="9.7" y1="35.1" x2="-4.4" y2="49.3"/>
		<line class="st4" x1="9.7" y1="38.8" x2="-4.4" y2="52.9"/>
		<line class="st4" x1="9.7" y1="42.5" x2="-4.4" y2="56.6"/>
		<line class="st4" x1="9.7" y1="46.2" x2="-4.4" y2="60.3"/>
		<line class="st4" x1="9.7" y1="49.9" x2="-4.4" y2="64"/>
		<line class="st4" x1="9.7" y1="53.6" x2="-4.4" y2="67.7"/>
		<line class="st4" x1="9.7" y1="57.2" x2="-4.4" y2="71.4"/>
		<line class="st4" x1="9.7" y1="60.9" x2="-4.4" y2="75"/>
	</g>
</g>
</svg>
