<?xml version="1.0" encoding="utf-8"?>
<!-- Generator: Adobe Illustrator 22.1.0, SVG Export Plug-In . SVG Version: 6.00 Build 0)  -->
<svg version="1.1" id="Layer_1" xmlns="http://www.w3.org/2000/svg" xmlns:xlink="http://www.w3.org/1999/xlink" x="0px" y="0px"
	 viewBox="0 0 270.3 270.3" style="enable-background:new 0 0 270.3 270.3;" xml:space="preserve">
<style type="text/css">
	.st0{fill:#2B66AD;}
</style>
<g>
	<path class="st0" d="M231.5,40.1C206,14.4,172.1,0.1,136.2,0h-0.4c-36,0-70,13.9-95.5,39.2c-25.6,25.3-39.8,59-40,94.8
		c-0.2,36.5,13.8,70.7,39.3,96.5c25.4,25.6,59.2,39.7,95.2,39.8h0.6c36.1,0,70.1-14,95.5-39.4s39.5-59.3,39.7-95.6
		C270.8,99.5,256.9,65.7,231.5,40.1z M135.4,249.6C72.2,249.6,21,198.3,21,135.1S72.2,20.7,135.4,20.7S249.9,72,249.9,135.1
		S198.6,249.6,135.4,249.6z"/>
	<path class="st0" d="M170.8,113.5V77.7c0-19.5-15.9-35.4-35.4-35.4S100,58.2,100,77.7v35.8c-13.1,2-23.2,13.4-23.2,27v43
		c0,15.1,12.3,27.3,27.3,27.3h62.5c15.1,0,27.3-12.3,27.3-27.3v-43C194,126.9,183.9,115.5,170.8,113.5z M135.4,58.3
		c10.7,0,19.4,8.7,19.4,19.4v35.5H116V77.7C116,67,124.7,58.3,135.4,58.3z M178,183.5c0,6.2-5.1,11.3-11.3,11.3h-62.5
		c-6.2,0-11.3-5.1-11.3-11.3v-43c0-6.2,5.1-11.3,11.3-11.3h62.5c6.2,0,11.3,5.1,11.3,11.3V183.5z"/>
	<path class="st0" d="M140.9,158.1v-16.2h-11v16.2c-2.9,1.8-4.9,5.1-4.9,8.8c0,5.7,4.6,10.4,10.4,10.4s10.4-4.6,10.4-10.4
		C145.8,163.2,143.8,160,140.9,158.1z"/>
</g>
</svg>
