<?xml version="1.0" encoding="utf-8"?>
<!-- Generator: Adobe Illustrator 22.1.0, SVG Export Plug-In . SVG Version: 6.00 Build 0)  -->
<svg version="1.1" id="Layer_1" xmlns="http://www.w3.org/2000/svg" xmlns:xlink="http://www.w3.org/1999/xlink" x="0px" y="0px"
	 viewBox="0 0 1984.8 848.6" style="enable-background:new 0 0 1984.8 848.6;" xml:space="preserve">
<style type="text/css">
	.st0{fill:#777777;}
	.st1{fill:none;stroke:#777777;stroke-width:60;stroke-miterlimit:10;}
</style>
<g>
	<g>
		<path class="st0" d="M328.9,262.1h91.2L539,436.9V262.1h92v315.9h-92L420.7,404.6v173.4h-91.8L328.9,262.1L328.9,262.1z"/>
		<path class="st0" d="M906.2,448.8l85.6,25.8c-5.7,24-14.8,44.1-27.1,60.1c-12.3,16.1-27.7,28.3-46,36.4
			c-18.4,8.2-41.6,12.2-70,12.2c-34.4,0-62.4-5-84.2-15c-21.7-10-40.6-27.5-56.3-52.6c-15.8-25.1-23.7-57.3-23.7-96.5
			c0-52.2,13.9-92.4,41.7-120.5s67.1-42.1,118-42.1c39.8,0,71.1,8.1,93.9,24.2c22.7,16.1,39.7,40.8,50.8,74.2l-86.2,19.2
			c-3.1-9.6-6.2-16.6-9.5-21.1c-5.4-7.4-12.1-13.3-20-17.2c-7.9-4-16.7-6-26.5-6c-22.1,0-39.1,8.9-50.9,26.7
			c-8.9,13.2-13.4,34-13.4,62.2c0,35,5.3,59.1,15.9,72c10.6,13,25.6,19.5,44.8,19.5c18.7,0,32.7-5.2,42.3-15.7
			C894.9,484,901.9,468.7,906.2,448.8z"/>
		<path class="st0" d="M1244.7,262.1h97.4v188.2c0,18.7-2.9,36.3-8.8,52.8c-5.8,16.6-14.9,31.1-27.3,43.5
			c-12.4,12.4-25.5,21.1-39.1,26.1c-19,7-41.7,10.5-68.3,10.5c-15.4,0-32.1-1.1-50.3-3.3c-18.2-2.1-33.4-6.4-45.6-12.9
			s-23.4-15.5-33.6-27.2c-10.2-11.7-17-23.9-20.8-36.4c-6-20.1-9.1-37.9-9.1-53.5V262.1h97.4v192.7c0,17.2,4.8,30.7,14.3,40.4
			c9.6,9.7,22.9,14.5,39.8,14.5c16.8,0,30-4.8,39.6-14.3c9.6-9.6,14.3-23.1,14.3-40.6V262.1H1244.7z"/>
		<path class="st0" d="M1585.9,525.9h-110.8l-15.4,52.1h-99.7l118.7-315.9h106.5l118.7,315.9h-102.2L1585.9,525.9z M1565.7,457.6
			L1530.9,344l-34.5,113.5H1565.7z"/>
	</g>
</g>
<g>
	<path class="st1" d="M115.8,763.3H1895V85.1H115.8V763.3z"/>
</g>
</svg>
