<?xml version="1.0" encoding="utf-8"?>
<!-- Generator: Adobe Illustrator 22.1.0, SVG Export Plug-In . SVG Version: 6.00 Build 0)  -->
<svg version="1.1" id="Layer_1" xmlns="http://www.w3.org/2000/svg" xmlns:xlink="http://www.w3.org/1999/xlink" x="0px" y="0px"
	 viewBox="0 0 600 198" style="enable-background:new 0 0 600 198;" xml:space="preserve" preserveAspectRatio="none">
<style type="text/css">
	.st0{opacity:0.25;fill:#4971AA;}
</style>
<path class="st0" d="M22.5,32c-4.1,0-7.5-3.4-7.5-7.5s3.4-7.5,7.5-7.5s7.5,3.4,7.5,7.5S26.6,32,22.5,32z M60,7.5
	C60,3.4,56.6,0,52.5,0S45,3.4,45,7.5s3.4,7.5,7.5,7.5S60,11.6,60,7.5z M180,40.5c0-4.1-3.4-7.5-7.5-7.5s-7.5,3.4-7.5,7.5v2
	c0,4.1,3.4,7.5,7.5,7.5s7.5-3.4,7.5-7.5V40.5z M210,13.5c0-4.1-3.4-7.5-7.5-7.5s-7.5,3.4-7.5,7.5v8c0,4.1,3.4,7.5,7.5,7.5
	s7.5-3.4,7.5-7.5V13.5z M300,7.5c0-4.1-3.4-7.5-7.5-7.5S285,3.4,285,7.5s3.4,7.5,7.5,7.5S300,11.6,300,7.5z M360,20.5
	c0-4.1-3.4-7.5-7.5-7.5s-7.5,3.4-7.5,7.5v9c0,4.1,3.4,7.5,7.5,7.5s7.5-3.4,7.5-7.5V20.5z M420,26.5c0-4.1-3.4-7.5-7.5-7.5
	s-7.5,3.4-7.5,7.5s3.4,7.5,7.5,7.5S420,30.6,420,26.5z M435,14.5c0,4.1,3.4,7.5,7.5,7.5s7.5-3.4,7.5-7.5v-7c0-4.1-3.4-7.5-7.5-7.5
	S435,3.4,435,7.5V14.5z M570,32.5c0-4.1-3.4-7.5-7.5-7.5s-7.5,3.4-7.5,7.5s3.4,7.5,7.5,7.5S570,36.6,570,32.5z M600,59.5V198H0
	v-75.5c0,4.1,3.4,7.5,7.5,7.5s7.5-3.4,7.5-7.5v-5c0-4.1-3.4-7.5-7.5-7.5S0,113.4,0,117.5v-34C0,87.6,3.4,91,7.5,91s7.5-3.4,7.5-7.5
	v-35c0-4.1,3.4-7.5,7.5-7.5s7.5,3.4,7.5,7.5v13c0,4.1,3.4,7.5,7.5,7.5s7.5-3.4,7.5-7.5v-28c0-4.1,3.4-7.5,7.5-7.5s7.5,3.4,7.5,7.5
	v27c0,4.1,3.4,7.5,7.5,7.5s7.5-3.4,7.5-7.5v-9c0-4.1,3.4-7.5,7.5-7.5s7.5,3.4,7.5,7.5v43c0,4.1,3.4,7.5,7.5,7.5s7.5-3.4,7.5-7.5v-24
	c0-4.1,3.4-7.5,7.5-7.5s7.5,3.4,7.5,7.5v9c0,4.1,3.4,7.5,7.5,7.5c4.1,0,7.5-3.4,7.5-7.5v-36c0-4.1,3.4-7.5,7.5-7.5s7.5,3.4,7.5,7.5
	v78c0,4.1,3.4,7.5,7.5,7.5s7.5-3.4,7.5-7.5v-47c0-4.1,3.4-7.5,7.5-7.5s7.5,3.4,7.5,7.5v24c0,4.1,3.4,7.5,7.5,7.5s7.5-3.4,7.5-7.5
	v-47c0-4.1,3.4-7.5,7.5-7.5s7.5,3.4,7.5,7.5v26c0,4.1,3.4,7.5,7.5,7.5s7.5-3.4,7.5-7.5v-38c0-4.1,3.4-7.5,7.5-7.5s7.5,3.4,7.5,7.5
	v49c0,4.1,3.4,7.5,7.5,7.5s7.5-3.4,7.5-7.5v-28c0-4.1,3.4-7.5,7.5-7.5s7.5,3.4,7.5,7.5v13c0,4.1,3.4,7.5,7.5,7.5s7.5-3.4,7.5-7.5
	v-26c0-4.1,3.4-7.5,7.5-7.5s7.5,3.4,7.5,7.5v33c0,4.1,3.4,7.5,7.5,7.5s7.5-3.4,7.5-7.5v-37c0-4.1,3.4-7.5,7.5-7.5s7.5,3.4,7.5,7.5
	v72c0,4.1,3.4,7.5,7.5,7.5s7.5-3.4,7.5-7.5v-44c0-4.1,3.4-7.5,7.5-7.5s7.5,3.4,7.5,7.5v34c0,4.1,3.4,7.5,7.5,7.5s7.5-3.4,7.5-7.5
	v-65c0-4.1,3.4-7.5,7.5-7.5s7.5,3.4,7.5,7.5v36c0,4.1,3.4,7.5,7.5,7.5s7.5-3.4,7.5-7.5v-20c0-4.1,3.4-7.5,7.5-7.5s7.5,3.4,7.5,7.5
	v42c0,4.1,3.4,7.5,7.5,7.5s7.5-3.4,7.5-7.5v-33c0-4.1,3.4-7.5,7.5-7.5s7.5,3.4,7.5,7.5v20c0,4.1,3.4,7.5,7.5,7.5s7.5-3.4,7.5-7.5
	v-33c0-4.1,3.4-7.5,7.5-7.5s7.5,3.4,7.5,7.5v14c0,4.1,3.4,7.5,7.5,7.5s7.5-3.4,7.5-7.5v-49c0-4.1,3.4-7.5,7.5-7.5s7.5,3.4,7.5,7.5
	v50c0,4.1,3.4,7.5,7.5,7.5s7.5-3.4,7.5-7.5v-26c0-4.1,3.4-7.5,7.5-7.5s7.5,3.4,7.5,7.5v80c0,4.1,3.4,7.5,7.5,7.5s7.5-3.4,7.5-7.5
	v-66c0-4.1,3.4-7.5,7.5-7.5s7.5,3.4,7.5,7.5v16c0,4.1,3.4,7.5,7.5,7.5s7.5-3.4,7.5-7.5v-12c0-4.1,3.4-7.5,7.5-7.5S600,55.4,600,59.5
	z M45,88.5c0-4.1-3.4-7.5-7.5-7.5S30,84.4,30,88.5s3.4,7.5,7.5,7.5S45,92.6,45,88.5z M75,142.5c0-4.1-3.4-7.5-7.5-7.5
	s-7.5,3.4-7.5,7.5s3.4,7.5,7.5,7.5S75,146.6,75,142.5z M75,87.5c0-4.1-3.4-7.5-7.5-7.5S60,83.4,60,87.5v28c0,4.1,3.4,7.5,7.5,7.5
	s7.5-3.4,7.5-7.5V87.5z M135,112.5c0-4.1-3.4-7.5-7.5-7.5s-7.5,3.4-7.5,7.5v7c0,4.1,3.4,7.5,7.5,7.5c4.1,0,7.5-3.4,7.5-7.5V112.5z
	 M195,134.5c0-4.1-3.4-7.5-7.5-7.5s-7.5,3.4-7.5,7.5s3.4,7.5,7.5,7.5S195,138.6,195,134.5z M225,109.5c0-4.1-3.4-7.5-7.5-7.5
	s-7.5,3.4-7.5,7.5v15c0,4.1,3.4,7.5,7.5,7.5s7.5-3.4,7.5-7.5V109.5z M255,112.5c0-4.1-3.4-7.5-7.5-7.5s-7.5,3.4-7.5,7.5
	s3.4,7.5,7.5,7.5S255,116.6,255,112.5z M315,112.5c0-4.1-3.4-7.5-7.5-7.5s-7.5,3.4-7.5,7.5v17c0,4.1,3.4,7.5,7.5,7.5
	s7.5-3.4,7.5-7.5V112.5z M345,142.5c0-4.1-3.4-7.5-7.5-7.5s-7.5,3.4-7.5,7.5s3.4,7.5,7.5,7.5S345,146.6,345,142.5z M405,108.5
	c0-4.1-3.4-7.5-7.5-7.5s-7.5,3.4-7.5,7.5v10c0,4.1,3.4,7.5,7.5,7.5s7.5-3.4,7.5-7.5V108.5z M435,133.5c0-4.1-3.4-7.5-7.5-7.5
	s-7.5,3.4-7.5,7.5s3.4,7.5,7.5,7.5S435,137.6,435,133.5z M465,116.5c0-4.1-3.4-7.5-7.5-7.5s-7.5,3.4-7.5,7.5v16
	c0,4.1,3.4,7.5,7.5,7.5s7.5-3.4,7.5-7.5V116.5z M495,100.5c0-4.1-3.4-7.5-7.5-7.5s-7.5,3.4-7.5,7.5s3.4,7.5,7.5,7.5
	S495,104.6,495,100.5z M525,142.5c0-4.1-3.4-7.5-7.5-7.5s-7.5,3.4-7.5,7.5s3.4,7.5,7.5,7.5S525,146.6,525,142.5z M525,99.5
	c0-4.1-3.4-7.5-7.5-7.5s-7.5,3.4-7.5,7.5v13c0,4.1,3.4,7.5,7.5,7.5s7.5-3.4,7.5-7.5V99.5z M585,98.5c0-4.1-3.4-7.5-7.5-7.5
	s-7.5,3.4-7.5,7.5v16c0,4.1,3.4,7.5,7.5,7.5s7.5-3.4,7.5-7.5V98.5z M120,28.5c0-4.1-3.4-7.5-7.5-7.5s-7.5,3.4-7.5,7.5v10
	c0,4.1,3.4,7.5,7.5,7.5s7.5-3.4,7.5-7.5V28.5z"/>
</svg>
