<?xml version="1.0" encoding="utf-8"?>
<!-- Generator: Adobe Illustrator 22.1.0, SVG Export Plug-In . SVG Version: 6.00 Build 0)  -->
<svg version="1.1" id="Layer_1" xmlns="http://www.w3.org/2000/svg" xmlns:xlink="http://www.w3.org/1999/xlink" x="0px" y="0px"
	 viewBox="0 0 819.4 75.3" style="enable-background:new 0 0 819.4 75.3;" xml:space="preserve">
<style type="text/css">
	.st0{fill:#EEEEEE;}
</style>
<g>
	<path class="st0" d="M134.5,35.5h6.7c3.8,0,8.5-3.1,10.4-7L166.2,0h-2c0,0-1.7,4.8-7.1,4.8L56.4,4.7c-3.8,0-8.5,3.1-10.4,7
		L31.7,39.8H25c-3.8,0-8.5,3.1-10.4,7L0,75.3h2c0,0,1.7-4.8,7.1-4.8l100.6,0.1c3.9,0,8.5-3.1,10.4-7L134.5,35.5z M64.2,39.9H33.7
		c0.5-1.2,2.5-4.4,7-4.4h34l14.9-14.7l2.9,14.7l40.2,0.1c-0.5,1.2-2.5,4.4-7,4.4H97.1l-3.5,1.5l3.5,18.2L78.3,50l-25.6,7l15-14.7
		L64.2,39.9z"/>
	<path class="st0" d="M196.7,23.8l0.6-1.5c1.4-3.7,1.1-6.9-1.9-6.9c-3.3,0-5.9,2.8-7,5.6c-4.7,12.6,23,6.4,14.4,29.7
		c-5.1,13.6-14.8,19.6-28.5,19.6c-12.9,0-18.3-4.7-13.4-17.9l0.8-2.2h15.1l-0.6,1.5c-2,5.4-0.7,7.4,2.3,7.4c3.2,0,6-2.7,7.3-6.2
		c4.7-12.6-22.1-6.3-13.6-28.9c4.8-12.9,13.9-19.9,27-19.9c13.6,0,17.1,6,12,19.6L196.7,23.8L196.7,23.8z"/>
	<polygon class="st0" points="225.7,5.4 261.1,5.4 256,19 236.2,19 232.1,29.9 250.7,29.9 245.8,42.9 227.2,42.9 222.5,55.6 
		243.1,55.6 238,69.2 201.9,69.2 	"/>
	<polygon class="st0" points="408.1,5.4 423.7,5.4 399.9,69.2 384.3,69.2 	"/>
	<polygon class="st0" points="433.5,19.5 421.8,19.5 427,5.4 466,5.4 460.8,19.5 449,19.5 430.5,69.2 415,69.2 	"/>
	<polygon class="st0" points="468.8,44.1 467.9,5.4 485,5.4 482.6,27.7 482.8,27.7 496.9,5.4 514,5.4 484.3,44.1 475,69.2 
		459.4,69.2 	"/>
	<polygon class="st0" points="581.3,5.4 616.7,5.4 611.7,19 591.8,19 587.8,29.9 606.4,29.9 601.5,42.9 582.9,42.9 578.2,55.6 
		598.8,55.6 593.7,69.2 557.6,69.2 	"/>
	<polygon class="st0" points="665.2,5.4 681.8,5.4 670.1,53.4 670.3,53.4 694.5,5.4 711.1,5.4 674.4,69.2 654.3,69.2 	"/>
	<polygon class="st0" points="716.8,5.4 732.3,5.4 708.5,69.2 693,69.2 	"/>
	<polygon class="st0" points="784,5.4 819.4,5.4 814.4,19 794.5,19 790.5,29.9 809.1,29.9 804.2,42.9 785.6,42.9 780.9,55.6 
		801.5,55.6 796.4,69.2 760.3,69.2 	"/>
	<path class="st0" d="M284.6,24.8c2.7-7.2,2.2-9.4-0.8-9.4c-4.8,0-7,4.6-13.4,21.9c-6.4,17.2-7.7,21.9-2.9,21.9
		c3.8,0,6-3.6,10.5-15.6h15.1l-1.8,4.7c-6.7,17.8-18,22.1-28,22.1c-17.5,0-17.8-9.4-9-33.1c9.1-24.4,17.5-33.1,33.7-33.1
		c14.1,0,16.4,7.9,11.8,20.2l-1.5,4h-15.1L284.6,24.8z"/>
	<path class="st0" d="M328.2,5.4l-17.1,46c-2.3,6.2-1.1,7.8,1.8,7.8s5.3-1.6,7.6-7.8l17.1-46h15.6l-15.6,41.8
		c-6.7,17.8-15.9,23.2-28.9,23.2c-13.1,0-18.3-5.4-11.6-23.2l15.6-41.8C312.7,5.4,328.2,5.4,328.2,5.4z"/>
	<path class="st0" d="M365.7,32.4h3.1c4.4,0,7.7-3,9.4-7.6c1.9-5.2,0.8-7.4-3.8-7.4h-3L365.7,32.4z M360.2,5.4h24.4
		c11.9,0,13.7,7.1,10.1,17c-3.2,8.5-8.3,14-15.9,15.2l-0.1,0.2c7.3,0.7,7.6,5.8,4.5,14.3l-2,5.4c-1.2,3.3-2.8,7.6-2.5,8.8
		c0.1,0.7,0.2,1.4,1,2l-0.3,0.9h-16.6c-0.2-3.4,2-9.5,3-12.1l1.6-4.3c2.7-7.2,2.1-9.1-1.7-9.1h-4.1l-9.5,25.5h-15.6L360.2,5.4z"/>
	<path class="st0" d="M553.4,23.8l0.6-1.5c1.4-3.7,1.1-6.9-1.9-6.9c-3.3,0-5.9,2.8-7,5.6c-4.7,12.6,23,6.4,14.4,29.7
		c-5.1,13.6-14.8,19.6-28.5,19.6c-12.9,0-18.3-4.7-13.4-17.9l0.8-2.2h15.1l-0.6,1.5c-2,5.4-0.7,7.4,2.3,7.4c3.2,0,6-2.7,7.3-6.2
		c4.7-12.6-22.1-6.3-13.7-28.9c4.8-12.9,13.9-19.9,27-19.9c13.6,0,17.1,6,12,19.6L553.4,23.8L553.4,23.8z"/>
	<path class="st0" d="M628.1,32.4h3.1c4.4,0,7.7-3,9.4-7.6c1.9-5.2,0.8-7.4-3.8-7.4h-3L628.1,32.4z M622.6,5.4H647
		c11.9,0,13.7,7.1,10.1,17c-3.2,8.5-8.3,14-15.9,15.2l-0.1,0.2c7.3,0.7,7.6,5.8,4.5,14.3l-2,5.4c-1.2,3.3-2.8,7.6-2.5,8.8
		c0.1,0.7,0.2,1.4,1,2l-0.3,0.9h-16.6c-0.2-3.4,2-9.5,3-12.1l1.6-4.3c2.7-7.2,2.1-9.1-1.7-9.1H624l-9.6,25.5h-15.6L622.6,5.4z"/>
	<path class="st0" d="M755.7,24.8c2.7-7.2,2.2-9.4-0.8-9.4c-4.8,0-7,4.6-13.4,21.9c-6.4,17.2-7.7,21.9-2.9,21.9
		c3.8,0,6-3.6,10.5-15.6h15.1l-1.8,4.7c-6.7,17.8-18,22.1-28,22.1c-17.5,0-17.8-9.4-9-33.1c9.1-24.4,17.5-33.1,33.7-33.1
		c14.1,0,16.4,7.9,11.8,20.2l-1.5,4h-15L755.7,24.8z"/>
</g>
</svg>
