<?xml version="1.0" encoding="utf-8"?>
<!-- Generator: Adobe Illustrator 22.1.0, SVG Export Plug-In . SVG Version: 6.00 Build 0)  -->
<svg version="1.1" id="Layer_1" xmlns="http://www.w3.org/2000/svg" xmlns:xlink="http://www.w3.org/1999/xlink" x="0px" y="0px"
	 viewBox="0 0 779.3 163.7" preserveAspectRatio="none" style="enable-background:new 0 0 779.3 163.7;" xml:space="preserve">
<style type="text/css">
	.st0{opacity:0.18;fill:#4971AA;enable-background:new    ;}
	.st1{fill:url(#SVGID_1_);}
</style>
<polygon class="st0" points="0,89.4 277,62.6 779.3,136.9 779.3,163.7 0,163.7 "/>
<polygon class="st0" points="199.9,163.7 519.3,34 779.3,12.4 779.3,163.7 "/>
<polygon class="st0" points="152.5,163.7 277,62.6 445.6,163.7 "/>
<polygon class="st0" points="519.3,34 779.3,163.7 326.6,163.7 "/>
<polygon class="st0" points="0,116.3 779.3,154.6 779.3,163.7 0,163.7 "/>
<polygon class="st0" points="758,14.2 586.2,163.7 779.3,163.7 779.3,12.4 "/>
<polygon class="st0" points="0,128.9 68.6,163.7 0,163.7 "/>
<polygon class="st0" points="450.7,163.7 459,58.5 682.8,163.7 "/>
<linearGradient id="SVGID_1_" gradientUnits="userSpaceOnUse" x1="389.65" y1="2.3" x2="389.65" y2="166" gradientTransform="matrix(1 0 0 -1 0 166)">
	<stop  offset="0" style="stop-color:#1A468D;stop-opacity:0.7"/>
	<stop  offset="1" style="stop-color:#4971AA;stop-opacity:0"/>
</linearGradient>
<rect class="st1" width="779.3" height="163.7"/>
</svg>
