<?xml version="1.0" encoding="utf-8"?>
<!-- Generator: Adobe Illustrator 22.1.0, SVG Export Plug-In . SVG Version: 6.00 Build 0)  -->
<svg version="1.1" id="Layer_1" xmlns="http://www.w3.org/2000/svg" xmlns:xlink="http://www.w3.org/1999/xlink" x="0px" y="0px"
	 viewBox="0 0 2206.3 487.8" style="enable-background:new 0 0 2206.3 487.8;" xml:space="preserve">
<style type="text/css">
	.st0{fill:#1A468D;}
	.st1{fill:#FFFFFF;}
</style>
<g>
	<g>
		<path class="st0" d="M1055.3,48.5C1055.3,48.5,1055.3,48.5,1055.3,48.5l-1.7-1.6c0,0,0,0,0,0c0,0,0,0,0,0l-1.6-1.5c0,0,0,0,0,0
			c0,0,0,0,0,0l-1.6-1.5c0,0,0,0,0,0c0,0,0,0,0,0l-1.6-1.5c0,0,0,0,0,0c0,0,0,0,0,0l-1.6-1.5c0,0,0,0,0,0c0,0,0,0-0.1,0l-1.6-1.5
			c0,0,0,0,0,0c0,0,0,0-0.1,0l-1.6-1.5c0,0,0,0,0,0c0,0,0,0-0.1,0l-1.6-1.5c0,0,0,0,0,0c0,0,0,0-0.1,0l-1.6-1.5c0,0,0,0,0-0.1
			c0,0,0,0-0.1,0l-1.6-1.5c0,0,0,0,0-0.1c0,0-0.1,0-0.1,0l-1.6-1.5c0,0,0,0,0-0.1c0,0-0.1,0-0.1,0l-1.6-1.5c0,0,0,0,0-0.1
			c0,0-0.1,0-0.1,0l-1.6-1.5c0,0,0,0,0-0.1c0,0-0.1,0-0.1,0l-1.6-1.5c0,0,0,0,0-0.1c0,0-0.1,0-0.1,0l-1.6-1.5c0,0,0,0,0-0.1
			c0,0-0.1,0-0.1,0l-1.6-1.5c0,0,0,0,0-0.1c0,0-0.1,0-0.1,0l-1.6-1.5c0,0,0,0,0-0.1c0,0-0.1,0-0.1,0l-1.6-1.5c0,0,0,0,0-0.1
			c0,0-0.1,0-0.1,0l-1.6-1.5c0,0,0,0,0-0.1c0,0-0.1,0-0.1,0l-1.6-1.5c0,0,0,0,0-0.1c0,0,0,0-0.1,0l-1.6-1.5c0,0,0,0,0,0
			c0,0,0,0-0.1,0l-1.6-1.5c0,0,0,0,0,0c0,0,0,0-0.1,0l-1.6-1.5c0,0,0,0,0,0c0,0,0,0-0.1,0l-1.6-1.5c0,0,0,0,0,0c0,0,0,0-0.1,0
			l-1.6-1.5c0,0,0,0,0,0c0,0,0,0,0,0l-1.6-1.5c0,0,0,0,0,0c0,0,0,0,0,0l-1.6-1.5c0,0,0,0,0,0c0,0,0,0,0,0l-1.6-1.5c0,0,0,0,0,0
			c0,0,0,0,0,0l-1.6-1.5c0,0,0,0,0,0c0,0,0,0,0,0l-1.6-1.6c-23.3,0.6-46.6,1.4-69.9,2.3c-6.3,17.2-12.5,34.4-18.8,51.6l-1.7-1.4
			l-1.6-1.5c0,0,0,0,0,0c0,0,0,0,0,0l-1.6-1.5c0,0,0,0,0,0c0,0,0,0,0,0l-1.6-1.5c0,0,0,0,0,0c0,0,0,0,0,0l-1.6-1.5c0,0,0,0,0-0.1
			c0,0,0,0,0,0l-1.6-1.4c0,0,0,0,0-0.1c0,0,0,0,0,0l-1.6-1.4c0,0,0,0,0-0.1c0,0,0,0-0.1,0l-1.6-1.4c0,0,0-0.1,0-0.1c0,0,0,0-0.1,0
			l-1.6-1.4c0,0,0-0.1,0-0.1c0,0,0,0-0.1,0l-1.5-1.4c0,0,0-0.1,0-0.1c0,0,0,0-0.1,0l-1.5-1.4c0,0,0-0.1,0-0.1c0,0,0,0-0.1,0
			l-1.5-1.4c0,0,0-0.1,0-0.1c0,0,0,0-0.1,0l-1.5-1.4c0,0,0-0.1,0-0.1c0,0-0.1,0-0.1,0l-1.5-1.4c0,0,0-0.1,0-0.1c0,0-0.1,0-0.1,0
			l-1.5-1.4c0,0,0-0.1,0-0.1c0,0-0.1,0-0.1,0l-1.5-1.4c0,0,0-0.1,0-0.1c0,0-0.1,0-0.1,0l-1.5-1.4c0,0,0-0.1,0-0.1c0,0-0.1,0-0.1,0
			l-1.5-1.4c0,0,0-0.1,0-0.1c0,0-0.1,0-0.1,0l-1.5-1.4c0,0,0-0.1,0-0.1c0,0-0.1,0-0.1,0l-1.5-1.4c0,0,0-0.1,0-0.1c0,0-0.1,0-0.1,0
			l-1.5-1.4c0,0,0-0.1,0-0.1c0,0,0,0-0.1,0l-1.5-1.4c0,0,0-0.1,0-0.1c0,0,0,0-0.1,0l-1.5-1.4c0,0,0-0.1,0-0.1c0,0,0,0-0.1,0
			l-1.5-1.4c0,0,0-0.1,0-0.1c0,0,0,0-0.1,0l-1.6-1.4c0,0,0-0.1,0-0.1c0,0,0,0-0.1,0l-1.6-1.4c0,0,0,0,0-0.1c0,0,0,0-0.1,0l-1.6-1.4
			c0,0,0,0,0-0.1c0,0,0,0,0,0l-1.6-1.4c0,0,0,0,0-0.1c0,0,0,0,0,0l-1.6-1.5c0,0,0,0,0,0c0,0,0,0,0,0l-1.6-1.5c0,0,0,0,0,0
			c0,0,0,0,0,0l-1.6-1.5c0,0,0,0,0,0c0,0,0,0,0,0l-1.6-1.5c-23.6,1.4-47.1,3.1-70.6,4.9C817.2,67.9,840.6,123.3,864,179
			c0,36,0,72,0,107.9l-0.1-0.1l-44.4-40c-11.5,0.8-22.9,1.7-34.3,2.7c0-62.3,0.1-124.6,0.1-186.9l-1.6-1.4c0,0,0,0,0,0
			c0,0-1.6-1.4-1.6-1.5c0,0-1.6-1.4-1.6-1.5c-0.1,0-1.6-1.4-1.6-1.5c-0.1,0-1.6-1.4-1.6-1.5c-0.1,0-1.6-1.4-1.6-1.5
			c-0.1,0-1.6-1.4-1.6-1.5c-0.1,0-1.6-1.4-1.6-1.5c-0.1,0-1.6-1.3-1.6-1.5c-0.1,0-1.6-1.3-1.6-1.5c-0.1,0-1.6-1.3-1.6-1.5
			c-0.1,0-1.6-1.3-1.6-1.4c-0.1,0-1.6-1.3-1.6-1.4c-0.1,0-1.6-1.3-1.6-1.4c-0.1,0-1.6-1.3-1.6-1.4c-0.1,0-1.6-1.3-1.6-1.4
			c-0.1,0-1.6-1.3-1.6-1.4c-0.1,0-1.6-1.3-1.6-1.4c-0.1,0-1.6-1.3-1.6-1.4c-0.1,0-1.6-1.3-1.6-1.4c-0.1,0-1.6-1.3-1.6-1.4
			c-0.1,0-1.6-1.3-1.6-1.4c-0.1,0-1.6-1.3-1.6-1.4c-0.1,0-1.6-1.3-1.6-1.4c-0.1,0-1.6-1.3-1.6-1.4c-0.1,0-1.6-1.4-1.6-1.4
			c-0.1,0-1.6-1.4-1.6-1.4c0,0-1.6-1.4-1.6-1.4c0,0-1.6-1.4-1.6-1.4c0,0-1.6-1.4-1.6-1.4c0,0,0,0,0,0l-1.6-1.4
			c-23.2,2.2-46.5,4.6-69.7,7.2c0,22.9,0,45.9,0,68.8c-0.3-0.3-0.6-0.5-0.9-0.8c-15.2-13-30-27-45.9-39.1c-0.5-0.4-1-0.9-1.5-1.3
			c-20-17.2-56.7-14.6-82.4-10.8c-27.5,4-54.9,8.3-82.3,12.9c0,25.2,0,50.3,0,75.5c-0.5-0.5-0.9-1.1-1.4-1.6
			c-15.1-14.8-34.1-29-51.4-41.3c-0.5-0.4-1-0.9-1.5-1.2c-19.9-16.1-56.3-11.4-81.9-6.2c-27.3,5.5-54.5,11.4-81.7,17.5
			c0,74.2-0.1,148.3-0.1,222.5c-12.4-54.9-24.8-109.9-37.2-164.6l-1.6-1.2c0,0,0,0,0,0c0,0-1.6-1.2-1.6-1.2c0,0-1.6-1.2-1.6-1.2
			c-0.1,0-1.6-1.2-1.6-1.2c-0.1,0-1.6-1.1-1.6-1.2c-0.1,0-1.6-1.1-1.6-1.2c-0.1,0-1.6-1.1-1.6-1.2c-0.1,0-1.6-1.1-1.6-1.2
			c-0.1,0-1.6-1.1-1.6-1.2c-0.1,0-1.6-1.1-1.6-1.2c-0.1,0-1.6-1.1-1.6-1.2c-0.1,0-1.6-1.1-1.6-1.2c-0.1,0-1.6-1.1-1.6-1.2
			c-0.1,0-1.6-1.1-1.6-1.2c-0.1,0-1.6-1.1-1.6-1.2c-0.1,0-1.6-1.1-1.6-1.2c-0.1,0-1.6-1.1-1.6-1.2c-0.1,0-1.6-1.1-1.6-1.2
			c-0.1,0-1.6-1.1-1.6-1.2c-0.1,0-1.6-1.1-1.6-1.2c-0.1,0-1.6-1.1-1.6-1.2c-0.1,0-1.6-1.1-1.6-1.2c-0.1,0-1.6-1.1-1.6-1.2
			c-0.1,0-1.6-1.1-1.6-1.2c-0.1,0-1.6-1.1-1.6-1.2c-0.1,0-1.6-1.1-1.6-1.2c-0.1,0-1.6-1.1-1.6-1.2c0,0-1.6-1.1-1.6-1.2
			c0,0-1.6-1.2-1.6-1.2c0,0,0,0,0,0l-1.6-1.2c0,0,0,0,0,0c0,0,0,0,0,0l-1.6-1.2c-27.5,6.8-54.9,14-82.2,21.4
			C43,243.7,21.9,348,0.7,452.6l49.6,35.2c22.8-6.3,45.7-12.4,68.6-18.3c2.7-19.9,5.5-39.7,8.2-59.6c4-1,8-2,12.1-3
			c0.5,2.6,0.9,5.2,1.4,7.8l49.9,37.1c23.1-5.5,46.2-10.8,69.4-15.8c-2.1-9.5-4.3-18.9-6.4-28.4l1.1,0.9l29.1,22.3
			c22.9-4.9,45.9-9.5,68.9-14c0-38.3,0-76.6,0.1-114.9c25.9-6.2,53.8-7.7,77.7-23.7c8.8-5.6,15.7-12.5,21.1-20.3
			c0,30.6,0,61.2,0,91.8L502,391c23.1-3.6,46.3-6.9,69.4-10c0-38.3,0-76.6,0-114.9c26.1-4.7,54.1-4.7,78.3-19.3
			c5.7-3.3,10.6-7.2,14.9-11.5c0,28.3,0,56.6,0,85l50.8,43.9c51.6-5.1,103.3-9.2,155.1-12.2c0-14.8,0-29.7,0-44.5c0,0,0,0,0.1,0
			c0,0.5,0,1.1,0,1.6l44.4,40.6c23.3-1.1,46.6-2,69.9-2.7c0-41.3,0-82.7,0.1-124c24-57.8,48-115.4,72-172.7L1055.3,48.5
			C1055.3,48.5,1055.3,48.5,1055.3,48.5z"/>
		<path class="st0" d="M2204.7,204.8C2204.7,204.8,2204.7,204.8,2204.7,204.8C2204.7,204.8,2204.7,204.8,2204.7,204.8l-1.6-2
			c0,0,0,0,0,0c0,0,0,0,0,0l-1.6-2c0,0,0,0,0,0c0,0,0,0,0,0l-1.6-2c0,0,0,0,0,0c0,0,0,0,0,0l-1.6-2c0,0,0,0,0,0c0,0,0,0-0.1,0
			l-1.6-2c0,0,0,0,0,0c0,0,0,0-0.1,0l-1.6-2c0,0,0,0,0,0c0,0,0,0-0.1,0l-1.5-2c0,0,0,0,0-0.1c0,0-0.1,0-0.1,0l-1.5-2c0,0,0,0,0-0.1
			c0,0-0.1,0-0.1,0l-1.5-2c0,0,0,0,0-0.1c0,0-0.1,0-0.1,0l-1.5-2c0,0,0,0,0-0.1c0,0-0.1,0-0.1,0l-1.5-2c0,0,0,0,0-0.1
			c0,0-0.1,0-0.1,0l-1.5-2c0,0,0,0,0-0.1c0,0-0.1,0-0.1,0l-1.5-2c0,0,0,0,0-0.1c0,0-0.1,0-0.1,0l-1.5-2c0,0,0,0,0-0.1
			c0,0-0.1,0-0.1,0l-1.5-1.9c0,0,0,0,0-0.1c0,0-0.1,0-0.1,0l-1.5-1.9c0,0,0,0,0-0.1c0,0-0.1,0-0.1,0l-1.5-1.9c0,0,0,0,0-0.1
			c0,0-0.1,0-0.1,0l-1.5-2c0,0,0,0,0-0.1c0,0-0.1,0-0.1,0l-1.5-2c0,0,0,0,0-0.1c0,0-0.1,0-0.1,0l-1.5-2c0,0,0,0,0-0.1
			c0,0-0.1,0-0.1,0l-1.5-2c0,0,0,0,0-0.1c0,0-0.1,0-0.1,0l-1.5-2c0,0,0,0,0-0.1c0,0-0.1,0-0.1,0l-1.5-2c0,0,0,0,0,0c0,0,0,0-0.1,0
			l-1.5-2c0,0,0,0,0,0c0,0,0,0-0.1,0l-1.6-2c0,0,0,0,0,0c0,0,0,0-0.1,0l-1.6-2c0,0,0,0,0,0c0,0,0,0,0,0l-1.6-2c0,0,0,0,0,0
			c0,0,0,0,0,0l-1.6-2c0,0,0,0,0,0c0,0,0,0,0,0l-1.6-2c0,0,0,0,0,0c0,0,0,0,0,0l-1.6-2c-22.7-6.3-45.4-12.3-68.2-18.2
			c-6.1,15.4-12.3,30.8-18.5,46.2l-1.6-2l-1.6-2c0,0,0,0,0,0c0,0,0,0,0,0l-1.6-2c0,0,0,0,0,0c0,0,0,0,0,0l-1.6-1.9c0,0,0,0,0-0.1
			c0,0,0,0,0,0l-1.6-1.9c0,0,0,0,0-0.1c0,0,0,0,0,0l-1.5-1.9c0,0,0-0.1,0-0.1c0,0,0,0-0.1,0l-1.5-1.9c0,0,0-0.1,0-0.1c0,0,0,0-0.1,0
			l-1.5-1.9c0,0,0-0.1,0-0.1c0,0,0,0-0.1,0l-1.5-1.8c0,0,0-0.1,0-0.1c0,0-0.1,0-0.1,0l-1.5-1.8c0,0,0-0.1,0-0.1c0,0-0.1,0-0.1,0
			l-1.5-1.8c0,0,0-0.1,0-0.1c0,0-0.1,0-0.1,0l-1.5-1.8c0-0.1,0-0.1,0-0.2c0,0-0.1,0-0.1,0l-1.5-1.8c0-0.1,0-0.1-0.1-0.2
			c0,0-0.1,0-0.1,0l-1.5-1.8c0-0.1,0-0.1-0.1-0.2c0,0-0.1,0-0.1,0l-1.5-1.8c0-0.1,0-0.1-0.1-0.2c0,0-0.1,0-0.1,0l-1.5-1.8
			c0-0.1,0-0.1-0.1-0.2c0,0-0.1,0-0.1,0l-1.5-1.8c0-0.1,0-0.1-0.1-0.2c0,0-0.1,0-0.1,0l-1.5-1.8c0-0.1,0-0.1-0.1-0.2
			c0,0-0.1,0-0.1,0l-1.5-1.8c0-0.1,0-0.1-0.1-0.2c0,0-0.1,0-0.1,0l-1.5-1.8c0-0.1,0-0.1-0.1-0.2c0,0-0.1,0-0.1,0l-1.5-1.8
			c0-0.1,0-0.1,0-0.2c0,0-0.1,0-0.1,0l-1.5-1.8c0,0,0-0.1,0-0.1c0,0-0.1,0-0.1,0l-1.5-1.8c0,0,0-0.1,0-0.1c0,0-0.1,0-0.1,0l-1.5-1.8
			c0,0,0-0.1,0-0.1c0,0-0.1,0-0.1,0l-1.5-1.8c0,0,0-0.1,0-0.1c0,0,0,0-0.1,0l-1.5-1.9c0,0,0-0.1,0-0.1c0,0,0,0-0.1,0l-1.5-1.9
			c0,0,0-0.1,0-0.1c0,0,0,0-0.1,0l-1.5-1.9c0,0,0-0.1,0-0.1c0,0,0,0,0,0l-1.5-1.9c0,0,0,0,0-0.1c0,0,0,0,0,0l-1.6-1.9c0,0,0,0,0,0
			c0,0,0,0,0,0l-1.6-1.9c0,0,0,0,0,0c0,0,0,0,0,0l-1.6-2c-23.1-5.5-46.2-10.8-69.4-15.9c23,62.1,46,124.4,69,187
			c0,41.3,0,82.7-0.1,124l49.9,61.5c22.8,5.7,45.5,11.7,68.2,17.8c0-41.3,0-82.7,0.1-124c23.4-50.7,46.7-101.3,70-151.6
			L2204.7,204.8z"/>
		<path class="st0" d="M1948.1,139.6C1948.1,139.6,1948.1,139.6,1948.1,139.6C1948.1,139.6,1948.1,139.6,1948.1,139.6l-1.6-1.9
			c0,0,0,0,0,0c0,0,0,0,0,0l-1.6-1.9c0,0,0,0,0,0c0,0,0,0,0,0l-1.6-1.9c0,0,0,0,0-0.1c0,0,0,0,0,0l-1.6-1.9c0,0,0,0,0-0.1
			c0,0,0,0-0.1,0l-1.5-1.8c0,0,0-0.1,0-0.1c0,0,0,0-0.1,0l-1.5-1.8c0,0,0-0.1,0-0.1c0,0,0,0-0.1,0l-1.5-1.8c0,0,0-0.1,0-0.1
			c0,0-0.1,0-0.1,0l-1.5-1.8c0,0,0-0.1,0-0.1c0,0-0.1,0-0.1,0l-1.5-1.8c0,0,0-0.1,0-0.1c0,0-0.1,0-0.1,0l-1.5-1.8c0,0,0-0.1,0-0.1
			c0,0-0.1,0-0.1,0l-1.5-1.8c0,0,0-0.1,0-0.1c0,0-0.1,0-0.1,0l-1.5-1.8c0,0,0-0.1,0-0.1c0,0-0.1,0-0.1,0l-1.5-1.8c0,0,0-0.1,0-0.1
			c0,0-0.1,0-0.1,0l-1.5-1.8c0,0,0-0.1,0-0.1c0,0-0.1,0-0.1,0l-1.5-1.8c0,0,0-0.1,0-0.1c0,0-0.1,0-0.1,0l-1.5-1.8c0,0,0-0.1,0-0.1
			c0,0-0.1,0-0.1,0l-1.5-1.8c0,0,0-0.1,0-0.1c0,0-0.1,0-0.1,0l-1.5-1.8c0,0,0-0.1,0-0.1c0,0-0.1,0-0.1,0l-1.5-1.8c0,0,0-0.1,0-0.1
			c0,0-0.1,0-0.1,0l-1.5-1.8c0,0,0-0.1,0-0.1c0,0-0.1,0-0.1,0l-1.5-1.8c0,0,0-0.1,0-0.1c0,0-0.1,0-0.1,0l-1.5-1.8c0,0,0-0.1,0-0.1
			c0,0-0.1,0-0.1,0l-1.5-1.8c0,0,0-0.1,0-0.1c0,0,0,0-0.1,0l-1.5-1.8c0,0,0-0.1,0-0.1c0,0,0,0-0.1,0l-1.5-1.8c0,0,0,0,0-0.1
			c0,0,0,0-0.1,0l-1.6-1.9c0,0,0,0,0-0.1c0,0,0,0,0,0l-1.6-1.9c0,0,0,0,0,0c0,0,0,0,0,0l-1.6-1.9c0,0,0,0,0,0c0,0,0,0,0,0l-1.6-1.9
			c0,0,0,0,0,0c0,0,0,0,0,0l-1.6-1.9c-27.7-5.7-55.4-11.1-83.1-16.2c-11.4,49.9-22.7,99.9-34.1,149.9c0-6.7,0-13.4,0-20.1
			c0-23.6-3-48-19.5-67.2c-0.6-0.7-1.2-1.5-1.9-2.2c-0.5-0.6-1.1-1.2-1.6-1.9c-0.5-0.6-1.1-1.2-1.6-1.9c-0.5-0.6-1.1-1.2-1.6-1.9
			c-0.5-0.6-1.1-1.2-1.6-1.9c-0.5-0.6-1.1-1.2-1.6-1.9c-0.5-0.6-1.1-1.2-1.6-1.9c-0.5-0.6-1.1-1.2-1.6-1.9c-0.5-0.6-1.1-1.2-1.6-1.9
			c-0.5-0.6-1.1-1.2-1.6-1.9c-0.5-0.6-1.1-1.2-1.6-1.9c-0.5-0.6-1.1-1.2-1.6-1.9c-0.5-0.6-1.1-1.2-1.6-1.9c-0.5-0.6-1.1-1.2-1.6-1.9
			c-0.5-0.6-1.1-1.2-1.6-1.9c-0.5-0.6-1.1-1.2-1.6-1.9c-0.5-0.6-1.1-1.2-1.6-1.9c-0.5-0.6-1.1-1.2-1.6-1.8c-0.5-0.6-1.1-1.2-1.6-1.9
			c-0.5-0.6-1.1-1.2-1.6-1.9c-0.5-0.6-1.1-1.2-1.6-1.9c-0.5-0.6-1.1-1.2-1.6-1.8c-0.5-0.6-1.1-1.2-1.6-1.9c-0.5-0.6-1.1-1.2-1.6-1.8
			c-0.5-0.6-1.1-1.2-1.6-1.8c-0.5-0.6-1.1-1.2-1.6-1.9c-0.5-0.6-1.1-1.2-1.6-1.8c-0.5-0.6-1.1-1.2-1.6-1.8c-0.5-0.6-1.1-1.2-1.6-1.8
			c-1.3-1.5-2.6-3.1-4.1-4.5c-3.1-3.4-6.5-6.6-10.5-9.6c-22.5-16.4-52.8-21.6-78.1-24.9c-25.1-3.3-50.3-6.4-75.5-9.3
			c0,24.2,0,48.5,0,72.7c-2.3-3.2-4.8-6.3-7.6-9.1c-0.5-0.6-1.1-1.2-1.6-1.8c-0.5-0.6-1.1-1.2-1.6-1.8c-0.5-0.6-1.1-1.2-1.6-1.8
			c-0.5-0.6-1.1-1.2-1.6-1.8c-0.5-0.6-1.1-1.2-1.6-1.8c-0.5-0.6-1.1-1.2-1.6-1.8c-0.5-0.6-1.1-1.2-1.6-1.8c-0.5-0.6-1.1-1.2-1.6-1.8
			c-0.5-0.6-1.1-1.2-1.6-1.8c-0.5-0.6-1.1-1.2-1.6-1.8c-0.5-0.6-1.1-1.2-1.6-1.8c-0.5-0.6-1.1-1.2-1.6-1.8c-0.5-0.6-1.1-1.2-1.6-1.8
			c-0.5-0.6-1.1-1.2-1.6-1.8c-0.5-0.6-1.1-1.2-1.6-1.8c-0.5-0.6-1.1-1.2-1.6-1.8c-0.5-0.6-1.1-1.2-1.6-1.8c-0.5-0.6-1.1-1.2-1.6-1.8
			c-0.5-0.6-1.1-1.2-1.6-1.8c-0.5-0.6-1.1-1.2-1.6-1.8c-0.5-0.6-1.1-1.2-1.6-1.8c-0.5-0.6-1.1-1.2-1.6-1.8c-0.5-0.6-1.1-1.2-1.6-1.8
			c-0.5-0.6-1.1-1.2-1.7-1.8c-0.5-0.6-1.1-1.2-1.6-1.7c-0.5-0.6-1.1-1.2-1.6-1.8c-0.5-0.6-1.1-1.2-1.6-1.7c-0.5-0.6-1.1-1.2-1.6-1.8
			c-0.5-0.6-1.1-1.2-1.6-1.8c-0.5-0.6-1.1-1.2-1.6-1.7c-15.8-17.1-39.6-27.6-70.8-30.2c-41.2-3.3-70.1,9.3-84.6,35.2l-0.7-0.7
			l-1.6-1.7c0,0,0,0,0,0c0,0,0,0,0,0l-1.6-1.7c0,0,0,0,0,0c0,0,0,0,0,0l-1.6-1.7c0,0,0,0,0,0c0,0,0,0,0,0l-1.6-1.7c0,0,0,0,0,0
			c0,0,0,0,0,0l-1.6-1.7c0,0,0,0,0,0c0,0,0,0,0,0l-1.6-1.6c0,0,0,0,0,0c0,0,0,0,0,0l-1.6-1.6c0,0,0,0,0,0c0,0,0,0,0,0l-1.6-1.6
			c0,0,0,0,0,0c0,0,0,0,0,0l-1.6-1.6c0,0,0,0,0,0c0,0,0,0,0,0l-1.6-1.6c0,0,0,0,0,0c0,0,0,0,0,0l-1.6-1.6c0,0,0,0,0,0c0,0,0,0,0,0
			l-1.6-1.6c0,0,0,0,0,0c0,0,0,0,0,0l-1.6-1.6c0,0,0,0,0,0c0,0,0,0,0,0l-1.6-1.6c0,0,0,0,0,0c0,0,0,0,0,0l-1.6-1.6c0,0,0,0,0,0
			c0,0,0,0,0,0l-1.6-1.6c0,0,0,0,0,0c0,0,0,0,0,0l-1.6-1.6c0,0,0,0,0,0c0,0,0,0,0,0l-1.6-1.7c0,0,0,0,0,0c0,0,0,0,0,0l-1.6-1.7
			c0,0,0,0,0,0c0,0,0,0,0,0l-1.6-1.7c0,0,0,0,0,0c0,0,0,0,0,0l-1.6-1.7c-60.4-3-120.8-4.6-181.2-4.9c0,19.7,0,39.4,0,59l51,49.8
			c1.3,0,2.5,0.1,3.8,0.1c0,62.3-0.1,124.6-0.1,186.9l51,50.5c23.3,0.7,46.6,1.6,69.9,2.8c0-78.7,0.1-157.4,0.1-236.2
			c10,0.5,20,1.1,30,1.7c0,30.9,0,61.8,0,92.7c0,37.6,7.8,65.3,27.3,83.2c0.6,0.6,1.1,1.2,1.7,1.7c0.6,0.6,1.1,1.2,1.6,1.7
			c0.6,0.6,1.1,1.2,1.6,1.7c0.6,0.6,1.1,1.2,1.6,1.7c0.6,0.6,1.1,1.2,1.6,1.7c0.6,0.6,1.1,1.2,1.6,1.7c0.6,0.6,1.1,1.2,1.6,1.7
			c0.6,0.6,1.1,1.2,1.6,1.7c0.6,0.6,1.1,1.2,1.7,1.7c0.6,0.6,1.1,1.2,1.6,1.7c0.6,0.6,1.1,1.2,1.6,1.7c0.6,0.6,1.1,1.2,1.6,1.7
			c0.6,0.6,1.1,1.2,1.6,1.7c0.6,0.6,1.1,1.2,1.6,1.7c0.6,0.6,1.1,1.2,1.7,1.7c0.6,0.6,1.1,1.2,1.6,1.7c0.6,0.6,1.1,1.2,1.7,1.7
			c0.6,0.6,1.1,1.2,1.6,1.7c0.6,0.6,1.1,1.2,1.6,1.7c0.6,0.6,1.1,1.2,1.6,1.7c0.6,0.6,1.1,1.2,1.7,1.7c0.6,0.6,1.1,1.2,1.6,1.7
			c0.6,0.6,1.1,1.2,1.7,1.7c0.6,0.6,1.1,1.2,1.6,1.7c0.6,0.6,1.1,1.2,1.7,1.7c0.6,0.6,1.1,1.2,1.6,1.7c0.6,0.6,1.1,1.2,1.6,1.7
			c0.6,0.6,1.1,1.2,1.6,1.7c0.6,0.6,1.1,1.2,1.6,1.7c0.6,0.6,1.1,1.2,1.7,1.7c15.1,15.1,37.5,24.1,69.5,27
			c48.1,4.6,74.2-8.6,86-38.5l0.6,0.7l40.9,44.7c31.2,3.9,62.4,8.2,93.5,12.9c21.3,3.2,43.3,4.7,61.4-4c7.3-3.4,13.2-8.2,17.7-14.4
			l1,1.1l30.9,35.6c23.2,4.2,46.3,8.5,69.4,13.1c2.8-18.6,5.5-37.2,8.3-55.8c4.1,0.8,8.1,1.7,12.2,2.5c0.5,2.8,0.9,5.6,1.4,8.4
			l50.2,59.9c23.2,5,46.3,10.3,69.4,15.8c-21.1-103.4-42.3-206.6-63.4-309.7L1948.1,139.6z"/>
	</g>
	<g>
		<g>
			<path class="st1" d="M0.7,452.6C21.9,348,43,243.7,64.2,139.5c27.3-7.4,54.7-14.6,82.2-21.4c21.1,93.2,42.2,186.5,63.3,280
				c-23.1,5.4-46.2,10.9-69.3,16.7c-3.2-18.3-6.5-36.7-9.7-55c-17.9,4.5-35.7,9.2-53.5,14c-2.7,19.9-5.4,39.8-8.2,59.7
				C46.3,439.5,23.5,445.9,0.7,452.6z M105.3,182.1c-0.3,0.1-0.5,0.1-0.8,0.2c-6.6,45.8-13.2,91.6-19.8,137.5
				c13.2-3.5,26.4-7,39.6-10.3C117.9,267,111.6,224.5,105.3,182.1z"/>
			<path class="st1" d="M0,453.4l0.2-0.9c21.3-105.4,42.6-210.7,63.5-313.1l0.1-0.3l0.3-0.1c27.2-7.4,54.8-14.6,82.2-21.4l0.6-0.1
				l0.1,0.6c21.1,93.2,42.2,186.5,63.3,280l0.1,0.5l-0.5,0.1c-23,5.3-46.3,11-69.3,16.7l-0.6,0.1l-0.1-0.6l-9.6-54.4
				c-17.6,4.5-35.2,9.1-52.5,13.7l-8.2,59.7l-0.4,0.1c-22.7,6.2-45.7,12.6-68.4,19.2L0,453.4z M64.7,139.9
				c-20.8,102-42,206.9-63.2,311.8c22.2-6.4,44.8-12.8,67.1-18.8l8.2-59.7l0.4-0.1c17.6-4.7,35.6-9.4,53.5-14l0.6-0.2l0.1,0.6
				l9.6,54.4c22.6-5.7,45.5-11.2,68.1-16.5C188,304.5,167,211.5,146,118.7C118.9,125.5,91.6,132.6,64.7,139.9z M84,320.5l0.1-0.9
				c6.6-45.8,13.2-91.7,19.8-137.5l0.1-0.4l1.8-0.5l5.4,36.3l13.7,92.2l-0.5,0.1c-13.2,3.4-26.5,6.8-39.5,10.3L84,320.5z
				 M104.9,183.4c-6.5,45.2-13,90.3-19.5,135.5c12.6-3.4,25.5-6.7,38.2-10L104.9,183.4z"/>
		</g>
		<g>
			<path class="st1" d="M233.5,392.6c0-98.4,0.1-196.8,0.1-295.2c27.2-6.1,54.4-12,81.7-17.5c26.6-5.5,65.1-10.4,84.3,8.2
				c16.1,15.2,19.2,36.7,19.2,60.7c0,31.9-7.5,68.9-38.9,89.3c-23.9,16.3-51.8,18.2-77.6,24.7c0,38.3,0,76.6-0.1,114.9
				C279.4,382.5,256.4,387.4,233.5,392.6z M302.4,209.6c12.9-3.1,27.8-4.5,38.8-15.3c7.1-9.3,8.6-21.4,8.6-31.6
				c0-11.4-1.2-28.5-12.9-31.7c-6.7-1.1-16.1,0.8-27,3.1c-2.5,0.5-5,1-7.4,1.5C302.4,160.3,302.4,184.9,302.4,209.6z"/>
			<path class="st1" d="M233,393.3l0.1-296.4l0.4-0.1c27-6.1,54.5-12,81.7-17.5c42.3-8.7,70-5.9,84.8,8.4
				c17.1,16.1,19.4,38.9,19.4,61.1c0,42.7-13.2,72.9-39.2,89.8c-18,12.3-38.4,16.4-58.1,20.4c-6.3,1.3-12.9,2.6-19.2,4.2l-0.1,115
				l-0.5,0.1c-23,4.7-46.1,9.8-68.8,14.9L233,393.3z M234.2,97.8l-0.1,294.1c22.3-5,45.1-9.9,67.6-14.6l0.1-114.8l0.4-0.2
				c6.5-1.6,13.2-3,19.7-4.3c19.6-4,39.9-8.1,57.7-20.3c25.7-16.6,38.7-46.5,38.7-88.8c0-22-2.3-44.5-19-60.3
				c-14.5-14-41.9-16.7-83.8-8.1C288.4,85.9,261.1,91.7,234.2,97.8z M301.8,210.3l0-75.2l0.5-0.1c2.5-0.5,5-1,7.4-1.5
				c10.5-2.1,20.3-4.2,27.2-3.1c12,3.3,13.4,20,13.4,32.3c0,13.8-2.9,24.2-8.8,32c-9.3,9.2-21.1,11.6-32.4,14
				c-2.3,0.5-4.5,0.9-6.7,1.5L301.8,210.3z M303,136.1l0,72.8c2-0.5,4-0.9,6-1.3c11.2-2.4,22.8-4.8,31.8-13.7
				c5.7-7.5,8.5-17.7,8.5-31.2c0-11.9-1.3-28.1-12.5-31.2c-6.7-1.1-16.4,1-26.8,3.1C307.6,135.1,305.3,135.6,303,136.1z"/>
		</g>
		<g>
			<path class="st1" d="M451.4,349.8c0-98.4,0.1-196.8,0.1-295.2c27.4-4.6,54.9-8.9,82.3-12.9c26.8-4,65.5-6.7,84.9,13
				c16.2,16.1,19.4,37.8,19.3,61.8c0,31.9-7.5,68.5-39.2,87.1c-24.1,14.9-52.1,15.2-78.2,20.3c0,38.3,0,76.6,0,114.9
				C497.6,342.3,474.5,346,451.4,349.8z M520.8,170.8c13-2.3,28-2.9,39.1-13.1c7.1-8.9,8.7-20.9,8.7-31.1c0-11.4-1.2-28.6-13-32.4
				c-6.7-1.4-16.2-0.1-27.2,1.5c-2.5,0.4-5,0.7-7.5,1.1C520.9,121.5,520.8,146.1,520.8,170.8z"/>
			<path class="st1" d="M450.9,350.5v-0.7L451,54.1l0.5-0.1c27.3-4.6,55-8.9,82.3-12.9c42.6-6.3,70.5-2,85.4,13.1
				c17.2,17.1,19.5,40,19.5,62.2c0,42.7-13.3,72.2-39.4,87.6c-18.2,11.2-38.7,14.2-58.6,17.2c-6.4,0.9-12.9,1.9-19.3,3.1l0,115
				l-0.5,0.1c-23,3.4-46.3,7.1-69.3,11L450.9,350.5z M452.1,55.1L452,349.2c22.6-3.8,45.5-7.4,68.2-10.8l0-114.9l0.5-0.1
				c6.5-1.3,13.3-2.3,19.8-3.2c19.7-2.9,40.2-5.9,58.2-17c25.8-15.2,38.9-44.3,38.9-86.6c0-22-2.3-44.6-19.2-61.4
				c-14.6-14.9-42.2-19-84.4-12.8C506.8,46.2,479.3,50.5,452.1,55.1z M520.3,171.5l0-75.2l8-1.2c10.5-1.6,20.5-3,27.4-1.5
				c12.1,3.9,13.5,20.7,13.5,33c0,13.8-2.9,24.1-8.8,31.5c-9.4,8.6-21.2,10.5-32.7,12.2c-2.3,0.3-4.5,0.7-6.7,1.1L520.3,171.5z
				 M521.4,97.3l0,72.8c2-0.3,4-0.7,6.1-1c11.3-1.7,23-3.5,32-11.9c5.7-7.1,8.5-17.2,8.5-30.7c0-11.9-1.3-28.2-12.6-31.9
				c-6.7-1.4-16.5,0-27,1.6L521.4,97.3z"/>
		</g>
		<g>
			<path class="st1" d="M664.6,320.2c0-98.4,0.1-196.8,0.1-295.2c23.2-2.6,46.4-5,69.7-7.2c0,78.7-0.1,157.5-0.1,236.2
				c28.4-2.7,56.8-5,85.3-7.1c0,19.7,0,39.4,0,59C767.8,309.7,716.1,314.4,664.6,320.2z"/>
			<path class="st1" d="M664,320.8v-0.6l0.1-295.7l0.5-0.1c23.1-2.6,46.6-5,69.7-7.2l0.6-0.1v0.6l-0.1,235.6c28.1-2.6,56.5-5,84.6-7
				l0.6,0l0,60.2l-0.5,0c-51.5,3.7-103.6,8.5-154.9,14.2L664,320.8z M665.3,25.4l-0.1,294.1c50.9-5.7,102.7-10.4,153.8-14.1l0-57.9
				c-28.1,2-56.6,4.4-84.6,7l-0.6,0.1V254l0.1-235.6C711.1,20.5,688,22.9,665.3,25.4z"/>
		</g>
		<g>
			<path class="st1" d="M899.4,102.2c0.3,0,0.5,0,0.8,0C912.1,69.4,924,36.7,936,4.1c23.3-1,46.6-1.8,69.9-2.3
				c-24,57.7-48,115.5-72,173.6c0,41.3,0,82.7-0.1,124c-23.3,1-46.6,2.2-69.9,3.6c0-41.3,0-82.7,0.1-124
				c-23.4-55.7-46.8-111.1-70.2-166.3c23.5-1.8,47.1-3.5,70.6-4.9C876.1,39.2,887.8,70.7,899.4,102.2z"/>
			<path class="st1" d="M863.4,303.6l0.1-124.5C840,123.2,816.4,67.3,793.3,12.9l-0.3-0.7l0.8-0.1c23.4-1.8,47.1-3.5,70.6-4.9l0.4,0
				l0.1,0.4c11.6,31.3,23.2,62.7,34.8,94.1h0c11.9-32.6,23.8-65.2,35.7-97.8l0.1-0.4l0.4,0c23.2-1,46.7-1.8,69.9-2.3l0.9,0l-0.3,0.8
				c-24.1,57.8-48.3,116.2-72,173.5l-0.1,124.4l-0.5,0.1c-23.3,1-46.8,2.2-69.9,3.6L863.4,303.6z M794.7,13.2
				c23,54.2,46.5,109.9,69.9,165.6l0,0.2l-0.1,123.4c22.7-1.4,45.8-2.6,68.8-3.6l0.1-123.7C957,118,981.1,59.9,1005,2.3
				c-22.8,0.6-45.9,1.3-68.7,2.3c-11.9,32.5-23.8,65.1-35.7,97.8l-0.1,0.4l-1.6,0.1l-0.1-0.4C887.3,71,875.7,39.7,864.1,8.3
				C841,9.7,817.7,11.4,794.7,13.2z"/>
		</g>
		<g>
			<path class="st1" d="M1118.4,0.6c60.4,0.2,120.9,1.9,181.2,4.9c0,19.7,0,39.4,0,59c-18.8-0.9-37.6-1.7-56.4-2.4
				c0,78.7-0.1,157.4-0.1,236.2c-23.3-0.8-46.6-1.4-69.9-1.9c0-78.7,0.1-157.4,0.1-236.2c-18.3-0.3-36.6-0.5-54.9-0.6
				C1118.4,39.9,1118.4,20.2,1118.4,0.6z"/>
			<path class="st1" d="M1243.7,298.8l-0.6,0c-23.3-0.8-46.8-1.4-69.9-1.9l-0.6,0l0.1-236.2c-18-0.3-36.3-0.5-54.3-0.6h-0.6v-0.6
				c0-19.7,0-39.4,0-59V0l0.6,0c60.2,0.2,121.1,1.9,181.3,4.9l0.5,0l0,60.2l-0.6,0c-18.3-0.9-37.1-1.7-55.8-2.4L1243.7,298.8z
				 M1173.7,295.8c22.7,0.4,45.9,1,68.8,1.8l0.1-236.2l0.6,0c18.7,0.7,37.5,1.5,55.8,2.4l0-57.9c-59.7-3-120.3-4.6-180.1-4.8
				c0,19.3,0,38.6,0,57.9c18,0.1,36.3,0.3,54.3,0.6l0.6,0L1173.7,295.8z"/>
		</g>
		<g>
			<path class="st1" d="M1513.4,223c0,66.7-23.4,98.3-94,92.5c-70.6-5.5-95.2-41-95.2-107.6c0-40,0-80,0-120.1
				c0-56.6,34.2-86.5,95.3-81.7c61.1,5,93.9,40.2,93.9,96.8C1513.4,143,1513.4,183,1513.4,223z M1443.7,101
				c0-18.1-1.6-39.9-24.6-41.8c-22.2-1.8-25,19.7-25,37.8c0,40.4,0,80.8-0.1,121.2c0,16.9,2.8,42.3,25.4,44.1
				c22.6,1.8,24.2-23.2,24.2-40.1C1443.6,181.9,1443.7,141.4,1443.7,101z"/>
			<path class="st1" d="M1434.9,316.8c-4.9,0-10.1-0.2-15.6-0.7c-67.1-5.2-95.8-37.6-95.7-108.2c0-40,0-80,0-120.1
				c0-27.4,7.9-48.6,23.3-62.9c16.6-15.4,41.1-21.9,72.6-19.4c60.9,5,94.4,39.5,94.4,97.4l0,120.1c0,37.5-7.4,61.8-23.4,76.5
				C1478,311.1,1459.7,316.8,1434.9,316.8z M1406.9,6.2c-25.2,0-45,6.6-59.1,19.6c-15.2,14.1-22.9,34.9-22.9,62c0,40,0,80,0,120.1
				c0,35,6.6,59.3,21,76.4c15,18,39.1,28,73.7,30.7c32.5,2.7,55.5-2.6,70.3-16.3c15.7-14.4,23-38.5,23-75.6h0.6h-0.6l0-120.1
				c0-57.2-33.1-91.4-93.3-96.3C1415.1,6.3,1410.9,6.2,1406.9,6.2z M1421.7,263c-0.8,0-1.5,0-2.3-0.1c-17.2-1.4-25.9-16.4-25.9-44.6
				l0.1-121.2c0-11.7,1-26.1,9.2-33.5c4.1-3.8,9.6-5.4,16.5-4.9c25.1,2,25.1,28.3,25.1,42.4c0,40.4,0,80.8,0,121.2
				c0,13.6-1.1,28.4-9.4,36C1431.4,261.4,1427,263,1421.7,263z M1416.7,59.7c-5.4,0-9.8,1.6-13.2,4.7c-7.9,7.3-8.8,22.2-8.8,32.7
				l-0.1,121.2c0,27.9,8.1,42.2,24.8,43.5c6,0.5,10.9-1,14.6-4.3c8-7.3,9-22.7,9-35.2c0-40.4,0-80.8,0-121.2l0,0
				c0-19-1.8-39.4-24-41.2C1418.2,59.7,1417.4,59.7,1416.7,59.7z"/>
		</g>
		<g>
			<path class="st1" d="M1547,320.7c0-98.4,0.1-196.8,0.1-295.2c25.2,2.8,50.4,5.9,75.5,9.3c25.3,3.3,55.7,8.5,78.1,24.9
				c26.8,19.9,31.1,49.4,31.1,77.7c0,43.7,0,87.4-0.1,131.1c-0.4,29.5-9.5,49.6-29.6,59.1c-18.1,9-40.2,7.8-61.5,4.8
				C1609.5,328.2,1578.2,324.3,1547,320.7z M1616.6,276.1c46.6,9.4,47-9.2,45.8-48.8c0-32.1,0-64.3,0-96.4
				c-0.4-34.7-11.8-38.4-45.8-43.7C1616.6,150.1,1616.6,213.1,1616.6,276.1z"/>
			<path class="st1" d="M1667.7,335.2c-9,0-18.1-1-27.1-2.2c-31.3-4.3-62.8-8.2-93.6-11.7l-0.5-0.1v-0.5l0.1-295.8l0.6,0.1
				c25.2,2.8,50.6,6,75.5,9.3c28,3.7,56.9,9.3,78.4,25c27.6,20.5,31.3,51,31.3,78.2l-0.1,131.1c-0.4,30.8-10.2,50.3-29.9,59.6
				C1691.8,333.4,1679.9,335.2,1667.7,335.2z M1547.5,320.2c30.7,3.5,62,7.4,93.2,11.7c21,2.9,43,4.3,61.2-4.8
				c19.3-9.1,28.8-28.3,29.3-58.6l0.1-131.1c0-26.9-3.6-57.1-30.9-77.2c-21.3-15.6-50-21.1-77.8-24.8c-24.7-3.3-49.9-6.4-74.9-9.2
				L1547.5,320.2z M1636.7,279.1c-5.6,0-12.3-0.8-20.2-2.4l-0.5-0.1l0.1-190.1l0.7,0.1c34.1,5.3,45.9,8.9,46.3,44.2
				c0,32.2,0,64.3,0,96.4c0.7,24,0.7,39.1-8.3,46.7C1650.6,277.4,1644.8,279.1,1636.7,279.1z M1617.1,275.6
				c18.9,3.7,30.2,2.9,36.8-2.6c8.6-7.2,8.6-22.1,7.9-45.8c0-32.2,0-64.3,0-96.4c-0.4-34.2-11.8-37.9-44.6-43L1617.1,275.6z"/>
		</g>
		<g>
			<path class="st1" d="M1751.8,349.3c21.5-94.8,43.1-189.5,64.6-283.9c27.7,5.1,55.4,10.5,83.1,16.2
				c21.2,102.8,42.4,205.7,63.6,308.8c-23.2-5.2-46.4-10.1-69.6-14.8c-3.3-19.8-6.5-39.6-9.8-59.5c-18-3.6-36-7.1-54.1-10.5
				c-2.8,18.6-5.5,37.3-8.3,55.9C1798.2,357.2,1775,353.2,1751.8,349.3z M1857.9,126.8c-0.3-0.1-0.5-0.1-0.8-0.2
				c-6.7,42.8-13.4,85.6-20.1,128.4c13.3,2.5,26.7,5.1,40,7.8C1870.7,217.5,1864.3,172.1,1857.9,126.8z"/>
			<path class="st1" d="M1963.8,391.1l-0.9-0.2c-23.1-5.2-46.5-10.2-69.6-14.9l-0.4-0.1l-0.1-0.4l-9.7-59.1
				c-17.7-3.6-35.6-7-53.1-10.3l-8.3,55.9l-0.6-0.1c-23.2-4.3-46.6-8.4-69.5-12.2l-0.6-0.1l0.1-0.6c21.5-94.8,43.1-189.5,64.6-283.9
				l0.1-0.5l0.5,0.1c27.6,5.1,55.6,10.5,83.1,16.2l0.4,0.1l0.1,0.4c21.6,104.4,43,208.3,63.6,308.8L1963.8,391.1z M1894,375.1
				c22.6,4.6,45.6,9.5,68.3,14.6C1941.8,289.5,1920.5,186,1899,82c-27.2-5.6-54.9-11-82.2-16c-21.4,94.1-42.9,188.4-64.3,282.8
				c22.6,3.8,45.6,7.8,68.4,12l8.3-55.9l0.6,0.1c17.8,3.3,36.1,6.9,54.1,10.5l0.4,0.1l0.1,0.4L1894,375.1z M1877.8,263.5l-0.8-0.2
				c-13.3-2.7-26.8-5.3-40-7.8l-0.5-0.1l0.1-0.5l20.1-129l1.8,0.3l0.1,0.4c6.4,45.3,12.8,90.7,19.1,136L1877.8,263.5z M1837.8,254.6
				c12.8,2.4,25.7,4.9,38.7,7.5c-6.3-44.7-12.6-89.5-18.9-134.2L1837.8,254.6z"/>
		</g>
		<g>
			<path class="st1" d="M2052.8,212.7c0.3,0.1,0.5,0.1,0.8,0.2c11.7-29.3,23.3-58.5,35-87.6c22.8,5.9,45.5,11.9,68.2,18.2
				c-23.4,50.6-46.7,101.5-70.2,152.5c0,41.3,0,82.7-0.1,124c-22.8-5.8-45.6-11.5-68.4-16.9c0-41.3,0-82.7,0.1-124
				c-22.9-62.5-45.9-124.9-69-187c23.2,5.1,46.3,10.4,69.4,15.9C2030,142.8,2041.4,177.7,2052.8,212.7z"/>
			<path class="st1" d="M2087,420.7l-0.7-0.2c-22.8-5.9-45.9-11.6-68.4-16.9l-0.4-0.1l0.1-124.3c-22.6-61.5-45.8-124.4-68.9-186.9
				l-0.4-1l1,0.2c23.2,5.1,46.5,10.4,69.4,15.9l0.3,0.1l0.1,0.3c11.4,34.8,22.7,69.6,34.1,104.4c11.6-29.1,23.2-58.1,34.8-87.1
				l0.2-0.5l0.5,0.1c22.8,5.9,45.7,12,68.2,18.2l0.6,0.2l-0.3,0.6c-22.6,49-46.2,100.2-70.1,152.4L2087,420.7z M2018.6,402.6
				c22.2,5.3,44.8,10.9,67.3,16.6l0.1-123.5c23.9-52,47.4-103.1,69.9-151.9c-22.1-6.1-44.7-12.1-67-17.9c-11.6,29-23.2,58-34.8,87.1
				l-0.2,0.5l-1.6-0.4l-0.1-0.3c-11.4-34.9-22.7-69.7-34.1-104.4c-22.4-5.3-45.3-10.6-68.1-15.6c23,62.2,46.1,124.8,68.6,186l0,0.2
				L2018.6,402.6z"/>
		</g>
	</g>
</g>
</svg>
