<?xml version="1.0" encoding="utf-8"?>
<!-- Generator: Adobe Illustrator 22.1.0, SVG Export Plug-In . SVG Version: 6.00 Build 0)  -->
<svg version="1.1" id="Layer_1" xmlns="http://www.w3.org/2000/svg" xmlns:xlink="http://www.w3.org/1999/xlink" x="0px" y="0px"
	 viewBox="0 0 467 107.1" style="enable-background:new 0 0 467 107.1;" xml:space="preserve">
<style type="text/css">
	.st0{fill:#6083B5;}
</style>
<g>
	<g>
		<g>
			<path class="st0" d="M46.6,65.4c-1.1,0.1-2.2,0.1-3.2,0.2c18.4-0.2,37.8-2.1,55.2-2.6c1.1,0.1,3.3,0.2,4.4,0.3
				c8.7-0.3,19.4-1.7,28-3c4.3-0.7,7.3-2.9,7.3-2.9c1-0.5,2-1.3,0.9-1.5c-2.2,0.1-7.5,0.7-7.6,0c0-0.2,1.1-0.3,2.1-0.4
				c-0.1-0.7,3-2.4,4-2.5c1-0.5,7.3-2.3,8.3-2.8c3.1-0.9-6.8-2.2-11.1-2.2c-2.2-0.1-0.1-0.8-0.2-1.4c-2.1,0.4-3.2,0-5.4,0.5
				c0-0.1-1.6,0-3.6,0.2c-2,0.2-4.4,0.4-6,0.6c0,0-1,0.3-4.3,0.6c-1.1,0.1-1.1,0.3-1,0.5c0-0.2,0-0.2,0-0.3c-1,0.5-3.2,0.3-4.3,0.6
				c0-0.2,0-0.2,0-0.3c-2.1,0.6-4.3,0.5-6.4,0.8c0-0.2,0-0.2,0-0.3c-1.1,0.1-2.1,0.2-2.2,0c0-0.2,0-0.2,0-0.3
				c-1.1-0.1-3.2,0.5-3.2,0.1c0,0.2,0,0.2,0,0.3c-4.3,0.4-7.5,0.5-10.7,0.7c-4.3,0.1-9.1,0.4-14.1,0.8c-4.9,0.4-10,1-14.8,1.5
				c-1.1,0.1-2.1,0.5-1,0.8c-1.1,0.1-2.1,0.1-3.2,0.2c-2.1,0.1-1,0.6-3.2,0.7C34.3,56.1,17.1,56,0,56.5c4.3,0.1,7.5,0.4,11.8,0.2
				c0,0.2,0,0.5,1.1,0.5c3.2,0,6.7-0.1,9.8-0.2c3.1-0.1,5.8-0.1,7.4,0.2c1.1,0.1,2.2,0.6,5.4,0.5l-3.2,0.1c0,0.2,0,0.5,0,0.5
				c4.3,0,9.7-0.1,14-0.2c0,0,0,0.3,0,0.5l2.1-0.1c2.2,1.1-9.6,1.6-15,2c0,0.2,0,0.5,0,0.7l2.2-0.1l0,0.3
				c-6.5,0.3-11.9,0.5-18.3,0.7c1.1,0,3.2-0.1,4.3-0.1c0,0.2,0,0.3,1.1,0.3c-4.3,0.1-9.7,0.2-14,0.5c-1.1,0.2,0,0.7,3.3,0.8
				c3.2-0.1,5.4-0.1,8.6-0.2l0,0.3c-2.2,0.1-5.4,0-7.6,0.2c-1.1,0.2,2.2,0.5,1.1,0.7c-1.1,0-2.2,0.1-3.2,0.2c3.3,0,7.6-0.4,10.8-0.3
				c1.1,0.1,2.2,0.3,2.2,0.6c5.4-0.4,9.7-0.1,13,0.6C38,66.1,43.4,65.6,46.6,65.4z"/>
		</g>
	</g>
</g>
<g>
	<g>
		<g>
			<path class="st0" d="M98.7,37.5c0.2-0.3-0.1-0.8,0.6-0.5c2.3,0.9,3.6,2.8,6,3.8l0.4-0.3c1.6,1.1,3.3,2.3,4.9,3.5
				c3.4,1.8,6.7,3.5,10.1,5.1c0-0.2,0-0.4,0.4-0.2c1.4,0.6,3.3,1.8,5.2,2.9c0.1,0,0.1,0,0.2,0c0.1-0.1,0.2-0.2,0.3-0.3
				c0.1,0.1,0.2,0.2,0.2,0.2c0,0,0,0.1,0.1,0.1c0.3,0,0.7,0,1,0.2c0.3,0.2,0.5,0.6,0.5,0.8c-0.1,0.3-0.2,0.5-0.4,0.9
				c-0.1,0.2-0.2,0.4-0.3,0.6l-0.1,0.2l-0.1,0.1l-0.2,0.2l-0.7,0.8c-4,4.1-8,8.4-12.2,12.8c-1.6,2-3.3,4-5,5.8
				c-2.7,2.5-6.4,5.3-9.1,7.6c1.5,1-4.5,7.3-2,7.5c-1.8,1.5-4.6,3.8-4.4,4.3c0.5,1.5,0.3,4-4,8.7c-1.7,1.8-5,3.8-5.5,4.6
				c-0.7,1.3,3.1-1.3,2.4-0.1c14.3-11.6,27.3-23.7,41.3-35.7c1-1.1,3.6-3.6,7.1-6.8c1.6-1.4,3.2-2.9,4.9-4.4
				c0.5-0.4,0.9-0.8,1.3-1.3c0.3-0.5,0.8-0.9,1-1.4l0.4-0.7l0.3-0.7c0.2-0.5,0.4-0.9,0.5-1.4c0.6-1.9,0.5-4.6-0.4-6.6
				c-0.2-0.5-0.5-1-0.8-1.4c-0.3-0.4-0.6-0.8-1-1.3c-0.8-0.8-1.8-1.7-3-2.4c-6.7-3.6-13.7-7.4-19.8-10.7c-5.2-2.8-9.6-5.3-12-6.7
				l-0.9-0.5c-5.2-2.9-11.6-6.3-16.3-8.1c-2.2-0.8-4.5-1.4-6.8-2.1c0.8,0.8,1.6,1.5,2.2,2.2c-2.1-1.2-4.1-2.4-5.1-2.5
				c-4.8-1.8-2.7,0.4-1.6,2.3c1,1.1-1.1,0.9,0.6,2.4c-1.4-0.8-2.1-1.2-3.5-2c-0.4,0.3,4.4,2.1,3.1,2.3c-1.3-0.9-2.9-1.5-4.3-2.2
				c0.2,0.8,4.7,2.9,4.2,3.3c-0.8-0.3-3.5-2.9-4.1-2.4c-0.1,0.1,1.2,0.9,1.9,1.3c-4.4-2.1-7.1-2.7-3.7,0.2c-1.3-0.8-3.1-2.1-4.6-2.8
				c0,0,0,0,0,0c0.7,0.4,1.9,1.2,2.5,1.6L68.1,17c0.1,0.2,0.2,0.3,0.3,0.5c0.6,0.4,1.1,0.8,1.8,1.2c-0.5-0.3-1.1-0.6-1.6-0.9
				c0.3,0.5,0.6,0.9,1,1.4c1.7,1.5,3.2,3.2,4.2,3.8C81.9,28,90.3,32.8,98.7,37.5z"/>
		</g>
	</g>
</g>
<g>
	<g>
		<g>
			<path class="st0" d="M420.4,41.7c1.1-0.1,2.2-0.1,3.2-0.2c-18.4,0.2-37.8,2.1-55.2,2.6c-1.1-0.1-3.3-0.2-4.4-0.3
				c-8.7,0.3-19.4,1.7-28,3c-4.3,0.7-7.3,2.9-7.3,2.9c-1,0.5-2,1.3-0.9,1.5c2.2-0.1,7.5-0.7,7.6,0c0,0.2-1.1,0.3-2.1,0.4
				c0.1,0.7-3,2.4-4,2.5c-1,0.5-7.3,2.3-8.3,2.8c-3.1,0.9,6.8,2.2,11.1,2.2c2.2,0.1,0.1,0.8,0.2,1.4c2.1-0.4,3.2,0,5.4-0.5
				c0,0.1,1.6,0,3.6-0.2c2-0.2,4.4-0.4,6-0.6c0,0,1-0.3,4.3-0.6c1.1-0.1,1.1-0.3,1-0.5c0,0.2,0,0.2,0,0.3c1-0.5,3.2-0.3,4.3-0.6
				c0,0.2,0,0.2,0,0.3c2.1-0.6,4.3-0.5,6.4-0.8c0,0.2,0,0.2,0,0.3c1.1-0.1,2.1-0.2,2.2,0c0,0.2,0,0.2,0,0.3c1.1,0.1,3.2-0.5,3.2-0.1
				c0-0.2,0-0.2,0-0.3c4.3-0.4,7.5-0.5,10.7-0.7c4.3-0.1,9.1-0.4,14.1-0.8c4.9-0.4,10-1,14.8-1.5c1.1-0.1,2.1-0.5,1-0.8
				c1.1-0.1,2.1-0.1,3.2-0.2c2.1-0.1,1-0.6,3.2-0.7c17.1-1.9,34.3-1.8,51.3-2.4c-4.3-0.1-7.5-0.4-11.8-0.2c0-0.2,0-0.5-1.1-0.5
				c-3.2,0-6.7,0.1-9.8,0.2c-3.1,0.1-5.8,0.1-7.4-0.2c-1.1-0.1-2.2-0.6-5.4-0.5l3.2-0.1c0-0.2,0-0.5,0-0.5c-4.3,0-9.7,0.1-14,0.2
				c0,0,0-0.3,0-0.5l-2.1,0.1c-2.2-1.1,9.6-1.6,15-2c0-0.2,0-0.5,0-0.7l-2.2,0.1l0-0.3c6.5-0.3,11.9-0.5,18.3-0.7
				c-1.1,0-3.2,0.1-4.3,0.1c0-0.2,0-0.3-1.1-0.3c4.3-0.1,9.7-0.2,14-0.5c1.1-0.2,0-0.7-3.3-0.8c-3.2,0.1-5.4,0.1-8.6,0.2l0-0.3
				c2.2-0.1,5.4,0,7.6-0.2c1.1-0.2-2.2-0.5-1.1-0.7c1.1,0,2.2-0.1,3.2-0.2c-3.3,0-7.6,0.4-10.8,0.3c-1.1-0.1-2.2-0.3-2.2-0.6
				c-5.4,0.4-9.7,0.1-13-0.6C429,41,423.6,41.5,420.4,41.7z"/>
		</g>
	</g>
</g>
<g>
	<g>
		<g>
			<path class="st0" d="M368.3,69.6c-0.2,0.3,0.1,0.8-0.6,0.5c-2.3-0.9-3.6-2.8-6-3.8l-0.4,0.3c-1.6-1.1-3.3-2.3-4.9-3.5
				c-3.4-1.8-6.7-3.5-10.1-5.1c0,0.2,0,0.4-0.4,0.2c-1.4-0.6-3.3-1.8-5.2-2.9c-0.1,0-0.1,0-0.2,0c-0.1,0.1-0.2,0.2-0.3,0.3
				c-0.1-0.1-0.2-0.2-0.2-0.2c0,0,0-0.1-0.1-0.1c-0.3,0-0.7,0-1-0.2c-0.3-0.2-0.5-0.6-0.5-0.8c0.1-0.3,0.2-0.5,0.4-0.9
				c0.1-0.2,0.2-0.4,0.3-0.6l0.1-0.2l0.1-0.1l0.2-0.2l0.7-0.8c4-4.1,8-8.4,12.2-12.8c1.6-2,3.3-4,5-5.8c2.7-2.5,6.4-5.3,9.1-7.6
				c-1.5-1,4.5-7.3,2-7.5c1.8-1.5,4.6-3.8,4.4-4.3c-0.5-1.5-0.3-4,4-8.7c1.7-1.8,5-3.8,5.5-4.6c0.7-1.3-3.1,1.3-2.4,0.1
				c-14.3,11.6-27.3,23.7-41.3,35.7c-1,1.1-3.6,3.6-7.1,6.8c-1.6,1.4-3.2,2.9-4.9,4.4c-0.5,0.4-0.9,0.8-1.3,1.3
				c-0.3,0.5-0.8,0.9-1,1.4l-0.4,0.7l-0.3,0.7c-0.2,0.5-0.4,0.9-0.5,1.4c-0.6,1.9-0.5,4.6,0.4,6.6c0.2,0.5,0.5,1,0.8,1.4
				c0.3,0.4,0.6,0.8,1,1.3c0.8,0.8,1.8,1.7,3,2.4c6.7,3.6,13.7,7.4,19.8,10.7c5.2,2.8,9.6,5.3,12,6.7l0.9,0.5
				c5.2,2.9,11.6,6.3,16.3,8.1c2.2,0.8,4.5,1.4,6.8,2.1c-0.8-0.8-1.6-1.5-2.2-2.2c2.1,1.2,4.1,2.4,5.1,2.5c4.8,1.8,2.7-0.4,1.6-2.3
				c-1-1.1,1.1-0.9-0.6-2.4c1.4,0.8,2.1,1.2,3.5,2c0.4-0.3-4.4-2.1-3.1-2.3c1.3,0.9,2.9,1.5,4.3,2.2c-0.2-0.8-4.7-2.9-4.2-3.3
				c0.8,0.3,3.5,2.9,4.1,2.4c0.1-0.1-1.2-0.9-1.9-1.3c4.4,2.1,7.1,2.7,3.7-0.2c1.3,0.8,3.1,2.1,4.6,2.8c0,0,0,0,0,0
				c-0.7-0.4-1.9-1.2-2.5-1.6l2.4,1.4c-0.1-0.2-0.2-0.3-0.3-0.5c-0.6-0.4-1.1-0.8-1.8-1.2c0.5,0.3,1.1,0.6,1.6,0.9
				c-0.3-0.5-0.6-0.9-1-1.4c-1.7-1.5-3.2-3.2-4.2-3.8C385.1,79.1,376.7,74.2,368.3,69.6z"/>
		</g>
	</g>
</g>
</svg>
