<?xml version="1.0" encoding="utf-8"?>
<!-- Generator: Adobe Illustrator 22.1.0, SVG Export Plug-In . SVG Version: 6.00 Build 0)  -->
<svg version="1.1" id="Layer_1" xmlns="http://www.w3.org/2000/svg" xmlns:xlink="http://www.w3.org/1999/xlink" x="0px" y="0px"
	 viewBox="0 0 744.4 427.5" style="enable-background:new 0 0 744.4 427.5;" xml:space="preserve">
<style type="text/css">
	.st0{fill:#FFFFFF;}
	.st1{fill:#FAA729;}
	.st2{fill:#8BA7C9;}
</style>
<g>
	<path class="st0" d="M39.3,420l12-53.5h55.3l-12,53.5H39.3z"/>
	<path class="st0" d="M182.8,253.4c-25.4-14.7-30.8-35.7-24-66.1c12.6-55.9,56.8-82.9,113.6-82.9c58.2,0,90.1,26.5,77.5,82.9
		c-6,26.9-22.1,51.6-54.8,66.1l-0.2,0.9c29.7,18.9,33.3,38.7,24.8,76c-15.5,69-56.6,97.1-125.7,97.1c-56.8,0-82.7-36.1-69-97.1
		c7.5-34.1,16.2-53,57.5-76L182.8,253.4z M250.4,327.4c4.4-19.7,9.5-46.7-18.2-46.7c-28.6,0-32.3,28.2-36.7,47.9
		c-4,17.7-9.7,47.5,16.3,47.5C240,376.3,246,347.2,250.4,327.4z M243.9,230.3c22.9,0,31.8-20.2,35.7-37.8c3.5-15.5,3.5-37-17.3-37
		c-23.8,0-30.9,20.2-35.1,38.7C223.7,210.1,223.2,230.3,243.9,230.3z"/>
	<path class="st0" d="M375.4,193.7c14.1-63.1,55.1-89.1,118.1-89.1c79.4,0,90.6,36.6,73.3,107.2l-25.4,113.5
		c-15.4,69-45.6,102.2-121,102.2c-61.6,0-91.5-26.1-77.9-87.1L375.4,193.7z M497.4,193.7c1.1-4.7,10.8-36.6-15.7-36.6
		c-23.8,0-29,18.9-32.8,36.6l-31.7,141.7c-4.1,18.5-8.9,39.5,15.9,39.5c25.3-0.9,30.2-28.6,32.5-39.5L497.4,193.7z"/>
</g>
<g>
	<path class="st0" d="M598,146.4c4.9-18.7,15.3-31.9,36-31.9c20.4,0,24.7,10.4,19,31.9c-4.8,18-12.1,32.2-36,32.2
		C595,178.6,592.7,166.4,598,146.4z M619.7,237.2h-17.6l86.5-122.8h17.3L619.7,237.2z M631.8,146.3c1.3-4.9,5.6-15-2.2-15
		c-7.4-0.6-9,10-10.2,15c-2,7.3-5.5,15.5,2.2,15.5C628.6,161.7,630.4,151.1,631.8,146.3z M712,205c-4.8,18.1-12.2,32.3-36.2,32.3
		c-21.9,0-24.4-12.3-19.1-32.3c4.9-18.9,15.4-32.2,36.1-32.2C714.5,173,717.3,184.9,712,205z M678.1,204.8c-2,7.3-5.6,15.7,2.1,15.7
		c7.3,0,9.1-10.7,10.4-15.7c1.3-4.9,5.5-14.9-2.2-14.9C681.1,189.2,679.6,199.8,678.1,204.8z"/>
</g>
<g>
	<path class="st1" d="M33.1,47.8L43.1,1h13c4.2,0,10.3,0.4,12.6,3.9c1.9,2.9,1.7,6.4,0.9,10.2c-1.1,5.1-3.5,10.7-9,13
		c-4.2,1.9-8.5,1.3-12.7,1.5L44,47.8H33.1z M49.8,21.2c2.1-0.1,4.4,0.2,6.4-1.2c1.4-1.2,2-3.1,2.4-4.7c0.4-1.8,0.8-4.6-0.9-5.4
		c-1-0.4-2.5-0.4-4.2-0.4h-1.2L49.8,21.2z"/>
	<path class="st1" d="M72.2,23.9c1.9-9,7.9-12,15.5-12c8.7,0,12.1,4.1,10.4,12l-3,14.2C92.9,46,87.4,49,79.8,49
		c-7.1,0-12.4-2.9-10.7-10.9L72.2,23.9z M79,38.7c-0.2,2,0.3,3.1,2.4,3.1s3.1-1.1,3.7-3.1l3.3-15.6c0.5-2.2,0.1-4.1-2.2-4.1
		s-3.4,1.8-3.9,4.1L79,38.7z"/>
	<path class="st1" d="M127.1,35.5L127.1,35.5l7.7-22.6h9.5l-14.2,34.9h-10.7l1.1-18.1h-0.1l-6.9,18.2h-10.6l0.8-34.9h9.6l-2,22.6
		h0.1l8.4-22.6h8.5L127.1,35.5z"/>
	<path class="st1" d="M152.9,32l-1.3,6.1c-0.4,1.9,0.1,3.6,2.3,3.7c3.6,0.2,4-3.1,4.8-6.1h9.9c-1.4,9-7.2,13.1-15.8,13.2
		c-7.1,0.1-12.7-2.9-11-10.9l3-14.2c1.9-9,8.2-11.9,15.9-12c6.9-0.1,12.8,2.6,11.2,10.1l-2.1,10L152.9,32L152.9,32z M161.2,25.4
		l0.7-3.4c0.3-1.2-0.1-3.6-2.6-3.6c-2.8,0-4,2.2-4.5,4.7l-0.5,2.3H161.2z"/>
	<path class="st1" d="M187.8,12.9l-1.1,5.3h0.1c1.9-3.7,4.9-6.3,9-6.3l-2.4,11.2c-1-0.2-1.9-0.2-2.9-0.2c-2.8,0-4,0.6-4.8,3.4
		l-4.6,21.5h-9.9l7.4-34.9H187.8z"/>
	<path class="st1" d="M208.1,47.8l10-46.8h13c4.2,0,10.3,0.4,12.6,3.9c1.9,2.9,1.7,6.4,0.9,10.2c-1.1,5.1-3.5,10.7-9,13
		c-4.2,1.9-8.5,1.3-12.7,1.5L219,47.8H208.1z M224.8,21.2c2.1-0.1,4.4,0.2,6.4-1.2c1.4-1.2,2-3.1,2.4-4.7c0.4-1.8,0.8-4.6-0.9-5.4
		c-1-0.4-2.5-0.4-4.2-0.4h-1.2L224.8,21.2z"/>
	<path class="st1" d="M258.8,12.9l-1.1,5.3h0.1c1.9-3.7,4.9-6.3,9-6.3l-2.4,11.2c-1-0.2-1.9-0.2-2.9-0.2c-2.8,0-4,0.6-4.8,3.4
		l-4.6,21.5h-9.9l7.4-34.9H258.8z"/>
	<path class="st1" d="M268,23.9c1.9-9,7.9-12,15.5-12c8.7,0,12.1,4.1,10.4,12l-3,14.2C288.7,46,283.2,49,275.6,49
		c-7.1,0-12.4-2.9-10.7-10.9L268,23.9z M274.8,38.7c-0.2,2,0.3,3.1,2.4,3.1s3.1-1.1,3.7-3.1l3.3-15.6c0.5-2.2,0.1-4.1-2.2-4.1
		c-2.3,0-3.4,1.8-3.9,4.1L274.8,38.7z"/>
	<path class="st1" d="M298.1,20.1l1.5-7.2h3.9l2.1-10h9.9l-2.1,10h4.7l-1.5,7.2h-4.7L308,38.5c-0.4,2,0.4,2.4,1.7,2.4
		c1.2-0.2,1.5-0.1,2.6-0.1l-1.5,7c-2.2,0.3-4.3,0.6-6.5,0.6c-5.4,0-7.7-2.7-6.6-8l4.3-20.2h-3.9V20.1z"/>
	<path class="st1" d="M327.9,32l-1.3,6.1c-0.4,1.9,0.1,3.6,2.3,3.7c3.6,0.2,4-3.1,4.8-6.1h9.9c-1.4,9-7.2,13.1-15.8,13.2
		c-7.1,0.1-12.7-2.9-11-10.9l3-14.2c1.9-9,8.2-11.9,15.9-12c6.9-0.1,12.8,2.6,11.2,10.1l-2.1,10L327.9,32L327.9,32z M336.2,25.4
		l0.7-3.4c0.3-1.2-0.1-3.6-2.6-3.6c-2.8,0-4,2.2-4.5,4.7l-0.5,2.3H336.2z"/>
	<path class="st1" d="M367.2,25.9l0.1-0.6c0.1-1.3,0.4-2.7,0.5-4c-0.1-1.4-0.7-2.2-2.2-2.2c-2.6,0-3.4,2-3.9,4.2l-3.1,14.4
		c-0.5,2.2-0.2,4.1,2.3,4.1c3.7,0,4.2-5.5,4.8-8.1h9.6c-0.4,2.1-1.6,6.4-2.6,8.3c-2.2,4.4-6.4,6.4-10.8,6.8
		c-0.9,0.1-1.8,0.2-3.3,0.2c-7.1,0-11.7-2.9-10-10.9l3-14.2c1.9-9,7.2-12,14.8-12c9.8,0.1,12.7,4.4,10.1,14
		C376.5,25.9,367.2,25.9,367.2,25.9z"/>
	<path class="st1" d="M381.3,20.1l1.5-7.2h3.9l2.1-10h9.9l-2.1,10h4.7l-1.5,7.2h-4.7l-3.9,18.4c-0.4,2,0.4,2.4,1.7,2.4
		c1.2-0.2,1.5-0.1,2.6-0.1l-1.5,7c-2.2,0.3-4.3,0.6-6.5,0.6c-5.4,0-7.7-2.7-6.6-8l4.3-20.2h-3.9V20.1z"/>
	<path class="st1" d="M411.1,32l-1.3,6.1c-0.4,1.9,0.1,3.6,2.3,3.7c3.6,0.2,4-3.1,4.8-6.1h9.9c-1.4,9-7.2,13.1-15.8,13.2
		C403.9,49,398.3,46,400,38l3-14.2c1.9-9,8.2-11.9,15.9-12c6.9-0.1,12.8,2.6,11.2,10.1l-2.1,10L411.1,32L411.1,32z M419.3,25.4
		L420,22c0.3-1.2-0.1-3.6-2.6-3.6c-2.8,0-4,2.2-4.5,4.7l-0.5,2.3C412.4,25.4,419.3,25.4,419.3,25.4z"/>
	<path class="st1" d="M445.7,47.8l0.9-4.1h-0.1c-2.5,3.4-5.9,5.2-8.8,5.2c-7.2-0.3-7.2-7-5.9-13l2.6-12.1c1.2-5.5,4.5-12,11-12
		c2.6,0,4.9,1.1,6.3,4.2h0.1L455,1h9.9l-10,46.8H445.7z M441.8,35.2c-0.4,2.1-1.2,5.6,1.7,5.6c2.7,0,3.6-2.7,4.3-6.1l1.8-8.2
		c0.6-3,1-6.6-1.5-6.5c-3.2,0-3.9,3.9-4.4,6.2L441.8,35.2z"/>
	<path class="st1" d="M501,17.4l0.6-3c0.9-4-0.1-6.1-2.2-6.1c-3.4-0.1-4.6,1.8-5.3,4.9l-5,23.1c-0.6,2.6,0.2,4.2,3,4.2
		c3.7,0,4.9-3.9,5.5-6.7l0.9-4.2h11l-1.2,5.7c-1.7,8-7.5,13.7-18.8,13.7c-10.1,0-12.9-5.4-10.9-14.9l4.1-19.2
		C484.9,4.7,490.6,0,500.6,0c9.4,0,14.1,4,12.1,13.5l-0.8,3.9H501z"/>
	<path class="st1" d="M527.7,15.6L527.7,15.6c3-2.9,5.6-3.7,8.4-3.7c4.8,0,7.2,3.4,6.2,7.9l-6,28h-9.9l5.3-24.8c0.4-2,0.1-3-2.2-3
		c-2.2,0-3.3,1.9-3.7,3.7l-5.1,24.1h-9.9l10-46.8h9.9L527.7,15.6z"/>
	<path class="st1" d="M554.9,32l-1.3,6.1c-0.4,1.9,0.1,3.6,2.3,3.7c3.6,0.2,4-3.1,4.8-6.1h9.9c-1.4,9-7.2,13.1-15.8,13.2
		c-7.1,0.1-12.7-2.9-11-10.9l3-14.2c1.9-9,8.2-11.9,15.9-12c6.9-0.1,12.8,2.6,11.2,10.1l-2.1,10L554.9,32L554.9,32z M563.2,25.4
		l0.7-3.4c0.3-1.2-0.1-3.6-2.6-3.6c-2.8,0-4,2.2-4.5,4.7l-0.5,2.3H563.2z"/>
	<path class="st1" d="M594.2,25.9l0.1-0.6c0.1-1.3,0.4-2.7,0.5-4c-0.1-1.4-0.7-2.2-2.2-2.2c-2.6,0-3.4,2-3.9,4.2l-3.1,14.4
		c-0.5,2.2-0.2,4.1,2.3,4.1c3.7,0,4.2-5.5,4.8-8.1h9.6c-0.4,2.1-1.6,6.4-2.6,8.3c-2.2,4.4-6.4,6.4-10.8,6.8
		c-0.9,0.1-1.8,0.2-3.3,0.2c-7.1,0-11.7-2.9-10-10.9l3-14.2c1.9-9,7.2-12,14.8-12c9.8,0.1,12.7,4.4,10.1,14
		C603.5,25.9,594.2,25.9,594.2,25.9z"/>
	<path class="st1" d="M604.1,47.8l10-46.8h9.9l-5,23.5h0.1l9.3-11.7h10.9l-12.8,14l5.5,20.9h-10.4l-2.9-13.5l-2.2,2.2l-2.4,11.2h-10
		V47.8z"/>
	<path class="st1" d="M636.6,47.8l7.4-34.9h9.9l-7.4,34.9H636.6z M644.7,9.5l1.8-8.4h9.9l-1.8,8.4H644.7z"/>
	<path class="st1" d="M669.9,12.9l-0.9,4.4h0.1c1.5-2.7,4.9-5.4,8.1-5.4c4.7,0,8.3,2.6,7.3,7.3l-6.1,28.6h-9.9l5.3-25
		c0.2-1.6-0.1-3-2-2.9c-1.8,0.1-2.9,1.1-3.3,2.9l-5.3,25h-9.9l7.4-34.9C660.7,12.9,669.9,12.9,669.9,12.9z"/>
	<path class="st1" d="M693.1,49.7c-0.5,2.4-0.4,3.5,2.5,3.3c2.1-0.2,3.1-0.6,3.6-2.9l1.5-7h-0.1c-2.5,2.3-5.2,3.8-7.9,3.8
		c-6.2,0-7.5-5.6-6.4-11l2.6-12.1c1.2-5.5,4.5-12,11.1-12c3.4,0.1,5.8,1.7,6.7,5.2h0.1l0.9-4.2h9.2l-7.6,35.6
		c-1.7,8.2-8.2,11.1-15.7,11.1s-12.1-1.8-10.6-9.9L693.1,49.7L693.1,49.7z M696.5,35.1c-0.4,1.9-0.2,3.7,2.1,3.7
		c2.7,0,3.5-2.4,4-4.6l2.1-9.7c0.5-2.4,0.4-4.6-2.3-4.6c-2.6,0-3.5,3.4-3.8,5.2L696.5,35.1z"/>
</g>
<g>
	<path class="st2" d="M95.4,199.6c-1.3,0-2,1.1-2.2,2.2l-2,8.9c-0.1,1.2,0.2,1.7,1.4,1.7s1.7-0.6,2.2-1.7l2-8.9
		C96.9,200.6,96.7,199.6,95.4,199.6z"/>
	<path class="st2" d="M61.7,174.3c-0.4,1.5,0.4,2.6,2,2.6c2.1,0,2.9-2.1,3.2-3.7l0.7-3.8c-1.5,0.7-2.8,1.1-3.8,1.7
		C63,171.9,62,172.7,61.7,174.3z"/>
	<path class="st2" d="M56.8,200.1c-1.5,0-2.2,1.6-2.6,3.6l-1,4.8c-0.4,1.7-0.4,3.7,1,3.7c1.8,0,2.2-2.2,2.5-3.5l1.1-5.2
		C58.1,202.2,58.5,200.1,56.8,200.1z"/>
	<path class="st2" d="M145.2,184.3c4.7-20.8,13.7-39.1,26.5-53.6H0v106.9h148.3C139.3,219.5,141.7,199.7,145.2,184.3z M87,157.2
		l-0.7,3.7h0.1c1.3-2.6,3.3-4.3,6.2-4.3l-1.6,7.6c-0.6-0.1-1.3-0.2-2.1-0.2c-2,0-2.8,0.4-3.3,2.3l-3.1,14.8h-6.8l5.1-23.9L87,157.2
		L87,157.2z M39.8,149h17.3l-1.4,6.4H46l-1.3,5.9h9.4l-1.4,6.4h-9.4l-1.5,6.9H52l-1.4,6.4H33L39.8,149z M37.5,216l0.5-2.5h-0.1
		c-0.9,1.5-2.8,3.1-4.7,3.1c-3.2,0-4.8-1.5-4.2-4.2l3.5-16.4h5.6l-3,14.3c-0.1,1,0,1.7,1.1,1.6c1,0,1.7-0.6,2-1.6l3-14.3h5.6
		l-4.2,20L37.5,216L37.5,216z M63.7,202.2l-1.5,6.9c-0.7,3.3-2.3,7.3-6.5,7.4c-1,0-2.7-0.5-3.6-2.5H52l-1.8,8.6h-5.6l5.7-26.6h5.3
		l-0.5,2.3l0,0c1.5-2,3.2-2.9,5.3-3C64.1,195.4,64.5,199.1,63.7,202.2z M72.6,181.2h-6.5V179c-2.2,1.8-3.8,2.9-6.5,2.9
		c-3.9,0-5.7-2.6-4.8-6.4c1.2-5.4,4.4-7.1,7.6-8.1c3.1-1,6.2-1.3,6.7-3.9c0.4-1.3-0.2-2.5-1.6-2.5c-2.5,0-2.8,1.7-3.5,3.7h-6.8
		c1-6,5.5-8.3,11-8.3c6.7,0,8.7,2.1,7.5,7.4l-3.1,14.7C72.4,179.4,72.5,180.3,72.6,181.2z M82.2,216c-1.3,0.2-2.5,0.4-3.7,0.4
		c-3,0-4.4-1.6-3.8-4.7l2.5-11.6H75l0.9-4.1h2.2l1.2-5.7h5.6l-1.2,5.7h2.7l-0.9,4.1h-2.7l-2.2,10.5c-0.2,1.2,0.2,1.4,1,1.4
		c0.6-0.1,0.9-0.1,1.5-0.1L82.2,216z M102.2,202.2l-1.7,8.1c-1.3,4.6-4.4,6.2-8.7,6.2c-4.1,0-7-1.6-6-6.2l1.7-8.1
		c1.1-5.1,4.4-6.8,8.9-6.8C101.2,195.4,103.2,197.8,102.2,202.2z M111.5,161.5l-4.2,19.6h-6.8l3.7-17.1c0.1-1.1-0.1-2.1-1.4-2
		c-1.2,0-2,0.7-2.2,2l-3.7,17.1h-6.8l5.1-23.9h6.4l-0.6,3h0.1c1.1-1.8,3.3-3.7,5.5-3.7C109.8,156.4,112.3,158.2,111.5,161.5z"/>
</g>
<g>
	<path class="st2" d="M582.7,337.2l-1.3,5.9c1.6-0.4,3.1-1.4,3.2-3.1C584.4,339.2,585.4,338.7,582.7,337.2z"/>
	<path class="st2" d="M620.3,324.5c-2,0-2.3,1.6-2.7,3.1l-2.6,12c-0.4,1.6-0.7,3.3,1.3,3.3c2.1-0.1,2.5-2.3,2.6-3.3l2.6-12
		C621.7,327.3,622.5,324.5,620.3,324.5z"/>
	<polygon class="st2" points="598.1,285.7 598,285.7 592.7,300.1 597.1,300.1 	"/>
	<path class="st2" d="M583.8,325.2c-1.4,0.4-2.5,0.9-2.8,2.5c-0.4,1.4,0.4,2.5,1.7,2.9L583.8,325.2z"/>
	<path class="st2" d="M624.1,289.7c0.2-1.2,0.5-3.1-0.6-3.7c-0.6-0.2-1.7-0.2-2.9-0.2h-0.9l-1.7,8.1c1.4,0,3,0.1,4.4-0.9
		C623.4,292,623.7,290.7,624.1,289.7z"/>
	<path class="st2" d="M638.1,324.5c-2,0-2.3,1.6-2.7,3.1l-2.6,12c-0.4,1.6-0.7,3.3,1.3,3.3c2.1-0.1,2.5-2.3,2.6-3.3l2.6-12
		C639.5,327.3,640.3,324.5,638.1,324.5z"/>
	<path class="st2" d="M690.2,292.2c-1.6,0-2.3,1.3-2.7,2.8l-2.2,10.7c-0.2,1.4,0.2,2.1,1.6,2.1c1.4,0,2.2-0.7,2.6-2.1l2.2-10.7
		C692,293.5,691.9,292.2,690.2,292.2z"/>
	<path class="st2" d="M570.9,258.6l-15.5,69.8c-3.1,13.8-6.7,26.1-11,37h200V258.6H570.9L570.9,258.6z M659.9,285.5h3.3l1.2-5.4h3.8
		l-1.2,5.4h3.3l-0.6,3.2h-3.3l-2.8,13.3h-3.8l2.8-13.3h-3.3L659.9,285.5z M643,279.9l1.5,10.5h0.1l6-10.5h7.5l-11.7,18.6l-2.9,13.4
		h-7.4l2.9-13.4l-3.6-18.6H643z M613.4,279.9h9c2.9,0,7,0.2,8.6,2.7c1.3,2,1.2,4.3,0.6,7c-0.7,3.5-2.3,7.4-6.2,9
		c-2.9,1.3-5.8,0.9-8.7,1.1l-2.7,12.6h-7.5L613.4,279.9z M594.7,279.9h9.1l0.1,32h-7.6l0.2-6.3h-5.9l-2.2,6.3h-7.5L594.7,279.9z
		 M589.7,339.9c-1,4.4-4,7.1-8.5,7.4l-0.9,3.9h-3l0.9-4c-4.8-0.9-5.9-3.2-4.8-8.2h4.9c0.1,0.7-1.3,3.2,1.5,4.2l1.4-6.7
		c-3.7-2-6.3-3.8-5.2-8.7c0.9-3.8,4.4-6.5,8.1-6.8l0.5-2.3h3.1l-0.5,2.3c4,0.4,5.9,3.3,4.9,7.5h-5.2c0.4-1.5,0.1-3.2-1.5-3.5
		l-1.3,6.3C588,333.2,590.8,334.9,589.7,339.9z M607.6,338c-1.2,5.7-3.9,9.4-10.1,9.4c-4.7,0-6.3-2.2-6.2-6.5l0.4-2.1h5.6
		c-0.1,1.3-1,3.9,1,4.1c2.2,0.2,3-3,3.2-4.4c0.4-1.6,1.4-5.3-1.2-5.3c-1.3,0-2.2,0.7-2.5,2h-5.2l3.8-14.5h13.8l-1,4.8h-9.3l-1.3,4.9
		c1.5-1.1,2.8-1.6,4.6-1.6C608.6,328.8,608.6,333.5,607.6,338z M615.5,347.3c-4.9,0-7.4-2.2-6.3-7.4l2.7-12.4
		c1.2-5.3,4.4-7.5,9.5-7.5c6.4,0,7.4,3.1,5.9,9.1l-2.1,9.6C624,344.5,621.5,347.3,615.5,347.3z M633.1,347.3c-4.9,0-7.4-2.2-6.3-7.4
		l2.7-12.4c1.2-5.3,4.4-7.5,9.5-7.5c6.4,0,7.4,3.1,5.9,9.1l-2.1,9.6C641.6,344.5,639.3,347.3,633.1,347.3z M654.9,346.7l-1.5-9.3
		l-2,2.7l-1.3,6.6h-6.3l5.7-26.6h6.3l-2.2,10.7h0.1l6.9-10.7h6.4l-8.2,11.7l2.9,14.9L654.9,346.7L654.9,346.7z M680.4,339.9h-5.9
		l-1.4,6.8H669l1.4-6.8h-5.9l0.9-4.1h5.9l1.4-6.5h4.1l-1.4,6.5h5.9L680.4,339.9z M698.4,295.6l-2.1,9.7c-1.5,5.4-5.3,7.4-10.5,7.4
		c-4.8,0-8.5-2-7.4-7.4l2.1-9.7c1.3-6.2,5.4-8.2,10.7-8.2C697.2,287.3,699.7,290.2,698.4,295.6z M720.2,292.4L716,312h-6.7l3.7-17.1
		c0.1-1.1-0.1-2.1-1.4-2c-1.2,0-2,0.7-2.2,2l-3.7,17.1h-6.8l5.1-23.9h6.4l-0.6,3h0.1c1.1-1.8,3.3-3.7,5.5-3.7
		C718.5,287.3,721,289.1,720.2,292.4z"/>
</g>
</svg>
