<?xml version="1.0" encoding="utf-8"?>
<!-- Generator: Adobe Illustrator 22.1.0, SVG Export Plug-In . SVG Version: 6.00 Build 0)  -->
<svg version="1.1" id="Layer_1" xmlns="http://www.w3.org/2000/svg" xmlns:xlink="http://www.w3.org/1999/xlink" x="0px" y="0px"
	 viewBox="0 0 249 247.7" style="enable-background:new 0 0 249 247.7;" xml:space="preserve">
<style type="text/css">
	.st0{fill:none;stroke:#EEEEEE;stroke-width:20;stroke-miterlimit:10;}
</style>
<path class="st0" d="M112.2,66.7c0,0,27.9-27.9,41.2-41.2c13.3-13.3,47.1-26.1,71.3-1.9c23.7,23.7,14.4,54.8-2,71.2
	s-28.7,28.7-41.2,41.2c-12.5,12.5-44.1,29-71.1,2l-11.8-11.8"/>
<path class="st0" d="M136.8,180.9c0,0-27.9,27.9-41.2,41.2c-13.3,13.3-47.1,26.1-71.3,1.9c-23.7-23.7-14.4-54.8,2-71.2
	s28.7-28.7,41.2-41.2s44.1-29,71.1-2l13.6,13.6"/>
</svg>
