<?xml version="1.0" encoding="utf-8"?>
<!-- Generator: Adobe Illustrator 22.1.0, SVG Export Plug-In . SVG Version: 6.00 Build 0)  -->
<svg version="1.1" id="Layer_1" xmlns="http://www.w3.org/2000/svg" xmlns:xlink="http://www.w3.org/1999/xlink" x="0px" y="0px"
	 viewBox="0 0 270.3 270.3" style="enable-background:new 0 0 270.3 270.3;" xml:space="preserve">
<style type="text/css">
	.st0{fill:#EEEEEE;}
</style>
<path class="st0" d="M231.2,40.1c-25.5-25.7-59.4-40-95.3-40.1h-0.4c-36,0-70,13.9-95.5,39.2C14.4,64.5,0.2,98.2,0,134
	c-0.2,36.5,13.8,70.7,39.3,96.5c25.4,25.6,59.2,39.7,95.2,39.8h0.6c36.1,0,70.1-14,95.5-39.4c25.4-25.4,39.5-59.3,39.7-95.6
	C270.5,99.5,256.6,65.7,231.2,40.1z M135.2,249.6c-63.2,0-114.4-51.2-114.4-114.4S72,20.7,135.2,20.7S249.6,72,249.6,135.2
	S198.3,249.6,135.2,249.6z"/>
<g>
	<path class="st0" d="M185.4,137.8c5.3,0,7.5-3.9,8.1-5.1l-47.3-0.1l-3.3-17.2l-17.6,17.2h-40c-5.3,0-7.6,3.9-8.2,5.2H113l4.3,2.7
		l-17.7,17.3l30.1-8.2l22,11.4l-4.1-21.4l4.2-1.8H185.4z"/>
	<path class="st0" d="M59.4,189.3l107.2,0.1c10.5,0,21.1-6.8,26.1-16.6l12.6-24.8c9.8-0.7,19.9-7.5,24.5-16.6L248.2,95
		c-1.8-4.9-3.9-9.6-6.3-14.1h-24.2l-113.8-0.1c-10.2,0-21.2,7-26.1,16.6l-12.6,24.8c-9.8,0.7-19.9,7.5-24.5,16.6L21.3,177
		c1.5,4.2,3.1,8.3,5,12.2h26.4H59.4z M39.8,179.4h-2.4l17.1-33.6c2.2-4.5,7.8-8.2,12.3-8.2h8l16.9-33.1c2.2-4.5,7.8-8.2,12.3-8.2
		l118.5,0.1c6.3,0.1,8.3-5.7,8.3-5.7v-0.1h2.3l-17.1,33.6c-2.2,4.5-7.8,8.2-12.3,8.2h-8l-16.9,33.2c-2.2,4.5-7.7,8.2-12.3,8.2
		l-118.4-0.1C41.7,173.7,39.8,179.4,39.8,179.4z"/>
</g>
</svg>
