<?xml version="1.0" encoding="utf-8"?>
<!-- Generator: Adobe Illustrator 22.1.0, SVG Export Plug-In . SVG Version: 6.00 Build 0)  -->
<svg version="1.1" id="Layer_1" xmlns="http://www.w3.org/2000/svg" xmlns:xlink="http://www.w3.org/1999/xlink" x="0px" y="0px"
	 viewBox="0 0 270.3 270.3" style="enable-background:new 0 0 270.3 270.3;" xml:space="preserve">
<style type="text/css">
	.st0{fill:#EEEEEE;}
</style>
<path class="st0" d="M231.2,40.1c-25.5-25.7-59.4-40-95.3-40.1h-0.4c-36,0-70,13.9-95.5,39.2C14.4,64.5,0.2,98.2,0,134
	c-0.2,36.5,13.8,70.7,39.3,96.5c25.4,25.6,59.2,39.7,95.2,39.8h0.6c36.1,0,70.1-14,95.5-39.4c25.4-25.4,39.5-59.3,39.7-95.6
	C270.5,99.5,256.6,65.7,231.2,40.1z M135.2,249.6c-63.2,0-114.4-51.2-114.4-114.4S72,20.7,135.2,20.7S249.6,72,249.6,135.2
	S198.3,249.6,135.2,249.6z"/>
<rect x="122.6" y="117.6" class="st0" width="24" height="83"/>
<circle class="st0" cx="134.6" cy="90.6" r="12"/>
</svg>
