<?xml version="1.0" encoding="utf-8"?>
<!-- Generator: Adobe Illustrator 22.1.0, SVG Export Plug-In . SVG Version: 6.00 Build 0)  -->
<svg version="1.1" id="Layer_1" xmlns="http://www.w3.org/2000/svg" xmlns:xlink="http://www.w3.org/1999/xlink" x="0px" y="0px"
	 viewBox="0 0 600 600" style="enable-background:new 0 0 600 600;" xml:space="preserve">
<style type="text/css">
	.st0{opacity:0.13;}
	.st1{fill:url(#SVGID_1_);}
	.st2{fill:url(#SVGID_2_);}
	.st3{fill:#696969;}
	.st4{fill:url(#SVGID_3_);}
	.st5{fill:url(#SVGID_4_);}
	.st6{fill:#9D9D9D;}
	.st7{fill:#8C8C8C;}
	.st8{fill:#AEAEAE;}
	.st9{fill:url(#SVGID_5_);}
	.st10{fill:#979797;}
	.st11{fill:#5D5D5D;}
	.st12{fill:url(#SVGID_6_);}
	.st13{fill:url(#SVGID_7_);}
	.st14{fill:url(#SVGID_8_);}
	.st15{fill:#4D4D4D;}
	.st16{fill:url(#SVGID_9_);}
	.st17{fill:url(#SVGID_10_);}
	.st18{fill:url(#SVGID_11_);}
	.st19{fill:url(#SVGID_12_);}
	.st20{fill:url(#SVGID_13_);}
	.st21{fill:url(#SVGID_14_);}
	.st22{fill:url(#SVGID_15_);}
	.st23{fill:url(#SVGID_16_);}
	.st24{fill:url(#SVGID_17_);}
	.st25{fill:url(#SVGID_18_);}
	.st26{fill:url(#SVGID_19_);}
	.st27{fill:url(#SVGID_20_);}
	.st28{fill:#6F6F6F;}
	.st29{fill:url(#SVGID_21_);}
	.st30{fill:#878787;}
	.st31{fill:#989898;}
	.st32{fill:#464646;}
	.st33{fill:url(#SVGID_22_);}
	.st34{fill:url(#SVGID_23_);}
	.st35{fill:url(#SVGID_24_);}
	.st36{fill:url(#SVGID_25_);}
	.st37{fill:url(#SVGID_26_);}
	.st38{fill:url(#SVGID_27_);}
	.st39{fill:url(#SVGID_28_);}
	.st40{fill:url(#SVGID_29_);}
	.st41{fill:url(#SVGID_30_);}
	.st42{fill:#868686;}
	.st43{fill:url(#SVGID_31_);}
	.st44{fill:#7A7A7A;}
	.st45{fill:#919191;}
	.st46{fill:#707070;}
	.st47{fill:url(#SVGID_32_);}
	.st48{fill:url(#SVGID_33_);}
	.st49{fill:#9E9E9E;}
	.st50{fill:#525252;}
	.st51{fill:url(#SVGID_34_);}
	.st52{fill:#747474;}
	.st53{fill:#828282;}
	.st54{fill:#808080;}
	.st55{fill:#A3A3A3;}
	.st56{fill:#A8A8A8;}
	.st57{fill:#585858;}
	.st58{fill:#636363;}
	.st59{fill:url(#SVGID_35_);}
	.st60{fill:url(#SVGID_36_);}
	.st61{fill:#2F2F2F;}
	.st62{fill:url(#SVGID_37_);}
	.st63{fill:url(#SVGID_38_);}
	.st64{fill:url(#SVGID_39_);}
	.st65{fill:url(#SVGID_40_);}
	.st66{fill:url(#SVGID_41_);}
	.st67{fill:url(#SVGID_42_);}
	.st68{fill:url(#SVGID_43_);}
	.st69{fill:#B4B4B4;}
	.st70{fill:#A9A9A9;}
	.st71{fill:#B5B5B5;}
	.st72{fill:url(#SVGID_44_);}
	.st73{fill:url(#SVGID_45_);}
	.st74{fill:url(#SVGID_46_);}
</style>
<g class="st0">
	
		<linearGradient id="SVGID_1_" gradientUnits="userSpaceOnUse" x1="31.5" y1="-134.25" x2="146.7" y2="-134.25" gradientTransform="matrix(1 0 0 -1 0 360)">
		<stop  offset="0" style="stop-color:#4D4D4D"/>
		<stop  offset="0.1189" style="stop-color:#474747"/>
		<stop  offset="0.6358" style="stop-color:#353535"/>
		<stop  offset="1" style="stop-color:#2E2E2E"/>
	</linearGradient>
	<polygon class="st1" points="146.7,497 31.5,578.5 123.6,410 	"/>
	
		<linearGradient id="SVGID_2_" gradientUnits="userSpaceOnUse" x1="123.6" y1="-93.5" x2="212.7" y2="-93.5" gradientTransform="matrix(1 0 0 -1 0 360)">
		<stop  offset="0" style="stop-color:#212121"/>
		<stop  offset="0.5968" style="stop-color:#2F2F2F"/>
		<stop  offset="1" style="stop-color:#3B3B3B"/>
	</linearGradient>
	<polygon class="st2" points="212.7,428.5 146.7,497 123.6,410 	"/>
	<polygon class="st3" points="295.5,320.1 212.7,428.5 123.6,410 	"/>
	
		<linearGradient id="SVGID_3_" gradientUnits="userSpaceOnUse" x1="188.2735" y1="24.3982" x2="241.6727" y2="-22.0211" gradientTransform="matrix(1 0 0 -1 0 360)">
		<stop  offset="0" style="stop-color:#575757"/>
		<stop  offset="1.387799e-02" style="stop-color:#5A5A5A"/>
		<stop  offset="0.1455" style="stop-color:#747474"/>
		<stop  offset="0.2909" style="stop-color:#888888"/>
		<stop  offset="0.4563" style="stop-color:#969696"/>
		<stop  offset="0.6582" style="stop-color:#9E9E9E"/>
		<stop  offset="1" style="stop-color:#A1A1A1"/>
	</linearGradient>
	<polygon class="st4" points="259.5,266.9 295.5,320.1 123.6,410 	"/>
	
		<linearGradient id="SVGID_4_" gradientUnits="userSpaceOnUse" x1="259.5" y1="49.85" x2="123.6" y2="49.85" gradientTransform="matrix(1 0 0 -1 0 360)">
		<stop  offset="0" style="stop-color:#666666"/>
		<stop  offset="0.3701" style="stop-color:#616161"/>
		<stop  offset="0.7957" style="stop-color:#535353"/>
		<stop  offset="1" style="stop-color:#4A4A4A"/>
	</linearGradient>
	<polygon class="st5" points="175.3,210.3 259.5,266.9 123.6,410 	"/>
	<polygon class="st6" points="114.2,341.3 123.6,410 175.3,210.3 	"/>
	<polygon class="st7" points="41.3,257.1 114.2,341.3 43.6,323.6 	"/>
	<polygon class="st8" points="106.3,189.6 41.3,257.1 175.3,210.3 	"/>
	
		<linearGradient id="SVGID_5_" gradientUnits="userSpaceOnUse" x1="41.3" y1="84.2" x2="175.3" y2="84.2" gradientTransform="matrix(1 0 0 -1 0 360)">
		<stop  offset="0" style="stop-color:#4A4A4A"/>
		<stop  offset="0.2154" style="stop-color:#545454"/>
		<stop  offset="0.6291" style="stop-color:#616161"/>
		<stop  offset="1" style="stop-color:#666666"/>
	</linearGradient>
	<polygon class="st9" points="114.2,341.3 41.3,257.1 175.3,210.3 	"/>
	<polygon class="st10" points="123.6,410 114.2,341.3 43.6,323.6 	"/>
	<polygon class="st11" points="253.6,494.2 146.7,497 212.7,428.5 	"/>
	<polygon class="st11" points="342.9,385.9 212.7,428.5 295.5,320.1 	"/>
	
		<linearGradient id="SVGID_6_" gradientUnits="userSpaceOnUse" x1="296.6203" y1="46.2534" x2="353.8437" y2="36.1632" gradientTransform="matrix(1 0 0 -1 0 360)">
		<stop  offset="0" style="stop-color:#8F8F8F"/>
		<stop  offset="0.2502" style="stop-color:#8B8B8B"/>
		<stop  offset="0.4658" style="stop-color:#818181"/>
		<stop  offset="0.6687" style="stop-color:#6F6F6F"/>
		<stop  offset="0.8626" style="stop-color:#565656"/>
		<stop  offset="1" style="stop-color:#404040"/>
	</linearGradient>
	<polygon class="st12" points="360.4,261 342.9,385.9 295.5,320.1 	"/>
	<polygon class="st8" points="259.5,266.9 360.4,261 295.5,320.1 	"/>
	
		<linearGradient id="SVGID_7_" gradientUnits="userSpaceOnUse" x1="328.7529" y1="30.8411" x2="529.4877" y2="80.8899" gradientTransform="matrix(1 0 0 -1 0 360)">
		<stop  offset="0" style="stop-color:#303030"/>
		<stop  offset="6.816566e-03" style="stop-color:#333333"/>
		<stop  offset="0.116" style="stop-color:#525252"/>
		<stop  offset="0.2338" style="stop-color:#6C6C6C"/>
		<stop  offset="0.3645" style="stop-color:#808080"/>
		<stop  offset="0.5128" style="stop-color:#8E8E8E"/>
		<stop  offset="0.6937" style="stop-color:#979797"/>
		<stop  offset="1" style="stop-color:#999999"/>
	</linearGradient>
	<polygon class="st13" points="524,257.1 342.9,385.9 360.4,261 	"/>
	
		<linearGradient id="SVGID_8_" gradientUnits="userSpaceOnUse" x1="348.3266" y1="-120.887" x2="333.5734" y2="-15.913" gradientTransform="matrix(1 0 0 -1 0 360)">
		<stop  offset="0.2716" style="stop-color:#919191"/>
		<stop  offset="0.4389" style="stop-color:#8E8E8E"/>
		<stop  offset="0.5684" style="stop-color:#858585"/>
		<stop  offset="0.6853" style="stop-color:#747474"/>
		<stop  offset="0.7946" style="stop-color:#5D5D5D"/>
		<stop  offset="0.8977" style="stop-color:#3F3F3F"/>
		<stop  offset="0.9874" style="stop-color:#1F1F1F"/>
	</linearGradient>
	<polygon class="st14" points="428.3,362.6 253.6,494.2 342.9,385.9 	"/>
	<polygon class="st15" points="409.5,465.8 360.4,508.4 253.6,494.2 	"/>
	
		<linearGradient id="SVGID_9_" gradientUnits="userSpaceOnUse" x1="327.0636" y1="-147.1536" x2="354.8364" y2="10.3536" gradientTransform="matrix(1 0 0 -1 0 360)">
		<stop  offset="0.2716" style="stop-color:#ADADAD"/>
		<stop  offset="0.4659" style="stop-color:#ABABAB"/>
		<stop  offset="0.578" style="stop-color:#A3A3A3"/>
		<stop  offset="0.6692" style="stop-color:#959595"/>
		<stop  offset="0.7492" style="stop-color:#818181"/>
		<stop  offset="0.8218" style="stop-color:#676767"/>
		<stop  offset="0.8881" style="stop-color:#484848"/>
		<stop  offset="0.9502" style="stop-color:#232323"/>
		<stop  offset="0.9529" style="stop-color:#212121"/>
	</linearGradient>
	<polygon class="st16" points="428.3,362.6 409.5,465.8 253.6,494.2 	"/>
	
		<linearGradient id="SVGID_10_" gradientUnits="userSpaceOnUse" x1="277.0304" y1="-45.0856" x2="302.9304" y2="-116.2452" gradientTransform="matrix(1 0 0 -1 0 360)">
		<stop  offset="0" style="stop-color:#303030"/>
		<stop  offset="0.1036" style="stop-color:#424242"/>
		<stop  offset="0.3491" style="stop-color:#656565"/>
		<stop  offset="0.5797" style="stop-color:#7F7F7F"/>
		<stop  offset="0.7876" style="stop-color:#8E8E8E"/>
		<stop  offset="0.9529" style="stop-color:#949494"/>
	</linearGradient>
	<polygon class="st17" points="342.9,385.9 212.7,428.5 253.6,494.2 	"/>
	
		<linearGradient id="SVGID_11_" gradientUnits="userSpaceOnUse" x1="551.179" y1="-13.4854" x2="473.7107" y2="51.5183" gradientTransform="matrix(1 0 0 -1 0 360)">
		<stop  offset="0" style="stop-color:#4C4C4C"/>
		<stop  offset="1" style="stop-color:#181818"/>
	</linearGradient>
	<polygon class="st18" points="524,257.1 505.1,428.4 428.3,362.6 	"/>
	
		<linearGradient id="SVGID_12_" gradientUnits="userSpaceOnUse" x1="495.3671" y1="24.232" x2="577.1616" y2="-5.5388" gradientTransform="matrix(1 0 0 -1 0 360)">
		<stop  offset="0" style="stop-color:#3D3D3D"/>
		<stop  offset="0.4715" style="stop-color:#373737"/>
		<stop  offset="0.9529" style="stop-color:#2B2B2B"/>
	</linearGradient>
	<polygon class="st19" points="593.7,320.1 524,257.1 505.1,428.4 	"/>
	
		<linearGradient id="SVGID_13_" gradientUnits="userSpaceOnUse" x1="417.6609" y1="-109.7803" x2="459.8621" y2="-23.2554" gradientTransform="matrix(1 0 0 -1 0 360)">
		<stop  offset="0.3495" style="stop-color:#A3A3A3"/>
		<stop  offset="0.4399" style="stop-color:#9C9C9C"/>
		<stop  offset="0.5708" style="stop-color:#898989"/>
		<stop  offset="0.7263" style="stop-color:#696969"/>
		<stop  offset="0.8994" style="stop-color:#3E3E3E"/>
		<stop  offset="1" style="stop-color:#212121"/>
	</linearGradient>
	<polygon class="st20" points="458.8,470.8 409.5,465.8 428.3,362.6 	"/>
	
		<linearGradient id="SVGID_14_" gradientUnits="userSpaceOnUse" x1="441.575" y1="-104.5306" x2="472.7819" y2="-18.79" gradientTransform="matrix(1 0 0 -1 0 360)">
		<stop  offset="0.2729" style="stop-color:#808080"/>
		<stop  offset="0.3923" style="stop-color:#797979"/>
		<stop  offset="0.5603" style="stop-color:#676767"/>
		<stop  offset="0.7572" style="stop-color:#484848"/>
		<stop  offset="0.9744" style="stop-color:#1F1F1F"/>
		<stop  offset="1" style="stop-color:#1A1A1A"/>
	</linearGradient>
	<polygon class="st21" points="505.1,428.4 458.8,470.8 428.3,362.6 	"/>
	
		<linearGradient id="SVGID_15_" gradientUnits="userSpaceOnUse" x1="451.3226" y1="21.2407" x2="418.7752" y2="52.6713" gradientTransform="matrix(1 0 0 -1 0 360)">
		<stop  offset="0" style="stop-color:#181818"/>
		<stop  offset="0.2462" style="stop-color:#262626"/>
		<stop  offset="0.6917" style="stop-color:#393939"/>
		<stop  offset="1" style="stop-color:#404040"/>
	</linearGradient>
	<polygon class="st22" points="524,257.1 428.3,362.6 342.9,385.9 	"/>
	
		<linearGradient id="SVGID_16_" gradientUnits="userSpaceOnUse" x1="279.6602" y1="189.0235" x2="177.0894" y2="145.4846" gradientTransform="matrix(1 0 0 -1 0 360)">
		<stop  offset="0" style="stop-color:#666666"/>
		<stop  offset="3.938001e-02" style="stop-color:#6C6C6C"/>
		<stop  offset="0.2024" style="stop-color:#808080"/>
		<stop  offset="0.3885" style="stop-color:#8E8E8E"/>
		<stop  offset="0.6155" style="stop-color:#979797"/>
		<stop  offset="1" style="stop-color:#999999"/>
	</linearGradient>
	<polygon class="st23" points="175.3,210.3 267.7,142.8 283.5,202.6 	"/>
	<polygon class="st8" points="541.4,181.5 524,257.1 360.4,261 	"/>
	
		<linearGradient id="SVGID_17_" gradientUnits="userSpaceOnUse" x1="454.9688" y1="115.6752" x2="441.5794" y2="191.6089" gradientTransform="matrix(1 0 0 -1 0 360)">
		<stop  offset="0.2716" style="stop-color:#9C9C9C"/>
		<stop  offset="0.4327" style="stop-color:#989898"/>
		<stop  offset="0.5828" style="stop-color:#8D8D8D"/>
		<stop  offset="0.7284" style="stop-color:#7A7A7A"/>
		<stop  offset="0.8705" style="stop-color:#5F5F5F"/>
		<stop  offset="0.9529" style="stop-color:#4D4D4D"/>
	</linearGradient>
	<polygon class="st24" points="447.2,167.4 541.4,181.5 360.4,261 	"/>
	
		<linearGradient id="SVGID_18_" gradientUnits="userSpaceOnUse" x1="446.048" y1="195.3139" x2="520.795" y2="227.0422" gradientTransform="matrix(1 0 0 -1 0 360)">
		<stop  offset="0" style="stop-color:#2E2E2E"/>
		<stop  offset="0.2143" style="stop-color:#343434"/>
		<stop  offset="0.4937" style="stop-color:#444444"/>
		<stop  offset="0.8077" style="stop-color:#5F5F5F"/>
		<stop  offset="0.9529" style="stop-color:#6E6E6E"/>
	</linearGradient>
	<polygon class="st25" points="497.4,85.6 447.2,167.4 541.4,181.5 	"/>
	
		<linearGradient id="SVGID_19_" gradientUnits="userSpaceOnUse" x1="469.8601" y1="260.2239" x2="489.5673" y2="253.0509" gradientTransform="matrix(1 0 0 -1 0 360)">
		<stop  offset="0" style="stop-color:#4D4D4D"/>
		<stop  offset="0.2958" style="stop-color:#5D5D5D"/>
		<stop  offset="0.658" style="stop-color:#696969"/>
		<stop  offset="1" style="stop-color:#6E6E6E"/>
	</linearGradient>
	<polygon class="st26" points="494.3,32.8 497.4,85.6 447.2,167.4 	"/>
	
		<linearGradient id="SVGID_20_" gradientUnits="userSpaceOnUse" x1="349.1333" y1="150.9168" x2="440.1825" y2="214.6701" gradientTransform="matrix(1 0 0 -1 0 360)">
		<stop  offset="0" style="stop-color:#4D4D4D"/>
		<stop  offset="3.424227e-03" style="stop-color:#4C4C4C"/>
		<stop  offset="0.4098" style="stop-color:#2E2E2E"/>
		<stop  offset="0.7564" style="stop-color:#1B1B1B"/>
		<stop  offset="1" style="stop-color:#141414"/>
	</linearGradient>
	<polygon class="st27" points="352.1,147.2 360.4,261 447.2,167.4 	"/>
	<polygon class="st28" points="259.5,266.9 352.1,147.2 360.4,261 	"/>
	<polygon class="st6" points="283.5,202.6 352.1,147.2 259.5,266.9 	"/>
	
		<linearGradient id="SVGID_21_" gradientUnits="userSpaceOnUse" x1="287.6632" y1="133.7893" x2="181.4091" y2="115.0538" gradientTransform="matrix(1 0 0 -1 0 360)">
		<stop  offset="0" style="stop-color:#545454"/>
		<stop  offset="0.1446" style="stop-color:#646464"/>
		<stop  offset="0.3437" style="stop-color:#727272"/>
		<stop  offset="0.5874" style="stop-color:#7A7A7A"/>
		<stop  offset="1" style="stop-color:#7D7D7D"/>
	</linearGradient>
	<polygon class="st29" points="175.3,210.3 259.5,266.9 283.5,202.6 	"/>
	<polygon class="st30" points="106.3,189.6 96,156 175.3,210.3 	"/>
	<polygon class="st8" points="267.7,142.8 96,156 175.3,210.3 	"/>
	<polygon class="st6" points="399.7,83 340.9,73.6 283.5,202.6 	"/>
	<polygon class="st31" points="352.1,147.2 399.7,83 283.5,202.6 	"/>
	<polygon class="st32" points="494.3,32.8 352.1,147.2 399.7,83 	"/>
	
		<linearGradient id="SVGID_22_" gradientUnits="userSpaceOnUse" x1="392.1359" y1="189.6852" x2="477.2226" y2="337.0596" gradientTransform="matrix(1 0 0 -1 0 360)">
		<stop  offset="0" style="stop-color:#1A1A1A"/>
		<stop  offset="1" style="stop-color:#0D0D0D"/>
	</linearGradient>
	<polygon class="st33" points="447.2,167.4 352.1,147.2 494.3,32.8 	"/>
	<polygon class="st7" points="385.3,13.6 399.7,83 340.9,73.6 	"/>
	
		<linearGradient id="SVGID_23_" gradientUnits="userSpaceOnUse" x1="458.8" y1="-118.75" x2="505.0455" y2="-118.75" gradientTransform="matrix(1 0 0 -1 0 360)">
		<stop  offset="1.138505e-03" style="stop-color:#5C5C5C"/>
		<stop  offset="8.459087e-02" style="stop-color:#656565"/>
		<stop  offset="0.5294" style="stop-color:#909090"/>
		<stop  offset="0.7558" style="stop-color:#A1A1A1"/>
	</linearGradient>
	<polygon class="st34" points="505.1,529.1 505.1,428.4 458.8,470.8 	"/>
	
		<linearGradient id="SVGID_24_" gradientUnits="userSpaceOnUse" x1="417.1887" y1="-150.1248" x2="460.9084" y2="-210.2996" gradientTransform="matrix(1 0 0 -1 0 360)">
		<stop  offset="1.138505e-03" style="stop-color:#4D4D4D"/>
		<stop  offset="2.997044e-02" style="stop-color:#515151"/>
		<stop  offset="0.4461" style="stop-color:#8A8A8A"/>
		<stop  offset="0.6461" style="stop-color:#A1A1A1"/>
	</linearGradient>
	<polygon class="st35" points="388.6,572.8 505.1,529.1 458.8,470.8 	"/>
	<polygon class="st8" points="600,428.4 505.1,428.4 505.1,529.1 	"/>
	<polygon class="st32" points="541.4,566.4 388.6,572.8 505.1,529.1 	"/>
	
		<linearGradient id="SVGID_25_" gradientUnits="userSpaceOnUse" x1="590.9679" y1="-158.533" x2="550.2873" y2="-116.4069" gradientTransform="matrix(1 0 0 -1 0 360)">
		<stop  offset="0" style="stop-color:#666666"/>
		<stop  offset="1" style="stop-color:#4D4D4D"/>
	</linearGradient>
	<polygon class="st36" points="600,428.4 541.4,566.4 505.1,529.1 	"/>
	
		<linearGradient id="SVGID_26_" gradientUnits="userSpaceOnUse" x1="171.7124" y1="179.3996" x2="212.9545" y2="306.3297" gradientTransform="matrix(1 0 0 -1 0 360)">
		<stop  offset="0" style="stop-color:#3D3D3D"/>
		<stop  offset="0.4883" style="stop-color:#2A2A2A"/>
		<stop  offset="1" style="stop-color:#121212"/>
	</linearGradient>
	<polygon class="st37" points="267.7,142.8 259.5,0 212.7,0 96,156 	"/>
	
		<linearGradient id="SVGID_27_" gradientUnits="userSpaceOnUse" x1="146.7" y1="-187.1" x2="253.6" y2="-187.1" gradientTransform="matrix(1 0 0 -1 0 360)">
		<stop  offset="0" style="stop-color:#696969"/>
		<stop  offset="1" style="stop-color:#6E6E6E"/>
	</linearGradient>
	<polygon class="st38" points="146.7,497 152.1,600 162.6,600 253.6,494.2 	"/>
	
		<linearGradient id="SVGID_28_" gradientUnits="userSpaceOnUse" x1="216.9431" y1="-271.3749" x2="306.0569" y2="-117.025" gradientTransform="matrix(1 0 0 -1 0 360)">
		<stop  offset="0.4928" style="stop-color:#545454"/>
		<stop  offset="0.7907" style="stop-color:#2F2F2F"/>
		<stop  offset="1" style="stop-color:#1A1A1A"/>
	</linearGradient>
	<polygon class="st39" points="360.4,508.4 203.7,600 162.6,600 253.6,494.2 	"/>
	
		<linearGradient id="SVGID_29_" gradientUnits="userSpaceOnUse" x1="401.9146" y1="-108.4846" x2="409.8896" y2="-130.3958" gradientTransform="matrix(1 0 0 -1 0 360)">
		<stop  offset="1.197393e-03" style="stop-color:#404040"/>
		<stop  offset="0.4263" style="stop-color:#3D3D3D"/>
		<stop  offset="0.6726" style="stop-color:#353535"/>
		<stop  offset="0.8726" style="stop-color:#272727"/>
		<stop  offset="1" style="stop-color:#1A1A1A"/>
	</linearGradient>
	<polygon class="st40" points="458.8,470.8 360.4,508.4 409.5,465.8 	"/>
	
		<linearGradient id="SVGID_30_" gradientUnits="userSpaceOnUse" x1="233.0967" y1="-204.9665" x2="267.015" y2="-233.4275" gradientTransform="matrix(1 0 0 -1 0 360)">
		<stop  offset="0" style="stop-color:#5C5C5C"/>
		<stop  offset="0.2874" style="stop-color:#616161"/>
		<stop  offset="0.633" style="stop-color:#707070"/>
		<stop  offset="1" style="stop-color:#878787"/>
	</linearGradient>
	<polygon class="st41" points="203.7,600 261.5,600 287.6,551 	"/>
	<polygon class="st42" points="152.1,600 31.5,578.5 31.5,600 	"/>
	
		<linearGradient id="SVGID_31_" gradientUnits="userSpaceOnUse" x1="31.5" y1="-188.5" x2="152.1" y2="-188.5" gradientTransform="matrix(1 0 0 -1 0 360)">
		<stop  offset="0" style="stop-color:#4A4A4A"/>
		<stop  offset="1" style="stop-color:#696969"/>
	</linearGradient>
	<polygon class="st43" points="146.7,497 152.1,600 31.5,578.5 	"/>
	<polygon class="st8" points="497.4,85.6 593.7,100.1 541.4,181.5 	"/>
	<polygon class="st8" points="549.4,0 497.4,85.6 593.7,100.1 556.2,0 	"/>
	<polygon class="st44" points="600,21 564.8,0 556.2,0 593.7,100.1 600,94.1 	"/>
	<polygon class="st45" points="600,0 600,21 564.8,0 	"/>
	<polygon class="st46" points="388.6,572.8 422.5,600 368.5,600 	"/>
	
		<linearGradient id="SVGID_32_" gradientUnits="userSpaceOnUse" x1="459.2629" y1="-245.8227" x2="467.3641" y2="-194.6739" gradientTransform="matrix(1 0 0 -1 0 360)">
		<stop  offset="0" style="stop-color:#4D4D4D"/>
		<stop  offset="3.424227e-03" style="stop-color:#4C4C4C"/>
		<stop  offset="0.4098" style="stop-color:#2E2E2E"/>
		<stop  offset="0.7564" style="stop-color:#1B1B1B"/>
		<stop  offset="1" style="stop-color:#141414"/>
	</linearGradient>
	<polygon class="st47" points="541.4,566.4 505.1,600 422.5,600 388.6,572.8 	"/>
	
		<linearGradient id="SVGID_33_" gradientUnits="userSpaceOnUse" x1="561.2804" y1="-157.1943" x2="595.1937" y2="-170.8961" gradientTransform="matrix(1 0 0 -1 0 360)">
		<stop  offset="0" style="stop-color:#3D3D3D"/>
		<stop  offset="4.700851e-02" style="stop-color:#444444"/>
		<stop  offset="0.2638" style="stop-color:#5D5D5D"/>
		<stop  offset="0.4895" style="stop-color:#6F6F6F"/>
		<stop  offset="0.7279" style="stop-color:#797979"/>
		<stop  offset="1" style="stop-color:#7D7D7D"/>
	</linearGradient>
	<polygon class="st48" points="600,519 541.4,566.4 575.1,487.1 600,475.6 	"/>
	<polygon class="st49" points="600,557.5 541.4,566.4 600,519 	"/>
	<polygon class="st50" points="600,580.1 570.7,600 600,600 	"/>
	
		<linearGradient id="SVGID_34_" gradientUnits="userSpaceOnUse" x1="505.1" y1="-218.75" x2="600" y2="-218.75" gradientTransform="matrix(1 0 0 -1 0 360)">
		<stop  offset="0" style="stop-color:#3D3D3D"/>
		<stop  offset="0.1928" style="stop-color:#4E4E4E"/>
		<stop  offset="0.7812" style="stop-color:#7D7D7D"/>
	</linearGradient>
	<polygon class="st51" points="541.4,566.4 505.1,600 570.7,600 600,580.1 600,557.5 	"/>
	<polygon class="st52" points="505.1,428.4 600,374.3 593.7,320.1 	"/>
	<polygon class="st53" points="600,428.4 505.1,428.4 600,374.3 	"/>
	<polygon class="st3" points="600,475.6 575.1,487.1 600,428.4 	"/>
	<polygon class="st28" points="593.7,320.1 600,238.5 600,374.3 	"/>
	<polygon class="st54" points="524,257.1 600,238.5 593.7,320.1 	"/>
	<polygon class="st55" points="541.4,181.5 600,238.5 524,257.1 	"/>
	<polygon class="st42" points="593.7,100.1 600,149.7 600,94.1 	"/>
	<polygon class="st56" points="541.4,181.5 600,238.5 600,149.7 593.7,100.1 	"/>
	<polygon class="st57" points="96,156 89.1,126.3 204.1,0 212.7,0 	"/>
	<polygon class="st58" points="0,176.5 96,156 89.1,126.3 	"/>
	
		<linearGradient id="SVGID_35_" gradientUnits="userSpaceOnUse" x1="149.2272" y1="294.6455" x2="137.7256" y2="304.2966" gradientTransform="matrix(1 0 0 -1 0 360)">
		<stop  offset="0" style="stop-color:#8F8F8F"/>
		<stop  offset="0.2402" style="stop-color:#797979"/>
		<stop  offset="0.7369" style="stop-color:#414141"/>
		<stop  offset="1" style="stop-color:#212121"/>
	</linearGradient>
	<polygon class="st59" points="184.5,0 89.1,126.3 204.1,0 	"/>
	
		<linearGradient id="SVGID_36_" gradientUnits="userSpaceOnUse" x1="109.6117" y1="250.31" x2="77.1885" y2="290.3494" gradientTransform="matrix(1 0 0 -1 0 360)">
		<stop  offset="0.1567" style="stop-color:#4D4D4D"/>
		<stop  offset="0.5422" style="stop-color:#292929"/>
		<stop  offset="0.9022" style="stop-color:#0D0D0D"/>
	</linearGradient>
	<polygon class="st60" points="163.2,0 84.2,69.1 0,159.3 0,176.5 89.1,126.3 184.5,0 	"/>
	<polygon class="st61" points="103.5,0 84.2,69.1 163.2,0 	"/>
	
		<linearGradient id="SVGID_37_" gradientUnits="userSpaceOnUse" x1="34.4004" y1="347.088" x2="96.433" y2="324.5099" gradientTransform="matrix(1 0 0 -1 0 360)">
		<stop  offset="0.1585" style="stop-color:#3D3D3D"/>
		<stop  offset="0.2908" style="stop-color:#343434"/>
		<stop  offset="0.7403" style="stop-color:#171717"/>
		<stop  offset="1" style="stop-color:#0D0D0D"/>
	</linearGradient>
	<polygon class="st62" points="39.1,0 32.8,34.6 84.2,69.1 103.5,0 	"/>
	
		<linearGradient id="SVGID_38_" gradientUnits="userSpaceOnUse" x1="0" y1="263.05" x2="84.2" y2="263.05" gradientTransform="matrix(1 0 0 -1 0 360)">
		<stop  offset="0.1585" style="stop-color:#3D3D3D"/>
		<stop  offset="0.4284" style="stop-color:#323232"/>
		<stop  offset="0.9077" style="stop-color:#131313"/>
		<stop  offset="1" style="stop-color:#0D0D0D"/>
	</linearGradient>
	<polygon class="st63" points="84.2,69.1 0,159.3 0,126.3 32.8,34.6 	"/>
	
		<linearGradient id="SVGID_39_" gradientUnits="userSpaceOnUse" x1="37.2067" y1="337.7293" x2="15.3762" y2="345.675" gradientTransform="matrix(1 0 0 -1 0 360)">
		<stop  offset="0" style="stop-color:#8F8F8F"/>
		<stop  offset="0.2402" style="stop-color:#797979"/>
		<stop  offset="0.7369" style="stop-color:#414141"/>
		<stop  offset="1" style="stop-color:#212121"/>
	</linearGradient>
	<polygon class="st64" points="8,34.6 32.8,34.6 39.1,0 21.6,0 	"/>
	<polygon class="st32" points="0,73.6 32.8,34.6 0,126.3 	"/>
	
		<linearGradient id="SVGID_40_" gradientUnits="userSpaceOnUse" x1="17.6577" y1="304.6855" x2="2.2935" y2="319.5222" gradientTransform="matrix(1 0 0 -1 0 360)">
		<stop  offset="0" style="stop-color:#8F8F8F"/>
		<stop  offset="0.2402" style="stop-color:#797979"/>
		<stop  offset="0.7369" style="stop-color:#414141"/>
		<stop  offset="1" style="stop-color:#212121"/>
	</linearGradient>
	<polygon class="st65" points="8,34.6 0,56 0,73.6 32.8,34.6 	"/>
	<polygon class="st61" points="21.6,0 0,0 0,56 	"/>
	<polygon class="st44" points="106.3,189.6 0,176.5 96,156 	"/>
	<polygon class="st54" points="41.3,257.1 0,176.5 106.3,189.6 	"/>
	<polygon class="st56" points="43.6,323.6 0,332 0,362.6 	"/>
	
		<linearGradient id="SVGID_41_" gradientUnits="userSpaceOnUse" x1="-4.9165" y1="-33.6422" x2="33.8092" y2="-39.7757" gradientTransform="matrix(1 0 0 -1 0 360)">
		<stop  offset="0" style="stop-color:#666666"/>
		<stop  offset="0.3769" style="stop-color:#595959"/>
		<stop  offset="1" style="stop-color:#3B3B3B"/>
	</linearGradient>
	<polygon class="st66" points="21.8,475.6 43.6,323.6 0,362.6 0,470.8 	"/>
	
		<linearGradient id="SVGID_42_" gradientUnits="userSpaceOnUse" x1="21.8" y1="-91.05" x2="123.6" y2="-91.05" gradientTransform="matrix(1 0 0 -1 0 360)">
		<stop  offset="0" style="stop-color:#3B3B3B"/>
		<stop  offset="0.5401" style="stop-color:#5F5F5F"/>
		<stop  offset="1" style="stop-color:#7A7A7A"/>
	</linearGradient>
	<polygon class="st67" points="43.6,323.6 21.8,475.6 31.5,578.5 123.6,410 	"/>
	<polygon class="st44" points="0,494.2 31.5,578.5 21.8,475.6 	"/>
	<polygon class="st58" points="0,470.8 0,494.2 21.8,475.6 	"/>
	
		<linearGradient id="SVGID_43_" gradientUnits="userSpaceOnUse" x1="336.9766" y1="250.0244" x2="275.7234" y2="285.3889" gradientTransform="matrix(1 0 0 -1 0 360)">
		<stop  offset="0" style="stop-color:#616161"/>
		<stop  offset="0.8003" style="stop-color:#333333"/>
	</linearGradient>
	<polygon class="st68" points="318.8,0 312.7,13.6 267.7,142.8 283.5,202.6 340.9,73.6 360.4,0 	"/>
	<polygon class="st45" points="385.3,13.6 388.6,0 360.4,0 340.9,73.6 	"/>
	<polygon class="st69" points="399.7,83 433.5,0 516.9,0 494.3,32.8 	"/>
	<polygon class="st70" points="537.9,0 494.3,32.8 497.4,85.6 549.4,0 	"/>
	<polygon class="st71" points="516.9,0 494.3,32.8 537.9,0 	"/>
	<polygon class="st69" points="385.3,13.6 433.5,0 388.6,0 	"/>
	<polygon class="st69" points="399.7,83 385.3,13.6 433.5,0 	"/>
	<polygon class="st7" points="41.3,257.1 0,296.5 0,332 43.6,323.6 	"/>
	<polygon class="st42" points="0,176.5 41.3,257.1 0,296.5 	"/>
	<polygon class="st42" points="31.5,578.5 0,589.3 0,600 31.5,600 	"/>
	<polygon class="st42" points="0,494.2 31.5,578.5 0,589.3 	"/>
	<polygon class="st50" points="312.7,13.6 318.8,0 302.8,0 	"/>
	
		<linearGradient id="SVGID_44_" gradientUnits="userSpaceOnUse" x1="244.247" y1="298.8232" x2="297.4643" y2="285.5547" gradientTransform="matrix(1 0 0 -1 0 360)">
		<stop  offset="0" style="stop-color:#7A7A7A"/>
		<stop  offset="0.3162" style="stop-color:#606060"/>
		<stop  offset="0.7546" style="stop-color:#414141"/>
		<stop  offset="1" style="stop-color:#363636"/>
	</linearGradient>
	<polygon class="st72" points="302.8,0 292.1,0 259.5,0 267.7,142.8 312.7,13.6 	"/>
	
		<linearGradient id="SVGID_45_" gradientUnits="userSpaceOnUse" x1="371.449" y1="-239.48" x2="352.0774" y2="-129.618" gradientTransform="matrix(1 0 0 -1 0 360)">
		<stop  offset="0" style="stop-color:#6E6E6E"/>
		<stop  offset="0.1982" style="stop-color:#696969"/>
		<stop  offset="0.4266" style="stop-color:#5B5B5B"/>
		<stop  offset="0.6689" style="stop-color:#444444"/>
		<stop  offset="0.8864" style="stop-color:#292929"/>
	</linearGradient>
	<polygon class="st73" points="458.8,470.8 360.4,508.4 360.4,508.4 287.6,551 261.5,600 267.6,600 368.5,600 368.5,600 368.5,600 
		388.6,572.8 	"/>
</g>
<linearGradient id="SVGID_46_" gradientUnits="userSpaceOnUse" x1="296.3398" y1="-197" x2="296.3398" y2="-797" gradientTransform="matrix(1 0 0 -1 3.6602 -197)">
	<stop  offset="0.1679" style="stop-color:#444444"/>
	<stop  offset="0.9854" style="stop-color:#444444;stop-opacity:1.758981e-02"/>
	<stop  offset="1" style="stop-color:#444444;stop-opacity:0"/>
</linearGradient>
<rect y="0" class="st74" width="600" height="600"/>
</svg>
