<?xml version="1.0" encoding="utf-8"?>
<!-- Generator: Adobe Illustrator 22.1.0, SVG Export Plug-In . SVG Version: 6.00 Build 0)  -->
<svg version="1.1" id="Layer_1" xmlns="http://www.w3.org/2000/svg" xmlns:xlink="http://www.w3.org/1999/xlink" x="0px" y="0px"
	 viewBox="0 0 830.2 460.2" style="enable-background:new 0 0 830.2 460.2;" xml:space="preserve">
<style type="text/css">
	.st0{fill:#FFFFFF;}
	.st1{fill:#FAA729;}
	.st2{fill:#8BA7C9;}
</style>
<g>
	<path class="st0" d="M82.2,440l12-53.5h55.3l-12,53.5H82.2z"/>
	<path class="st0" d="M225.7,273.4c-25.4-14.7-30.8-35.7-24-66.1c12.6-55.9,56.8-82.9,113.6-82.9c58.2,0,90.1,26.5,77.5,82.9
		c-6,26.9-22.1,51.6-54.8,66.1l-0.2,0.9c29.7,18.9,33.3,38.7,24.8,76c-15.5,69-56.6,97.1-125.7,97.1c-56.8,0-82.7-36.1-69-97.1
		c7.5-34.1,16.2-53,57.5-76L225.7,273.4z M293.3,347.4c4.4-19.7,9.5-46.7-18.2-46.7c-28.6,0-32.3,28.2-36.7,47.9
		c-4,17.7-9.7,47.5,16.3,47.5C282.9,396.3,288.9,367.2,293.3,347.4z M286.8,250.3c22.9,0,31.8-20.2,35.7-37.8
		c3.5-15.5,3.5-37-17.3-37c-23.8,0-30.9,20.2-35.1,38.7C266.6,230.1,266.1,250.3,286.8,250.3z"/>
	<path class="st0" d="M418.3,213.7c14.1-63.1,55.1-89.1,118.1-89.1c79.4,0,90.6,36.6,73.3,107.2l-25.4,113.5
		c-15.4,69-45.6,102.2-121,102.2c-61.6,0-91.5-26.1-77.9-87.1L418.3,213.7z M540.3,213.7c1.1-4.7,10.8-36.6-15.7-36.6
		c-23.8,0-29,18.9-32.8,36.6l-31.7,141.7c-4.1,18.5-8.9,39.5,15.9,39.5c25.3-0.9,30.2-28.6,32.5-39.5L540.3,213.7z"/>
</g>
<g>
	<path class="st0" d="M640.9,166.4c4.9-18.7,15.3-31.9,36-31.9c20.4,0,24.7,10.4,19,31.9c-4.8,18-12.1,32.2-36,32.2
		C637.9,198.6,635.6,186.4,640.9,166.4z M662.6,257.2H645l86.5-122.8h17.3L662.6,257.2z M674.7,166.3c1.3-4.9,5.6-15-2.2-15
		c-7.4-0.6-9,10-10.2,15c-2,7.3-5.5,15.5,2.2,15.5C671.5,181.7,673.3,171.1,674.7,166.3z M754.9,225c-4.8,18.1-12.2,32.3-36.2,32.3
		c-21.9,0-24.4-12.3-19.1-32.3c4.9-18.9,15.4-32.2,36.1-32.2C757.4,193,760.2,204.9,754.9,225z M721,224.8c-2,7.3-5.6,15.7,2.1,15.7
		c7.3,0,9.1-10.7,10.4-15.7c1.3-4.9,5.5-14.9-2.2-14.9C724,209.2,722.5,219.8,721,224.8z"/>
</g>
<g>
	<path class="st1" d="M76,67.8L86,21h13c4.2,0,10.3,0.4,12.6,3.9c1.9,2.9,1.7,6.4,0.9,10.2c-1.1,5.1-3.5,10.7-9,13
		c-4.2,1.9-8.5,1.3-12.7,1.5l-3.9,18.2C86.9,67.8,76,67.8,76,67.8z M92.7,41.2c2.1-0.1,4.4,0.2,6.4-1.2c1.4-1.2,2-3.1,2.4-4.7
		c0.4-1.8,0.8-4.6-0.9-5.4c-1-0.4-2.5-0.4-4.2-0.4h-1.2L92.7,41.2z"/>
	<path class="st1" d="M115.1,43.9c1.9-9,7.9-12,15.5-12c8.7,0,12.1,4.1,10.4,12l-3,14.2C135.8,66,130.3,69,122.7,69
		c-7.1,0-12.4-2.9-10.7-10.9L115.1,43.9z M121.9,58.7c-0.2,2,0.3,3.1,2.4,3.1s3.1-1.1,3.7-3.1l3.3-15.6c0.5-2.2,0.1-4.1-2.2-4.1
		s-3.4,1.8-3.9,4.1L121.9,58.7z"/>
	<path class="st1" d="M170,55.5L170,55.5l7.7-22.6h9.5L173,67.8h-10.7l1.1-18.1h-0.1l-6.9,18.2h-10.6l0.8-34.9h9.6l-2,22.6h0.1
		l8.4-22.6h8.5L170,55.5z"/>
	<path class="st1" d="M195.8,52l-1.3,6.1c-0.4,1.9,0.1,3.6,2.3,3.7c3.6,0.2,4-3.1,4.8-6.1h9.9c-1.4,9-7.2,13.1-15.8,13.2
		C188.6,69,183,66,184.7,58l3-14.2c1.9-9,8.2-11.9,15.9-12c6.9-0.1,12.8,2.6,11.2,10.1l-2.1,10L195.8,52L195.8,52z M204.1,45.4
		l0.7-3.4c0.3-1.2-0.1-3.6-2.6-3.6c-2.8,0-4,2.2-4.5,4.7l-0.5,2.3C197.2,45.4,204.1,45.4,204.1,45.4z"/>
	<path class="st1" d="M230.7,32.9l-1.1,5.3h0.1c1.9-3.7,4.9-6.3,9-6.3l-2.4,11.2c-1-0.2-1.9-0.2-2.9-0.2c-2.8,0-4,0.6-4.8,3.4
		L224,67.8h-9.9l7.4-34.9C221.5,32.9,230.7,32.9,230.7,32.9z"/>
	<path class="st1" d="M251,67.8L261,21h13c4.2,0,10.3,0.4,12.6,3.9c1.9,2.9,1.7,6.4,0.9,10.2c-1.1,5.1-3.5,10.7-9,13
		c-4.2,1.9-8.5,1.3-12.7,1.5l-3.9,18.2C261.9,67.8,251,67.8,251,67.8z M267.7,41.2c2.1-0.1,4.4,0.2,6.4-1.2c1.4-1.2,2-3.1,2.4-4.7
		c0.4-1.8,0.8-4.6-0.9-5.4c-1-0.4-2.5-0.4-4.2-0.4h-1.2L267.7,41.2z"/>
	<path class="st1" d="M301.7,32.9l-1.1,5.3h0.1c1.9-3.7,4.9-6.3,9-6.3l-2.4,11.2c-1-0.2-1.9-0.2-2.9-0.2c-2.8,0-4,0.6-4.8,3.4
		L295,67.8h-9.9l7.4-34.9C292.5,32.9,301.7,32.9,301.7,32.9z"/>
	<path class="st1" d="M310.9,43.9c1.9-9,7.9-12,15.5-12c8.7,0,12.1,4.1,10.4,12l-3,14.2C331.6,66,326.1,69,318.5,69
		c-7.1,0-12.4-2.9-10.7-10.9L310.9,43.9z M317.7,58.7c-0.2,2,0.3,3.1,2.4,3.1s3.1-1.1,3.7-3.1l3.3-15.6c0.5-2.2,0.1-4.1-2.2-4.1
		c-2.3,0-3.4,1.8-3.9,4.1L317.7,58.7z"/>
	<path class="st1" d="M341,40.1l1.5-7.2h3.9l2.1-10h9.9l-2.1,10h4.7l-1.5,7.2h-4.7l-3.9,18.4c-0.4,2,0.4,2.4,1.7,2.4
		c1.2-0.2,1.5-0.1,2.6-0.1l-1.5,7c-2.2,0.3-4.3,0.6-6.5,0.6c-5.4,0-7.7-2.7-6.6-8l4.3-20.2H341V40.1z"/>
	<path class="st1" d="M370.8,52l-1.3,6.1c-0.4,1.9,0.1,3.6,2.3,3.7c3.6,0.2,4-3.1,4.8-6.1h9.9c-1.4,9-7.2,13.1-15.8,13.2
		C363.6,69,358,66,359.7,58l3-14.2c1.9-9,8.2-11.9,15.9-12c6.9-0.1,12.8,2.6,11.2,10.1l-2.1,10L370.8,52L370.8,52z M379.1,45.4
		l0.7-3.4c0.3-1.2-0.1-3.6-2.6-3.6c-2.8,0-4,2.2-4.5,4.7l-0.5,2.3C372.2,45.4,379.1,45.4,379.1,45.4z"/>
	<path class="st1" d="M410.1,45.9l0.1-0.6c0.1-1.3,0.4-2.7,0.5-4c-0.1-1.4-0.7-2.2-2.2-2.2c-2.6,0-3.4,2-3.9,4.2l-3.1,14.4
		c-0.5,2.2-0.2,4.1,2.3,4.1c3.7,0,4.2-5.5,4.8-8.1h9.6c-0.4,2.1-1.6,6.4-2.6,8.3c-2.2,4.4-6.4,6.4-10.8,6.8
		c-0.9,0.1-1.8,0.2-3.3,0.2c-7.1,0-11.7-2.9-10-10.9l3-14.2c1.9-9,7.2-12,14.8-12c9.8,0.1,12.7,4.4,10.1,14
		C419.4,45.9,410.1,45.9,410.1,45.9z"/>
	<path class="st1" d="M424.2,40.1l1.5-7.2h3.9l2.1-10h9.9l-2.1,10h4.7l-1.5,7.2H438l-3.9,18.4c-0.4,2,0.4,2.4,1.7,2.4
		c1.2-0.2,1.5-0.1,2.6-0.1l-1.5,7c-2.2,0.3-4.3,0.6-6.5,0.6c-5.4,0-7.7-2.7-6.6-8l4.3-20.2h-3.9V40.1z"/>
	<path class="st1" d="M454,52l-1.3,6.1c-0.4,1.9,0.1,3.6,2.3,3.7c3.6,0.2,4-3.1,4.8-6.1h9.9c-1.4,9-7.2,13.1-15.8,13.2
		c-7.1,0.1-12.7-2.9-11-10.9l3-14.2c1.9-9,8.2-11.9,15.9-12c6.9-0.1,12.8,2.6,11.2,10.1l-2.1,10L454,52L454,52z M462.2,45.4l0.7-3.4
		c0.3-1.2-0.1-3.6-2.6-3.6c-2.8,0-4,2.2-4.5,4.7l-0.5,2.3C455.3,45.4,462.2,45.4,462.2,45.4z"/>
	<path class="st1" d="M488.6,67.8l0.9-4.1h-0.1c-2.5,3.4-5.9,5.2-8.8,5.2c-7.2-0.3-7.2-7-5.9-13l2.6-12.1c1.2-5.5,4.5-12,11-12
		c2.6,0,4.9,1.1,6.3,4.2h0.1l3.2-15h9.9l-10,46.8H488.6z M484.7,55.2c-0.4,2.1-1.2,5.6,1.7,5.6c2.7,0,3.6-2.7,4.3-6.1l1.8-8.2
		c0.6-3,1-6.6-1.5-6.5c-3.2,0-3.9,3.9-4.4,6.2L484.7,55.2z"/>
	<path class="st1" d="M543.9,37.4l0.6-3c0.9-4-0.1-6.1-2.2-6.1c-3.4-0.1-4.6,1.8-5.3,4.9l-5,23.1c-0.6,2.6,0.2,4.2,3,4.2
		c3.7,0,4.9-3.9,5.5-6.7l0.9-4.2h11l-1.2,5.7c-1.7,8-7.5,13.7-18.8,13.7c-10.1,0-12.9-5.4-10.9-14.9l4.1-19.2
		c2.2-10.2,7.9-14.9,17.9-14.9c9.4,0,14.1,4,12.1,13.5l-0.8,3.9H543.9z"/>
	<path class="st1" d="M570.6,35.6L570.6,35.6c3-2.9,5.6-3.7,8.4-3.7c4.8,0,7.2,3.4,6.2,7.9l-6,28h-9.9l5.3-24.8c0.4-2,0.1-3-2.2-3
		c-2.2,0-3.3,1.9-3.7,3.7l-5.1,24.1h-9.9l10-46.8h9.9L570.6,35.6z"/>
	<path class="st1" d="M597.8,52l-1.3,6.1c-0.4,1.9,0.1,3.6,2.3,3.7c3.6,0.2,4-3.1,4.8-6.1h9.9c-1.4,9-7.2,13.1-15.8,13.2
		C590.6,69,585,66,586.7,58l3-14.2c1.9-9,8.2-11.9,15.9-12c6.9-0.1,12.8,2.6,11.2,10.1l-2.1,10L597.8,52L597.8,52z M606.1,45.4
		l0.7-3.4c0.3-1.2-0.1-3.6-2.6-3.6c-2.8,0-4,2.2-4.5,4.7l-0.5,2.3C599.2,45.4,606.1,45.4,606.1,45.4z"/>
	<path class="st1" d="M637.1,45.9l0.1-0.6c0.1-1.3,0.4-2.7,0.5-4c-0.1-1.4-0.7-2.2-2.2-2.2c-2.6,0-3.4,2-3.9,4.2l-3.1,14.4
		c-0.5,2.2-0.2,4.1,2.3,4.1c3.7,0,4.2-5.5,4.8-8.1h9.6c-0.4,2.1-1.6,6.4-2.6,8.3c-2.2,4.4-6.4,6.4-10.8,6.8
		c-0.9,0.1-1.8,0.2-3.3,0.2c-7.1,0-11.7-2.9-10-10.9l3-14.2c1.9-9,7.2-12,14.8-12c9.8,0.1,12.7,4.4,10.1,14
		C646.4,45.9,637.1,45.9,637.1,45.9z"/>
	<path class="st1" d="M647,67.8L657,21h9.9l-5,23.5h0.1l9.3-11.7h10.9l-12.8,14l5.5,20.9h-10.4l-2.9-13.5l-2.2,2.2L657,67.6h-10
		V67.8z"/>
	<path class="st1" d="M679.5,67.8l7.4-34.9h9.9l-7.4,34.9H679.5z M687.6,29.5l1.8-8.4h9.9l-1.8,8.4H687.6z"/>
	<path class="st1" d="M712.8,32.9l-0.9,4.4h0.1c1.5-2.7,4.9-5.4,8.1-5.4c4.7,0,8.3,2.6,7.3,7.3l-6.1,28.6h-9.9l5.3-25
		c0.2-1.6-0.1-3-2-2.9c-1.8,0.1-2.9,1.1-3.3,2.9l-5.3,25h-9.9l7.4-34.9C703.6,32.9,712.8,32.9,712.8,32.9z"/>
	<path class="st1" d="M736,69.7c-0.5,2.4-0.4,3.5,2.5,3.3c2.1-0.2,3.1-0.6,3.6-2.9l1.5-7h-0.1c-2.5,2.3-5.2,3.8-7.9,3.8
		c-6.2,0-7.5-5.6-6.4-11l2.6-12.1c1.2-5.5,4.5-12,11.1-12c3.4,0.1,5.8,1.7,6.7,5.2h0.1l0.9-4.2h9.2l-7.6,35.6
		c-1.7,8.2-8.2,11.1-15.7,11.1s-12.1-1.8-10.6-9.9H736V69.7z M739.4,55.1c-0.4,1.9-0.2,3.7,2.1,3.7c2.7,0,3.5-2.4,4-4.6l2.1-9.7
		c0.5-2.4,0.4-4.6-2.3-4.6c-2.6,0-3.5,3.4-3.8,5.2L739.4,55.1z"/>
</g>
<g>
	<path class="st2" d="M138.3,219.6c-1.3,0-2,1.1-2.2,2.2l-2,8.9c-0.1,1.2,0.2,1.7,1.4,1.7c1.2,0,1.7-0.6,2.2-1.7l2-8.9
		C139.8,220.6,139.6,219.6,138.3,219.6z"/>
	<path class="st2" d="M104.6,194.3c-0.4,1.5,0.4,2.6,2,2.6c2.1,0,2.9-2.1,3.2-3.7l0.7-3.8c-1.5,0.7-2.8,1.1-3.8,1.7
		C105.9,191.9,104.9,192.7,104.6,194.3z"/>
	<path class="st2" d="M99.7,220.1c-1.5,0-2.2,1.6-2.6,3.6l-1,4.8c-0.4,1.7-0.4,3.7,1,3.7c1.8,0,2.2-2.2,2.5-3.5l1.1-5.2
		C101,222.2,101.4,220.1,99.7,220.1z"/>
	<path class="st2" d="M188.1,204.3c4.7-20.8,13.7-39.1,26.5-53.6H42.9v106.9h148.3C182.2,239.5,184.6,219.7,188.1,204.3z
		 M129.9,177.2l-0.7,3.7h0.1c1.3-2.6,3.3-4.3,6.2-4.3l-1.6,7.6c-0.6-0.1-1.3-0.2-2.1-0.2c-2,0-2.8,0.4-3.3,2.3l-3.1,14.8h-6.8
		l5.1-23.9L129.9,177.2L129.9,177.2z M82.7,169H100l-1.4,6.4h-9.7l-1.3,5.9h9.4l-1.4,6.4h-9.4l-1.5,6.9h10.2l-1.4,6.4H75.9L82.7,169
		z M80.4,236l0.5-2.5h-0.1c-0.9,1.5-2.8,3.1-4.7,3.1c-3.2,0-4.8-1.5-4.2-4.2l3.5-16.4h5.6l-3,14.3c-0.1,1,0,1.7,1.1,1.6
		c1,0,1.7-0.6,2-1.6l3-14.3h5.6l-4.2,20H80.4z M106.6,222.2l-1.5,6.9c-0.7,3.3-2.3,7.3-6.5,7.4c-1,0-2.7-0.5-3.6-2.5h-0.1l-1.8,8.6
		h-5.6l5.7-26.6h5.3l-0.5,2.3l0,0c1.5-2,3.2-2.9,5.3-3C107,215.4,107.4,219.1,106.6,222.2z M115.5,201.2H109V199
		c-2.2,1.8-3.8,2.9-6.5,2.9c-3.9,0-5.7-2.6-4.8-6.4c1.2-5.4,4.4-7.1,7.6-8.1c3.1-1,6.2-1.3,6.7-3.9c0.4-1.3-0.2-2.5-1.6-2.5
		c-2.5,0-2.8,1.7-3.5,3.7h-6.8c1-6,5.5-8.3,11-8.3c6.7,0,8.7,2.1,7.5,7.4l-3.1,14.7C115.3,199.4,115.4,200.3,115.5,201.2z
		 M125.1,236c-1.3,0.2-2.5,0.4-3.7,0.4c-3,0-4.4-1.6-3.8-4.7l2.5-11.6h-2.2l0.9-4.1h2.2l1.2-5.7h5.6l-1.2,5.7h2.7l-0.9,4.1h-2.7
		l-2.2,10.5c-0.2,1.2,0.2,1.4,1,1.4c0.6-0.1,0.9-0.1,1.5-0.1L125.1,236z M145.1,222.2l-1.7,8.1c-1.3,4.6-4.4,6.2-8.7,6.2
		c-4.1,0-7-1.6-6-6.2l1.7-8.1c1.1-5.1,4.4-6.8,8.9-6.8C144.1,215.4,146.1,217.8,145.1,222.2z M154.4,181.5l-4.2,19.6h-6.8l3.7-17.1
		c0.1-1.1-0.1-2.1-1.4-2c-1.2,0-2,0.7-2.2,2l-3.7,17.1h-6.8l5.1-23.9h6.4l-0.6,3h0.1c1.1-1.8,3.3-3.7,5.5-3.7
		C152.7,176.4,155.2,178.2,154.4,181.5z"/>
</g>
<g>
	<path class="st2" d="M625.6,357.2l-1.3,5.9c1.6-0.4,3.1-1.4,3.2-3.1C627.3,359.2,628.3,358.7,625.6,357.2z"/>
	<path class="st2" d="M663.2,344.5c-2,0-2.3,1.6-2.7,3.1l-2.6,12c-0.4,1.6-0.7,3.3,1.3,3.3c2.1-0.1,2.5-2.3,2.6-3.3l2.6-12
		C664.6,347.3,665.4,344.5,663.2,344.5z"/>
	<polygon class="st2" points="641,305.7 640.9,305.7 635.6,320.1 640,320.1 	"/>
	<path class="st2" d="M626.7,345.2c-1.4,0.4-2.5,0.9-2.8,2.5c-0.4,1.4,0.4,2.5,1.7,2.9L626.7,345.2z"/>
	<path class="st2" d="M667,309.7c0.2-1.2,0.5-3.1-0.6-3.7c-0.6-0.2-1.7-0.2-2.9-0.2h-0.9l-1.7,8.1c1.4,0,3,0.1,4.4-0.9
		C666.3,312,666.6,310.7,667,309.7z"/>
	<path class="st2" d="M681,344.5c-2,0-2.3,1.6-2.7,3.1l-2.6,12c-0.4,1.6-0.7,3.3,1.3,3.3c2.1-0.1,2.5-2.3,2.6-3.3l2.6-12
		C682.4,347.3,683.2,344.5,681,344.5z"/>
	<path class="st2" d="M733.1,312.2c-1.6,0-2.3,1.3-2.7,2.8l-2.2,10.7c-0.2,1.4,0.2,2.1,1.6,2.1c1.4,0,2.2-0.7,2.6-2.1l2.2-10.7
		C734.9,313.5,734.8,312.2,733.1,312.2z"/>
	<path class="st2" d="M613.8,278.6l-15.5,69.8c-3.1,13.8-6.7,26.1-11,37h200V278.6H613.8L613.8,278.6z M702.8,305.5h3.3l1.2-5.4h3.8
		l-1.2,5.4h3.3l-0.6,3.2h-3.3l-2.8,13.3h-3.8l2.8-13.3h-3.3L702.8,305.5z M685.9,299.9l1.5,10.5h0.1l6-10.5h7.5l-11.7,18.6
		l-2.9,13.4H679l2.9-13.4l-3.6-18.6H685.9z M656.3,299.9h9c2.9,0,7,0.2,8.6,2.7c1.3,2,1.2,4.3,0.6,7c-0.7,3.5-2.3,7.4-6.2,9
		c-2.9,1.3-5.8,0.9-8.7,1.1l-2.7,12.6h-7.5L656.3,299.9z M637.6,299.9h9.1l0.1,32h-7.6l0.2-6.3h-5.9l-2.2,6.3h-7.5L637.6,299.9z
		 M632.6,359.9c-1,4.4-4,7.1-8.5,7.4l-0.9,3.9h-3l0.9-4c-4.8-0.9-5.9-3.2-4.8-8.2h4.9c0.1,0.7-1.3,3.2,1.5,4.2l1.4-6.7
		c-3.7-2-6.3-3.8-5.2-8.7c0.9-3.8,4.4-6.5,8.1-6.8l0.5-2.3h3.1l-0.5,2.3c4,0.4,5.9,3.3,4.9,7.5h-5.2c0.4-1.5,0.1-3.2-1.5-3.5
		l-1.3,6.3C630.9,353.2,633.7,354.9,632.6,359.9z M650.5,358c-1.2,5.7-3.9,9.4-10.1,9.4c-4.7,0-6.3-2.2-6.2-6.5l0.4-2.1h5.6
		c-0.1,1.3-1,3.9,1,4.1c2.2,0.2,3-3,3.2-4.4c0.4-1.6,1.4-5.3-1.2-5.3c-1.3,0-2.2,0.7-2.5,2h-5.2l3.8-14.5h13.8l-1,4.8h-9.3l-1.3,4.9
		c1.5-1.1,2.8-1.6,4.6-1.6C651.5,348.8,651.5,353.5,650.5,358z M658.4,367.3c-4.9,0-7.4-2.2-6.3-7.4l2.7-12.4
		c1.2-5.3,4.4-7.5,9.5-7.5c6.4,0,7.4,3.1,5.9,9.1l-2.1,9.6C666.9,364.5,664.4,367.3,658.4,367.3z M676,367.3c-4.9,0-7.4-2.2-6.3-7.4
		l2.7-12.4c1.2-5.3,4.4-7.5,9.5-7.5c6.4,0,7.4,3.1,5.9,9.1l-2.1,9.6C684.5,364.5,682.2,367.3,676,367.3z M697.8,366.7l-1.5-9.3
		l-2,2.7l-1.3,6.6h-6.3l5.7-26.6h6.3l-2.2,10.7h0.1l6.9-10.7h6.4l-8.2,11.7l2.9,14.9H697.8L697.8,366.7z M723.3,359.9h-5.9l-1.4,6.8
		h-4.1l1.4-6.8h-5.9l0.9-4.1h5.9l1.4-6.5h4.1l-1.4,6.5h5.9L723.3,359.9z M741.3,315.6l-2.1,9.7c-1.5,5.4-5.3,7.4-10.5,7.4
		c-4.8,0-8.5-2-7.4-7.4l2.1-9.7c1.3-6.2,5.4-8.2,10.7-8.2C740.1,307.3,742.6,310.2,741.3,315.6z M763.1,312.4l-4.2,19.6h-6.7
		l3.7-17.1c0.1-1.1-0.1-2.1-1.4-2c-1.2,0-2,0.7-2.2,2l-3.7,17.1h-6.8l5.1-23.9h6.4l-0.6,3h0.1c1.1-1.8,3.3-3.7,5.5-3.7
		C761.4,307.3,763.9,309.1,763.1,312.4z"/>
</g>
</svg>
