<?xml version="1.0" encoding="utf-8"?>
<!-- Generator: Adobe Illustrator 22.1.0, SVG Export Plug-In . SVG Version: 6.00 Build 0)  -->
<svg version="1.1" id="Layer_1" xmlns="http://www.w3.org/2000/svg" xmlns:xlink="http://www.w3.org/1999/xlink" x="0px" y="0px"
	 viewBox="0 0 672.8 508" style="enable-background:new 0 0 672.8 508;" xml:space="preserve">
<style type="text/css">
	.st0{fill:#FAA729;}
	.st1{fill:#FFFFFF;}
	.st2{fill:#8BA7C9;}
	.st3{fill:#FAF9EC;}
	.st4{opacity:0.17;fill:#121212;enable-background:new    ;}
	.st5{clip-path:url(#SVGID_2_);}
	.st6{fill:#2B3526;}
	.st7{opacity:0.1;enable-background:new    ;}
	.st8{clip-path:url(#SVGID_4_);}
	.st9{clip-path:url(#SVGID_6_);}
	.st10{opacity:0.24;enable-background:new    ;}
	.st11{fill:url(#SVGID_7_);}
	.st12{fill:url(#SVGID_8_);}
	.st13{fill:#B7B7B7;}
	.st14{fill:url(#SVGID_9_);}
</style>
<g>
	<g>
		<path class="st0" d="M91.1,105.1H73.5l2.8-13.2c9.3,0.1,21.4-2.8,25.7-13h13l-18,84.5H78.7L91.1,105.1z"/>
		<path class="st0" d="M111.2,163.4l4.2-19.7h19.5l-4.2,19.7H111.2z"/>
		<path class="st0" d="M152.1,125.9l12.2-47.1H209l-3.3,15.5h-30.1l-4.2,16.1c4.8-3.6,9.2-5.3,14.6-5.3c18,0,17.7,15.2,14.6,29.8
			c-4,18.7-12.7,30.4-33,30.4c-14.9,0-20.4-6.9-20.1-21l1.4-6.6h18.2c-0.4,4.1-3.1,12.4,3.2,13.1c7.4,0.8,9.7-9.8,10.6-14.3
			c1.2-5.4,4.5-17.2-3.8-17.2c-4,0-6.9,2.3-8.1,6.3h-16.9L152.1,125.9L152.1,125.9z"/>
		<path class="st0" d="M213.9,100c2.7-12.6,9.2-21.4,23-21.4c13.7,0,17,6.9,13.9,21.4c-2.6,12.1-7,21.5-23,21.5
			C213.1,121.6,211.1,113.4,213.9,100z M230.8,165.4h-9.7L278.9,77h9.4L230.8,165.4z M236.8,99.9c0.8-3.6,3.5-10.8-2.2-10.8
			c-5.3-0.5-6,7.3-6.8,10.8c-1.1,5.2-3.4,11.2,2.1,11.2C235.2,111.1,236.1,103.5,236.8,99.9z M295.4,142.3c-2.6,12.1-7,21.5-23,21.5
			c-14.6,0-16.7-8.2-13.8-21.5c2.7-12.6,9.2-21.4,23-21.4C295.9,120.9,298.3,128.8,295.4,142.3z M272.5,142.1
			c-1.1,5.2-3.4,11.3,2.1,11.3c5.2,0,6.1-7.7,6.9-11.3s3.4-10.7-2.2-10.7C274,130.9,273.3,138.5,272.5,142.1z"/>
	</g>
	<g>
		<path class="st0" d="M342.5,91.6l0.6-2.9c0.8-3.9-0.1-5.9-2.1-5.9c-3.3-0.1-4.5,1.8-5.1,4.7l-4.9,22.6c-0.5,2.6,0.2,4.1,3,4.1
			c3.6,0,4.8-3.8,5.4-6.6l0.9-4.1H351l-1.2,5.6c-1.7,7.8-7.3,13.3-18.3,13.3c-9.9,0-12.6-5.2-10.6-14.5l4-18.7
			c2.1-9.9,7.7-14.5,17.4-14.5c9.1,0,13.8,3.9,11.8,13.2l-0.8,3.8L342.5,91.6L342.5,91.6z"/>
		<path class="st0" d="M349.9,121.3l19.7-45.6h12.9l0.2,45.6h-10.8l0.4-8.9h-8.4l-3.2,8.9H349.9z M374.3,83.9h-0.1l-7.5,20.4h6.2
			L374.3,83.9z"/>
		<path class="st0" d="M397.4,106l-0.7,3.2c-0.6,2.6-0.2,4.9,3.2,4.9c2.5,0,4.1-2.3,4.6-4.6c0.8-3.8-2-5.3-4.5-7
			c-2.9-1.9-5.3-3.6-6.8-6c-1.5-2.3-2-5.1-1.2-9.1c1.8-8.6,7.9-13,16.2-13c9.3,0,12.7,6.2,10.4,14.8h-9.9c0.4-2.7,1.3-6.3-2.1-6.6
			c-2.2-0.2-3.7,1-4.4,3c-0.9,2.7,0.2,4.1,2,5.6c3.5,2.6,6.6,4.1,8.6,6.4s2.8,5.4,1.6,10.9c-1.9,8.8-7.8,13.6-16.6,13.6
			c-9.8,0-12.8-5.5-11.5-11.5l1-4.9h10.1L397.4,106L397.4,106z"/>
		<path class="st0" d="M416.1,121.3l9.7-45.6h10.7l-3.7,17.5h7.4l3.7-17.5h10.7l-9.7,45.6h-10.7l4-19h-7.4l-4,19H416.1z"/>
		<path class="st0" d="M465.3,121.3l9.7-45.6h13.9c8.1,0,13.9,2.6,11.9,11.8c-0.9,4-3.1,7.6-7.2,9.6v0.1c4.3,2.8,4.8,5.2,3.6,10.9
			c-2,9.2-8,13.2-16.7,13.2H465.3z M477.8,113.1c5.4-0.1,7.5,0.2,8.9-5.9c1.1-5.3-1.9-5.2-6.5-5.4L477.8,113.1z M481.9,93.6
			c4.7-0.3,6.9,0,8-5.4c1-4.5-2.2-4.3-6-4.3L481.9,93.6z"/>
		<path class="st0" d="M497,121.3l19.7-45.6h12.9l0.2,45.6H519l0.4-8.9H511l-3.2,8.9H497z M521.4,83.9L521.4,83.9l-7.6,20.4h6.2
			L521.4,83.9z"/>
		<path class="st0" d="M557.2,91.6l0.6-2.9c0.8-3.9-0.1-5.9-2.1-5.9c-3.3-0.1-4.5,1.8-5.1,4.7l-4.9,22.6c-0.5,2.6,0.2,4.1,3,4.1
			c3.6,0,4.8-3.8,5.4-6.6l0.9-4.1h10.7l-1.2,5.6c-1.7,7.8-7.3,13.3-18.3,13.3c-9.9,0-12.6-5.2-10.6-14.5l4-18.7
			c2.1-9.9,7.7-14.5,17.4-14.5c9.1,0,13.8,3.9,11.8,13.2l-0.8,3.8L557.2,91.6L557.2,91.6z"/>
		<path class="st0" d="M566.7,121.3l9.7-45.6h10.7l-3.9,18.2h0.1l11.8-18.2H606l-14,20.1l4.9,25.5h-11.3l-2.5-15.9l-3.4,4.6
			l-2.4,11.2L566.7,121.3L566.7,121.3z"/>
	</g>
	<g>
		<path class="st1" d="M323.2,143.1h4.5l-1.5,7.2h6.5l-1,4.5h-6.5l-1.6,7.5h-4.5l1.6-7.5h-6.5l1-4.5h6.5L323.2,143.1z"/>
		<path class="st1" d="M353.1,145.9L353.1,145.9l-2.9,16.4h-6.5l6.2-29.2h7.1l1.8,16.3h0.1l2.8-16.3h6.5l-6.2,29.2h-7L353.1,145.9z"
			/>
		<path class="st1" d="M386.4,152.9c-1.4,6.6-4.4,10-11.4,10c-6.9,0-8.6-3.4-7.2-10l2.5-11.9c1.2-5.6,5.2-8.7,11.2-8.7
			s8.6,3.1,7.4,8.7L386.4,152.9z M382,141.5c0.4-1.8,0.7-3.9-1.6-3.9c-2.2,0-2.9,2.1-3.3,3.9l-2.6,12c-0.4,1.7-0.6,4.2,1.6,4.2
			s2.9-2.5,3.3-4.2L382,141.5z"/>
		<path class="st1" d="M397.2,162.2l12.6-29.2h8.3l0.1,29.2h-6.9l0.2-5.7h-5.4l-2,5.7H397.2z M412.8,138.3L412.8,138.3l-4.9,13.1h4
			L412.8,138.3z"/>
		<path class="st1" d="M430.2,145.9L430.2,145.9l-2.9,16.4h-6.5L427,133h7.1l1.8,16.3h0.1l2.8-16.3h6.5l-6.2,29.2h-7L430.2,145.9z"
			/>
		<path class="st1" d="M452.5,145.9L452.5,145.9l-2.9,16.4H443l6.2-29.2h7.1l1.8,16.3h0.1L461,133h6.5l-6.2,29.2h-7L452.5,145.9z"/>
		<path class="st1" d="M471.5,133h6.9l-4.7,22.1c-0.3,1.4-0.1,2.6,1.8,2.6c1.8,0,2.7-1.6,2.9-2.8L483,133h6.9l-4.5,21.2
			c-1.1,4.9-4.1,8.8-11.1,8.8c-5.8,0-8.6-2.8-7.3-8.8L471.5,133z"/>
		<path class="st1" d="M486.2,162.2l12.6-29.2h8.3l0.1,29.2h-6.9l0.2-5.7h-5.4l-2,5.7H486.2z M501.8,138.3L501.8,138.3l-4.9,13.1h4
			L501.8,138.3z"/>
		<path class="st1" d="M509.5,162.2l6.2-29.2h6.9l-5,23.4h8.4l-1.2,5.8H509.5z"/>
		<path class="st1" d="M538.2,162.2l6.2-29.2h16.1l-1.2,5.8H550l-1,5.2h8.5l-1.2,5.8h-8.5l-2.6,12.4H538.2z"/>
		<path class="st1" d="M558.2,162.2l6.2-29.2h15.7l-1.2,5.8H570l-1.1,5.4h8.6l-1.2,5.8h-8.6l-1.3,6.3h9.3l-1.2,5.8L558.2,162.2
			L558.2,162.2z"/>
		<path class="st1" d="M578.3,162.2l6.2-29.2h15.7l-1.2,5.8h-8.8l-1.1,5.4h8.6l-1.2,5.8h-8.6l-1.3,6.3h9.3l-1.2,5.8L578.3,162.2
			L578.3,162.2z"/>
	</g>
</g>
<polygon class="st2" points="105.5,226.9 0,226.9 0,15.8 180.5,15.8 180.5,21.8 6,21.8 6,220.9 105.5,220.9 "/>
<polygon class="st2" points="663,226.9 553.5,226.9 553.5,220.9 657,220.9 657,21.8 476,21.8 476,15.8 663,15.8 "/>
<g>
	<g>
		<path class="st1" d="M208.6,24.8c1.2,1.3,2.7,2,4.7,2s3.5-0.7,4.7-2s1.7-3.2,1.7-5.5V5.4h4.2v14.1c0,3.6-1,6.4-3,8.4
			s-4.5,2.9-7.7,2.9c-3.1,0-5.7-1-7.7-2.9c-2-2-3-4.7-3-8.4V5.4h4.2v13.9C206.9,21.7,207.5,23.5,208.6,24.8z"/>
		<path class="st1" d="M255.6,5.4h4.2v25.2h-4.6L241,12.2v18.4h-4.2V5.4h4.2l14.6,18.8V5.4z"/>
		<path class="st1" d="M272.9,30.6V5.4h4.2v21.1h11.5v4h-15.7V30.6z"/>
		<path class="st1" d="M299.4,5.4h4.2v25.2h-4.2V5.4z"/>
		<path class="st1" d="M321,30.6h-4.2V5.4h6.6l7.6,15.8l7.6-15.8h6.6v25.2H341V10.9l-8.8,17.5h-2.4L321,10.9V30.6z"/>
		<path class="st1" d="M358.3,5.4h4.2v25.2h-4.2V5.4z"/>
		<path class="st1" d="M385.2,9.3v21.3H381V9.3h-7.6V5.4h19.5v3.9H385.2z"/>
		<path class="st1" d="M421.2,5.4v4h-13.4v6.7h12.1v3.8h-12.1v6.7h13.9v4h-18.1V5.4H421.2z"/>
		<path class="st1" d="M452.2,8.7c2.4,2.2,3.6,5.3,3.6,9.2s-1.2,7-3.5,9.3c-2.4,2.3-6,3.4-10.8,3.4h-8.4V5.4h8.6
			C446.3,5.4,449.8,6.5,452.2,8.7z M451.6,18c0-5.8-3.3-8.6-9.9-8.6h-4.2v17.2h4.7c3,0,5.4-0.7,7-2.2S451.6,20.8,451.6,18z"/>
	</g>
</g>
<g>
	<g>
		<path class="st1" d="M132.8,228.4l-2.5,5.7h-4.5l11.1-25.2h4.5l11.1,25.2H148l-2.5-5.7H132.8z M143.6,224.5l-4.6-10.4l-4.6,10.4
			H143.6z"/>
		<path class="st1" d="M180.9,208.9h4.2v25.2h-4.6l-14.3-18.4v18.4H162v-25.2h4.2l14.6,18.8L180.9,208.9L180.9,208.9z"/>
		<path class="st1" d="M217.3,212.2c2.4,2.2,3.6,5.3,3.6,9.2s-1.2,7-3.5,9.3c-2.4,2.3-6,3.4-10.8,3.4h-8.4v-25.2h8.6
			C211.4,208.9,214.9,210,217.3,212.2z M216.7,221.5c0-5.8-3.3-8.6-9.9-8.6h-4.2v17.2h4.7c3,0,5.4-0.7,7-2.2
			S216.7,224.3,216.7,221.5z"/>
		<path class="st1" d="M255.2,236.7v-2.6c-3.3-0.3-6.2-1.6-8.9-3.9l2.6-3.1c2,1.8,4.1,2.8,6.2,3.1v-7c-2.7-0.6-4.7-1.5-6-2.6
			s-1.9-2.6-1.9-4.7c0-2.1,0.7-3.8,2.2-5.1s3.3-2,5.7-2.2v-1.8h2.3v1.8c2.6,0.2,5.1,1.1,7.5,2.7l-2.3,3.3c-1.6-1.1-3.3-1.8-5.1-2.1
			v6.8h0.1c2.8,0.6,4.8,1.5,6.1,2.6c1.3,1.1,1.9,2.7,1.9,4.8s-0.7,3.8-2.2,5.1s-3.5,2-5.9,2.2v2.6L255.2,236.7L255.2,236.7z
			 M252.7,213.5c-0.6,0.5-0.9,1.2-0.9,2s0.2,1.4,0.7,1.9s1.4,0.9,2.7,1.3v-6.2C254.1,212.6,253.3,212.9,252.7,213.5z M260.3,229.2
			c0.7-0.6,1-1.2,1-2.1c0-0.8-0.3-1.5-0.8-2s-1.5-1-3-1.4v6.5C258.7,230.1,259.6,229.8,260.3,229.2z"/>
		<path class="st1" d="M274.5,208.9h9.1v25.2h-4v-21.4h-5.1V208.9z"/>
		<path class="st1" d="M297.9,230.8c-1.7-2.4-2.6-5.5-2.6-9.5s0.9-7.1,2.6-9.5s4.3-3.5,7.7-3.5c3.4,0,6,1.2,7.7,3.5
			c1.7,2.4,2.6,5.5,2.6,9.5s-0.9,7.1-2.6,9.5s-4.3,3.5-7.7,3.5C302.2,234.4,299.6,233.2,297.9,230.8z M301,214.6
			c-1,1.7-1.5,4-1.5,6.8s0.5,5.1,1.5,6.8s2.5,2.6,4.7,2.6s3.7-0.9,4.6-2.6c1-1.7,1.5-4,1.5-6.8s-0.5-5.1-1.5-6.8s-2.5-2.6-4.6-2.6
			S302,212.8,301,214.6z"/>
		<path class="st1" d="M328.8,230.8c-1.7-2.4-2.6-5.5-2.6-9.5s0.9-7.1,2.6-9.5s4.3-3.5,7.7-3.5c3.4,0,6,1.2,7.7,3.5
			c1.7,2.4,2.6,5.5,2.6,9.5s-0.9,7.1-2.6,9.5s-4.3,3.5-7.7,3.5C333.1,234.4,330.5,233.2,328.8,230.8z M331.9,214.6
			c-1,1.7-1.5,4-1.5,6.8s0.5,5.1,1.5,6.8s2.5,2.6,4.7,2.6s3.7-0.9,4.6-2.6c1-1.7,1.5-4,1.5-6.8s-0.5-5.1-1.5-6.8s-2.5-2.6-4.6-2.6
			S332.9,212.8,331.9,214.6z"/>
		<path class="st1" d="M385.5,234.1h-11v-25.2h9.8c1.7,0,3.2,0.2,4.4,0.6c1.2,0.4,2.2,1,2.8,1.7c1.2,1.3,1.7,2.8,1.7,4.4
			c0,2-0.6,3.4-1.9,4.4c-0.5,0.3-0.8,0.5-0.9,0.6c-0.2,0.1-0.5,0.2-0.9,0.4c1.6,0.3,2.8,1,3.7,2.1c0.9,1.1,1.4,2.4,1.4,4
			c0,1.8-0.6,3.3-1.8,4.6C391.4,233.3,389,234.1,385.5,234.1z M378.8,219.4h5.4c3.1,0,4.6-1,4.6-3.1c0-1.2-0.4-2.1-1.1-2.6
			s-1.9-0.8-3.5-0.8h-5.4V219.4z M378.8,230.2h6.7c1.6,0,2.8-0.2,3.6-0.7c0.8-0.5,1.2-1.4,1.2-2.8c0-2.2-1.8-3.3-5.4-3.3h-6.1
			L378.8,230.2L378.8,230.2z"/>
		<path class="st1" d="M427.1,230.6c-2.5,2.5-5.7,3.7-9.4,3.7s-6.9-1.2-9.4-3.7s-3.8-5.6-3.8-9.3s1.3-6.8,3.8-9.3s5.7-3.7,9.4-3.7
			s6.9,1.2,9.4,3.7s3.8,5.6,3.8,9.3S429.7,228.1,427.1,230.6z M424,214.9c-1.7-1.8-3.8-2.7-6.3-2.7s-4.6,0.9-6.3,2.7
			s-2.6,3.9-2.6,6.5s0.9,4.7,2.6,6.5s3.8,2.7,6.3,2.7s4.6-0.9,6.3-2.7c1.7-1.8,2.6-3.9,2.6-6.5S425.7,216.7,424,214.9z"/>
		<path class="st1" d="M461.3,208.9h4.2v25.2h-4.6l-14.3-18.4v18.4h-4.2v-25.2h4.2l14.6,18.8L461.3,208.9L461.3,208.9z"/>
		<path class="st1" d="M484.3,228.3c1.2,1.3,2.7,2,4.7,2s3.5-0.7,4.7-2s1.7-3.2,1.7-5.5v-13.9h4.2V223c0,3.6-1,6.4-3,8.4
			s-4.5,2.9-7.7,2.9c-3.1,0-5.7-1-7.7-2.9c-2-2-3-4.7-3-8.4v-14.1h4.2v13.9C482.6,225.2,483.1,227,484.3,228.3z"/>
		<path class="st1" d="M520,212.2c-1.2,0-2.3,0.3-3,0.8s-1.2,1.3-1.2,2.3s0.4,1.8,1.2,2.3s2.5,1.1,5.1,1.7c2.6,0.6,4.5,1.5,5.8,2.6
			s2,2.8,2,5s-0.8,4-2.5,5.3c-1.7,1.4-3.8,2.1-6.5,2.1c-3.9,0-7.4-1.4-10.5-4.1l2.7-3.2c2.5,2.2,5.2,3.3,7.9,3.3
			c1.4,0,2.5-0.3,3.3-0.9c0.8-0.6,1.2-1.4,1.2-2.3c0-1-0.4-1.7-1.1-2.3c-0.8-0.5-2.1-1-3.9-1.5c-1.8-0.4-3.3-0.9-4.2-1.2
			c-1-0.4-1.8-0.9-2.6-1.5c-1.5-1.1-2.2-2.9-2.2-5.2s0.8-4.1,2.5-5.4c1.7-1.3,3.8-1.9,6.3-1.9c1.6,0,3.2,0.3,4.8,0.8s3,1.3,4.1,2.2
			l-2.3,3.2c-0.7-0.7-1.8-1.2-3-1.7C522.5,212.5,521.2,212.2,520,212.2z"/>
	</g>
</g>
<g>
	<path class="st1" d="M37.9,352.5c3,2.6,4.5,6.5,4.5,11.8s-1.5,9.2-4.6,11.6c-3.1,2.5-7.8,3.7-14.2,3.7h-5.7v12H8.3v-43h15.2
		C30.1,348.7,34.9,350,37.9,352.5z M30.8,369.4c1.1-1.3,1.7-3.2,1.7-5.7s-0.7-4.2-2.2-5.3c-1.5-1-3.8-1.6-7-1.6h-5.5v14.4h6.5
		C27.5,371.4,29.7,370.7,30.8,369.4z"/>
	<path class="st1" d="M91.6,385.7c-4.3,4.2-9.7,6.4-16,6.4c-6.4,0-11.7-2.1-16-6.4c-4.3-4.2-6.5-9.5-6.5-15.8s2.2-11.6,6.5-15.8
		c4.3-4.2,9.7-6.4,16-6.4c6.4,0,11.7,2.1,16,6.4s6.5,9.5,6.5,15.8C98.2,376.2,96,381.5,91.6,385.7z M88.4,369.9
		c0-3.8-1.2-7.1-3.7-9.8c-2.5-2.7-5.5-4.1-9.1-4.1s-6.6,1.4-9.1,4.1s-3.7,6-3.7,9.8s1.2,7.1,3.7,9.8c2.5,2.7,5.5,4,9.1,4
		s6.6-1.3,9.1-4C87.2,377,88.4,373.7,88.4,369.9z"/>
	<path class="st1" d="M125.3,373.4l7.6-24.7h10l7.6,24.7l8.5-24.7h10.4l-15,43h-7.1l-9.4-29.9l-9.3,29.9h-7.1l-15-43h10.4
		L125.3,373.4z"/>
	<path class="st1" d="M211.1,348.7v8.5h-21.4v8.9h19.2v8.2h-19.2v8.9h22.1v8.5h-31.7v-43H211.1z"/>
	<path class="st1" d="M260.7,362.9c0,6.9-2.7,11.3-8.2,13.3l10.9,15.4h-11.8l-9.5-13.7h-6.6v13.7h-9.6v-43h16.3
		c6.7,0,11.4,1.1,14.3,3.4C259.3,354.3,260.7,357.9,260.7,362.9z M249.2,368c1.2-1.1,1.8-2.8,1.8-5.1c0-2.3-0.6-3.9-1.8-4.8
		s-3.4-1.3-6.5-1.3h-7.2v12.7h7C245.8,369.6,248,369.1,249.2,368z"/>
	<path class="st1" d="M19.3,432.1c3.1,0,5.6-1.2,7.5-3.6l4,4.1c-3.2,3.6-6.9,5.4-11.2,5.4s-7.8-1.4-10.6-4.1s-4.2-6.1-4.2-10.3
		c0-4.1,1.4-7.6,4.3-10.4s6.3-4.2,10.4-4.2c4.6,0,8.4,1.7,11.5,5.2l-3.9,4.4c-2-2.5-4.4-3.7-7.4-3.7c-2.3,0-4.3,0.8-6,2.3
		s-2.5,3.6-2.5,6.2s0.8,4.7,2.4,6.3C15.1,431.3,17,432.1,19.3,432.1z"/>
	<path class="st1" d="M58,437.6l-2.6-6H43.7l-2.6,6h-6.6l12.1-27.9h6l12.1,27.9H58z M49.5,418l-3.5,8.1h7L49.5,418z"/>
	<path class="st1" d="M76.8,415.3c-0.6,0.5-0.9,1.1-0.9,2s0.4,1.5,1.1,1.9c0.7,0.5,2.4,1,5.1,1.7s4.7,1.6,6.2,2.9s2.2,3.2,2.2,5.7
		s-0.9,4.5-2.8,6.1s-4.3,2.3-7.4,2.3c-4.4,0-8.4-1.6-11.9-4.9l3.7-4.6c3,2.6,5.8,4,8.4,4c1.1,0,2-0.2,2.7-0.7s1-1.2,1-2
		s-0.3-1.5-1-2s-2.1-1-4.1-1.5c-3.3-0.8-5.6-1.8-7.1-3s-2.3-3.2-2.3-5.8c0-2.6,1-4.7,2.9-6.1s4.3-2.2,7.1-2.2c1.9,0,3.7,0.3,5.6,1
		c1.9,0.6,3.5,1.5,4.9,2.7l-3.2,4.6c-2.4-1.8-4.9-2.8-7.5-2.8C78.2,414.5,77.4,414.8,76.8,415.3z"/>
	<path class="st1" d="M115.5,409.7h6.2v27.9h-6.2v-11h-11.1v11h-6.2v-27.9h6.2v11.7h11.1V409.7z"/>
	<path class="st1" d="M156.2,437.6H144v-27.9h10.9c1.9,0,3.5,0.2,4.9,0.7s2.4,1.1,3.1,1.8c1.3,1.4,1.9,3.1,1.9,4.9
		c0,2.2-0.7,3.8-2.1,4.9c-0.5,0.4-0.8,0.6-1,0.7s-0.5,0.2-1,0.5c1.7,0.4,3.1,1.2,4.1,2.3c1,1.2,1.5,2.7,1.5,4.4c0,1.9-0.7,3.7-2,5.2
		C162.7,436.8,160,437.6,156.2,437.6z M150.2,421h3c1.7,0,3-0.2,3.9-0.6c0.8-0.4,1.3-1.2,1.3-2.4s-0.4-2.1-1.2-2.5s-2.1-0.6-3.9-0.6
		h-3v6.1H150.2z M150.2,432.4h4.3c1.8,0,3.1-0.2,4-0.7c0.9-0.4,1.3-1.3,1.3-2.6s-0.5-2.1-1.4-2.6c-0.9-0.4-2.5-0.6-4.5-0.6h-3.7
		L150.2,432.4L150.2,432.4z"/>
	<path class="st1" d="M193.8,437.6l-2.6-6h-11.7l-2.6,6h-6.6l12.1-27.9h6l12.1,27.9H193.8z M185.3,418l-3.5,8.1h7L185.3,418z"/>
	<path class="st1" d="M218.8,432.1c3.1,0,5.6-1.2,7.5-3.6l4,4.1c-3.2,3.6-6.9,5.4-11.2,5.4s-7.8-1.4-10.6-4.1s-4.2-6.1-4.2-10.3
		c0-4.1,1.4-7.6,4.3-10.4s6.3-4.2,10.4-4.2c4.6,0,8.4,1.7,11.5,5.2l-3.9,4.4c-2-2.5-4.4-3.7-7.4-3.7c-2.3,0-4.3,0.8-6,2.3
		s-2.5,3.6-2.5,6.2s0.8,4.7,2.4,6.3C214.7,431.3,216.6,432.1,218.8,432.1z"/>
	<path class="st1" d="M237.7,409.7h6.2v11.5l10.5-11.5h7.7L251,422.1c1,1.3,2.7,3.8,5.3,7.5c2.6,3.6,4.5,6.3,5.8,8.1h-7.3l-8.2-11
		l-2.8,3.1v7.9h-6.2v-28H237.7z"/>
	<path class="st1" d="M15.1,473.5c1.2,0,2.2-0.2,3.1-0.6s1.8-1,2.7-1.9l2.2,2.3c-2.2,2.4-4.8,3.6-7.9,3.6s-5.6-1-7.7-3
		c-2-2-3.1-4.5-3.1-7.5s1-5.6,3.1-7.6s4.7-3,7.9-3s5.8,1.2,7.9,3.5l-2.2,2.4c-1-0.9-1.9-1.6-2.8-2s-1.9-0.6-3.1-0.6
		c-2.1,0-3.8,0.7-5.2,2s-2.1,3-2.1,5.1s0.7,3.8,2.1,5.2S13.2,473.5,15.1,473.5z"/>
	<path class="st1" d="M48.6,462.9c0,3.4-1.5,5.5-4.4,6.4l5.3,7.4h-4.4l-4.9-6.9h-4.5v6.9h-3.4v-20.4h7.6c3.1,0,5.3,0.5,6.7,1.6
		C47.9,458.9,48.6,460.5,48.6,462.9z M44,465.8c0.7-0.6,1.1-1.6,1.1-2.9s-0.4-2.2-1.1-2.7c-0.7-0.5-2-0.7-3.9-0.7h-4.4v7.3H40
		C42,466.7,43.3,466.4,44,465.8z"/>
	<path class="st1" d="M72.8,456.2v3.2H62v5.4h9.8v3.1H62v5.5h11.2v3.2H58.5v-20.4L72.8,456.2L72.8,456.2z"/>
	<path class="st1" d="M98,458.9c2,1.8,2.9,4.3,2.9,7.4c0,3.2-1,5.7-2.9,7.5s-4.8,2.8-8.8,2.8h-6.8v-20.4h7
		C93.2,456.2,96,457.1,98,458.9z M97.5,466.4c0-4.7-2.7-7-8-7H86v14h3.8c2.5,0,4.4-0.6,5.7-1.8C96.8,470.5,97.5,468.7,97.5,466.4z"
		/>
	<path class="st1" d="M110.4,456.2h3.4v20.4h-3.4V456.2z"/>
	<path class="st1" d="M132.1,459.4v17.3h-3.4v-17.3h-6.2v-3.2h15.8v3.2H132.1z"/>
	<path class="st1" d="M169.3,473.5c1.2,0,2.2-0.2,3.1-0.6c0.9-0.4,1.8-1,2.7-1.9l2.2,2.3c-2.2,2.4-4.8,3.6-7.9,3.6
		c-3.1,0-5.6-1-7.7-3c-2-2-3.1-4.5-3.1-7.5s1-5.6,3.1-7.6s4.7-3,7.9-3s5.8,1.2,7.9,3.5l-2.2,2.4c-1-0.9-1.9-1.6-2.8-2
		c-0.9-0.4-1.9-0.6-3.1-0.6c-2.1,0-3.8,0.7-5.2,2s-2.1,3-2.1,5.1s0.7,3.8,2.1,5.2S167.4,473.5,169.3,473.5z"/>
	<path class="st1" d="M189.3,472l-2,4.6h-3.7l9-20.4h3.7l9,20.4h-3.7l-2-4.6H189.3z M198.2,468.8l-3.7-8.4l-3.7,8.4H198.2z"/>
	<path class="st1" d="M229.4,462.9c0,3.4-1.5,5.5-4.4,6.4l5.3,7.4h-4.4l-4.9-6.9h-4.5v6.9h-3.4v-20.4h7.6c3.1,0,5.3,0.5,6.7,1.6
		C228.7,458.9,229.4,460.5,229.4,462.9z M224.8,465.8c0.7-0.6,1.1-1.6,1.1-2.9s-0.4-2.2-1.1-2.7c-0.7-0.5-2-0.7-3.9-0.7h-4.4v7.3
		h4.3C222.8,466.7,224.1,466.4,224.8,465.8z"/>
	<path class="st1" d="M254.8,458.9c2,1.8,2.9,4.3,2.9,7.4c0,3.2-1,5.7-2.9,7.5s-4.8,2.8-8.8,2.8h-6.8v-20.4h7
		C250,456.2,252.8,457.1,254.8,458.9z M254.2,466.4c0-4.7-2.7-7-8-7h-3.4v14h3.8c2.5,0,4.4-0.6,5.7-1.8
		C253.6,470.5,254.2,468.7,254.2,466.4z"/>
</g>
<g>
	<path class="st2" d="M44.2,319.9l4.6-21.4h5l-4.6,21.4H44.2z"/>
	<path class="st2" d="M59.7,303.9l-0.4,2h0.1c0.7-1.2,2.3-2.5,3.7-2.5c2.1,0,3.8,1.2,3.3,3.3l-2.8,13.1H59l2.4-11.4
		c0.1-0.7,0-1.4-0.9-1.3c-0.8,0-1.3,0.5-1.5,1.3l-2.4,11.4H52l3.4-16h4.3V303.9z"/>
	<path class="st2" d="M67.9,307.2l0.7-3.3h1.8l1-4.6h4.5l-1,4.6h2.2l-0.7,3.3h-2.2l-1.8,8.4c-0.2,0.9,0.2,1.1,0.8,1.1
		c0.5-0.1,0.7-0.1,1.2-0.1l-0.7,3.2c-1,0.1-2,0.3-3,0.3c-2.5,0-3.5-1.3-3-3.7l2-9.2L67.9,307.2L67.9,307.2z"/>
	<path class="st2" d="M83.2,303.9l-0.5,2.4h0.1c0.9-1.7,2.2-2.9,4.1-2.9l-1.1,5.1c-0.4-0.1-0.9-0.1-1.3-0.1c-1.3,0-1.9,0.3-2.2,1.6
		l-2.1,9.8h-4.5l3.4-16h4.1V303.9z"/>
	<path class="st2" d="M87.4,308.9c0.9-4.1,3.6-5.5,7.1-5.5c4,0,5.5,1.9,4.8,5.5l-1.4,6.5c-1,3.6-3.5,5-7,5c-3.2,0-5.6-1.3-4.9-5
		L87.4,308.9z M90.5,315.7c-0.1,0.9,0.2,1.4,1.1,1.4s1.4-0.5,1.7-1.4l1.5-7.1c0.2-1,0.1-1.9-1-1.9s-1.6,0.8-1.8,1.9L90.5,315.7z"/>
	<path class="st2" d="M106.8,319.9l0.4-1.9h-0.1c-1.2,1.5-2.7,2.4-4,2.4c-3.3-0.1-3.3-3.2-2.7-5.9l1.2-5.5c0.5-2.5,2-5.5,5-5.5
		c1.2,0,2.3,0.5,2.9,1.9h0.1l1.5-6.9h4.5l-4.6,21.4H106.8z M105.1,314.1c-0.2,0.9-0.5,2.6,0.8,2.6c1.2,0,1.7-1.2,2-2.8l0.8-3.8
		c0.3-1.4,0.4-3-0.7-3c-1.5,0-1.8,1.8-2,2.8L105.1,314.1z"/>
	<path class="st2" d="M121,319.9l0.4-2h-0.1c-0.7,1.2-2.3,2.5-3.7,2.5c-2.6,0-3.8-1.2-3.3-3.4l2.8-13.1h4.5l-2.4,11.4
		c-0.1,0.7,0,1.4,0.8,1.3c0.8,0,1.4-0.5,1.6-1.3l2.4-11.4h4.5l-3.4,16H121z"/>
	<path class="st2" d="M137.5,309.9v-0.3c0-0.6,0.2-1.2,0.2-1.8c-0.1-0.7-0.3-1-1-1c-1.2,0-1.6,0.9-1.8,1.9l-1.4,6.6
		c-0.2,1-0.1,1.9,1.1,1.9c1.7,0,1.9-2.5,2.2-3.7h4.4c-0.2,0.9-0.7,2.9-1.2,3.8c-1,2-2.9,2.9-4.9,3.1c-0.4,0-0.8,0.1-1.5,0.1
		c-3.2,0-5.3-1.3-4.6-5l1.4-6.5c0.9-4.1,3.3-5.5,6.8-5.5c4.5,0.1,5.8,2,4.6,6.4H137.5z"/>
	<path class="st2" d="M142.6,319.9l3.4-16h4.5l-3.4,16H142.6z M146.3,302.4l0.8-3.8h4.5l-0.8,3.8H146.3z"/>
	<path class="st2" d="M157.8,303.9l-0.4,2h0.1c0.7-1.2,2.3-2.5,3.7-2.5c2.1,0,3.8,1.2,3.3,3.3l-2.8,13.1h-4.5l2.4-11.4
		c0.1-0.7,0-1.4-0.9-1.3c-0.8,0-1.3,0.5-1.5,1.3l-2.4,11.4h-4.5l3.4-16h4.1L157.8,303.9L157.8,303.9z"/>
	<path class="st2" d="M168.4,320.8c-0.2,1.1-0.2,1.6,1.2,1.5c1-0.1,1.4-0.3,1.6-1.3l0.7-3.2h-0.1c-1.1,1.1-2.4,1.7-3.6,1.7
		c-2.9,0-3.4-2.6-2.9-5l1.2-5.5c0.5-2.5,2.1-5.5,5.1-5.5c1.6,0.1,2.7,0.8,3.1,2.4h0.1l0.4-1.9h4.2l-3.5,16.3
		c-0.8,3.7-3.8,5.1-7.2,5.1s-5.5-0.8-4.9-4.5h4.6L168.4,320.8L168.4,320.8z M170,314.1c-0.2,0.9-0.1,1.7,1,1.7
		c1.2,0,1.6-1.1,1.8-2.1l0.9-4.4c0.2-1.1,0.2-2.1-1-2.1s-1.6,1.5-1.7,2.4L170,314.1z"/>
	<path class="st2" d="M187.5,307.2l0.7-3.3h1.8l1-4.6h4.5l-1,4.6h2.2l-0.7,3.3h-2.2l-1.8,8.4c-0.2,0.9,0.2,1.1,0.8,1.1
		c0.5-0.1,0.7-0.1,1.2-0.1l-0.7,3.2c-1,0.1-2,0.3-3,0.3c-2.5,0-3.5-1.3-3-3.7l2-9.2L187.5,307.2L187.5,307.2z"/>
	<path class="st2" d="M202.9,305.2L202.9,305.2c1.4-1.3,2.6-1.7,3.9-1.7c2.2,0,3.3,1.6,2.8,3.6l-2.7,12.8h-4.5l2.4-11.3
		c0.2-0.9,0.1-1.4-1-1.4c-1,0-1.5,0.9-1.7,1.7l-2.4,11h-4.5l4.6-21.4h4.5L202.9,305.2z"/>
	<path class="st2" d="M215.3,312.6l-0.6,2.8c-0.2,0.9,0.1,1.6,1,1.7c1.7,0.1,1.8-1.4,2.2-2.8h4.5c-0.6,4.1-3.3,6-7.2,6
		c-3.3,0-5.8-1.3-5-5l1.4-6.5c0.9-4.1,3.8-5.4,7.3-5.5c3.2,0,5.9,1.2,5.1,4.6l-1,4.6L215.3,312.6L215.3,312.6z M219.1,309.7l0.3-1.6
		c0.1-0.6,0-1.6-1.2-1.6c-1.3,0-1.8,1-2.1,2.1l-0.2,1.1H219.1z"/>
</g>
<g>
	<path class="st3" d="M656,309l-7.3,181.1c0,0-278.1,10.1-297.3,10.1s-18.8-10.8-18.8-10.8S427.4,309,656,309z"/>
	<path class="st4" d="M512.9,345.3c-35.4,14.5-68.3,34.8-97.9,60.2c-41.9,36-65.3,72.5-72.2,84.2c1.3,0.6,3.8,1.4,8.6,1.4
		c17,0,242.2-8.1,288.7-9.8l6.6-163.3C599.3,319.2,554.3,328.3,512.9,345.3z M631.4,472.7c-54.9,2-233.1,8.4-273,9.3
		c11-16.2,31.6-43.2,62.5-69.7c28.9-24.8,61-44.6,95.4-58.7c37.6-15.4,78.2-24.2,121-26.2L631.4,472.7z"/>
	<g>
		<g>
			<g>
				<defs>
					<path id="SVGID_1_" d="M512.9,345.3c-35.4,14.5-68.3,34.8-97.9,60.2c-41.9,36-65.3,72.5-72.2,84.2c1.3,0.6,3.8,1.4,8.6,1.4
						c17,0,242.2-8.1,288.7-9.8l6.6-163.3C599.3,319.2,554.3,328.3,512.9,345.3z M631.4,472.7c-54.9,2-233.1,8.4-273,9.3
						c11-16.2,31.6-43.2,62.5-69.7c28.9-24.8,61-44.6,95.4-58.7c37.6-15.4,78.2-24.2,121-26.2L631.4,472.7z"/>
				</defs>
				<clipPath id="SVGID_2_">
					<use xlink:href="#SVGID_1_"  style="overflow:visible;"/>
				</clipPath>
				<g class="st5">
					<polygon class="st6" points="534,525.9 533.7,525.8 597.7,380.6 598,380.7 					"/>
					<polygon class="st6" points="534,526.7 533.8,526.6 600.3,380.7 600.6,380.8 					"/>
					<polygon class="st6" points="534.1,527.5 533.9,527.4 602.9,380.8 603.2,380.9 					"/>
					<polygon class="st6" points="534.1,528.2 533.9,528.1 605.5,380.9 605.8,381 					"/>
					<polygon class="st6" points="534.2,529 534,528.9 608.1,381 608.4,381.1 					"/>
					<polygon class="st6" points="534.3,529.8 534.1,529.7 610.7,381.1 611,381.2 					"/>
					<polygon class="st6" points="534.3,530.6 534.1,530.5 613.3,381.2 613.6,381.3 					"/>
					<polygon class="st6" points="534.4,531.3 534.2,531.2 615.9,381.2 616.2,381.3 					"/>
					<polygon class="st6" points="534.5,532.1 534.3,532 618.5,381.3 618.8,381.4 					"/>
					<polygon class="st6" points="534.5,532.9 534.3,532.8 621.1,381.4 621.4,381.5 					"/>
					<polygon class="st6" points="534.6,533.7 534.4,533.6 623.7,381.5 624,381.6 					"/>
					<polygon class="st6" points="534.7,534.5 534.5,534.3 626.3,381.6 626.6,381.7 					"/>
					<polygon class="st6" points="534.7,535.2 534.5,535.1 628.9,381.7 629.2,381.8 					"/>
					<polygon class="st6" points="534.8,536 534.6,535.9 631.5,381.7 631.8,381.9 					"/>
					<polygon class="st6" points="534.9,536.8 534.6,536.7 634.1,381.8 634.4,382 					"/>
					<polygon class="st6" points="534.9,537.6 534.7,537.4 636.7,381.9 637,382 					"/>
					<polygon class="st6" points="535,538.3 534.8,538.2 639.3,382 639.6,382.1 					"/>
					<polygon class="st6" points="535.1,539.1 534.8,539 642,382.1 642.2,382.2 					"/>
					<polygon class="st6" points="535.1,539.9 534.9,539.8 644.6,382.2 644.8,382.3 					"/>
					<polygon class="st6" points="535.2,540.7 535,540.5 647.2,382.3 647.4,382.4 					"/>
					<polygon class="st6" points="535.3,541.4 535,541.3 649.8,382.3 650,382.5 					"/>
					<polygon class="st6" points="535.3,542.2 535.1,542.1 652.4,382.4 652.6,382.6 					"/>
					<polygon class="st6" points="535.4,543 535.2,542.9 655,382.5 655.2,382.6 					"/>
					<polygon class="st6" points="535.4,543.8 535.2,543.6 657.6,382.6 657.8,382.7 					"/>
					<polygon class="st6" points="535.5,544.6 535.3,544.4 660.2,382.7 660.4,382.8 					"/>
					<polygon class="st6" points="535.6,545.3 535.4,545.2 662.8,382.8 663,382.9 					"/>
					<polygon class="st6" points="535.6,546.1 535.4,546 665.4,382.8 665.6,383 					"/>
					<polygon class="st6" points="535.7,546.9 535.5,546.7 668,382.9 668.2,383.1 					"/>
					<polygon class="st6" points="535.8,547.7 535.6,547.5 670.6,383 670.8,383.2 					"/>
					<polygon class="st6" points="535.8,548.4 535.6,548.3 673.2,383.1 673.4,383.2 					"/>
					<polygon class="st6" points="535.9,549.2 535.7,549.1 675.8,383.2 676,383.3 					"/>
					<polygon class="st6" points="536,550 535.8,549.8 678.4,383.3 678.6,383.4 					"/>
					<polygon class="st6" points="536,550.8 535.8,550.6 681,383.4 681.2,383.5 					"/>
					<polygon class="st6" points="536.1,551.5 535.9,551.4 683.6,383.4 683.8,383.6 					"/>
					<polygon class="st6" points="536.2,552.3 536,552.2 686.2,383.5 686.4,383.7 					"/>
					<polygon class="st6" points="536.2,553.1 536,552.9 688.8,383.6 689,383.8 					"/>
					<polygon class="st6" points="536.3,553.9 536.1,553.7 691.4,383.7 691.6,383.9 					"/>
					<polygon class="st6" points="536.4,554.6 536.2,554.5 694,383.8 694.2,383.9 					"/>
					<polygon class="st6" points="536.4,555.4 536.2,555.3 696.6,383.9 696.8,384 					"/>
					<polygon class="st6" points="536.5,556.2 536.3,556 699.2,384 699.4,384.1 					"/>
					<polygon class="st6" points="536.6,557 536.4,556.8 701.8,384 702,384.2 					"/>
					<polygon class="st6" points="536.6,557.8 536.4,557.6 704.4,384.1 704.6,384.3 					"/>
					<polygon class="st6" points="536.7,558.5 536.5,558.4 707,384.2 707.2,384.4 					"/>
					<polygon class="st6" points="536.7,559.3 536.6,559.1 709.6,384.3 709.8,384.5 					"/>
					<polygon class="st6" points="536.8,560.1 536.6,559.9 712.2,384.4 712.4,384.5 					"/>
					<polygon class="st6" points="536.9,560.9 536.7,560.7 714.8,384.5 715,384.6 					"/>
					<polygon class="st6" points="536.9,561.6 536.8,561.5 717.4,384.5 717.6,384.7 					"/>
					<polygon class="st6" points="537,562.4 536.8,562.2 720,384.6 720.2,384.8 					"/>
					<polygon class="st6" points="537.1,563.2 536.9,563 722.6,384.7 722.8,384.9 					"/>
					<polygon class="st6" points="537.1,564 537,563.8 725.2,384.8 725.4,385 					"/>
					<polygon class="st6" points="537.2,564.7 537,564.6 727.8,384.9 728,385.1 					"/>
					<polygon class="st6" points="537.3,565.5 537.1,565.3 730.4,385 730.6,385.1 					"/>
					<polygon class="st6" points="537.3,566.3 537.2,566.1 733,385.1 733.2,385.2 					"/>
					<polygon class="st6" points="537.4,567.1 537.2,566.9 735.6,385.1 735.8,385.3 					"/>
					<polygon class="st6" points="537.5,567.9 537.3,567.7 738.2,385.2 738.4,385.4 					"/>
					<polygon class="st6" points="537.5,568.6 537.4,568.4 740.8,385.3 741,385.5 					"/>
					<polygon class="st6" points="537.6,569.4 537.4,569.2 743.4,385.4 743.6,385.6 					"/>
					<polygon class="st6" points="537.7,570.2 537.5,570 746,385.5 746.2,385.7 					"/>
					<polygon class="st6" points="537.7,571 537.6,570.8 748.6,385.6 748.8,385.7 					"/>
					<polygon class="st6" points="537.8,571.7 537.6,571.6 751.2,385.6 751.4,385.8 					"/>
					<polygon class="st6" points="537.9,572.5 537.7,572.3 753.8,385.7 754,385.9 					"/>
					
						<rect x="503.1" y="479.5" transform="matrix(0.7598 -0.6501 0.6501 0.7598 -156.4051 535.8611)" class="st6" width="287.9" height="0.2"/>
				</g>
			</g>
		</g>
	</g>
	<path class="st7" d="M344.8,499.2c102.5,0,249.9-8.6,284.3-23.2l3-79.1L344.8,499.2z"/>
	<path class="st3" d="M341.5,498.7c102.5,0,249.9-12.6,284.3-27.2l3-79.1L341.5,498.7z"/>
	<path class="st4" d="M530,348.6L394.3,488.8c91.5-3.1,189.9-13.2,222.7-23.6l2.3-59.6L530,348.6z M608.2,458.3
		c-33.2,8.6-112.1,17-191.9,20.6l115-118.8l78.7,50.3L608.2,458.3z"/>
	<g>
		<g>
			<g>
				<defs>
					<path id="SVGID_3_" d="M530,348.6L394.3,488.8c91.5-3.1,189.9-13.2,222.7-23.6l2.3-59.6L530,348.6z M608.2,458.3
						c-33.2,8.6-112.1,17-191.9,20.6l115-118.8l78.7,50.3L608.2,458.3z"/>
				</defs>
				<clipPath id="SVGID_4_">
					<use xlink:href="#SVGID_3_"  style="overflow:visible;"/>
				</clipPath>
				<g class="st8">
					<polygon class="st6" points="513.7,508.4 513.5,508.3 577.5,363.1 577.7,363.2 					"/>
					<polygon class="st6" points="513.8,509.1 513.5,509 580.1,363.2 580.3,363.3 					"/>
					<polygon class="st6" points="513.8,509.9 513.6,509.8 582.7,363.3 582.9,363.4 					"/>
					<polygon class="st6" points="513.9,510.7 513.7,510.6 585.3,363.3 585.5,363.5 					"/>
					<polygon class="st6" points="514,511.5 513.7,511.4 587.9,363.4 588.1,363.5 					"/>
					<polygon class="st6" points="514,512.2 513.8,512.1 590.5,363.5 590.7,363.6 					"/>
					<polygon class="st6" points="514.1,513 513.9,512.9 593.1,363.6 593.3,363.7 					"/>
					<polygon class="st6" points="514.2,513.8 513.9,513.7 595.7,363.7 595.9,363.8 					"/>
					<polygon class="st6" points="514.2,514.6 514,514.5 598.3,363.8 598.5,363.9 					"/>
					<polygon class="st6" points="514.3,515.3 514.1,515.2 600.9,363.9 601.1,364 					"/>
					<polygon class="st6" points="514.4,516.1 514.1,516 603.5,363.9 603.7,364.1 					"/>
					<polygon class="st6" points="514.4,516.9 514.2,516.8 606.1,364 606.3,364.1 					"/>
					<polygon class="st6" points="514.5,517.7 514.3,517.6 608.7,364.1 608.9,364.2 					"/>
					<polygon class="st6" points="514.5,518.5 514.3,518.3 611.3,364.2 611.5,364.3 					"/>
					<polygon class="st6" points="514.6,519.2 514.4,519.1 613.9,364.3 614.1,364.4 					"/>
					<polygon class="st6" points="514.7,520 514.5,519.9 616.5,364.4 616.7,364.5 					"/>
					<polygon class="st6" points="514.7,520.8 514.5,520.7 619.1,364.4 619.3,364.6 					"/>
					<polygon class="st6" points="514.8,521.6 514.6,521.4 621.7,364.5 621.9,364.7 					"/>
					<polygon class="st6" points="514.9,522.3 514.7,522.2 624.3,364.6 624.5,364.7 					"/>
					<polygon class="st6" points="514.9,523.1 514.7,523 626.9,364.7 627.1,364.8 					"/>
					<polygon class="st6" points="515,523.9 514.8,523.8 629.5,364.8 629.7,364.9 					"/>
					<polygon class="st6" points="515.1,524.7 514.9,524.5 632.1,364.9 632.3,365 					"/>
					<polygon class="st6" points="515.1,525.4 514.9,525.3 634.7,365 634.9,365.1 					"/>
					<polygon class="st6" points="515.2,526.2 515,526.1 637.3,365 637.5,365.2 					"/>
					<polygon class="st6" points="515.3,527 515.1,526.9 639.9,365.1 640.1,365.3 					"/>
					<polygon class="st6" points="515.3,527.8 515.1,527.6 642.5,365.2 642.7,365.3 					"/>
					<polygon class="st6" points="515.4,528.6 515.2,528.4 645.1,365.3 645.3,365.4 					"/>
					<polygon class="st6" points="515.5,529.3 515.3,529.2 647.7,365.4 647.9,365.5 					"/>
					<polygon class="st6" points="515.5,530.1 515.3,530 650.3,365.5 650.5,365.6 					"/>
					<polygon class="st6" points="515.6,530.9 515.4,530.7 652.9,365.5 653.1,365.7 					"/>
					<polygon class="st6" points="515.7,531.7 515.5,531.5 655.5,365.6 655.7,365.8 					"/>
					<polygon class="st6" points="515.7,532.4 515.5,532.3 658.1,365.7 658.3,365.9 					"/>
					<polygon class="st6" points="515.8,533.2 515.6,533.1 660.7,365.8 660.9,366 					"/>
					<polygon class="st6" points="515.8,534 515.7,533.8 663.3,365.9 663.5,366 					"/>
					<polygon class="st6" points="515.9,534.8 515.7,534.6 665.9,366 666.1,366.1 					"/>
					<polygon class="st6" points="516,535.5 515.8,535.4 668.5,366.1 668.7,366.2 					"/>
					<polygon class="st6" points="516,536.3 515.9,536.2 671.1,366.1 671.3,366.3 					"/>
					<polygon class="st6" points="516.1,537.1 515.9,536.9 673.7,366.2 673.9,366.4 					"/>
					<polygon class="st6" points="516.2,537.9 516,537.7 676.3,366.3 676.5,366.5 					"/>
					<polygon class="st6" points="516.2,538.6 516.1,538.5 678.9,366.4 679.1,366.6 					"/>
					<polygon class="st6" points="516.3,539.4 516.1,539.3 681.5,366.5 681.7,366.6 					"/>
					<polygon class="st6" points="516.4,540.2 516.2,540 684.1,366.6 684.3,366.7 					"/>
					<polygon class="st6" points="516.4,541 516.3,540.8 686.7,366.7 686.9,366.8 					"/>
					<polygon class="st6" points="516.5,541.8 516.3,541.6 689.3,366.7 689.5,366.9 					"/>
					<polygon class="st6" points="516.6,542.5 516.4,542.4 691.9,366.8 692.1,367 					"/>
					<polygon class="st6" points="516.6,543.3 516.4,543.1 694.5,366.9 694.7,367.1 					"/>
					<polygon class="st6" points="516.7,544.1 516.5,543.9 697.1,367 697.3,367.2 					"/>
					<polygon class="st6" points="516.8,544.9 516.6,544.7 699.8,367.1 699.9,367.2 					"/>
					<polygon class="st6" points="516.8,545.6 516.6,545.5 702.4,367.2 702.5,367.3 					"/>
					<polygon class="st6" points="516.9,546.4 516.7,546.2 705,367.2 705.1,367.4 					"/>
					<polygon class="st6" points="517,547.2 516.8,547 707.6,367.3 707.7,367.5 					"/>
					<polygon class="st6" points="517,548 516.8,547.8 710.2,367.4 710.3,367.6 					"/>
					<polygon class="st6" points="517.1,548.7 516.9,548.6 712.8,367.5 712.9,367.7 					"/>
					<polygon class="st6" points="517.1,549.5 517,549.3 715.4,367.6 715.5,367.8 					"/>
					<polygon class="st6" points="517.2,550.3 517,550.1 718,367.7 718.1,367.8 					"/>
					<polygon class="st6" points="517.3,551.1 517.1,550.9 720.6,367.8 720.7,367.9 					"/>
					<polygon class="st6" points="517.3,551.9 517.2,551.7 723.2,367.8 723.3,368 					"/>
					<polygon class="st6" points="517.4,552.6 517.2,552.4 725.8,367.9 725.9,368.1 					"/>
					<polygon class="st6" points="517.5,553.4 517.3,553.2 728.4,368 728.5,368.2 					"/>
					<polygon class="st6" points="517.5,554.2 517.4,554 731,368.1 731.1,368.3 					"/>
					<polygon class="st6" points="517.6,555 517.4,554.8 733.6,368.2 733.7,368.4 					"/>
					
						<rect x="483" y="461.9" transform="matrix(0.7598 -0.6501 0.6501 0.7598 -149.7794 518.5242)" class="st6" width="287.9" height="0.2"/>
				</g>
			</g>
		</g>
	</g>
	<path class="st7" d="M606.7,412.7l-2.3,46.1c0,0-55.7,39.7-219,39.7L606.7,412.7z"/>
	<path class="st3" d="M603.4,408l-2.3,46.1c0,0-55.7,43.7-219,43.7L603.4,408z"/>
	<g>
		<g>
			<g>
				<defs>
					<path id="SVGID_5_" d="M518.5,352.2l-86.5,135c37.3-2.3,79.3-7.8,116.6-19.4c24.1-7.5,38-15.1,43.7-18.7l1.4-27.5L518.5,352.2z
						 M583.6,443.8c-6.6,3.6-18.9,9.5-37.7,15.4c-27.3,8.5-59.7,14.5-96.6,17.7l71-110.8l64.3,59.3L583.6,443.8z"/>
				</defs>
				<clipPath id="SVGID_6_">
					<use xlink:href="#SVGID_5_"  style="overflow:visible;"/>
				</clipPath>
				<g class="st9">
					<polygon class="st6" points="495.4,492.6 495.2,492.5 559.2,347.3 559.4,347.4 					"/>
					<polygon class="st6" points="495.5,493.4 495.3,493.3 561.8,347.4 562,347.5 					"/>
					<polygon class="st6" points="495.6,494.1 495.3,494 564.4,347.5 564.6,347.6 					"/>
					<polygon class="st6" points="495.6,494.9 495.4,494.8 567,347.6 567.2,347.7 					"/>
					<polygon class="st6" points="495.7,495.7 495.5,495.6 569.6,347.7 569.8,347.8 					"/>
					<polygon class="st6" points="495.8,496.5 495.5,496.4 572.2,347.7 572.4,347.9 					"/>
					<polygon class="st6" points="495.8,497.3 495.6,497.1 574.8,347.8 575,347.9 					"/>
					<polygon class="st6" points="495.9,498 495.7,497.9 577.4,347.9 577.6,348 					"/>
					<polygon class="st6" points="496,498.8 495.7,498.7 580,348 580.3,348.1 					"/>
					<polygon class="st6" points="496,499.6 495.8,499.5 582.6,348.1 582.9,348.2 					"/>
					<polygon class="st6" points="496.1,500.4 495.9,500.2 585.2,348.2 585.5,348.3 					"/>
					<polygon class="st6" points="496.2,501.1 495.9,501 587.8,348.3 588.1,348.4 					"/>
					<polygon class="st6" points="496.2,501.9 496,501.8 590.4,348.3 590.7,348.5 					"/>
					<polygon class="st6" points="496.3,502.7 496.1,502.6 593,348.4 593.3,348.5 					"/>
					<polygon class="st6" points="496.4,503.5 496.1,503.3 595.6,348.5 595.9,348.6 					"/>
					<polygon class="st6" points="496.4,504.2 496.2,504.1 598.2,348.6 598.5,348.7 					"/>
					<polygon class="st6" points="496.5,505 496.3,504.9 600.8,348.7 601.1,348.8 					"/>
					<polygon class="st6" points="496.6,505.8 496.3,505.7 603.4,348.8 603.7,348.9 					"/>
					<polygon class="st6" points="496.6,506.6 496.4,506.4 606,348.9 606.3,349 					"/>
					<polygon class="st6" points="496.7,507.3 496.5,507.2 608.6,348.9 608.9,349.1 					"/>
					<polygon class="st6" points="496.7,508.1 496.5,508 611.3,349 611.5,349.2 					"/>
					<polygon class="st6" points="496.8,508.9 496.6,508.8 613.9,349.1 614.1,349.2 					"/>
					<polygon class="st6" points="496.9,509.7 496.7,509.5 616.5,349.2 616.7,349.3 					"/>
					<polygon class="st6" points="496.9,510.5 496.7,510.3 619.1,349.3 619.3,349.4 					"/>
					<polygon class="st6" points="497,511.2 496.8,511.1 621.7,349.4 621.9,349.5 					"/>
					<polygon class="st6" points="497.1,512 496.9,511.9 624.3,349.4 624.5,349.6 					"/>
					<polygon class="st6" points="497.1,512.8 496.9,512.6 626.9,349.5 627.1,349.7 					"/>
					<polygon class="st6" points="497.2,513.6 497,513.4 629.5,349.6 629.7,349.8 					"/>
					<polygon class="st6" points="497.3,514.3 497.1,514.2 632.1,349.7 632.3,349.8 					"/>
					<polygon class="st6" points="497.3,515.1 497.1,515 634.7,349.8 634.9,349.9 					"/>
					<polygon class="st6" points="497.4,515.9 497.2,515.7 637.3,349.9 637.5,350 					"/>
					<polygon class="st6" points="497.5,516.7 497.3,516.5 639.9,350 640.1,350.1 					"/>
					<polygon class="st6" points="497.5,517.4 497.3,517.3 642.5,350 642.7,350.2 					"/>
					<polygon class="st6" points="497.6,518.2 497.4,518.1 645.1,350.1 645.3,350.3 					"/>
					<polygon class="st6" points="497.7,519 497.5,518.8 647.7,350.2 647.9,350.4 					"/>
					<polygon class="st6" points="497.7,519.8 497.5,519.6 650.3,350.3 650.5,350.4 					"/>
					<polygon class="st6" points="497.8,520.6 497.6,520.4 652.9,350.4 653.1,350.5 					"/>
					<polygon class="st6" points="497.9,521.3 497.7,521.2 655.5,350.5 655.7,350.6 					"/>
					<polygon class="st6" points="497.9,522.1 497.7,521.9 658.1,350.5 658.3,350.7 					"/>
					<polygon class="st6" points="498,522.9 497.8,522.7 660.7,350.6 660.9,350.8 					"/>
					<polygon class="st6" points="498,523.7 497.9,523.5 663.3,350.7 663.5,350.9 					"/>
					<polygon class="st6" points="498.1,524.4 497.9,524.3 665.9,350.8 666.1,351 					"/>
					<polygon class="st6" points="498.2,525.2 498,525.1 668.5,350.9 668.7,351 					"/>
					<polygon class="st6" points="498.2,526 498.1,525.8 671.1,351 671.3,351.1 					"/>
					<polygon class="st6" points="498.3,526.8 498.1,526.6 673.7,351.1 673.9,351.2 					"/>
					<polygon class="st6" points="498.4,527.5 498.2,527.4 676.3,351.1 676.5,351.3 					"/>
					<polygon class="st6" points="498.4,528.3 498.3,528.2 678.9,351.2 679.1,351.4 					"/>
					<polygon class="st6" points="498.5,529.1 498.3,528.9 681.5,351.3 681.7,351.5 					"/>
					<polygon class="st6" points="498.6,529.9 498.4,529.7 684.1,351.4 684.3,351.6 					"/>
					<polygon class="st6" points="498.6,530.6 498.5,530.5 686.7,351.5 686.9,351.7 					"/>
					<polygon class="st6" points="498.7,531.4 498.5,531.3 689.3,351.6 689.5,351.7 					"/>
					<polygon class="st6" points="498.8,532.2 498.6,532 691.9,351.6 692.1,351.8 					"/>
					<polygon class="st6" points="498.8,533 498.7,532.8 694.5,351.7 694.7,351.9 					"/>
					<polygon class="st6" points="498.9,533.8 498.7,533.6 697.1,351.8 697.3,352 					"/>
					<polygon class="st6" points="499,534.5 498.8,534.4 699.7,351.9 699.9,352.1 					"/>
					<polygon class="st6" points="499,535.3 498.9,535.1 702.3,352 702.5,352.2 					"/>
					<polygon class="st6" points="499.1,536.1 498.9,535.9 704.9,352.1 705.1,352.3 					"/>
					<polygon class="st6" points="499.2,536.9 499,536.7 707.5,352.2 707.7,352.3 					"/>
					<polygon class="st6" points="499.2,537.6 499.1,537.5 710.1,352.2 710.3,352.4 					"/>
					<polygon class="st6" points="499.3,538.4 499.1,538.2 712.7,352.3 712.9,352.5 					"/>
					<polygon class="st6" points="499.3,539.2 499.2,539 715.3,352.4 715.5,352.6 					"/>
					
						<rect x="464.6" y="446.1" transform="matrix(0.7598 -0.6501 0.6501 0.7598 -143.9096 502.816)" class="st6" width="287.9" height="0.2"/>
				</g>
			</g>
		</g>
	</g>
	<path class="st4" d="M518.5,352.2l-86.5,135c37.3-2.3,79.3-7.8,116.6-19.4c24.1-7.5,38-15.1,43.7-18.7l1.4-27.5L518.5,352.2z
		 M583.6,443.8c-6.6,3.6-18.9,9.5-37.7,15.4c-27.3,8.5-59.7,14.5-96.6,17.7l71-110.8l64.3,59.3L583.6,443.8z"/>
	<path class="st10" d="M380.1,501.9c-19.3,0-34.7,0-34.7,0c-6.6,0-12-5.4-12-12v-180c0-6.6,5.4-12,12-12h298.7c6.6,0,12,5.4,12,12
		v19.3c-3.3,34.7-5.3,70.7-34.7,86c-29.3,15.3-63.3,34.7-92,57.3c-28.7,22.7-88,26.7-100.7,26.7S380.1,501.9,380.1,501.9z"/>
	
		<linearGradient id="SVGID_7_" gradientUnits="userSpaceOnUse" x1="388.7419" y1="965.5411" x2="563.1057" y2="1173.34" gradientTransform="matrix(1 0 0 1 0 -696)">
		<stop  offset="0" style="stop-color:#000000"/>
		<stop  offset="0.7241" style="stop-color:#333333"/>
		<stop  offset="1" style="stop-color:#000000"/>
	</linearGradient>
	<path class="st11" d="M379.7,497.4c-19.3,0-34.7,0-34.7,0c-6.6,0-12-5.4-12-12v-180c0-6.6,5.4-12,12-12h298.7c6.6,0,12,5.4,12,12
		v19.3c-3.3,34.7-5.3,70.7-34.7,86c-29.3,15.3-63.3,34.7-92,57.3c-28.7,22.7-88,26.7-100.7,26.7S379.7,497.4,379.7,497.4z"/>
	
		<linearGradient id="SVGID_8_" gradientUnits="userSpaceOnUse" x1="546.6758" y1="1116.9869" x2="565.0728" y2="1143.2607" gradientTransform="matrix(1 0 0 1 0 -696)">
		<stop  offset="0" style="stop-color:#0071BC"/>
		<stop  offset="1" style="stop-color:#141414"/>
	</linearGradient>
	<path class="st12" d="M596.3,421.1c-16.7,1.3-36,1.7-43.3,0s-12,2.7-12,13.3s-3.6,28.2-19.5,38.8c0,0,32.5-23.8,41.8-29.8
		s43.3-25,43.3-25L596.3,421.1z"/>
	<g>
		<path class="st13" d="M536.6,415.5c-0.3-1.3,0.8-1.8,1.4-2.5c0.9,0,1.9,0,2.9,0c2.9-2.3,3.7-5.3,3.6-8.5c-0.7-0.7-1.2-1.1-2.1-1.9
			c-1.9,1.5-4.3,1.6-6.5,1.4c-0.6,0.7-1,1.2-1.3,1.8c-0.1,0.2,0.1,0.6,0.2,1.3c2.1,0,4.4,0,6.5,0c0.1,0.7,0.1,1,0.2,1.5
			c-1.7,0.8-3.5,1.8-5.1,1.5c-1.2,1-2.1,1.7-3,2.4c0.6,2.2-0.1,4.1-1.1,6.2c3.8,0.6,7,0.2,10.1-1.2c0-0.5,0.2-1-0.3-1.3
			C540.4,415.4,538.3,416.4,536.6,415.5z"/>
		<path class="st13" d="M469.3,421.7c3.1,0,5.9,0,8.5,0c0.3-0.7,1.2-0.8,1-1.5c-1.8-2.6-4.7-0.4-6.7-1.8c0.1-0.8-0.3-1.6-0.1-1.9
			c2.8-1.6,6-0.8,7.8-2.8c0-2.5,0-4.6,0-6.7c-3.2,0-6.1,0-9.1,0c-0.2,0-0.4,0.4-0.6,0.6c0,0.5,0,1,0.7,1.4c1.8,0,3.9,0,6.5,0
			c-0.6,1.4,0.4,2.7-0.8,4c-2,0-4.1,0-6.1,0C469.1,416.3,469.1,416.3,469.3,421.7z"/>
		<path class="st13" d="M413.1,416.8c2-2.9,2.1-5.8,0.1-8.9c-2.8,0.1-5.6-0.1-8.4,0.1c-0.2,1.8,0.9,2.1,1.4,2.9c0.6-0.5,0.8-0.7,1-1
			c0.4,0.3,0.7,0.7,1.1,1c0.5,0,1,0.1,1.4-0.4c0.4-0.6,1-0.7,1.9-0.3c0,1.5,0,3,0,4.5c-2.3,0.6-4.6-0.3-6.6,0.4c0,3.1,0,5.8,0,8.7
			c3-0.1,5.9,0.1,8.6-0.1c0.4-1.7-0.8-2.1-1.5-3c-1.7,0-3.4,0-5.2,0c-0.1-1.4-0.5-2.7,0.4-3.8C409.2,416.8,411.1,416.8,413.1,416.8z
			"/>
		<path class="st13" d="M521.5,406.3c0.1,0.2,0.2,0.4,0.3,0.6c1.2,0,2.4,0,4,0c-0.7,3.1-1.7,5.8-1.2,8.3c-1.4,2.1-5.3,1.9-3.7,5.4
			c2.6,1.1,4.7-0.9,6.5-0.8c1.3-1,2.3-1.8,3.3-2.5c-0.5-2,0.4-3.8-0.5-5.4c-0.6,0.1-0.9,0.1-1,0.1c-0.8,0.3-0.5,0.9-0.6,1.3
			c-0.1,0.5,0.3,1.3-1.1,1.5c0.5-3.3-0.6-6.5,0.8-9.7c-1.9,0-3.6,0-5.4,0c0.2,0.2,0.3,0.4,0.5,0.6
			C522.8,405.9,522.2,406.1,521.5,406.3z"/>
		<path class="st13" d="M568.1,403.4c-0.4-0.4-0.8-0.8-1.4-1.4c-2.8,0.2-5.9-0.7-8.4,1.7c0.1,0.8-0.3,1.7,0.7,2.4c1.9,0,4,0,6.2,0
			c0,0.6,0,1.1,0,1.5c-1.5,1-3.3-0.2-4.7,0.7c-0.6,0.7-1.7,1.2-0.9,2.4c1.5,0.7,3.2-0.3,5.2,1c-2,0-1.1,1.5-2,2.3c-1.6,0-3.3,0-5,0
			c-0.7,1-2.2,1.5-0.8,3.1c2.3-2,5.8-0.3,8.1-2.4C566.9,411,566.3,406.9,568.1,403.4z"/>
		<path class="st13" d="M455.7,457.5c-2.4,3.3-1.2,7-1.5,10.7c2.2,0,4,0,5.6,0c1.5-1.1,1.5-2.7,2.4-3.8c0.2-1-1.3-1.1-0.8-2.5
			c1.9-1.4,1.1-2.9-0.7-4.4C459,457.5,457.4,457.5,455.7,457.5z"/>
		<path class="st13" d="M446,417c1.3,0,2.7,0,4.1,0c-0.1,2.4-0.1,2.4-1.7,3.6c-1.8,0.8-2.6-1.6-5-0.4c0,0-0.4,0.6-0.9,1.3
			c0.5,0.6,1.8,0.1,2.3,1.3c2.4-0.7,5.2,1.2,7.4-1.6c0.2-1.6-0.5-3.6,0.8-5.2c-1-0.4-0.6-1.4-1-2c-1.5-0.7-3.2,0.3-4.5-0.5
			c0-1.2,0-2.3,0-3.6c1.6,0,3,0,4.3,0c0.6-0.6,1-1.1,1.4-1.6c0,0-0.2-0.2-0.3-0.3c-2.4,0-4.8,0-7.8,0C446.6,411,442.3,413.7,446,417
			z"/>
		<path class="st13" d="M492.8,420.7c4.1,0,7,0,9.7,0c0.5-0.5,0.9-0.9,1.2-1.2c0.3-2.9-0.3-6,1-8.9c0.5-1.3,0.7-3.3-1.4-4.4
			c-2.2,0-4.6,0-6.8,0c-0.7,0.6-1.2,1-1.7,1.3c1,1.3,2.3,2.3,3.7,1.2c1.4-1.1,2.7-0.4,4.3-0.4c-1.9,0.8-0.6,2.5-1.5,3.7
			c-1.8-0.1-3.7,0.3-4.7,2.3c1.6,1.5,3.7-0.1,5.1,1.1c0.3,1.5-0.2,2.6-1.6,3.6c-1.5,0-3.3,0-5,0c0.1,0.2,0.2,0.3,0.3,0.5
			C494.9,419.7,494.3,420,492.8,420.7z"/>
		<path class="st13" d="M399.5,422.5c0-2,0-3.7,0-5.5c-0.6,0-1.1,0-1.5,0c-0.5,1.4-1,2.7-2.4,4.1c0-4.7,0-8.9,0-13.2
			c-2.2,0.3-4.1-0.3-5.8,0.4c0.1,3,2.4,2.3,3.9,3c0,3.1,0,6.2,0,9.2c-0.6,2.2-2.8,0.7-3.8,1.7c0,0.5-0.2,1,0.4,1.5
			c2.6,0,5.4,0,8.1,0C398.7,423.4,399,423,399.5,422.5z"/>
		<path class="st13" d="M363.1,408c-0.2,2.8,0.5,5.2-1.2,7.2c0.7,0.7,1.2,1.2,1.8,1.8c1.3,0,2.7,0,4.3,0c0,1.7,0.4,3.3-0.1,4.4
			c-2.6,1.5-4.5-1.4-6.7-0.3c-0.5,1.5,0.6,1.9,1.2,2.6c2.1,0,4.2,0,6.2,0c0.5-0.5,0.8-0.8,1.2-1.2c0-2.6,0-5.1,0-7.8
			c-1.7,0-3.1,0-4.6,0c0-1.3,0-2.4,0-3.4c1.2-0.9,2.7,0.2,3.8-0.8c0.6-0.7,1.7-1.2,0.7-2.5C367.6,408,365.5,408,363.1,408z"/>
		<path class="st13" d="M517.2,406.8c-0.8,0.5-1.7-0.3-2.6,0.7c0,1.3,0,2.7,0,4c-0.9,0.7-1.3,1.9-2.9,1.1c0-2,0-4.3,0-6.2
			c-0.8-0.6-1.2-0.5-1.7-0.3c-1.3,3.1-1.7,6.4-1.1,9.9c1.7,0,3.1,0,4.5,0c0.7,1.7-0.3,3.4,0.7,4.9c0.9-0.9,1.7-1.7,2.5-2.5
			c0.2-1.5-0.5-3.3,1.8-4.6C514.1,411.7,518.8,409.5,517.2,406.8z"/>
		<path class="st13" d="M462.2,407.1c-2,0-3.4,0-4.8,0c-0.2,0.7-1.2,0.7-1,1.5c1.2,0.8,2.7-0.4,3.6,0.6c0,3.6,0,7,0,10.4
			c-1.6,0.1-3,0.1-3.7,1.7c2.9,2.2,5.9,1.9,9.8-1.1c0-1.6,0-3.3,0-4.9c0-0.2-0.5-0.4-0.7-0.5c-1.2-0.1-1.6,1-2,1.7
			c-1.1,0.8,0.9,2.4-1.1,3.1C462.2,415.5,462.2,411.4,462.2,407.1z"/>
		<path class="st13" d="M376.9,407.5c-0.2,3.5,0.4,6.8-1.2,9.6c0.6,0.6,1,1.1,1.5,1.6c1.5,0.6,3.3-0.3,4.7,0.6c0.2,1.5-0.5,3,1,4.1
			c0.3,0.2,0.5,0.4,0.7,0.2c0.3-0.3,0.7-0.7,1.2-1.2c0.2-1.6-0.4-3.6,0.8-5.2c-1.7-1.8-0.2-4.1-1.4-5.7c-0.3-0.6-0.5-1.1-0.7-1.5
			c-0.8,0.6-1.3,1-1.9,1.5c0,1.8,0,3.5,0,5.3c-1,0-1.8,0.3-2.7-0.3c0-2.3,0-4.8,0-7C378.3,408.9,377.9,408.4,376.9,407.5z"/>
		<path class="st13" d="M474.5,462.5c0.9,1,2.3,1.6,2.5,3.2c0.1,0.8,0.9,0.8,1.6,0.6c1.1-2.1-0.6-3.4-1.4-5
			c-0.2-0.3-0.4-0.5,0.1-0.7c0.8-0.1,1.6-0.2,2.4-0.3c0.1-0.5,0.1-1,0.3-1.4c0.2-0.4,0.5-0.7,0.8-1c-1.3-0.3-0.5-1.9-1-2.2
			c-2.6,0-4.7,0-7.1,0c1.2,3.7-1.7,7-0.6,10.4c0.6,0.4,1.1,0.4,1.5,0.2C474.6,465.2,473.5,463.7,474.5,462.5z"/>
		<path class="st13" d="M406.8,460.8c1.5,3.6,0.9,7-0.2,10.5c1.9,0,3.3,0,4.7,0c3-6.7,3.9-6.4-1.3-11.8
			C408.4,459,407.5,460,406.8,460.8z"/>
		<path class="st13" d="M477,445.1c-1.7-2.3-3.7-1.2-5.3-1.5c-2.3,1.4-1,3.6-1.7,5c-0.8,1.7-1.3,3.1-0.5,4.7c1.9,0,3.7,0,5.5,0
			C477.7,451.1,474.7,447.5,477,445.1z"/>
		<path class="st13" d="M434.3,418.3c1.8-1.7,3.4-3.4,4.9-4.8c0-2,0-3.8,0-5.4c-3.3,0-6.4,0-9.4,0c-0.1,0-0.2,0.2-0.3,0.4
			c0.3,0.7-0.3,1.6,0.8,2.5c1.7-1.6,3.8-1.4,6.1-1c0,1.2,0,2.3,0,3.5c-1.3,1.3-2.6,2.5-3.7,3.5c0,2,0,3.8,0,5.6
			c0.6-0.1,1.1-0.1,1.7-0.1C434.3,421.1,434.3,419.7,434.3,418.3z"/>
		<path class="st13" d="M449.4,460.5c-1.3-2.2-2.6-2.5-4.2-1.5c0.4,3.4-0.3,7,0.3,10.4c0.8,0,1.3,0.1,1.7-0.4c0.3-2.4-0.2-5,0.5-8.5
			c0.5,2.4,1.3,3.2,2.8,3.6c0,1.7,0,3.5,0,5.3c0.6,0,1.1,0,1.6-0.1c0-4,0-7.8,0-12.4C451.1,458.2,450.6,459,449.4,460.5z"/>
		<path class="st13" d="M425.7,459.7c0,3.7,0,7.1,0,10.4c0.6,0.4,1.1,0.4,1.8-0.1c0-2.3,0-4.9,0-7.5c1.5,0.1,0.5,1.5,1.3,1.8
			c1.5-0.4,1.4-2,2.3-3c0.4,1.5,0.6,2.7-0.2,4.2c-1,1.8-0.8,3.5,1.4,5c0.4-3.7-0.6-7.3,1.1-10.5c-0.6-0.6-1-1-1.8-1.8
			c-0.6,0.8-1.1,1.6-1.8,2.5C428.5,460.2,427.4,458.9,425.7,459.7z"/>
		<path class="st13" d="M581.3,412.5c6.3,0.6,7.4-0.2,9.4-6.5c-0.3-0.3-0.7-0.7-1-1c-0.6,0.2-0.8,1.1-1.6,0.9
			c-0.3-0.1-0.6-0.2-1-0.4c-0.1-1.9,1.7-2.5,2.6-3.6c1.7,0,3.5,0.4,4.3-1.7c-2.8-1.4-5,1.7-8,0.4c0.4,2.9-3.1,4.5-1.6,7.1
			c1.5,0.5,2-1.6,3.3-0.7c0.8,1.6,0.1,2.8-1.4,3.9c-1.5,0-3.3,0-5.2,0C581.3,411.6,581.3,412.1,581.3,412.5z"/>
		<path class="st13" d="M597,405.5c0.6-2.1,1.5-3.7,3.6-5.3c-1.6,0-2.4,0-3.2,0c-1,3.7-4.1,6.4-4.3,10.5c2.7,1.1,4.8-0.3,6.8-1.2
			c1.7-0.7,2.4-2.5,2.7-4.2C600.6,403.9,599.2,407.3,597,405.5z"/>
		<path class="st13" d="M469,461.8c-0.7-0.9-2,0.3-2.7-0.7c-0.5-1.4,0.8-1.8,1.5-2.5c1.1-0.2,2.3,0.4,3.4-0.5c0-0.4-0.1-0.9-0.2-1.4
			c-1.8,0-3.6,0-5.4,0c-0.4,0.4-0.9,0.9-1.4,1.4c0,1.8-0.2,3.6,0.1,5.4c0.3,1.8-1.1,3.2-1,5.3c2.6-0.4,4.7-1.6,6.9-1.4
			c0-0.7,0-1,0-1.3c-1.1-1.2-2.9,0.4-4-1.1C466,462.8,468.9,463.7,469,461.8z"/>
		<path class="st13" d="M574.9,410c1.1,1.7-2.1,2.3-0.3,3.8c1.7-1,2.6-2.7,3.6-4.9c0-0.6,0.1-1.7,0-2.8c-0.2-1.1,2.3-1.6,0.7-2.9
			c-0.5-0.3-1-0.3-1.4,0c-1.1,1.7-1,4.4-3.8,4.9c-1.5-2.4,1.1-3.9,1.3-6.3c-4.7,1.6-3,6.1-4.9,8.6
			C572.2,412.1,573.3,409.5,574.9,410z"/>
		<path class="st13" d="M461.1,447.6c-1.7,0.1-3.3-0.6-4.3,0.9c-1.3-1.4-2.8-1-4.5-0.6c0.1,1.6-0.3,3.1,0.2,4.4
			c2.5-0.4,4.7-0.7,6.7-1c0-0.8-0.1-1.3,0.4-1.6c1,0.3,0.2,1.5,1.1,1.9c1.1,0,2.2,0.3,3.3-0.2c1.4-2.4,1.7-3.9,0.7-4.6
			c-1.1,0.6,0.3,2.3-1,2.8c-1.1-0.6,0.4-2.3-1.3-2.9c-0.3,1.3,0.3,2.8-1,4.6C461.2,449.6,461.2,448.8,461.1,447.6z"/>
		<path class="st13" d="M387.1,471.2c2,0,3.7,0,5.3,0c2-3.6,1.4-7.2,1-10.7c-0.9-0.1-1.4-0.1-1.8,0.7c0,2.5,0,5.3,0,7.8
			c-1,1.4-2.2,1.8-3.9,1.1c0-3.1,0-6.3,0-9.6c-0.8,0.1-1.2,0.1-1.8,0.2c0,3.2,0,6.3,0,9.4C386.3,470.4,386.6,470.7,387.1,471.2z"/>
		<path class="st13" d="M397.6,463.9c0.9-3.8,4.3-1.6,6.6-3.2c-3.1,0-5.6,0-8.2,0c0,3.5,0,7,0,10.8c2.7-0.3,5.2,0.2,8-0.4
			c-0.7-0.7-1.2-1.2-1.8-1.8c-1.3,0-2.7,0-4.1,0c-0.2-1.1-0.6-2,0.3-2.8c0.8-0.2,1.6,0.3,2.3-0.3
			C400.2,464.6,398.7,464.7,397.6,463.9z"/>
		<path class="st13" d="M437.5,460.5c1.6,0,3.2,0,4.5,0c0.5-0.8,0.5-1.2,0.1-1.8c-1.7,0-3.4,0-5.3,0c-0.3,0.3-0.8,0.8-1.3,1.3
			c0,1.7-0.1,3.5,0,5.3c0.1,1.7-0.5,3.5,0.6,5.6c1.8-2.3,4.3-1,6.8-1.9c-2-1.1-3.9,0-5.4-1c0-0.7,0-1.4,0-2c0.9-0.8,2.5-0.6,2.9-2.3
			c-0.9-0.1-1.8-0.3-2.8-0.4C437.5,462.4,437.5,461.6,437.5,460.5z"/>
		<path class="st13" d="M368.5,469.4c0.7,0,1.3,0,2,0c0.9,0.8,0.6,2.5,2.5,3c-0.6-4.2-1.7-8.2-3.4-12c-2.7,2.3-1.4,6.1-3.5,8.7
			c-0.5,0.6-0.5,2.2,0.3,3.2C367.9,471.9,367.6,470.3,368.5,469.4z"/>
		<path class="st13" d="M503.4,444c0.4,2.6,2.3,1.1,3.2,2c0.8,1.3-0.4,2.4-0.7,4.2c4.2-2,2.5-6.2,4.5-8.6c0.3-0.4,0.4-0.5,0.1-0.6
			c-0.6-0.5-1-0.9-1.8-1.6c-1.2,1.7-3,1.3-4.6,1.3C503.4,441.9,504.4,443.5,503.4,444z"/>
		<path class="st13" d="M499.6,440.8c-0.9,1.6-2.7,0.3-4.1,1.6c2.1,1.5,1.3,3.7,1.3,5.1c-0.6,2.2-3.2,1.3-2.9,3.7
			c2.4,1.2,4.3-1.9,7.3-0.2c-0.7-2,0.2-3.3-0.8-4.4c-0.5-0.2-1.3,0.2-1.5-0.7C500.5,444.5,499.5,442.7,499.6,440.8z"/>
		<path class="st13" d="M355.1,460.6c-0.4,4.4,2.3,7.9,3.2,12.1c2.6-3.3,4.2-7.2,4.6-10.7c-0.6-0.4-0.8-1.3-1.9-1.2
			c-0.2,2.4,0.6,5.1-2.3,7c-1.8-2.1-1.8-4.6-1.7-7.1C356.3,460.6,355.9,460.6,355.1,460.6z"/>
		<path class="st13" d="M372.5,431.7c-1.3,1-2,2.4-3.4,3c-0.2,0.1-0.6-0.2-0.9-0.2c-0.1-0.9,1.4-1.3,0.5-2.6c-0.6,0-1.4,0-2.3,0
			c-0.3,0.3-0.8,0.8-1.2,1.2c0,1.5,0,3,0,4.3c2.6,1.7,5.1-2.5,7.4,0.2c0.5-0.5,0.8-0.8,1.4-1.4C371.9,435.3,373.5,433.3,372.5,431.7
			z"/>
		<path class="st13" d="M483.7,443.2c-0.8,1.7-1.5,3-2.2,4.3c-1.2-1.1,0.3-2.9-1-3.9c-0.5,0.5-1,1-1.3,1.3c0,1.6,0,3,0,4.3
			c1,0.7,2.1-0.2,2.8,0.8c-0.6,0.7-1.7,1.2-0.6,2.4c0.8,0,1.5,0,2.2,0c0.8-1-0.2-2.3,1.1-3.1c1.3-0.8-1.4-1.9,0-3.1
			C485.3,445.7,485.4,444.1,483.7,443.2z"/>
		<path class="st13" d="M382.7,471.1c-1.5-1.3-3.2-0.1-5-1.2c0-3,0-6.2,0-9.4c-0.8,0.1-1.3-0.2-1.6,0.3c0,3.9,0,7.8,0,12.2
			C378.4,471.8,380.5,471.1,382.7,471.1z"/>
		<path class="st13" d="M455.6,445.6c1.4-1.8,3.1,1.4,4.5-0.4c-1.7-1.1-0.2-3.2-1.3-4.6c-1.2,0.7,0.2,2.3-1.3,3
			c-0.1-1-0.3-1.9-0.4-2.8c-1.5-1-3,1.2-4.6-0.2c0,1.7,0,3.2,0,4.8c0.6,0,1.1,0,1.5,0c1-0.2-0.4-1.8,1-1.7
			C455.2,444.4,455.4,445,455.6,445.6z"/>
	</g>
	
		<linearGradient id="SVGID_9_" gradientUnits="userSpaceOnUse" x1="367.365" y1="1090.1345" x2="400.6729" y2="1050.4396" gradientTransform="matrix(1 0 0 1 0 -696)">
		<stop  offset="0" style="stop-color:#946300"/>
		<stop  offset="0.3055" style="stop-color:#FFBA3F"/>
		<stop  offset="0.5042" style="stop-color:#FFF394"/>
		<stop  offset="0.6752" style="stop-color:#FFBA3F"/>
		<stop  offset="0.8984" style="stop-color:#946300"/>
	</linearGradient>
	<path class="st14" d="M392.6,361.4v-5.1h8.9c2,0,3.6,1.6,3.6,3.6v5.3h-12.7l-3.4,3.4l-0.3,0.4l0.3,0.3c1.3,1.3,2.1,3.1,2.1,5
		c0,3.9-3.2,7.1-7.1,7.1s-7.1-3.2-7.1-7.1s3.2-7.1,7.1-7.1h0.4v-5.8L392.6,361.4L392.6,361.4z M392.8,366.1L390,369
		c1.2,1.4,2,3.1,2.1,4.9h13.1v-7.8H392.8z M390,379.6l2.8,2.8h12.3v-7.6H392C391.9,376.7,391.2,378.3,390,379.6z M378.8,380.3
		l-3.1,3.1H363v-0.9h12.3l2.8-2.8c-1.2-1.3-1.9-3-2-4.9H363v-0.9h13.1c0.1-1.9,0.9-3.6,2.1-4.9l-2.9-2.9H363v-0.9h12.7l3.1,3.1
		c1.3-1.1,3-1.9,4.8-2v-5H375v-5.1h-8.4c-2,0-3.6,1.6-3.6,3.6v28.9c0,2,1.6,3.6,3.6,3.6h17v-10.1
		C381.8,382.2,380.1,381.5,378.8,380.3z M392.5,383.3l-3.1-3.1c-1.3,1.2-3,1.9-4.9,2v10.1h17c2,0,3.6-1.6,3.6-3.6v-5.5h-12.6V383.3z
		 M391.7,360.5v-4.3H376v4.3H391.7z"/>
	<g>
		<g>
			<path class="st1" d="M419.4,323.8h2.8c1.6,0,3.6-1.3,4.4-2.9l6.1-11.9h-0.9c0,0-0.7,2-3,2h-42.1c-1.6,0-3.6,1.3-4.4,2.9l-6,11.8
				h-2.8c-1.6,0-3.6,1.3-4.4,2.9l-6.1,11.9h0.9c0,0,0.7-2,3-2H409c1.6,0,3.6-1.3,4.4-2.9L419.4,323.8z M390,325.7h-12.7
				c0.2-0.5,1-1.9,2.9-1.9h14.2l6.2-6.1l1.2,6.1h16.8c-0.2,0.5-1,1.9-2.9,1.9h-11.9l-1.5,0.6l1.5,7.6l-7.8-4l-10.7,2.9l6.3-6.2
				L390,325.7z"/>
		</g>
	</g>
	<g>
		<path class="st1" d="M431,356.1l3.7-17.2h6.6c3.1,0,3.5,2.5,3,4.9c-0.3,1.5-1.1,3.1-2.5,4.1c-1.2,0.8-2.6,1.1-3.8,1h-2.2l-1.5,7.2
			H431z M436.2,346.4h1.7c1.4,0,2.5-0.6,2.9-2.7c0.4-2-0.3-2.3-2.1-2.3h-1.5L436.2,346.4z"/>
		<path class="st1" d="M445.7,346.1c1.1-4.4,2.1-7.7,7.3-7.7c5.2,0,4.8,3.3,4,7.7l-0.5,2.5c-1,4.6-2,8-7.3,8s-4.9-3.4-3.9-8
			L445.7,346.1z M448.2,350.2c-0.3,1.4-0.7,3.7,1.5,3.7c2.3,0,2.8-2.4,3.2-4l0.9-4.4c0.3-1.4,1-4.4-1.4-4.4c-2.5,0-3,3-3.2,4.3
			L448.2,350.2z"/>
		<path class="st1" d="M470.7,347.8c0,1.7-0.4,3.9-0.6,6.1l0,0c0.1-0.4,0.2-0.8,0.4-1.2c0.4-1.5,0.9-2.9,1.4-4.4l3.3-9.4h3.3
			l-6.9,17.2h-3.9l0.2-6.8c0-1.8,0.3-3.7,0.5-5.5l0,0c-0.6,1.8-1.1,3.7-1.9,5.5l-2.6,6.8H460l0.4-17.2h3.3l-0.6,9.4
			c-0.1,1.5-0.3,2.9-0.5,4.4c0,0.4-0.1,0.8-0.2,1.2l0,0c0.7-2.2,1.4-4.4,2-6.1l3.5-8.9h2.7L470.7,347.8z"/>
		<path class="st1" d="M476.9,356.1l3.7-17.2h9.1l-0.5,2.5h-5.8l-0.9,4.3h5.4l-0.5,2.5H482l-1.1,5.3h5.8l-0.5,2.5h-9.3V356.1z"/>
		<path class="st1" d="M493.2,348.7l-1.6,7.4h-3.2l3.7-17.2h6.1c2.8,0,4.7,1,4,4.1c-0.4,1.9-1.3,3.9-3.5,4.2l0,0
			c1.9,0.3,2.2,1.5,1.8,3.1c-0.2,0.7-1.1,4.9-0.5,5.4l-0.1,0.3h-3.5c-0.2-1.1,0.4-3.2,0.6-4.4c0.2-1.1,0.5-2.5-0.5-2.8
			c-0.8-0.3-1.8-0.2-2.7-0.2h-0.6L493.2,348.7L493.2,348.7z M493.7,346.2h2.5c1.1-0.1,2-0.8,2.4-2.5c0.4-1.9-0.3-2.3-1.5-2.3h-2.4
			L493.7,346.2z"/>
		<path class="st1" d="M519.8,350c-0.1,0.3-0.2,0.7-0.3,1c-0.8,3.1-2.4,5.6-6,5.6c-5.3,0-4.9-3.4-3.9-8l0.5-2.5
			c1.1-4.4,2.1-7.7,7.3-7.7c2.9,0,4.2,1.5,3.8,4.5c0,0.4-0.1,0.9-0.2,1.3h-3.2c0.1-1.1,0.7-3.2-0.9-3.2c-2.5,0-3,3-3.2,4.3l-1,4.8
			c-0.3,1.4-0.7,3.7,1.5,3.7c1.8,0,2.2-2.9,2.5-4h3.1L519.8,350L519.8,350z"/>
		<path class="st1" d="M519.7,356.1l7.8-17.2h4.3l0.2,17.2h-3.4l0.1-4.4h-3.8l-1.8,4.4H519.7z M526,349.2h2.8l0.2-4.9
			c0-0.8,0.1-1.6,0.2-2.4c0.1-0.4,0.1-0.8,0.1-1.2l0,0c-0.1,0.4-0.3,0.8-0.4,1.2c-0.3,0.8-0.5,1.6-0.8,2.4L526,349.2z"/>
		<path class="st1" d="M543,344.1c0.4-1.5,0.5-3.1-1.2-3.1c-1.1,0-1.9,0.4-2.1,1.6c-0.3,1.3,0.4,1.8,1.3,2.5c0.9,0.7,2.6,2,3.3,2.8
			c0.9,1.1,1,2.1,0.7,3.6c-0.7,3.3-3.2,5-6.4,5c-3.9,0-4.8-2.2-4.1-5.2l0.3-1.3h3.2l-0.2,1c-0.4,1.7-0.2,2.9,1.4,2.9
			c1.4,0,2.2-0.7,2.4-2c0.2-1-0.1-1.7-0.8-2.3c-1.4-1.3-3.3-2.3-4.2-4c-0.4-0.8-0.5-1.7-0.3-2.6c0.6-2.9,2.6-4.6,6-4.6
			c5.1,0,4.1,4,3.8,5.7H543z"/>
		<path class="st1" d="M546.6,356.1l3.7-17.2h3.2l-1.5,6.8h4.5l1.5-6.8h3.2l-3.7,17.2h-3.2l1.7-7.9h-4.5l-1.7,7.9H546.6z"/>
		<path class="st1" d="M566.4,356.1l3.7-17.2h5.2c1.4,0,2.7,0.1,3.4,1.3c0.5,0.9,0.4,1.9,0.2,3.1c-0.3,1.5-1,3-2.8,3.6l0,0
			c1.8,0.3,2.1,1.8,1.7,4c-0.2,0.7-0.3,1.4-0.7,2.1c-1.2,2.2-2.6,3.1-4.9,3.1H566.4z M570.8,353.6c0.7,0,1.3,0.1,2-0.2
			c1-0.4,1.3-1.5,1.5-2.4c0.4-1.9,0.2-2.6-1.8-2.6h-1.2l-1.1,5.2H570.8z M572.4,345.9c0.8,0,1.8,0,2.4-0.6c0.4-0.4,0.6-1,0.7-1.9
			c0.3-1.3,0.1-1.9-1.3-2h-1.5l-0.9,4.4h0.6V345.9z"/>
		<path class="st1" d="M577.9,356.1l7.8-17.2h4.3l0.2,17.2h-3.4l0.1-4.4h-3.8l-1.8,4.4H577.9z M584.1,349.2h2.8l0.2-4.9
			c0-0.8,0.1-1.6,0.2-2.4c0.1-0.4,0.1-0.8,0.1-1.2l0,0c-0.1,0.4-0.3,0.8-0.4,1.2c-0.3,0.8-0.5,1.6-0.8,2.4L584.1,349.2z"/>
		<path class="st1" d="M603.5,350c-0.1,0.3-0.2,0.7-0.3,1c-0.8,3.1-2.4,5.6-6,5.6c-5.3,0-4.9-3.4-3.9-8l0.5-2.5
			c1.1-4.4,2.1-7.7,7.3-7.7c2.9,0,4.2,1.5,3.8,4.5c0,0.4-0.1,0.9-0.2,1.3h-3.2c0.1-1.1,0.7-3.2-0.9-3.2c-2.5,0-3,3-3.2,4.3l-1,4.8
			c-0.3,1.4-0.7,3.7,1.5,3.7c1.8,0,2.2-2.9,2.5-4h3.1L603.5,350L603.5,350z"/>
		<path class="st1" d="M604.8,356.1l3.7-17.2h3.2l-1.6,7.7l0,0c0.8-1.4,1.9-2.9,2.9-4.1l2.6-3.5h3.6l-5.8,7.4l2.4,9.8h-3.6l-1.6-6.8
			l-1.5,1.9l-1.1,4.9L604.8,356.1L604.8,356.1z"/>
	</g>
	<g>
		<path class="st1" d="M441,323.9l-0.3,1.3c-0.2,1-0.1,2,1.3,2c1,0,1.6-0.9,1.8-1.8c0.3-1.5-0.8-2.1-1.8-2.8
			c-1.1-0.8-2.1-1.5-2.7-2.4s-0.8-2-0.5-3.6c0.7-3.4,3.2-5.2,6.5-5.2c3.7,0,5.1,2.5,4.2,5.9h-3.9c0.2-1.1,0.5-2.5-0.8-2.6
			c-0.9-0.1-1.5,0.4-1.7,1.2c-0.4,1.1,0.1,1.6,0.8,2.2c1.4,1,2.6,1.6,3.4,2.6s1.1,2.1,0.7,4.3c-0.7,3.5-3.1,5.4-6.6,5.4
			c-3.9,0-5.1-2.2-4.6-4.6l0.4-1.9H441z"/>
		<path class="st1" d="M448.6,330l3.9-18.2h9.8l-0.8,3.6H456l-0.7,3.3h5.3l-0.8,3.6h-5.3l-0.8,3.9h5.8l-0.8,3.6h-10.1V330z"/>
		<path class="st1" d="M470.4,318.2l0.2-1.2c0.3-1.6-0.1-2.4-0.9-2.4c-1.3,0-1.8,0.7-2.1,1.9l-1.9,9c-0.2,1,0.1,1.6,1.2,1.6
			c1.5,0,1.9-1.5,2.1-2.6l0.4-1.6h4.3l-0.5,2.2c-0.7,3.1-2.9,5.3-7.3,5.3c-3.9,0-5-2.1-4.2-5.8l1.6-7.5c0.8-4,3.1-5.8,7-5.8
			c3.6,0,5.5,1.6,4.7,5.3l-0.3,1.5h-4.3L470.4,318.2L470.4,318.2z"/>
		<path class="st1" d="M478,311.8h4.3l-2.9,13.7c-0.2,0.9-0.1,1.6,1.1,1.6c1.1,0,1.7-1,1.8-1.7l2.9-13.6h4.3l-2.8,13.2
			c-0.7,3.1-2.5,5.5-6.9,5.5c-3.6,0-5.4-1.7-4.6-5.5L478,311.8z"/>
		<path class="st1" d="M491.9,330h-4.3l3.9-18.2h6.2c3.5,0,4.9,1.4,4.2,5c-0.4,1.9-1.2,3.3-3.1,4.1l0,0c1.1,0.3,1.8,1.1,1.6,2.4
			c-0.2,1.5-0.8,4.6-0.8,5.8c0,0.2,0.1,0.5,0.3,0.6l-0.1,0.2h-4.7c0-0.3-0.1-0.7,0-1c0.3-1.6,0.7-3.1,0.8-4.2c0.1-1.1-0.1-1.8-1-1.9
			h-1.4L491.9,330z M494.1,319.6h1.5c1.2,0,1.8-1.1,2-2.3c0.5-2.2-0.4-2.3-2.5-2.2L494.1,319.6z"/>
		<path class="st1" d="M501.3,330l3.9-18.2h4.3l-3.9,18.2H501.3z"/>
		<path class="st1" d="M511.2,311.8h11.1l-0.8,3.6h-3.4L515,330h-4.3l3.1-14.6h-3.3L511.2,311.8z"/>
		<path class="st1" d="M528.3,317.8L528.3,317.8l3.5-5.9h4.3l-6.6,10.6l-1.6,7.6h-4.3l1.6-7.6l-2-10.6h4.3L528.3,317.8z"/>
		<path class="st1" d="M544.1,323.9l-0.3,1.3c-0.2,1-0.1,2,1.3,2c1,0,1.6-0.9,1.8-1.8c0.3-1.5-0.8-2.1-1.8-2.8
			c-1.1-0.8-2.1-1.5-2.7-2.4c-0.6-0.9-0.8-2-0.5-3.6c0.7-3.4,3.2-5.2,6.5-5.2c3.7,0,5.1,2.5,4.2,5.9h-3.9c0.2-1.1,0.5-2.5-0.8-2.6
			c-0.9-0.1-1.5,0.4-1.7,1.2c-0.4,1.1,0.1,1.6,0.8,2.2c1.4,1,2.6,1.6,3.4,2.6s1.1,2.1,0.7,4.3c-0.7,3.5-3.1,5.4-6.6,5.4
			c-3.9,0-5.1-2.2-4.6-4.6l0.4-1.9H544.1z"/>
		<path class="st1" d="M551.8,330l3.9-18.2h9.8l-0.8,3.6h-5.5l-0.7,3.3h5.3l-0.8,3.6h-5.3l-0.8,3.9h5.8l-0.8,3.6h-10.1L551.8,330
			L551.8,330z"/>
		<path class="st1" d="M568.1,330h-4.3l3.9-18.2h6.2c3.5,0,4.9,1.4,4.2,5c-0.4,1.9-1.2,3.3-3.1,4.1l0,0c1.1,0.3,1.8,1.1,1.6,2.4
			c-0.2,1.5-0.8,4.6-0.8,5.8c0,0.2,0.1,0.5,0.3,0.6l-0.1,0.2h-4.7c0-0.3-0.1-0.7,0-1c0.3-1.6,0.7-3.1,0.8-4.2s-0.1-1.8-1-1.9h-1.4
			L568.1,330z M570.3,319.6h1.5c1.2,0,1.8-1.1,2-2.3c0.5-2.2-0.4-2.3-2.5-2.2L570.3,319.6z"/>
		<path class="st1" d="M580.5,330l-0.1-18.2h4.3l-0.5,12.8l0,0l4.9-12.8h4.3l-7.9,18.2H580.5z"/>
		<path class="st1" d="M591,330l3.9-18.2h4.3l-3.9,18.2H591z"/>
		<path class="st1" d="M607.2,318.2l0.2-1.2c0.3-1.6-0.1-2.4-0.9-2.4c-1.3,0-1.8,0.7-2.1,1.9l-1.9,9c-0.2,1,0.1,1.6,1.2,1.6
			c1.5,0,1.9-1.5,2.1-2.6l0.4-1.6h4.3l-0.5,2.2c-0.7,3.1-2.9,5.3-7.3,5.3c-3.9,0-5-2.1-4.2-5.8l1.6-7.5c0.8-4,3.1-5.8,7-5.8
			c3.6,0,5.5,1.6,4.7,5.3l-0.3,1.5h-4.3V318.2z"/>
		<path class="st1" d="M611.1,330l3.9-18.2h9.8l-0.8,3.6h-5.5l-0.7,3.3h5.3l-0.8,3.6H617l-0.8,3.9h5.8l-0.8,3.6h-10.1L611.1,330
			L611.1,330z"/>
	</g>
</g>
</svg>
