<?xml version="1.0" encoding="utf-8"?>
<!-- Generator: Adobe Illustrator 22.1.0, SVG Export Plug-In . SVG Version: 6.00 Build 0)  -->
<svg version="1.1" id="Layer_1" xmlns="http://www.w3.org/2000/svg" xmlns:xlink="http://www.w3.org/1999/xlink" x="0px" y="0px"
	 viewBox="0 0 640 720" style="enable-background:new 0 0 640 720;" xml:space="preserve">
<style type="text/css">
	.st0{fill:#EAAD4A;}
</style>
<g>
	<path class="st0" d="M395,466.6l-0.1-0.2l-0.1-0.1c-1-1.6-2-3.3-3.2-5c0-0.1-0.1-0.1-0.1-0.1c0,0,0.1-0.1,0.1-0.1
		c0.5-0.8,1-1.7,1.5-2.5c0.5-0.8,1-1.5,1.5-2.3l0.3-0.3l0.1-0.2c1.3-2.2,0.9-4.2-1.2-5.6c-1.3-0.9-2.6-1.7-3.9-2.4
		c-0.5-0.3-0.9-0.6-1.4-0.9c-0.1-0.1-0.2-0.1-0.2-0.1c0.3-1.3,0.4-2.8,0.6-4.3c0.1-0.6,0.1-1.2,0.2-1.9v-0.1c0.2-2.5-1-4-3.7-4.4
		l-1-0.1c-1.7-0.3-3.5-0.4-5.2-0.5c-0.1,0-0.1,0-0.1,0c0-0.1-0.1-0.1-0.1-0.1c-0.5-1.9-1.2-3.7-1.8-5.5l-0.2-0.4
		c-0.8-2.4-2.5-2.7-3.4-2.7c-0.7,0-1.2,0.2-1.7,0.4l-0.8,0.2l-0.9,0.3c-1.3,0.4-2.6,0.9-3.9,1.4c-0.1,0.1-0.2,0.1-0.4,0.1
		c0,0-0.1-0.1-0.2-0.2c-1.2-1.3-2.4-2.5-3.6-3.7l-0.7-0.7c-0.9-0.9-1.9-1.3-2.9-1.3c-1,0-2.1,0.5-2.8,1.4l-0.2,0.2
		c-1.4,1.3-2.9,2.8-4.2,4.2l0,0l0,0c-0.9-0.4-1.8-0.6-2.7-0.9c-0.8-0.3-1.6-0.5-2.4-0.8l-0.5-0.3l-0.3-0.1c-0.6-0.2-1.2-0.3-1.8-0.3
		c-2.4,0-3.1,2.1-3.5,2.9l-0.4,1v0.1c-0.2,0.5-0.4,1-0.5,1.5c-0.4,1-0.7,2.1-1,3.1c-0.1,0.1-0.1,0.2-0.1,0.2c-0.1,0-0.2,0.1-0.3,0.1
		h-0.2c-1.3,0.1-2.7,0.3-4,0.4c-0.3,0-0.6,0.1-0.9,0.1c-0.3,0.1-0.5,0.1-0.7,0.1h-0.1h-0.1c-2.7,0.2-4,1.7-3.8,4.4v0.1
		c0.3,2.5,0.6,4.5,0.8,6.2c0,0.1,0,0.1,0,0.1s0,0-0.1,0c-1.2,0.7-2.3,1.4-3.4,2.1c-0.7,0.5-1.3,0.9-2,1.3h-0.1c-1,0.7-1.7,1.5-2,2.5
		c-0.3,1,0.2,2.2,1,3l0.4,0.6l2.7,4.3c0.1,0.1,0.1,0.2,0.1,0.2s-0.1,0.1-0.1,0.2c-1.1,1.5-2,3-2.6,4.1l-0.7,0.9l-0.1,0.1
		c-0.7,1.2-0.9,2.2-0.7,3.2c0.3,1.3,1.3,2.1,2.1,2.6l0.8,0.5l4.4,2.8v0.1c-0.4,2.1-0.7,4.3-0.8,6.4c-0.1,1.3,0.2,2.3,0.8,3
		c0.7,0.8,1.7,1.2,2.9,1.2c0.7,0.1,1.3,0.2,2.1,0.3c0.7,0.1,1.4,0.2,2.2,0.3l0.9,0.2v32.7c0,1.8,0.7,3.1,2,3.8l0.1,0.1
		c0.2,0.1,0.9,0.4,1.6,0.4c0.8,0,1.6-0.3,2.4-0.6l0.2-0.1l0.1-0.1c2.4-1.5,4.4-2.8,6.5-4c2.9-1.8,6-3.7,8.9-5.5
		c0.1-0.1,0.2-0.1,0.2-0.1s0.1,0.1,0.2,0.2c0.5,0.3,1.1,0.7,1.7,1c0.5,0.3,1.1,0.6,1.6,1l4.5,2.7c2.5,1.7,5.1,3.3,7.7,4.8
		c0.7,0.5,1.5,0.8,2.4,0.8c2.1,0,3.5-1.5,3.5-3.8v-33.2l0.8-0.1c0.7-0.1,1.3-0.2,1.9-0.2c0.6-0.1,1.2-0.2,1.9-0.2h0.1
		c3.4-0.5,3.6-2.9,3.5-4.3v-0.1c-0.3-2.1-0.5-4.1-0.8-6.4v-0.1l0,0c1.7-1,3.5-2,5.4-3.3C395.9,470.8,396.3,468.8,395,466.6z
		 M380.8,475.3c0.3,1.1,0.4,2.1,0.5,3.3c0,0.2,0,0.3,0.1,0.5l-0.9,0.1h-0.1c-1.3,0.3-2.7,0.4-4.1,0.5c-2.4,0.1-3.1,2-3.4,2.6
		l-1.7,4.8c-0.3-0.1-0.5-0.2-0.7-0.2c-0.6-0.3-1.2-0.5-1.9-0.7c-0.6-0.2-1.2-0.5-1.9-0.7l-0.1-0.1c-0.5-0.2-1-0.4-1.7-0.4
		c-1.1,0-2.2,0.5-3.2,1.5c-0.5,0.5-0.9,0.9-1.4,1.3c-0.5,0.5-1,0.9-1.5,1.4l-0.3,0.3c-0.1-0.1-0.2-0.2-0.2-0.2l-0.1-0.1l-0.1-0.1
		c-0.9-0.7-1.8-1.7-2.6-2.5c-1.1-1.1-2.2-1.7-3.5-1.7c-1.1,0-1.9,0.5-2.4,1.4c-1,0.4-1.9,0.7-2.8,1c-0.3,0.1-0.5,0.2-0.8,0.2
		c-0.1-0.3-0.2-0.5-0.3-0.8c-0.5-1.2-0.9-2.3-1.2-3.4c-0.6-2.2-1.9-3.3-4.2-3.5c-0.7-0.1-1.3-0.2-1.9-0.2c-0.6-0.1-1.2-0.1-1.8-0.2
		l-0.7-0.1c0-0.2,0.1-0.5,0.1-0.7c0-1,0.1-2.1,0.4-3.2v-0.1v-0.1c0.2-1.7,0.2-4.1-2.6-5.5l-3.1-2l-0.1-0.1c-0.2-0.1-0.3-0.2-0.4-0.3
		l0.4-0.7c0.4-0.6,0.8-1.2,1.1-1.8c0.4-0.6,0.7-1.1,1.1-1.8c1-1.5,1-3.1,0-4.7c-0.4-0.6-0.7-1.1-1.1-1.7c-0.4-0.6-0.7-1.2-1.1-1.8
		l-0.4-0.4c0.2-0.1,0.3-0.2,0.4-0.3l0.1-0.1c0,0,0.5-0.3,0.7-0.5c0.8-0.5,1.7-1.1,2.4-1.4l0.1-0.1c2.2-1.2,2.9-3.1,2.4-5.6
		c-0.3-1.1-0.4-2.1-0.5-3.3c0-0.2,0-0.4,0-0.6c0.3-0.1,0.5-0.1,0.8-0.2c1.2-0.3,2.3-0.4,3.3-0.4c2.5,0,4-1.2,4.8-3.7l1.2-3.6v-0.1
		c0-0.1,0.1-0.2,0.1-0.4c0.2,0.1,0.4,0.2,0.4,0.2l0.1,0.1h0.1c0.7,0.3,1.3,0.5,1.9,0.7c0.6,0.2,1.2,0.5,1.9,0.7l0.1,0.1
		c0.5,0.2,1,0.4,1.7,0.4c1.1,0,2.2-0.5,3-1.3l3.3-3.3l0.5,0.5l0.1,0.1c0.8,0.7,1.7,1.6,2.4,2.4l0.1,0.1l0.1,0.1
		c1.1,1.1,2.2,1.7,3.5,1.7c0.8,0,1.4-0.2,2.1-0.5h0.1c1.1-0.5,2.2-0.8,3.3-1.2l0.2-0.1c0.2-0.1,0.4-0.1,0.5-0.2
		c0.1,0.1,0.2,0.4,0.2,0.4l0.5,1.1c0.1,0.4,0.3,0.8,0.4,1.1c0.2,0.5,0.4,1,0.5,1.5v0.1c0.6,1.9,1.9,3,3.9,3.2
		c1.1,0.1,2.4,0.3,3.7,0.4l0.7,0.2c0,0.2-0.1,0.4-0.1,0.7c0,1-0.1,2.1-0.4,3.2c-0.5,2.6,0.3,4.5,2.6,5.7c1,0.5,2,1.1,3,1.8l0.1,0.1
		l0.1,0.1c0.1,0.1,0.3,0.2,0.4,0.3l-0.3,0.5c-0.3,0.5-0.6,0.9-0.9,1.4c-0.4,0.7-0.8,1.3-1.3,2l-0.1,0.1c-1.1,1.7-1.1,3.3,0,5
		l0.1,0.1c0.5,0.6,0.9,1.2,1.3,2c0.3,0.5,0.6,0.9,0.9,1.3l0.4,0.5c-0.2,0.1-0.3,0.2-0.4,0.3l-0.1,0.1c0,0-0.5,0.3-0.8,0.5
		c-0.8,0.5-1.7,1.1-2.4,1.4C381.1,470.9,380.3,472.7,380.8,475.3z M345,513.4v-17.9c0.5-0.2,0.9-0.3,1.3-0.5c1.5-0.5,3.1-1,4.6-1.7
		c0.2-0.1,0.3-0.1,0.4-0.1c0.2-0.1,0.3-0.1,0.3-0.1s0.3,0.1,0.5,0.3l0.1,0.1c0.9,1.1,2,2.2,3,3.2l0.1,0.1l0.9,0.7
		c0.8,0.9,1.8,1.4,2.8,1.4c1.3,0,2.2-0.8,2.8-1.3l0.3-0.3c1.3-1.3,2.6-2.6,3.9-4l0.1-0.1l0,0l0.1,0.1c1.7,0.7,3.6,1.3,5.5,2h0.1h0.1
		c0.4,0.1,0.7,0.2,1,0.2c0.2,0,0.3,0.1,0.5,0.1v18l-11.7-7.3c-0.8-0.5-1.7-0.7-2.5-0.7c-1.2,0-2,0.5-2.5,1c-1.5,0.9-2.9,1.9-4.4,2.7
		c-1.5,0.9-3,1.9-4.6,2.8L345,513.4z"/>
	<path class="st0" d="M358.7,446.8h-0.1c-7.7,0-14.1,6.4-14.3,14.3c0,3.9,1.5,7.5,4.1,10.2c2.4,2.5,5.4,3.9,8.7,4.2v0.2h1.3
		c8.1,0,14.6-6.5,14.6-14.4C373.1,453.4,366.7,446.9,358.7,446.8z M358.8,469.5h-0.2c-2.2,0-4.4-0.9-5.9-2.5c-1.5-1.5-2.3-3.7-2.3-6
		c0.1-4.5,3.8-8.2,8.4-8.2h0.2c2.2,0,4.2,0.9,5.8,2.5c1.5,1.5,2.3,3.7,2.3,6C367,465.9,363.3,469.5,358.8,469.5z"/>
</g>
<path class="st0" d="M210.9,88.5c-2.3-2.2-11.5-10.6-13.8-12.8c-0.1-0.1-0.2-0.3-0.2-0.7V42.4h-21.3v13.3
	c-4.9-4.5-9.6-8.9-14.4-13.3l-0.9-0.9l-0.9,0.9c-0.2,0.2-0.4,0.4-0.6,0.6c-0.2,0.2-0.4,0.3-0.6,0.5l-3.4,3.1
	c-13.6,12.5-27.5,25.4-41.2,38.2c-1.4,1.2-2.9,2.6-4.3,3.9c-1,0.9-1.4,2.3-1.1,3.6c0.3,1.3,1.4,2.3,2.8,2.7c0.3,0.1,0.6,0.1,0.9,0.1
	c0.9,0,1.8-0.4,2.6-1.1c0.7-0.7,1.4-1.3,2.1-2v44.7h87V92.1c0.8,0.7,1.5,1.4,2.3,2.1l0,0c0.8,0.6,1.7,1,2.6,1c1.7,0,3.1-1.1,3.6-2.8
	C212.6,91.4,212.6,89.9,210.9,88.5z M189.5,49.7v18.8c-0.7-0.6-1.3-1.2-1.9-1.8l-0.3-0.3c-1.4-1.3-2.7-2.6-4-3.8l-0.1-0.1l0,0V49.7
	H189.5z M173.3,101.4c-1.1-1-2.7-1.6-4.6-1.6h-17.1c-4.3,0-7.3,3-7.3,7.3v22h-20.1V85.3c0-0.1,0.1-0.3,0.1-0.3
	c12.1-11.4,24.1-22.5,35.9-33.5c0.8,0.8,1.6,1.5,2.4,2.2c1,0.9,2,1.8,2.9,2.7c2.4,2.3,4.9,4.5,7.3,6.8c7.7,7.1,15.5,14.4,23.3,21.4
	c0.2,0.2,0.2,0.3,0.2,0.5V129h-20.2v-21.5C176.1,105,175.2,102.9,173.3,101.4z M151.9,107.7c0-0.1,0-0.2,0-0.2c0,0,0.1,0,0.2,0h16.5
	v21.8c-5.7,0-11.1,0-16.7,0.1V107.7z"/>
<g>
	<path class="st0" d="M309.5,299.3c-0.5-4.8-4.4-8.3-9-8.3c-0.8,0-1.5,0.1-2.3,0.3c-2.9,0.7-5.7,1.6-8.5,2.4
		c-2.5,0.7-5.1,1.5-7.6,2.2c-2.2,0.6-4.3,0.9-6.4,0.9c-4.3,0-8.3-1.2-12.3-3.8c1.8-0.8,3.5-1.6,5.2-2.5c5.2-2.6,5.2-6.6,4.2-9.4
		c-1-3.3-4-5.3-7.7-5.3c-0.4,0-0.8,0-1.3,0.1c-0.8,0.1-1.7,0.2-2.5,0.3c-4.1,0.5-8.3,1-12.4,1.3c-1.7,0.1-3.7,0.1-5.9,0.1
		c-1.7,0-3.4,0-5,0c-1.3,0-2.6,0-3.9,0V274c0-2.4-1.4-3.8-3.7-3.8h-0.2c-2.2,0-4.5,0-6.8,0c-1.8,0-3.5,0-4.9,0h-0.2
		c-1.4,0-3.8,0.5-3.8,4v37.1c0,1.2,0.3,2.2,1,2.9c0.7,0.7,1.7,1.1,2.9,1.1h0.1c0.9,0,1.8,0,2.8,0c0.9,0,1.8,0,2.8,0
		c0.9,0,1.8,0,2.8,0h0.8c0.5,0,0.9,0,1.3,0c4.5,0,5-1,5.2-5.2c0,0,0-0.1,0-0.1c0.2,0.1,0.4,0.2,0.7,0.2c1.9,0.7,3.8,1.4,5.7,2.1
		c4,1.5,8.2,3.1,12.3,4.4c3.8,1.3,7.6,2.1,11.3,2.5c1.1,0.1,2.3,0.2,3.5,0.2c4.2,0,8.4-0.8,13.2-2.5c4.2-1.5,8.3-3,12.5-4.5
		c3.1-1.1,6.2-2.2,9.2-3.3C307.2,307.5,309.9,303.6,309.5,299.3z M234.2,302.9c-0.1-5.5-0.1-11-0.1-16.3c0-0.9,0-1.8,0-2.7
		c1.3,0,2.6,0,3.9,0c1.7,0,3.3,0,4.9,0c1.5,0,2.8,0,4-0.1c4.8-0.3,9.6-0.8,14.2-1.3c1-0.1,2-0.2,3-0.3c0.3,0,0.7-0.1,1.1-0.1
		c1,0,1.3,0.3,1.6,0.8c0.2,0.3,0.3,0.7,0.2,1.1c-0.1,0.3-0.5,0.6-0.8,0.7c-0.8,0.3-1.6,0.7-2.4,1c-2,0.8-4,1.7-5.9,2.7
		c-1.3,0.7-2.8,2.1-3.1,3.6c-0.2,1.6,1.3,3.4,2.3,4.2c6.2,4.6,11.9,6.8,17.8,6.8c0.2,0,0.3,0,0.5,0c3-0.1,6.3-0.6,9.9-1.5
		c3.3-0.8,6.5-1.8,9.6-2.8c1.4-0.4,2.9-0.9,4.4-1.4c0.3-0.1,0.7-0.2,1-0.2c1.3,0,2.4,0.7,2.9,1.9c0.3,0.7,0.3,1.5-0.1,2.2
		c-0.3,0.7-0.9,1.2-1.7,1.5c-2,0.7-4,1.4-6,2.1c-6.9,2.5-14,5.1-21.1,7.3c-2.2,0.7-4.5,1-6.9,1c-3.6,0-7.4-0.7-11.7-2.3
		c-6.6-2.3-13.3-4.8-20.6-7.6C234.6,303.4,234.3,303.1,234.2,302.9z M227.5,276.7v32H221v-32C221,276.7,227.5,276.7,227.5,276.7z"/>
	<path class="st0" d="M281.6,275.8c0.2,0,0.3,0,0.5,0c12.7,0,23.3-10.4,23.6-23c0.2-6.5-2.1-12.6-6.5-17.2
		c-4.3-4.6-10.4-7.2-16.9-7.4c-0.2,0-0.4,0-0.6,0c-12.8,0-23.3,10.6-23.6,23.6C258,264.7,268.5,275.5,281.6,275.8z M282.1,269.5
		L282.1,269.5c-9.8-0.1-17.4-7.8-17.4-17.5c0-9.6,7.9-17.4,17.4-17.4h0.1c9.6,0,17.4,7.8,17.4,17.4c0,4.6-1.8,9-5.1,12.3
		C291.1,267.6,286.7,269.5,282.1,269.5z"/>
	<path class="st0" d="M287.8,251.7c-0.7-0.4-1.4-0.8-2.1-1c-0.8-0.3-1.6-0.4-2.4-0.6c-0.7-0.2-1.3-0.3-1.9-0.5
		c-0.6-0.2-1.1-0.5-1.4-0.8c-0.3-0.4-0.5-0.9-0.5-1.7l0,0c0-0.8,0.3-1.4,0.9-1.8c0.6-0.4,1.5-0.7,2.6-0.7c1.6,0,3.2,0.6,4.9,1.9
		l1.8-3.6c-1-0.7-2.1-1.4-3.2-1.7c-0.6-0.2-1.2-0.3-1.7-0.5v-2.7h-4.3v2.8c-1.3,0.3-2.3,0.8-3.1,1.5c-1.4,1.2-2,2.9-2,5.1l0,0
		c0,1.4,0.2,2.4,0.7,3.3s1,1.4,1.7,1.9c0.7,0.4,1.4,0.7,2.3,1s1.7,0.4,2.4,0.5c0.6,0.1,1.2,0.3,1.7,0.4c0.5,0.2,1,0.4,1.3,0.8
		c0.3,0.3,0.5,0.8,0.5,1.5l0,0c0,0.9-0.3,1.5-1,2c-0.7,0.5-1.6,0.7-2.8,0.7c-2.3,0-4.2-0.7-5.9-2.2l-2,3.5c0.4,0.5,1,0.9,1.8,1.4
		c0.9,0.4,1.8,0.8,2.9,1c0.5,0.1,1,0.2,1.5,0.3v2.6h4.3v-2.8c1.4-0.3,2.4-0.8,3.3-1.6c1.4-1.2,2.1-2.9,2.1-5.1v0
		c0-1.3-0.2-2.3-0.6-3.1C289,252.8,288.5,252.1,287.8,251.7z"/>
</g>
<g>
	<path class="st0" d="M513.7,655.4c-0.5-4.8-4.4-8.3-9-8.3c-0.8,0-1.5,0.1-2.3,0.3c-2.9,0.7-5.7,1.6-8.5,2.4
		c-2.5,0.7-5.1,1.5-7.6,2.2c-2.2,0.6-4.3,0.9-6.4,0.9c-4.3,0-8.3-1.2-12.3-3.8c1.8-0.8,3.5-1.6,5.2-2.5c5.2-2.6,5.2-6.6,4.2-9.4
		c-1-3.3-4-5.3-7.7-5.3c-0.4,0-0.8,0-1.3,0.1c-0.8,0.1-1.7,0.2-2.5,0.3c-4.1,0.5-8.3,1-12.4,1.3c-1.7,0.1-3.7,0.1-5.9,0.1
		c-1.7,0-3.4,0-5,0c-1.3,0-2.6,0-3.9,0v-3.5c0-2.4-1.4-3.8-3.7-3.8h-0.2c-2.2,0-4.5,0-6.8,0c-1.8,0-3.5,0-4.9,0h-0.2
		c-1.4,0-3.8,0.5-3.8,4v37.1c0,1.2,0.3,2.2,1,2.9c0.7,0.7,1.7,1.1,2.9,1.1h0.1c0.9,0,1.8,0,2.8,0s1.8,0,2.8,0c0.9,0,1.8,0,2.8,0h0.8
		c0.5,0,0.9,0,1.3,0c4.5,0,5-1,5.2-5.2c0,0,0-0.1,0-0.1c0.2,0.1,0.4,0.2,0.7,0.2c1.9,0.7,3.8,1.4,5.7,2.1c4,1.5,8.2,3.1,12.3,4.4
		c3.8,1.3,7.6,2.1,11.3,2.5c1.1,0.1,2.3,0.2,3.5,0.2c4.2,0,8.4-0.8,13.2-2.5c4.2-1.5,8.3-3,12.5-4.5c3.1-1.1,6.2-2.2,9.2-3.3
		C511.4,663.6,514.1,659.7,513.7,655.4z M438.4,659.1c-0.1-5.5-0.1-11-0.1-16.3c0-0.9,0-1.8,0-2.7c1.3,0,2.6,0,3.9,0
		c1.7,0,3.3,0,4.9,0c1.5,0,2.8,0,4-0.1c4.8-0.3,9.6-0.8,14.2-1.3c1-0.1,2-0.2,3-0.3c0.3,0,0.7-0.1,1.1-0.1c1,0,1.3,0.3,1.6,0.8
		c0.2,0.3,0.3,0.7,0.2,1.1c-0.1,0.3-0.5,0.6-0.8,0.7c-0.8,0.3-1.6,0.7-2.4,1c-2,0.8-4,1.7-5.9,2.7c-1.3,0.7-2.8,2.1-3.1,3.6
		c-0.2,1.6,1.3,3.4,2.3,4.2c6.2,4.6,11.9,6.8,17.8,6.8c0.2,0,0.3,0,0.5,0c3-0.1,6.3-0.6,9.9-1.5c3.3-0.8,6.5-1.8,9.6-2.8
		c1.4-0.4,2.9-0.9,4.4-1.4c0.3-0.1,0.7-0.2,1-0.2c1.3,0,2.4,0.7,2.9,1.9c0.3,0.7,0.3,1.5-0.1,2.2c-0.3,0.7-0.9,1.2-1.7,1.5
		c-2,0.7-4,1.4-6,2.1c-6.9,2.5-14,5.1-21.1,7.3c-2.2,0.7-4.5,1-6.9,1c-3.6,0-7.4-0.7-11.7-2.3c-6.6-2.3-13.3-4.8-20.6-7.6
		C438.8,659.5,438.5,659.2,438.4,659.1z M431.7,632.8v32h-6.5v-32C425.2,632.8,431.7,632.8,431.7,632.8z"/>
	<path class="st0" d="M485.8,631.9c0.2,0,0.3,0,0.5,0c12.7,0,23.3-10.4,23.6-23c0.2-6.5-2.1-12.6-6.5-17.2
		c-4.3-4.6-10.4-7.2-16.9-7.4c-0.2,0-0.4,0-0.6,0c-12.8,0-23.3,10.6-23.6,23.6C462.2,620.8,472.7,631.6,485.8,631.9z M486.3,625.6
		L486.3,625.6c-9.8-0.1-17.4-7.8-17.4-17.5c0-9.6,7.9-17.4,17.4-17.4h0.1c9.6,0,17.4,7.8,17.4,17.4c0,4.6-1.8,9-5.1,12.3
		C495.3,623.8,490.9,625.6,486.3,625.6z"/>
	<path class="st0" d="M492,607.8c-0.7-0.4-1.4-0.8-2.1-1c-0.8-0.3-1.6-0.4-2.4-0.6c-0.7-0.2-1.3-0.3-1.9-0.5s-1.1-0.5-1.4-0.8
		c-0.3-0.4-0.5-0.9-0.5-1.7l0,0c0-0.8,0.3-1.4,0.9-1.8c0.6-0.4,1.5-0.7,2.6-0.7c1.6,0,3.2,0.6,4.9,1.9l1.8-3.6
		c-1-0.7-2.1-1.4-3.2-1.7c-0.6-0.2-1.2-0.3-1.7-0.5V594h-4.3v2.8c-1.3,0.3-2.3,0.8-3.1,1.5c-1.4,1.2-2,2.9-2,5.1l0,0
		c0,1.4,0.2,2.4,0.7,3.3s1,1.4,1.7,1.9c0.7,0.4,1.4,0.7,2.3,1s1.7,0.4,2.4,0.5c0.6,0.1,1.2,0.3,1.7,0.4c0.5,0.2,1,0.4,1.3,0.8
		c0.3,0.3,0.5,0.8,0.5,1.5l0,0c0,0.9-0.3,1.5-1,2c-0.7,0.5-1.6,0.7-2.8,0.7c-2.3,0-4.2-0.7-5.9-2.2l-2,3.5c0.4,0.5,1,0.9,1.8,1.4
		c0.9,0.4,1.8,0.8,2.9,1c0.5,0.1,1,0.2,1.5,0.3v2.6h4.3v-2.8c1.4-0.3,2.4-0.8,3.3-1.6c1.4-1.2,2.1-2.9,2.1-5.1v0
		c0-1.3-0.2-2.3-0.6-3.1C493.2,608.9,492.7,608.2,492,607.8z"/>
</g>
<g>
	<path class="st0" d="M623.8,80c0-5.9-3.8-9.6-9.8-9.6h-5.3c-0.5,0-1,0-1.6,0c-0.5,0-1,0-1.6,0c-1.3,0-2.2,0-3.1,0
		c-1.8,0.1-3.1,1.2-3.2,3c-0.2,1.7,1,3.2,2.9,3.5h0h0c0.5,0,0.9,0,1.4,0c1.2,0,2.4,0,3.6,0s2.4,0,3.6,0s2.4,0,3.6,0
		c1.6,0,2.1,0.7,2.3,1.2c0.3,0.7,0.5,1.6,0.5,2.5c0,13,0,26.2,0,39c0,0.5,0,1-0.1,1.4c-0.3,1.6-1.2,2.3-2.7,2.3h-65.7
		c-2.3,0-3.3-0.9-3.3-3.1c0-13.3,0-26.8,0-40.1c0-2.1,1-3.1,3.1-3.1c1.2,0,2.4,0,3.7,0s2.5,0,3.7,0c1.2,0,2.5,0,3.7,0
		c2.4,0,3.9-1.3,3.9-3.3c0-0.9-0.3-1.6-0.9-2.2c-0.7-0.7-1.7-1.1-3-1.1h-10.8c-6.3,0-10,3.7-10,10c0,13.1,0,26.5,0,39.6
		c0,6.2,3.8,10,10,10h32.4c10.7,0,21.7,0,32.6,0c6,0,9.8-3.7,9.9-9.5C623.9,107,623.9,93.4,623.8,80z"/>
	<path class="st0" d="M568.4,80.8h26c2.2,0,3.5-1.2,3.6-3.4c0-0.6,0-1.2,0-1.8c0-0.3,0-0.6,0-0.9v-13c0-2.9-1.2-4.1-4-4.1
		c-0.5,0-1,0-1.6,0c-0.5,0-0.9,0-1.2,0c0,0-0.1,0-0.1,0s0,0,0,0c0,0-0.1-0.2-0.1-0.3c-1.5-3.9-5.2-6.5-9.4-6.5c-0.5,0-0.9,0-1.4,0.1
		c-4,0.5-6.7,2.8-8.3,6.7h-3.4c-3.2,0.1-3.6,2.2-3.6,3.5c-0.1,5.5,0,11,0,16.4C564.8,79.5,566.1,80.8,568.4,80.8z M577.9,60.4
		c0.2-2,1.6-3.4,3.5-3.4h0.1c1.7,0,3.2,1.4,3.4,3.4c0.3,2.6,1.5,3.6,4.1,3.7h2.3v10h-20c0-3.4,0-6.6,0-10c0,0,0,0,0.1,0
		c0.4,0,0.8,0,1.2,0c0.4,0,0.8,0,1.2,0C576.4,64.1,577.7,63,577.9,60.4z"/>
	<path class="st0" d="M559,108.4c0.3-0.1,0.5-0.2,0.7-0.2c0.3,0,0.6,0.1,1,0.6c0.6,0.8,1.3,1.4,1.9,2l0.2,0.2
		c0.9,0.8,1.9,1.2,2.9,1.2c1,0,1.9-0.4,2.9-1.3c0.3-0.3,0.6-0.6,0.9-0.9c0.5-0.5,1-1,1.5-1.4c0.2-0.2,0.6-0.3,0.9-0.3h0
		c1,0,1.7,0.7,1.7,1.9c0,0.5,0,1.1,0,1.7c0,0.7,0,1.5,0.1,2.3c0.2,1.6,1.3,2.6,2.9,2.6c1.7,0,2.9-1.1,2.9-2.7c0-2,0.1-4-0.3-6
		c-0.5-3.5-4.6-5.9-7.9-5.9c-2.1,0-3.7,0.9-4.8,2.4c-0.2,0.3-0.5,0.7-0.8,1c0,0-0.1-0.1-0.1-0.1c-0.3-0.4-0.7-0.7-0.9-1
		c-1.2-1.5-2.8-2.2-4.8-2.2c-0.2,0-0.5,0-0.8,0c-4,0.3-7,3.3-7.3,7.1c-0.1,1.2-0.1,2.4-0.1,4c0,2.1,1.1,3.3,2.9,3.4
		c1.9,0,3-1.3,3-3.4c0-0.3,0-0.6,0-0.9c0-0.9,0-1.7,0-2.5C557.8,109.2,558.3,108.6,559,108.4z"/>
	<path class="st0" d="M565.8,101.5L565.8,101.5c4.6,0,8.3-3.7,8.4-8.3c0-4.6-3.9-8.5-8.5-8.5c-2.2,0-4.3,0.9-5.9,2.5
		c-1.6,1.6-2.5,3.7-2.5,5.9C557.3,97.8,561.1,101.5,565.8,101.5z M568.1,93.1c0,0.7-0.2,1.3-0.7,1.7c-0.5,0.5-1.1,0.7-1.7,0.7h-0.1
		c-1.3,0-2.3-1-2.4-2.3c0-1.3,1.2-2.5,2.5-2.5C567,90.8,568.1,91.9,568.1,93.1z"/>
	<path class="st0" d="M609.8,87.5h-24.7c-2.2,0-3.6,1.3-3.7,3.2c0,0.9,0.3,1.7,0.8,2.3c0.7,0.7,1.7,1.1,2.9,1.1h24.5
		c0.7,0,1.4,0,2.2-0.4c1.3-0.6,1.9-2.1,1.6-3.6C613.1,88.9,612.2,87.5,609.8,87.5z"/>
	<path class="st0" d="M609.8,97.9h-9.5c-3.3,0-6.4,0-9.7,0c-3.5,0.1-3.7,2.6-3.7,3.4c0,1.9,1.6,3.3,3.7,3.3h19.2
		c2.2,0,3.8-1.4,3.8-3.4C613.5,99.5,612.3,97.9,609.8,97.9z"/>
	<path class="st0" d="M590.5,108.2c-1.2,0-2.2,0.4-2.9,1.1c-0.6,0.6-0.9,1.4-0.8,2.3v0c0.1,1.9,1.6,3.1,3.8,3.1h9.5
		c3.2,0,6.4,0,9.7,0c2.2,0,3.7-1.3,3.7-3.2c0-2-1.5-3.3-3.6-3.3L590.5,108.2L590.5,108.2L590.5,108.2z"/>
</g>
<g>
	<path class="st0" d="M208.8,444.6c0-7.2-4.3-11.4-11.5-11.4h-86.2c-7.2,0-11.4,4.3-11.4,11.4c0,17.5,0,35.2,0,52.7
		c0,6.9,4.4,11.3,11.4,11.3h86.4c7.1,0,11.3-4.2,11.3-11.3C208.8,479.8,208.8,462.1,208.8,444.6z M200.9,444.5c0,17.5,0,35.2,0,52.7
		c0,2.7-0.8,3.5-3.7,3.5h-85.9c-3,0-3.7-0.7-3.7-3.7v-52c0-3.1,0.7-3.8,3.9-3.8h86.1C200.1,441.1,200.9,441.9,200.9,444.5z"/>
	<path class="st0" d="M190.7,477.2c-0.2-1.3-1.5-2.2-2.4-2.9l-0.3-0.2c-0.3-0.2-0.7-0.3-1.2-0.3c-0.2,0-0.4,0-0.7,0
		c-0.2,0-0.3,0-0.4,0h-64.2c-0.1,0-0.3,0-0.4,0c-0.2,0-0.4,0-0.7,0c-0.5,0-0.9,0.1-1.2,0.3l-0.2,0.2c-1.1,0.8-2.5,1.8-2.5,3.1
		c0,1.3,1.2,2.5,2.5,3.5l0,0c0.5,0.4,1.1,0.4,1.6,0.4c0.2,0,0.4,0,0.7,0c0.2,0,0.3,0,0.5,0h63.7c0.1,0,0.3,0,0.5,0
		c0.2,0,0.4,0,0.6,0c0.6,0,1.2,0,1.8-0.5C188.8,480.6,191,478.9,190.7,477.2L190.7,477.2z"/>
	<path class="st0" d="M120.3,469.2c0.9,0,1.9,0,2.8,0c0.8,0,1.6,0,2.5,0s1.6,0,2.5,0c1.8,0,3.2,0,4.5,0h0.1c2.5,0,4-1.5,4.1-4
		c0.1-4.2,0.1-8.4,0-12.5c-0.1-3.6-2.5-4-4.3-4c-0.7,0-1.3,0-2,0c-0.7,0-1.3,0-2,0c-0.7,0-1.3,0-2,0c-0.7,0-1.4,0-2.1,0
		c-0.7,0-1.4,0-2.1,0c-0.7,0-1.4,0-2.1,0h-0.1c-2.5,0-4,1.5-4,4.1c0,4.1,0,8.2,0,12.3C116.2,467.8,117.6,469.2,120.3,469.2z
		 M124.7,456.1c0.6,0,1.3,0,1.9,0c1,0,1.9,0,2.6,0c0.1,0.1,0.1,0.1,0.2,0.2c0,1.5,0,3.1,0,4.7c0,0.2,0,0.5,0,0.7h-5.7v-5.6
		C124,456.1,124.3,456.1,124.7,456.1z"/>
	<path class="st0" d="M143.3,485.7c-2.6,0-5.1,0-7.7,0c-2.6,0-5.2,0-7.7,0c-2.6,0-5.2,0-7.7,0c-2.5,0-4,1.4-4,3.7
		c0,1.5,0.6,2.4,1.2,2.8c0.7,0.6,1.6,0.9,2.8,0.9h0.1c1.6,0,3.4,0,5.8,0c1,0,1.9,0,2.9,0c1,0,1.9,0,2.9,0c0.9,0,1.9,0,2.8,0
		c0.9,0,1.9,0,2.8,0c2.3,0,4,0,5.6,0h0.1c2.4,0,3.8-1.3,3.9-3.5c0-1.4-0.5-2.2-1-2.7C145.6,486.1,144.6,485.7,143.3,485.7z"/>
	<path class="st0" d="M187.1,448.8h-6.5c-2.1,0-4.3,0-6.5,0c-2.3,0-3.7,1.3-3.8,3.5c0,1,0.3,2,0.9,2.7c0.6,0.7,1.5,1,2.6,1.1
		c2.4,0,4.9,0.1,7.4,0.1c1.9,0,4,0,6,0c1.1,0,2.1-0.4,2.7-1.1c0.6-0.7,1-1.7,0.9-2.8C190.7,450.1,189.2,448.8,187.1,448.8z"/>
	<path class="st0" d="M166.2,485.7c-2,0-4,0-6,0c-2,0-4,0-6,0c-1.1,0-2.1,0.4-2.8,1.1c-0.6,0.7-1,1.6-0.9,2.7
		c0.1,2.1,1.6,3.5,3.9,3.5h5.8c0.6,0,1.3,0,1.9,0c0.6,0,1.3,0,1.9,0c0.6,0,1.3,0,1.9,0h0c2.3,0,3.7-1.3,3.7-3.6
		C169.7,487.2,168.3,485.8,166.2,485.7z"/>
</g>
<path class="st0" d="M343.9,64c0-2,0-3.9,0-5.7c0.1-3.9,2.4-6.4,6.3-6.5c9.7-0.1,19.3-0.1,29,0c3.9,0,6.2,2.6,6.3,6.5
	c0,1.8,0,3.7,0,5.7c1,0,1.7,0,2.5,0c6.2,0,12.4-0.1,18.6,0c6.7,0.1,11.9,5.2,12,11.9c0.1,16.7,0.1,33.4,0,50.1
	c0,6.2-5.4,11.3-11.7,11.5c-0.5,0-1,0-1.5,0c-27.2,0-54.4,0-81.7,0c-8,0-13.1-5-13.1-13c0-16,0-32.1,0-48.1
	c0-7.1,5.1-12.3,12.2-12.4c6.2-0.1,12.3,0,18.4,0C342.2,64,342.9,64,343.9,64z M336.7,71.5c0,19.5,0,39,0,58.6c18.8,0,37.5,0,56.2,0
	c0-19.6,0-39,0-58.6C374.1,71.5,355.5,71.5,336.7,71.5z M329,71.4c-1.7,0-3.1,0-4.6,0c-4.8,0-6.3,1.5-6.3,6.3c0,15.4,0,30.8,0,46.2
	c0,0.7,0,1.4,0.1,2.1c0.3,2.2,1.8,4,4,4.2c2.2,0.2,4.5,0,6.8,0C329,110.6,329,91.1,329,71.4z M400.5,71.4c0,19.7,0,39.2,0,58.8
	c1.5,0,2.8,0,4.2,0c5.2,0,6.7-1.5,6.7-6.6c0-15.2,0-30.4,0-45.6c0-0.8,0-1.6-0.1-2.5c-0.3-2.4-2-4-4.4-4.2
	C404.8,71.4,402.7,71.4,400.5,71.4z M378.1,59.2c-9,0-17.8,0-26.8,0c0,1.6,0,3.1,0,4.6c9,0,17.8,0,26.8,0
	C378.1,62.3,378.1,60.8,378.1,59.2z"/>
<path class="st0" d="M554.6,443.4c0-2,0-3.9,0-5.7c0.1-3.9,2.4-6.4,6.3-6.5c9.7-0.1,19.3-0.1,29,0c3.9,0,6.2,2.6,6.3,6.5
	c0,1.8,0,3.7,0,5.7c1,0,1.7,0,2.5,0c6.2,0,12.4-0.1,18.6,0c6.7,0.1,11.9,5.2,12,11.9c0.1,16.7,0.1,33.4,0,50.1
	c0,6.2-5.4,11.3-11.7,11.5c-0.5,0-1,0-1.5,0c-27.2,0-54.4,0-81.7,0c-8,0-13.1-5-13.1-13c0-16,0-32.1,0-48.1
	c0-7.1,5.1-12.3,12.2-12.4c6.2-0.1,12.3,0,18.4,0C552.8,443.4,553.6,443.4,554.6,443.4z M547.3,450.9c0,19.5,0,39,0,58.6
	c18.8,0,37.5,0,56.2,0c0-19.6,0-39,0-58.6C584.7,450.9,566.1,450.9,547.3,450.9z M539.7,450.8c-1.7,0-3.1,0-4.6,0
	c-4.8,0-6.3,1.5-6.3,6.3c0,15.4,0,30.8,0,46.2c0,0.7,0,1.4,0.1,2.1c0.3,2.2,1.8,4,4,4.2c2.2,0.2,4.5,0,6.8,0
	C539.7,489.9,539.7,470.5,539.7,450.8z M611.1,450.8c0,19.7,0,39.2,0,58.8c1.5,0,2.8,0,4.2,0c5.2,0,6.7-1.5,6.7-6.6
	c0-15.2,0-30.4,0-45.6c0-0.8,0-1.6-0.1-2.5c-0.3-2.4-2-4-4.4-4.2C615.4,450.7,613.4,450.8,611.1,450.8z M588.7,438.6
	c-9,0-17.8,0-26.8,0c0,1.6,0,3.1,0,4.6c9,0,17.8,0,26.8,0C588.7,441.6,588.7,440.2,588.7,438.6z"/>
<g>
	<path class="st0" d="M433,300.1c0-11.1,0-21.9,0-32.9c-2.3,0-4.5,0-6.8,0c-2.7,0-4.2-1-4.9-3c-0.6-1.9,0.2-3.5,2.4-5
		c15.3-10.5,30.6-21,46-31.4c2.1-1.4,3.5-1.4,5.6,0c15.4,10.5,30.7,21,46.1,31.5c2.1,1.4,2.8,3.1,2.3,4.9c-0.6,2-2.2,3.1-4.8,3.1
		c-2.2,0-4.4,0-6.7,0c0,10.9,0,21.8,0,32.9c0.8,0,1.6,0,2.5,0c2.2,0.1,3.9,1.8,3.9,4c0,2.2-1.6,3.9-3.8,4.1c-0.6,0-1.2,0-1.8,0
		c-26.9,0-53.7,0-80.6,0c-0.7,0-1.5,0-2.2,0c-2.1-0.3-3.6-2.1-3.5-4.2c0.1-2,1.7-3.7,3.7-3.8C431.2,300,432,300.1,433,300.1z
		 M506.2,258.7c-0.7-0.5-1-0.7-1.3-0.9c-10.4-7.1-20.8-14.2-31.1-21.3c-1-0.7-1.6-0.5-2.6,0.1c-10.2,7-20.5,14-30.7,21
		c-0.4,0.3-0.8,0.6-1.5,1.2C461.5,258.7,483.6,258.7,506.2,258.7z M459.2,267.2c0,10.9,0,21.8,0,32.7c3.2,0,6.2,0,9.2,0
		c0-10.9,0-21.8,0-32.7C465.3,267.2,462.3,267.2,459.2,267.2z M476.8,267.2c0,11,0,21.8,0,32.7c3.1,0,6.1,0,9.2,0
		c0-10.9,0-21.8,0-32.7C482.9,267.2,479.9,267.2,476.8,267.2z M450.7,299.9c0-10.9,0-21.8,0-32.7c-3.2,0-6.2,0-9.1,0
		c0,11,0,21.8,0,32.7C444.6,299.9,447.6,299.9,450.7,299.9z M503.6,267.2c-3.1,0-6.1,0-9.2,0c0,11,0,21.8,0,32.7c3.2,0,6.1,0,9.2,0
		C503.6,289,503.6,278.1,503.6,267.2z"/>
	<path class="st0" d="M472.6,322.6c-16.1,0-32.2,0-48.4,0c-0.7,0-1.5,0-2.2-0.1c-2.2-0.3-3.7-1.9-3.7-4.1c0-2.1,1.5-3.8,3.7-4
		c0.5,0,1,0,1.5,0c32.7,0,65.3,0,98,0c0.9,0,1.8,0.1,2.7,0.4c1.7,0.6,2.7,2.3,2.6,4c-0.1,1.8-1.4,3.3-3.3,3.6
		c-0.8,0.1-1.7,0.1-2.6,0.1C504.8,322.6,488.7,322.6,472.6,322.6z"/>
</g>
<g>
	<path class="st0" d="M17.9,664.9c0-11.1,0-21.9,0-32.9c-2.3,0-4.5,0-6.8,0c-2.7,0-4.2-1-4.9-3c-0.6-1.9,0.2-3.5,2.4-5
		c15.3-10.5,30.6-21,46-31.4c2.1-1.4,3.5-1.4,5.6,0c15.4,10.5,30.7,21,46.1,31.5c2.1,1.4,2.8,3.1,2.3,4.9c-0.6,2-2.2,3.1-4.8,3.1
		c-2.2,0-4.4,0-6.7,0c0,10.9,0,21.8,0,32.9c0.8,0,1.6,0,2.5,0c2.2,0.1,3.9,1.8,3.9,4c0,2.2-1.6,3.9-3.8,4.1c-0.6,0-1.2,0-1.8,0
		c-26.9,0-53.7,0-80.6,0c-0.7,0-1.5,0-2.2,0c-2.1-0.3-3.6-2.1-3.5-4.2c0.1-2,1.7-3.7,3.7-3.8C16,664.9,16.8,664.9,17.9,664.9z
		 M91,623.6c-0.7-0.5-1-0.7-1.3-0.9c-10.4-7.1-20.8-14.2-31.1-21.3c-1-0.7-1.6-0.5-2.6,0.1c-10.2,7-20.5,14-30.7,21
		c-0.4,0.3-0.8,0.6-1.5,1.2C46.4,623.6,68.4,623.6,91,623.6z M44,632.1c0,10.9,0,21.8,0,32.7c3.2,0,6.2,0,9.2,0
		c0-10.9,0-21.8,0-32.7C50.1,632.1,47.1,632.1,44,632.1z M61.6,632.1c0,11,0,21.8,0,32.7c3.1,0,6.1,0,9.2,0c0-10.9,0-21.8,0-32.7
		C67.7,632.1,64.7,632.1,61.6,632.1z M35.5,664.8c0-10.9,0-21.8,0-32.7c-3.2,0-6.2,0-9.1,0c0,11,0,21.8,0,32.7
		C29.4,664.8,32.4,664.8,35.5,664.8z M88.5,632.1c-3.1,0-6.1,0-9.2,0c0,11,0,21.8,0,32.7c3.2,0,6.1,0,9.2,0
		C88.5,653.8,88.5,643,88.5,632.1z"/>
	<path class="st0" d="M57.4,687.5c-16.1,0-32.2,0-48.4,0c-0.7,0-1.5,0-2.2-0.1c-2.2-0.3-3.7-1.9-3.7-4.1c0-2.1,1.5-3.8,3.7-4
		c0.5,0,1,0,1.5,0c32.7,0,65.3,0,98,0c0.9,0,1.8,0.1,2.7,0.4c1.7,0.6,2.7,2.3,2.6,4c-0.1,1.8-1.4,3.3-3.3,3.6
		c-0.8,0.1-1.7,0.1-2.6,0.1C89.6,687.5,73.5,687.5,57.4,687.5z"/>
</g>
<g>
	<path class="st0" d="M98.1,246.8c-9.2-9.3-21.4-14.4-34.4-14.5h-0.1c-13,0-25.3,5-34.5,14.2c-9.2,9.1-14.4,21.3-14.4,34.2
		c-0.1,13.2,5,25.5,14.2,34.8c9.2,9.2,21.4,14.3,34.4,14.4h0.2c13,0,25.3-5.1,34.5-14.2s14.3-21.4,14.3-34.5
		C112.3,268.2,107.3,256,98.1,246.8z M40.3,314.4c2.8-8.4,6.6-14.2,12.1-18c3.6-2.6,7.4-3.9,11.3-3.9c4.8,0,9.5,2.1,13.5,6
		c4,4,7.1,9.1,9.3,15.6c0.2,0.6,0.2,0.8-0.5,1.2c-6.9,4.5-14.6,6.7-24.2,6.8c-7.1-0.1-14.6-2.5-20.9-6.8
		C40.2,314.8,40.2,314.7,40.3,314.4z M87.3,298.2c-3.9-5.5-8.3-9.1-13.4-11.3c-3.6-1.6-7.3-2.3-10.7-2.3c-6.1,0-12,2.3-17.5,7
		c-4.5,3.8-8.2,8.9-11,15.5c-0.1,0.3-0.3,0.6-0.4,1c-0.1,0.4-0.3,0.7-0.4,1.1c-7-7-11.1-17-11.3-27.5c-0.2-11,4-21.5,11.9-29.4
		c7.7-7.8,18-12.1,29-12.1c12.1,0,23.6,5.3,31.4,14.7c14.8,17.5,11,41.9-1.7,54.3C91.4,304.7,89.5,301.2,87.3,298.2z"/>
	<path class="st0" d="M64,248.3h-0.2c-9.6,0.1-17.1,7.5-17.1,16.8c0,9.2,7.5,16.7,16.7,16.7c4.4,0,8.7-1.7,11.8-4.9
		c3.2-3.2,4.9-7.4,4.9-12C80.1,255.9,72.7,248.3,64,248.3z M54.6,264.9c0.1-4.8,3.9-8.7,8.7-8.7c0.1,0,0.1,0,0.2,0
		c2.5,0,4.9,1,6.6,2.8c1.6,1.7,2.5,3.9,2.4,6.2c-0.2,4.9-4,8.7-9,8.7c-0.1,0-0.1,0-0.2,0C58.4,273.8,54.5,269.8,54.6,264.9z"/>
</g>
<g>
	<path class="st0" d="M303.4,598.5c-9.2-9.3-21.4-14.4-34.4-14.5h-0.1c-13,0-25.3,5-34.5,14.2c-9.2,9.1-14.4,21.3-14.4,34.2
		c-0.1,13.2,5,25.5,14.2,34.8c9.2,9.2,21.4,14.3,34.4,14.4h0.2c13,0,25.3-5.1,34.5-14.2s14.3-21.4,14.3-34.5
		C317.6,619.9,312.5,607.7,303.4,598.5z M245.5,666.1c2.8-8.4,6.6-14.2,12.1-18c3.6-2.6,7.4-3.9,11.3-3.9c4.8,0,9.5,2.1,13.5,6
		c4,4,7.1,9.1,9.3,15.6c0.2,0.6,0.2,0.8-0.5,1.2c-6.9,4.5-14.6,6.7-24.2,6.8c-7.1-0.1-14.6-2.5-20.9-6.8
		C245.4,666.5,245.4,666.5,245.5,666.1z M292.5,649.9c-3.9-5.5-8.3-9.1-13.4-11.3c-3.6-1.6-7.3-2.3-10.7-2.3c-6.1,0-12,2.3-17.5,7
		c-4.5,3.8-8.2,8.9-11,15.5c-0.1,0.3-0.3,0.6-0.4,1c-0.1,0.4-0.3,0.7-0.4,1.1c-7-7-11.1-17-11.3-27.5c-0.2-11,4-21.5,11.9-29.4
		c7.7-7.8,18-12.1,29-12.1c12.1,0,23.6,5.3,31.4,14.7c14.8,17.5,11,41.9-1.7,54.3C296.6,656.5,294.7,653,292.5,649.9z"/>
	<path class="st0" d="M269.2,600h-0.2c-9.6,0.1-17.1,7.5-17.1,16.8c0,9.2,7.5,16.7,16.7,16.7c4.4,0,8.7-1.7,11.8-4.9
		c3.2-3.2,4.9-7.4,4.9-12C285.3,607.7,277.9,600,269.2,600z M259.8,616.6c0.1-4.8,3.9-8.7,8.7-8.7c0.1,0,0.1,0,0.2,0
		c2.5,0,4.9,1,6.6,2.8c1.6,1.7,2.5,3.9,2.4,6.2c-0.2,4.9-4,8.7-9,8.7c-0.1,0-0.1,0-0.2,0C263.6,625.5,259.7,621.5,259.8,616.6z"/>
</g>
</svg>
