<?xml version="1.0" encoding="utf-8"?>
<!-- Generator: Adobe Illustrator 22.1.0, SVG Export Plug-In . SVG Version: 6.00 Build 0)  -->
<svg version="1.1" id="Layer_1" xmlns="http://www.w3.org/2000/svg" xmlns:xlink="http://www.w3.org/1999/xlink" x="0px" y="0px"
	 viewBox="0 0 220 194.8" style="enable-background:new 0 0 220 194.8;" xml:space="preserve">
<style type="text/css">
	.st0{fill:#BABABA;}
</style>
<g>
	<path class="st0" d="M29.8,149c0-22.5,0-44.4,0-66.8c-4.6,0-9.2,0-13.7,0c-5.5,0-8.6-2-9.9-6.1c-1.2-3.8,0.4-7.2,4.9-10.2
		c31.1-21.2,62.1-42.5,93.2-63.7c4.2-2.9,7.1-2.9,11.3-0.1c31.2,21.3,62.3,42.6,93.5,63.9c4.2,2.8,5.7,6.3,4.7,10
		c-1.2,4.1-4.4,6.2-9.8,6.2c-4.4,0-8.9,0-13.6,0c0,22.2,0,44.2,0,66.8c1.6,0,3.3-0.1,5,0c4.5,0.2,7.9,3.7,8,8.2
		c0.1,4.4-3.2,8-7.8,8.4c-1.2,0.1-2.5,0.1-3.7,0.1c-54.5,0-109,0-163.5,0c-1.5,0-3,0.1-4.5-0.1c-4.3-0.6-7.3-4.3-7.1-8.6
		c0.2-4.1,3.4-7.5,7.5-7.8C26,148.9,27.7,149,29.8,149z M178.1,65.2c-1.4-1.1-2-1.5-2.6-1.9c-21-14.4-42.1-28.7-63-43.2
		c-2.1-1.4-3.3-1.1-5.2,0.2C86.6,34.5,65.8,48.6,45.1,62.8c-0.8,0.6-1.6,1.3-3,2.4C87.6,65.2,132.3,65.2,178.1,65.2z M82.8,82.3
		c0,22.1,0,44.2,0,66.3c6.4,0,12.5,0,18.6,0c0-22.2,0-44.2,0-66.3C95.2,82.3,89.2,82.3,82.8,82.3z M118.5,82.3c0,22.3,0,44.3,0,66.4
		c6.3,0,12.4,0,18.7,0c0-22.2,0-44.3,0-66.4C130.9,82.3,124.9,82.3,118.5,82.3z M65.6,148.7c0-22.2,0-44.3,0-66.3
		c-6.4,0-12.5,0-18.5,0c0,22.3,0,44.2,0,66.3C53.3,148.7,59.4,148.7,65.6,148.7z M173,82.4c-6.3,0-12.4,0-18.6,0
		c0,22.3,0,44.3,0,66.3c6.4,0,12.4,0,18.6,0C173,126.5,173,104.5,173,82.4z"/>
	<path class="st0" d="M110,194.8c-32.7,0-65.4,0-98.1,0c-1.5,0-3,0-4.4-0.2C3,194,0,190.7,0,186.3c0-4.2,3.1-7.7,7.6-8.2
		c1-0.1,2-0.1,3-0.1c66.3,0,132.5,0,198.8,0c1.8,0,3.7,0.2,5.4,0.8c3.5,1.2,5.5,4.6,5.2,8.2c-0.3,3.7-2.9,6.7-6.7,7.4
		c-1.7,0.3-3.4,0.3-5.2,0.3C175.4,194.8,142.7,194.8,110,194.8z"/>
</g>
</svg>
