<?xml version="1.0" encoding="utf-8"?>
<!-- Generator: Adobe Illustrator 22.1.0, SVG Export Plug-In . SVG Version: 6.00 Build 0)  -->
<svg version="1.1" id="Layer_1" xmlns="http://www.w3.org/2000/svg" xmlns:xlink="http://www.w3.org/1999/xlink" x="0px" y="0px"
	 viewBox="0 0 339.1 162.6" style="enable-background:new 0 0 339.1 162.6;" xml:space="preserve">
<style type="text/css">
	.st0{fill:#BABABA;}
</style>
<g>
	<path class="st0" d="M280.9,29.5c0,0-2.3,6.7-9.7,6.6L132.9,36c-5.2,0-11.7,4.3-14.3,9.6L98.9,84.2h-9.3c-5.2,0-11.7,4.3-14.3,9.6
		l-20,39.2h2.8c0,0,2.3-6.7,9.7-6.6l138.2,0.1c5.3,0,11.7-4.3,14.3-9.6L240,78.2h9.3c5.2,0,11.7-4.3,14.3-9.6l20-39.2h-2.7V29.5z
		 M228,84.4h-39.2l-4.9,2.1l4.8,25L163,98.2l-35.1,9.6l20.6-20.2l-5-3.2h-41.9c0.7-1.6,3.4-6.1,9.6-6.1h46.7l20.5-20.1l3.9,20.1
		l55.2,0.1C236.8,79.9,234.2,84.4,228,84.4z"/>
	<path class="st0" d="M252.6,0.1L252.6,0.1L132.9,0c-18.7,0-37.8,12.1-46.4,29.3L75.7,50.4c-13.7,4.2-26,14.2-32.5,27.1L0,162.5
		h86.5l0,0h8.8l0,0l0,0l110.8,0.1c19,0,37.7-11.8,46.4-29.3l10.7-21.1c13.7-4.2,26.1-14.3,32.5-27.1l43.2-85
		C338.9,0.1,252.6,0.1,252.6,0.1z M279.8,76.9c-5.4,10.7-17.2,18.6-28.6,19.4l-14.7,28.9c-5.8,11.5-18.2,19.4-30.4,19.4L81,144.5
		l0,0l0,0h-7.7l0,0h-44l29.9-58.8C64.6,75,76.4,67.1,87.8,66.3l14.7-28.9C108.2,26.2,121,18,132.9,18l132.8,0.1l0,0h44L279.8,76.9z"
		/>
</g>
</svg>
