<?xml version="1.0" encoding="utf-8"?>
<!-- Generator: Adobe Illustrator 22.1.0, SVG Export Plug-In . SVG Version: 6.00 Build 0)  -->
<svg version="1.1" id="Layer_1" xmlns="http://www.w3.org/2000/svg" xmlns:xlink="http://www.w3.org/1999/xlink" x="0px" y="0px"
	 viewBox="0 0 270.3 270.3" style="enable-background:new 0 0 270.3 270.3;" xml:space="preserve">
<style type="text/css">
	.st0{fill:#BABABA;}
</style>
<g>
	<path class="st0" d="M231.2,40.1c-25.5-25.7-59.4-40-95.3-40.1h-0.4c-36,0-70,13.9-95.5,39.2C14.4,64.5,0.2,98.2,0,134
		c-0.2,36.5,13.8,70.7,39.3,96.5c25.4,25.6,59.2,39.7,95.2,39.8h0.6c36.1,0,70.1-14,95.5-39.4s39.5-59.3,39.7-95.6
		C270.5,99.5,256.6,65.7,231.2,40.1z M71,227.4c7.8-23.4,18.4-39.3,33.4-49.9c10-7.1,20.5-10.7,31.3-10.7c13.4,0,26.3,5.7,37.4,16.5
		c11.2,11,19.7,25.1,25.8,43.3c0.5,1.6,0.5,2.1-1.4,3.3c-19.2,12.5-40.5,18.5-67,18.7c-19.8-0.3-40.4-7-58-18.8
		C70.6,228.6,70.6,228.4,71,227.4z M201.1,182.5c-10.9-15.1-23-25.3-37-31.3c-10.1-4.3-20.1-6.4-29.7-6.4
		c-16.8,0-33.2,6.5-48.6,19.4c-12.6,10.6-22.6,24.6-30.4,42.8c-0.4,0.9-0.7,1.8-1.1,2.8c-0.4,1-0.8,2-1.2,3.1
		c-19.4-19.4-30.7-47-31.2-76.2C21.4,106.1,33,77.2,54.8,55.2c21.4-21.6,49.8-33.6,80.2-33.6c33.6,0,65.3,14.8,87.1,40.6
		c40.9,48.5,30.6,116.1-4.6,150.5C212.4,200.7,207.2,191,201.1,182.5z"/>
	<path class="st0" d="M136.7,44.4h-0.5C109.5,44.6,88.7,65.1,88.8,91c0.1,25.5,20.9,46.2,46.3,46.2c12.3,0,24-4.8,32.7-13.6
		c8.8-8.9,13.6-20.6,13.6-33.1C181.3,65.5,160.8,44.4,136.7,44.4z M110.5,90.4c0.2-13.4,10.9-24.2,24-24.2c0.2,0,0.3,0,0.5,0
		c7,0.1,13.5,2.9,18.2,7.8c4.5,4.7,6.8,10.8,6.7,17.3c-0.5,13.7-11.1,24-24.8,24c-0.2,0-0.4,0-0.5,0
		C121.1,115,110.3,103.9,110.5,90.4z"/>
</g>
</svg>
