<?xml version="1.0" encoding="utf-8"?>
<!-- Generator: Adobe Illustrator 22.1.0, SVG Export Plug-In . SVG Version: 6.00 Build 0)  -->
<svg version="1.1" id="Layer_1" xmlns="http://www.w3.org/2000/svg" xmlns:xlink="http://www.w3.org/1999/xlink" x="0px" y="0px"
	 viewBox="0 0 272.3 272.3" style="enable-background:new 0 0 272.3 272.3;" xml:space="preserve">
<style type="text/css">
	.st0{fill:#1A468D;}
</style>
<g>
	<path class="st0" d="M232.9,40.4C207.2,14.4,173,0.1,136.8,0l-0.4,0C100.1,0,66,14,40.2,39.5C14.5,65,0.2,98.9,0,135
		c-0.2,36.7,13.9,71.2,39.6,97.2c25.6,25.8,59.6,40,95.9,40.1l0.6,0c36.4,0,70.6-14.1,96.2-39.7c25.6-25.6,39.8-59.8,40-96.3
		C272.5,100.3,258.5,66.2,232.9,40.4z M72.8,229.1c0-0.1,0-0.2,0.1-0.4c7.7-23.2,18.2-38.9,33-49.4c9.8-7,20.2-10.5,30.7-10.5
		c13.1,0,25.8,5.6,36.7,16.2c11.1,10.9,19.5,24.9,25.5,42.9c0.4,1.2,0.4,1.3-1,2.1c-19.1,12.4-40.2,18.3-66.4,18.5
		c-19.6-0.3-40-6.9-57.5-18.6C73.7,229.8,73.1,229.4,72.8,229.1z M202.9,182.9c-11-15.2-23.2-25.6-37.5-31.6
		c-10.2-4.3-20.3-6.5-30.1-6.5c-17.1,0-33.6,6.6-49.3,19.7c-12.8,10.7-22.8,24.8-30.7,43.2c-0.4,0.9-1.6,3.9-1.8,4.5
		c-18.5-19.2-29.4-46-29.9-74.4c-0.5-30.3,11-59,32.6-80.8c21.2-21.4,49.4-33.3,79.5-33.3c33.3,0,64.7,14.7,86.3,40.3
		c40.1,47.5,30.6,113.7-3.5,148.1C213.9,200.5,208.8,191.1,202.9,182.9z"/>
	<path class="st0" d="M137.7,36.4l-0.5,0C109.9,36.6,88.7,57.5,88.8,84c0.1,26,21.3,47.2,47.3,47.2c12.6,0,24.5-4.9,33.4-13.9
		c9-9,13.9-21,13.9-33.8C183.3,58,162.4,36.4,137.7,36.4z M112.5,83.4c0.2-12.8,10.5-23.2,23-23.2l0.5,0c6.8,0.1,13,2.8,17.5,7.5
		c4.3,4.5,6.6,10.4,6.4,16.6c-0.4,13.1-10.7,23-23.8,23c-0.2,0-0.3,0-0.5,0C122.6,107,112.3,96.3,112.5,83.4z"/>
</g>
</svg>
