<?xml version="1.0" encoding="utf-8"?>
<!-- Generator: Adobe Illustrator 22.1.0, SVG Export Plug-In . SVG Version: 6.00 Build 0)  -->
<svg version="1.1" id="Layer_1" xmlns="http://www.w3.org/2000/svg" xmlns:xlink="http://www.w3.org/1999/xlink" x="0px" y="0px"
	 viewBox="0 0 219.3 204.6" style="enable-background:new 0 0 219.3 204.6;" xml:space="preserve">
<style type="text/css">
	.st0{fill:#BABABA;}
</style>
<g>
	<path class="st0" d="M219.2,75.6c-0.1-15.2-9.8-24.7-25.4-24.8h-13.7c-1.3,0-2.7,0-4,0s-2.7,0-4,0c-3.3,0-5.8,0-8.1,0.1
		c-4.7,0.2-7.9,3.1-8.3,7.7c-0.5,4.5,2.7,8.3,7.5,9.1h0.1h0.1c1.2,0.1,2.4,0.1,3.6,0.1c3.1,0,6.1,0,9.2,0c3.1,0,6.2,0,9.3,0
		s6.2,0,9.3,0c4,0,5.4,1.8,6,3c0.8,1.7,1.3,4.1,1.3,6.5c0.1,33.6,0.1,67.7,0.1,100.6c0,1.3,0,2.6-0.2,3.6c-0.7,4-3,6-7,6H25.4
		c-5.9,0-8.4-2.4-8.4-8c-0.1-34.3-0.1-69.1,0-103.5c0-5.5,2.6-8,8.1-8c3.2,0,6.3,0,9.5,0c3.2,0,6.4,0,9.6,0c3.2,0,6.4,0,9.5,0
		c6.1,0,10-3.3,10-8.4c0.1-2.2-0.7-4.2-2.2-5.8C59.7,52,57,51,53.8,51H26C9.8,51,0.1,60.6,0.1,76.7C0,110.6,0,145,0.1,178.8
		c0,15.9,9.9,25.8,25.9,25.8h83.5c27.6,0,56.1,0,84.2-0.1c15.4,0,25.4-9.6,25.5-24.6C219.4,145.3,219.4,110.2,219.2,75.6z"/>
	<path class="st0" d="M76.1,77.6h67.1c5.6,0,9-3.1,9.4-8.9c0.1-1.6,0-3.1,0-4.7c0-0.7,0-1.5,0-2.2V28.2c0-7.4-3.1-10.6-10.4-10.6
		c-1.3-0.1-2.7-0.1-4.1-0.1c-1.2,0-2.2,0-3.2,0.1c-0.1,0-0.2,0-0.3,0s-0.1,0-0.1,0c-0.1-0.1-0.2-0.4-0.3-0.8
		C130.4,6.8,120.7,0,109.9,0c-1.2,0-2.4,0.1-3.6,0.3C96.1,1.7,88.9,7.5,85,17.5h-8.7c-8.2,0.2-9.4,5.7-9.4,9
		c-0.2,14.2-0.1,28.5,0,42.3C66.9,74.3,70.4,77.6,76.1,77.6z M100.8,25.1c0.5-5.2,4.1-8.8,8.9-8.9h0.3c4.5,0,8.2,3.7,8.9,8.9
		c0.8,6.7,3.8,9.4,10.7,9.6h6v25.7H84c0-8.7,0-17.1,0.1-25.7c0.1,0,0.1,0,0.2,0c1,0,2.1,0,3.1,0c1.1,0,2.1,0,3.1,0
		C96.9,34.5,100.1,31.6,100.8,25.1z"/>
	<path class="st0" d="M52.1,148.7c0.7-0.2,1.3-0.4,1.9-0.4c0.7,0,1.6,0.2,2.6,1.5c1.5,2,3.3,3.6,5,5.1l0.6,0.5
		c2.4,2.1,4.9,3.2,7.4,3.2c2.6,0,5-1.1,7.4-3.3c0.8-0.8,1.5-1.5,2.3-2.3c1.3-1.3,2.5-2.6,3.9-3.7c0.5-0.5,1.5-0.8,2.2-0.8h0.1
		c2.6,0.1,4.3,1.8,4.4,4.8c0.1,1.4,0.1,2.8,0.1,4.3c0,1.9,0,3.8,0.2,5.9c0.4,4,3.4,6.7,7.5,6.7c4.3,0,7.4-2.8,7.5-6.9
		c0.1-5.1,0.2-10.4-0.7-15.6c-1.4-9-11.9-15.2-20.5-15.2c-5.3,0-9.6,2.2-12.3,6.2c-0.6,0.8-1.2,1.7-2,2.7c-0.1-0.1-0.2-0.2-0.2-0.2
		c-0.9-1-1.7-1.8-2.4-2.6c-3-3.9-7.1-5.8-12.5-5.8c-0.6,0-1.3,0-2,0.1c-10.2,0.8-18,8.4-18.9,18.3c-0.2,3-0.3,6.2-0.2,10.3
		c0,5.3,2.8,8.6,7.5,8.7c4.8,0,7.7-3.3,7.8-8.9c0-0.7,0-1.5,0-2.2c0-2.2,0-4.3,0.1-6.4C49,150.8,50.1,149.4,52.1,148.7z"/>
	<path class="st0" d="M69.4,131.1h0.2c11.7,0,21.3-9.6,21.4-21.4c0-11.9-10-21.9-21.8-21.9c-5.7,0.1-11.1,2.4-15.2,6.5
		c-4.1,4.2-6.4,9.6-6.4,15.2C47.7,121.5,57.4,131.1,69.4,131.1z M75.4,109.4c0,1.7-0.6,3.3-1.7,4.5c-1.2,1.2-2.8,1.8-4.5,1.8H69
		c-3.3,0-6-2.7-6.1-6c0-3.4,3.1-6.4,6.5-6.4C72.6,103.4,75.4,106.2,75.4,109.4z"/>
	<path class="st0" d="M183,95h-63.7c-5.6,0-9.4,3.3-9.6,8.3c-0.1,2.3,0.7,4.4,2.1,5.9c1.7,1.9,4.3,2.8,7.5,2.8h63.3
		c1.7,0,3.7-0.1,5.6-1.1c3.4-1.6,4.9-5.3,4-9.4C191.5,98.6,189.3,95,183,95z"/>
	<path class="st0" d="M183,121.8h-24.6c-8.5,0-16.6,0-25-0.1c-8.9,0.2-9.6,6.6-9.6,8.7c0.1,5,4,8.4,9.6,8.4h49.5
		c5.8,0,9.7-3.5,9.7-8.7C192.6,125.9,189.6,121.8,183,121.8z"/>
	<path class="st0" d="M133.3,148.4c-3.1,0-5.6,1-7.4,2.8c-1.5,1.6-2.2,3.7-2.1,6v0.1c0.3,4.8,4.1,7.9,9.8,7.9h24.6
		c8.2,0,16.6,0,25-0.1c5.8,0,9.5-3.3,9.5-8.3c0-5.1-3.8-8.5-9.4-8.5h-50L133.3,148.4L133.3,148.4z"/>
</g>
</svg>
