<?xml version="1.0" encoding="utf-8"?>
<!-- Generator: Adobe Illustrator 22.1.0, SVG Export Plug-In . SVG Version: 6.00 Build 0)  -->
<svg version="1.1" id="Layer_1" xmlns="http://www.w3.org/2000/svg" xmlns:xlink="http://www.w3.org/1999/xlink" x="0px" y="0px"
	 viewBox="0 0 220.7 201.3" style="enable-background:new 0 0 220.7 201.3;" xml:space="preserve">
<style type="text/css">
	.st0{fill:#1A468D;}
</style>
<path class="st0" d="M217.6,99.5c-4.9-4.6-24.3-22.5-29.2-27.1c-0.2-0.3-0.5-0.6-0.5-1.4V1.9h-45.1v28.2
	c-10.4-9.6-20.4-18.8-30.5-28.1L110.3,0l-2,2c-0.4,0.4-0.9,0.8-1.3,1.2c-0.4,0.4-0.9,0.7-1.2,1.1l-7.1,6.6
	C70,37.4,40.5,64.7,11.5,91.7c-3,2.5-6.1,5.4-9,8.3c-2.2,2-3,4.9-2.3,7.6c0.7,2.8,3,4.9,6,5.7c0.6,0.2,1.2,0.2,1.8,0.2
	c2,0,3.9-0.8,5.5-2.4c1.5-1.4,3-2.8,4.5-4.3v94.5h184.2v-94.1c1.6,1.5,3.2,3,4.8,4.4l0.1,0.1c1.6,1.3,3.5,2.1,5.5,2.1
	c3.6,0,6.6-2.4,7.7-6C221.1,105.6,221.1,102.5,217.6,99.5z M172.2,17.4v39.7c-1.4-1.3-2.8-2.5-4.1-3.8l-0.6-0.6
	c-2.9-2.8-5.7-5.5-8.5-8l-0.2-0.2l0,0V17.4H172.2z M138,126.8c-2.4-2.1-5.8-3.3-9.7-3.3H92.1c-9.1,0-15.4,6.3-15.4,15.4v46.6H34.1
	V92.8c0-0.2,0.2-0.6,0.2-0.6c25.7-24.1,50.9-47.7,76-70.9c1.7,1.6,3.3,3.1,5,4.6c2.1,1.9,4.2,3.8,6.2,5.7
	c5.1,4.8,10.3,9.5,15.4,14.3c16.2,15,32.9,30.5,49.4,45.3c0.4,0.4,0.5,0.6,0.5,1.1v92.9H144v-45.4C144,134.4,142,130,138,126.8z
	 M92.6,140.1c0-0.2,0-0.4,0-0.5c0.1,0,0.3,0,0.5,0c0,0,34.9,0,34.9,0v46.2c-12,0-23.5,0-35.4,0.2V140.1z"/>
</svg>
