<?xml version="1.0" encoding="utf-8"?>
<!-- Generator: Adobe Illustrator 22.1.0, SVG Export Plug-In . SVG Version: 6.00 Build 0)  -->
<svg version="1.1" id="Layer_1" xmlns="http://www.w3.org/2000/svg" xmlns:xlink="http://www.w3.org/1999/xlink" x="0px" y="0px"
	 viewBox="0 0 57.8 57.8" style="enable-background:new 0 0 57.8 57.8;" xml:space="preserve">
<style type="text/css">
	.st0{fill:#1A468D;}
</style>
<g>
	<path class="st0" d="M28.2,57.8C12.7,57.8,0,45.2,0,29.6C0,14,12.7,1.4,28.2,1.4c15.6,0,28.2,12.7,28.2,28.2
		C56.5,45.2,43.8,57.8,28.2,57.8z M28.2,6.9C15.7,6.9,5.5,17.1,5.5,29.6c0,12.5,10.2,22.7,22.7,22.7c12.5,0,22.7-10.2,22.7-22.7
		C50.9,17.1,40.8,6.9,28.2,6.9z"/>
	<circle class="st0" cx="47.5" cy="10.3" r="10.3"/>
	<g>
		<defs>
			<path id="SVGID_1_" d="M47.2,12.3c-0.3-0.1-0.5-0.4-0.5-0.8c0-0.5,0.4-0.8,0.8-0.8c0.5,0,0.8,0.4,0.8,0.8c0,0.3-0.2,0.6-0.5,0.8
				v1.1h-0.6V12.3z M46.1,5.4c0-0.5,0.4-0.9,1-0.9h0.9c0.5,0,1,0.4,1,0.9v2.7h-2.9V5.4z M47.1,3.6c-1.1,0-2,0.8-2,1.7v2.7h-0.5
				c-0.4,0-0.8,0.3-0.8,0.8v5.9c0,0.4,0.3,0.8,0.8,0.8h5.9c0.4,0,0.8-0.3,0.8-0.8V8.9c0-0.4-0.3-0.8-0.8-0.8h-0.5V5.4
				c0-0.9-0.9-1.7-2-1.7H47.1z"/>
		</defs>
		<use xlink:href="#SVGID_1_"  style="overflow:visible;fill:#FFFFFF;"/>
		<clipPath id="SVGID_2_">
			<use xlink:href="#SVGID_1_"  style="overflow:visible;"/>
		</clipPath>
	</g>
</g>
<g>
	<path class="st0" d="M43.4,29.3c0.2,8.4-6.5,15.4-14.9,15.5c-8.6,0.1-15.2-6.8-15.3-15c-0.1-8.3,6.6-15.2,15-15.3
		C36.5,14.4,43.2,21.1,43.4,29.3z M36.2,31c-0.1,1.2-0.2,2.3-0.4,3.5c0.1,0,0.2,0,0.3,0c0.9,0,1.8,0,2.7,0c0.8,0,0.8,0,1-0.7
		c0.3-0.9,0.5-1.8,0.6-2.8C39.1,31,37.7,31,36.2,31z M15.9,31c0.1,1.2,0.4,2.3,0.9,3.4c0,0.1,0.2,0.2,0.3,0.2c0.8,0,1.6,0,2.3,0
		c0.4,0,0.8,0,1.3,0c-0.1-1.2-0.2-2.4-0.4-3.5C18.8,31,17.3,31,15.9,31z M15.9,28.2c1.5,0,2.9,0,4.4,0c0.1-1.2,0.2-2.3,0.4-3.5
		c-0.1,0-0.2,0-0.4,0c-0.9,0-1.9,0-2.8,0c-0.7,0-0.7,0-1,0.7C16.2,26.3,16,27.3,15.9,28.2z M40.6,28.2c0-0.1,0-0.1,0-0.1
		c-0.1-1.1-0.4-2.2-0.8-3.2c0-0.1-0.2-0.2-0.3-0.2c-0.9,0-1.8,0-2.6,0c-0.3,0-0.6,0-0.9,0c0.1,1.2,0.2,2.4,0.4,3.5
		C37.7,28.2,39.1,28.2,40.6,28.2z M29.6,34.5C29.6,34.5,29.7,34.5,29.6,34.5c1.2,0,2.2,0,3.3,0c0.1,0,0.2-0.1,0.2-0.2
		c0.1-0.3,0.1-0.7,0.2-1c0.1-0.8,0.2-1.5,0.2-2.3c-1.4,0-2.7,0-4,0C29.6,32.2,29.6,33.3,29.6,34.5z M26.9,24.8c0,0-0.1,0-0.1,0
		c-1.1,0-2.2,0-3.2,0c-0.1,0-0.2,0.1-0.2,0.2c-0.1,0.3-0.1,0.7-0.2,1c-0.1,0.8-0.2,1.5-0.2,2.3c1.4,0,2.7,0,4,0
		C26.9,27.1,26.9,25.9,26.9,24.8z M26.9,31c-1.3,0-2.6,0-4,0c0.2,1.1,0.3,2.3,0.5,3.4c0,0.1,0.2,0.1,0.3,0.2c1,0,1.9,0,2.9,0
		c0.1,0,0.2,0,0.4,0C26.9,33.3,26.9,32.2,26.9,31z M33.6,28.2c-0.2-1.2-0.3-2.3-0.5-3.4c0-0.1-0.2-0.1-0.3-0.1c-1,0-2,0-3,0
		c-0.1,0-0.2,0-0.3,0c0,1.2,0,2.3,0,3.5C30.9,28.2,32.2,28.2,33.6,28.2z M26.9,22c0-1.5,0-2.9,0-4.4c-1.5,1.2-2.2,2.7-2.8,4.4
		C25,22,25.9,22,26.9,22z M32.4,22c-0.6-1.7-1.3-3.2-2.8-4.4c0,1.5,0,2.9,0,4.4C30.5,22,31.4,22,32.4,22z M29.6,41.5
		c0.9-0.5,2.5-2.9,2.8-4.3c-0.9,0-1.8,0-2.8,0C29.6,38.7,29.6,40.1,29.6,41.5z M26.9,41.6c0-1.5,0-3,0-4.4c-0.9,0-1.8,0-2.8,0
		C24.7,38.9,25.4,40.4,26.9,41.6z M33.9,40.7c1.7-0.8,3.1-2,4.3-3.6c-1,0-1.8,0-2.7,0c-0.1,0-0.2,0.1-0.2,0.2
		C34.7,38.5,34.3,39.6,33.9,40.7z M18.3,37.2c1.2,1.6,2.6,2.7,4.3,3.5c-0.4-1.1-0.9-2.3-1.3-3.4c0-0.1-0.1-0.1-0.2-0.1
		C20.2,37.2,19.3,37.2,18.3,37.2z M18.3,22c0.9,0,1.8,0,2.6,0c0.2,0,0.3-0.1,0.4-0.3c0.4-1,0.9-2.1,1.3-3.1c0,0,0-0.1,0.1-0.2
		C21,19.4,19.5,20.5,18.3,22z M33.9,18.5c0.4,1.1,0.9,2.2,1.3,3.4c0,0.1,0.2,0.2,0.3,0.2c0.7,0,1.5,0,2.2,0c0.1,0,0.3,0,0.4,0
		C36.9,20.5,35.5,19.3,33.9,18.5z"/>
</g>
</svg>
