<?xml version="1.0" encoding="utf-8"?>
<!-- Generator: Adobe Illustrator 22.1.0, SVG Export Plug-In . SVG Version: 6.00 Build 0)  -->
<svg version="1.1" id="Layer_1" xmlns="http://www.w3.org/2000/svg" xmlns:xlink="http://www.w3.org/1999/xlink" x="0px" y="0px"
	 viewBox="0 0 98.6 79.9" style="enable-background:new 0 0 98.6 79.9;" xml:space="preserve">
<style type="text/css">
	.st0{fill:#3C70BA;}
</style>
<g>
	<path class="st0" d="M28.5,9.8c0-0.7,0-1.3,0-1.9c0-4.7,3.3-7.9,8-7.9C45,0,53.5,0,62,0c4.8,0,7.9,3.1,8.1,7.9c0,0.6,0,1.2,0,2
		c0.4,0,0.8,0,1.2,0c6.4,0,12.9,0,19.3,0c3.7,0,6.6,2,7.6,5.3c0.3,0.9,0.4,1.9,0.4,2.8c0,17.9,0,35.9,0,53.8c0,4.9-3.2,8.1-8.1,8.1
		c-27.4,0-54.9,0-82.3,0c-4.9,0-8.1-3.2-8.1-8.1c0-18,0-36.1,0-54.1c0-4.6,3.2-7.9,7.9-7.9c6.4,0,12.9,0,19.3,0
		C27.6,9.8,28,9.8,28.5,9.8z M94.2,39.5c-1.8,0.7-3.4,1.4-5,2C79,45.5,68.6,48,57.7,48.9c-0.7,0.1-0.8,0.4-0.8,0.9
		c-0.3,4.1-3.6,7.2-7.6,7.2c-4.1,0-7.3-3-7.6-7.2c0-0.7-0.3-0.8-0.9-0.9c-2.8-0.3-5.6-0.6-8.3-1c-9.4-1.5-18.4-4.2-27.1-8
		c-0.3-0.1-0.5-0.2-0.9-0.3c0,0.5,0,0.8,0,1.2c0,5.2,0,10.5,0,15.7c0,5.1,0,10.2,0,15.4c0,1.5,0.4,2.7,1.8,3.4
		c0.6,0.3,1.4,0.3,2.2,0.3c27.3,0,54.6,0,82,0c0.3,0,0.6,0,0.9,0c1.1-0.1,2-0.6,2.5-1.5c0.3-0.7,0.5-1.5,0.5-2.3
		c0-10.4,0-20.8,0-31.2C94.2,40.2,94.2,40,94.2,39.5z M49.3,14.2c-1,0-1.9,0-2.9,0c-12.7,0-25.4,0-38.1,0c-0.7,0-1.4,0-2,0.3
		c-1.5,0.6-2,1.8-2,3.4c0,5.3,0,10.5,0,15.8c0,0.8,0.2,1.1,0.9,1.4c10.7,4.7,21.8,7.9,33.4,9.2c8,0.9,16.1,0.7,24.1-0.3
		c10.6-1.4,20.8-4.5,30.6-8.9c0.6-0.3,0.9-0.6,0.9-1.3c0-5.2,0-10.4,0-15.5c0-2.9-1.2-4-4-4C76.5,14.2,62.9,14.2,49.3,14.2z
		 M32.9,9.8c10.9,0,21.8,0,32.8,0c0-0.4,0-0.7,0-1c0.2-2.5-0.8-4.5-4.3-4.4c-8,0.1-16.1,0-24.1,0c-0.5,0-0.9,0-1.4,0
		c-1.5,0.1-2.7,1.1-2.9,2.6C32.8,7.9,32.9,8.8,32.9,9.8z M46.1,49.3c-0.2,1.6,1.3,3.3,3.2,3.3c1.9,0,3.4-1.7,3.2-3.3
		C50.4,49.3,48.3,49.3,46.1,49.3z"/>
</g>
</svg>
