<?xml version="1.0" encoding="utf-8"?>
<!-- Generator: Adobe Illustrator 22.1.0, SVG Export Plug-In . SVG Version: 6.00 Build 0)  -->
<svg version="1.1" id="Layer_1" xmlns="http://www.w3.org/2000/svg" xmlns:xlink="http://www.w3.org/1999/xlink" x="0px" y="0px"
	 viewBox="0 0 54.2 84.5" style="enable-background:new 0 0 54.2 84.5;" xml:space="preserve">
<style type="text/css">
	.st0{fill:#3C70BA;}
</style>
<path class="st0" d="M13.5,84.5c-0.2,0-0.5-0.1-0.7-0.2c-0.7-0.4-0.9-1.1-0.9-1.9c0-9.3,0-18.6,0-27.9l0-8.2L10.2,46
	c-1.1-0.1-2.2-0.3-3.3-0.4c-1.4-0.1-1.9-0.7-1.8-2c0.1-1.6,0.3-3.2,0.6-4.8c0.1-0.6-0.1-1-0.6-1.3c-1.1-0.7-2.2-1.4-3.3-2.1
	l-0.6-0.4c-0.6-0.4-1-0.8-1.1-1.3c-0.1-0.4,0-0.9,0.4-1.6l0.5-0.7c0.6-1,1.3-2.1,2-3.1c0.4-0.6,0.4-1,0-1.6
	c-0.7-1.1-1.4-2.2-2.1-3.3l-0.4-0.6C0.1,22.5-0.1,22,0,21.6c0.1-0.4,0.4-0.8,1-1.2c1.3-0.8,2.6-1.7,4-2.5c0.5-0.3,0.7-0.7,0.6-1.3
	c-0.2-1.4-0.4-3-0.6-4.7c-0.1-1.4,0.4-2,1.8-2.1c0.4,0,0.9-0.1,1.3-0.1c1-0.1,2.1-0.2,3.2-0.3c0.8-0.1,1.1-0.4,1.3-1
	C13,7.1,13.4,6,13.8,4.8l0.3-0.7c0.4-1,0.8-1.5,1.6-1.5c0.3,0,0.7,0.1,1.1,0.2L17.1,3c1.3,0.5,2.7,0.9,4,1.4
	c0.2,0.1,0.3,0.1,0.5,0.1c0.4,0,0.6-0.2,0.8-0.4c1-1.1,2.1-2.2,3.2-3.2l0.2-0.2C26.2,0.2,26.7,0,27.1,0c0.4,0,0.9,0.2,1.4,0.7
	L29,1.2C29.9,2.1,30.8,3,31.7,4c0.3,0.3,0.6,0.5,1,0.5c0.2,0,0.4,0,0.7-0.1c1.2-0.5,2.5-0.9,3.7-1.3l0.6-0.2
	c0.3-0.1,0.6-0.2,0.9-0.2c0.7,0,1.2,0.4,1.5,1.3l0.1,0.3c0.5,1.4,1,2.8,1.4,4.2c0.2,0.5,0.4,0.8,1.1,0.9c1.3,0.1,2.6,0.2,3.9,0.4
	l0.8,0.1c1.4,0.2,1.9,0.8,1.8,2.1c-0.2,1.7-0.3,3.3-0.6,4.7c-0.1,0.7,0.2,1,0.7,1.3c1.3,0.8,2.7,1.6,4,2.5c1.1,0.7,1.3,1.5,0.6,2.7
	l-0.2,0.2c-0.8,1.3-1.6,2.5-2.4,3.8c-0.3,0.5-0.3,0.9,0,1.4c0.9,1.3,1.7,2.6,2.5,3.9l0.1,0.1c0.7,1.1,0.5,1.9-0.6,2.6
	c-1.4,0.9-2.7,1.7-4.1,2.5c-0.5,0.3-0.7,0.6-0.6,1.2c0.2,1.7,0.4,3.3,0.6,4.9c0.1,1.2-0.4,1.8-1.7,2c-1,0.1-1.9,0.2-2.9,0.3
	l-1.7,0.2l0,35.9c0,0.2,0,0.4,0,0.6c0,1.1-0.6,1.7-1.5,1.7c-0.4,0-0.8-0.1-1.2-0.4c-2-1.2-4-2.4-5.9-3.7l-2.5-1.5l-1-0.6
	c-0.8-0.5-1.7-1-2.5-1.5c-0.3-0.2-0.5-0.3-0.8-0.3c-0.3,0-0.5,0.1-0.8,0.3c-2.2,1.4-4.5,2.8-6.8,4.2c-1.7,1-3.3,2-5,3.1
	C14.4,84.3,13.9,84.5,13.5,84.5z M27.3,72.8c0.4,0,0.8,0.1,1.3,0.4c2.4,1.5,4.8,3,7.2,4.5l2.4,1.5c0.2,0.1,0.3,0.2,0.5,0.3l0.7,0.4
	V53l-0.2,0c-0.2,0-0.4-0.1-0.6-0.1c-0.4-0.1-0.8-0.1-1.2-0.2c-1.5-0.5-2.9-1-4.2-1.5C33,51.1,32.8,51,32.7,51
	c-0.4,0-0.7,0.3-0.9,0.5c-1,1.1-2,2.1-3,3.1l-0.2,0.2c-0.5,0.5-0.9,0.7-1.3,0.7s-0.9-0.2-1.3-0.7l-0.7-0.6c-0.8-0.8-1.6-1.6-2.3-2.4
	c-0.4-0.5-0.9-0.7-1.3-0.7c-0.3,0-0.5,0.1-0.9,0.2c-1.2,0.5-2.4,0.9-3.6,1.3c-0.5,0.2-1,0.4-1.6,0.5l-0.2,0.1v26.7l0.7-0.4
	c0.2-0.1,0.3-0.2,0.5-0.3l2.5-1.5c2.4-1.5,4.7-2.9,7.1-4.4C26.5,72.9,26.9,72.8,27.3,72.8z M22.2,47.4c0.6,0,1.2,0.3,1.8,0.9
	c0.7,0.7,1.4,1.4,2.1,2c0.3,0.3,0.6,0.5,0.8,0.8l0.2,0.2c0,0,0.8-0.8,1.1-1.1c0.7-0.7,1.5-1.4,2.2-2.1c0.5-0.5,1-0.8,1.6-0.8
	c0.3,0,0.6,0.1,0.9,0.2c1,0.4,1.9,0.7,2.9,1.1c0.4,0.1,1.6,0.6,1.6,0.6l1.7-4.8c0.3-0.8,0.7-1.2,1.5-1.2c1.1-0.1,2.2-0.2,3.3-0.4
	l1.8-0.2l0-0.3c0-0.4-0.1-0.8-0.1-1.2c-0.1-0.9-0.2-1.8-0.4-2.7c-0.3-1.5,0.1-2.3,1.3-2.9c0.8-0.4,1.7-1,2.5-1.5
	c0.4-0.2,0.7-0.5,1.1-0.7l0.3-0.2l-0.9-1.4c-0.6-0.9-1.1-1.8-1.7-2.6c-0.6-0.9-0.6-1.6,0-2.5c0.6-0.8,1.1-1.7,1.7-2.6l0.9-1.4
	l-0.3-0.2c-0.4-0.2-0.7-0.5-1.1-0.7c-0.8-0.5-1.6-1-2.4-1.4c-1.3-0.7-1.7-1.6-1.4-3.1c0.2-0.9,0.3-1.8,0.3-2.7
	c0-0.4,0.1-0.8,0.1-1.2l0-0.3l-0.6-0.1c-0.2,0-0.4-0.1-0.5-0.1L44,12.7c-1-0.1-2-0.2-2.9-0.3c-1.1-0.1-1.7-0.6-2-1.6
	c-0.2-0.8-0.5-1.5-0.7-2.2L38,7.7c-0.1-0.3-0.2-0.6-0.3-0.8l-0.2-0.6l-0.3,0.1c-0.4,0.2-0.9,0.3-1.3,0.4c-0.9,0.3-1.8,0.6-2.7,1
	C32.7,8,32.4,8.1,32,8.1c-0.6,0-1.2-0.3-1.8-0.9c-0.6-0.7-1.3-1.4-2-2c-0.3-0.3-0.6-0.6-0.9-0.9L27.1,4l-1.2,1.2
	c-0.7,0.7-1.5,1.5-2.2,2.2c-0.5,0.5-1,0.7-1.5,0.7c-0.3,0-0.6-0.1-0.9-0.2c-1-0.4-1.9-0.7-2.9-1.1c-0.4-0.2-1.6-0.6-1.6-0.6
	l-0.1,0.3c-0.1,0.4-0.3,0.8-0.4,1.2c-0.3,0.9-0.6,1.8-0.9,2.7c-0.4,1.4-1.1,2-2.5,2c-0.9,0-1.8,0.1-2.8,0.3
	c-0.4,0.1-0.8,0.1-1.3,0.2l-0.3,0l0,0.3c0.1,0.4,0.1,0.9,0.1,1.3c0.1,0.9,0.2,1.8,0.4,2.7c0.3,1.4-0.1,2.3-1.3,3
	c-0.8,0.4-1.7,1-2.5,1.5c-0.4,0.2-0.7,0.5-1.1,0.7l-0.3,0.2l0.9,1.5c0.6,0.9,1.1,1.8,1.7,2.7c0.5,0.8,0.5,1.5,0,2.3
	c-0.6,0.9-1.1,1.8-1.7,2.7l-0.9,1.5l0.3,0.2c0.4,0.2,0.7,0.5,1.1,0.7c0.8,0.5,1.6,1,2.4,1.5c1.3,0.6,1.6,1.5,1.4,3
	c-0.2,0.9-0.3,1.8-0.3,2.7c0,0.4-0.1,0.8-0.1,1.3l0,0.3l1.6,0.2c1,0.1,1.9,0.2,2.9,0.3c1.3,0.1,1.9,0.6,2.2,1.8c0.3,1,0.6,1.9,1,2.8
	c0.2,0.4,0.3,0.8,0.5,1.3l0.1,0.3l0.3-0.1c0.4-0.1,0.8-0.3,1.3-0.4c1-0.3,1.9-0.6,2.8-1C21.5,47.5,21.8,47.4,22.2,47.4z"/>
<path class="st0" d="M26.9,39.9c-3.2,0-6.2-1.3-8.4-3.6c-2.3-2.3-3.5-5.4-3.5-8.6c0.1-6.6,5.5-12,12-12l0.1,0
	c6.7,0.1,12.1,5.5,12.1,12.2c0,6.6-5.5,12.1-12.3,12.1H26.9z M27.1,18.9c-4.8,0-8.8,3.9-8.9,8.7c0,2.4,0.8,4.7,2.5,6.4
	c1.6,1.7,3.9,2.7,6.3,2.7l0.2,0c4.8,0,8.7-3.9,8.8-8.7c0-2.4-0.8-4.7-2.5-6.4c-1.6-1.7-3.8-2.7-6.2-2.7L27.1,18.9z"/>
</svg>
