<?xml version="1.0" encoding="utf-8"?>
<!-- Generator: Adobe Illustrator 22.1.0, SVG Export Plug-In . SVG Version: 6.00 Build 0)  -->
<svg version="1.1" id="Layer_1" xmlns="http://www.w3.org/2000/svg" xmlns:xlink="http://www.w3.org/1999/xlink" x="0px" y="0px"
	 viewBox="0 0 75.6 93.3" style="enable-background:new 0 0 75.6 93.3;" xml:space="preserve">
<style type="text/css">
	.st0{fill:#3C70BA;}
</style>
<g>
	<path class="st0" d="M75.6,38.1c0-0.3,0-0.7-0.3-0.9c-0.3-0.3-0.6-0.3-1-0.3c0,0,0,0,0,0c-1,0-2,0-2.9,0l-9.6,0
		c-1.3,0-1.5,0.2-1.5,1.5l0,3.1c0,3.2,0,5.4,0,8.5c0,0.4-0.1,0.5-0.1,0.5c0,0-0.2,0.1-0.5,0.1c0,0,0,0,0,0c-2.1,0-4.2,0-6.3,0
		l-1.5,0c-2.3,0-4.7,0-7.1,0c-0.4,0-0.8,0-1.1,0.4c-0.3,0.3-0.3,0.8-0.3,1.2c0,2.5,0,5,0,7.5l0,2.9c0,0.3,0,0.6,0,0.7
		c-0.1,0-0.4,0-0.7,0l-6.4,0c-2.1,0-4.2,0-6.3,0c-0.3,0-0.7,0-1,0.3c-0.3,0.3-0.3,0.7-0.3,1c0,2.1,0,4.2,0,6.3c0,2.2,0,4.3,0,6.5
		c0,0.3,0,0.5-0.1,0.6c-0.1,0.1-0.2,0.1-0.6,0.1c0,0,0,0,0,0c-2,0-3.9,0-5.9,0l-3.1,0c-1.3,0-2.6,0-3.9,0c-0.3,0-0.7,0-1,0.3
		c-0.3,0.3-0.3,0.7-0.3,1c0.1,1.7,0.1,11.2,0,12.6c0,0.3,0,0.7,0.3,1c0.3,0.3,0.7,0.3,1,0.3h0c5.2,0,10.4,0,15.6,0l21.3,0
		c5.4,0,16.7,0,22.1,0c0.4,0,0.8,0,1-0.3c0.3-0.3,0.3-0.7,0.3-1C75.6,76.4,75.6,53.8,75.6,38.1z M16.8,90.3c0,0-0.1-0.1-0.1-0.5
		l0-8.2c0-0.2,0-0.5,0-0.5c0.1,0,0.4,0,0.6,0v-0.4h0l0.1,0.4l12.5,0c1.4,0,1.6-0.2,1.6-1.5l0-13.3h14.7l0-4.1c0-2.6,0-5.3,0-7.9
		c0-0.3,0-0.4,0.1-0.5s0.1-0.1,0.5-0.1c2.5,0,4.9,0,7.4,0c2.5,0,5,0,7.5,0c0.4,0,0.8,0,1.1-0.3c0.3-0.3,0.3-0.8,0.3-1.1
		c0-3.2,0-5.4,0-8.6l0-3.1c0-0.3,0-0.7,0-0.7c0.1,0,0.4,0,0.8,0c0,0,7.3,0,7.3,0c0.4,0,0.7,0,1.1,0c0.1,0,0.2,0,0.2,0s0,0.1,0,0.2
		c0,0.1,0,0.3,0,0.4l0,49.2c0,0.3,0,0.7,0,0.8c-0.1,0-0.4,0-0.8,0l-22.4,0c-10.6,0-21.3,0-31.9,0C17.3,90.4,16.9,90.4,16.8,90.3z"/>
	<path class="st0" d="M6,29.7c0.9,0.6,2,0.9,3,0.9c2,0,3.5-1.1,4.3-2.9c0.1-0.4,0.3-0.7,0.5-1.1c0.3-0.5,0.5-1,0.7-1.6
		c0.3-1.2,0.9-1.7,1.8-1.7c0.2,0,0.4,0,0.6,0.1c0.2,0,0.5,0.1,0.8,0.1c0.2,0,0.4,0,0.6,0c0,0,0,0,0.1,0l-1,2.1
		c-1,2.1-1.9,4.1-2.8,6.2c-1.4,3.1-0.4,6.2,2.6,7.7c3.8,1.9,7.6,3.7,11.2,5.5c0.5,0.2,0.6,0.4,0.6,0.9c0,2.7,0,5.4,0,8.1l0,3.3
		c0,2,0.9,3.5,2.6,4.4c0.7,0.4,1.5,0.6,2.3,0.6c2.6,0,4.7-2.2,4.7-5c0-3.7,0-7.5,0-11.2l0-3.5c0-2.3-1.1-4-3.2-5
		c-1.7-0.8-3.4-1.6-5-2.4l-1.6-0.8c-1.2-0.6-1.2-0.6-0.7-1.8c0.4-1,0.9-2,1.4-3.1l0.4-1l0,0c0.3,0.3,0.5,0.6,0.8,0.9
		c1.2,1.2,2.6,1.8,4.2,1.8l0.1,0c0.5,0,0.9,0,1.4,0l1,0c0.5,0,1,0,1.6,0c2.4-0.1,4.3-1.9,4.6-4.3c0.3-2.2-1.3-4.5-3.4-5.1
		c-0.8-0.2-1.6-0.2-2.2-0.2c-0.2,0-0.4,0-0.6,0c-0.6,0-1-0.2-1.4-0.6c-1.7-2-3.9-4.1-7-5.2c-0.2-0.1-0.3-0.1-0.5-0.2
		c-0.2-0.1-0.3-0.2-0.5-0.2c-0.3-0.1-0.7-0.3-1-0.4c-1.1-0.5-2.2-1-3.6-1l-0.1,0c-1.6,0-3.3,0.1-5.2,0.1c-2,0-4.1,0-6.2,0
		c-1.8,0-3,0.8-3.7,2.4c-0.7,1.6-1.4,3.1-2.1,4.6c-0.5,1.1-1,2.3-1.6,3.5c-0.2,0.5-0.4,1-0.5,1.6C3.6,27.9,4.9,29,6,29.7z
		 M10.9,17.3c0.2-0.4,0.4-0.5,0.8-0.5l6.4,0c2.4,0,4.2,0,5.9,0.1c0.5,0,1.1,0.3,1.6,0.6c0.2,0.1,0.4,0.2,0.6,0.3
		c1.4,0.6,2.8,1.3,4.1,2c0.3,0.1,0.5,0.3,0.8,0.6c0.4,0.4,0.8,0.8,1.2,1.2c0.7,0.7,1.4,1.5,2.2,2.2c0.4,0.4,1.1,0.7,1.8,0.8
		c0.3,0,0.5,0.1,0.9,0.1c0.2,0,0.4,0,0.6,0c0.2,0,0.4,0,0.6,0c0.1,0,0.2,0,0.3,0c1.2,0,2,0.8,2,1.8c0,1-0.9,1.9-2,1.9
		c-0.6,0-1.1,0-1.7,0c-0.7,0-1.3,0-2,0c-0.8,0-1.5-0.3-2.1-1L32.7,27c-0.7-0.7-1.5-1.5-2.2-2.2c-0.4-0.4-0.7-0.6-1.1-0.6
		c-0.5,0-0.8,0.3-1.1,0.9c-0.6,1.2-1.1,2.4-1.7,3.7c-0.7,1.6-1.5,3.2-2.2,4.9c-0.6,1.3,0.4,1.8,0.8,1.9c1.2,0.6,2.5,1.2,3.7,1.8
		c1.8,0.9,3.6,1.7,5.4,2.6c1.1,0.5,1.6,1.2,1.5,2.4c0,4,0,8.1,0,12l0,2.4c0,1.1-0.3,1.7-1,2c-0.3,0.1-0.6,0.2-0.9,0.2
		c-0.8,0-1.4-0.5-1.7-1.2c-0.1-0.4-0.2-0.9-0.2-1.4c0-1.5,0-2.9,0-4.4l0-1.6l0-1.7c0-1.5,0-2.9,0-4.4c0-0.9-0.3-1.5-1.2-1.9
		c-2.1-1-4.2-2-6.3-3.1c-1.8-0.9-3.6-1.8-5.4-2.6c-2.2-1-2.6-2.3-1.7-4.5c0.9-2,1.8-4,2.7-6.1c0.6-1.3,1.2-2.6,1.8-3.9
		c0.2-0.5,0.4-1.1,0.1-1.6c-0.3-0.5-1-0.5-1.5-0.5l-0.4,0l-3.1,0c-0.8,0-1.7,0-2.5,0c-0.9,0-1.4,0.4-1.8,1.2c-0.4,1-0.9,2-1.4,3
		c-0.3,0.6-0.6,1.2-0.8,1.8c-0.3,0.8-0.8,1.1-1.5,1.1c-1,0-1.8-0.4-2.2-1.1c0-0.1,0-0.4,0-0.6c0.7-1.7,1.5-3.3,2.3-5
		C9.7,19.8,10.3,18.5,10.9,17.3z"/>
	<path class="st0" d="M19.7,43.7c0.1-0.2,0.1-0.3,0.2-0.5l0.2-0.6l-8.5-4l-0.2,0.4c-0.3,0.7-0.6,1.4-1,2C9.7,42.4,9,44,8.4,45.6
		c-0.6,1.6-1.3,2.2-2.4,2.2c-0.2,0-0.5,0-0.8-0.1c-0.1,0-0.2,0-0.3,0c-0.2,0-0.4,0-0.6,0.1l-0.2,0C3,47.9,2,48.4,1.2,49.3
		c-1.3,1.5-1.6,3.2-0.8,5c0.8,1.8,2.3,2.9,4.5,2.9c0.6,0,1.2,0,1.8,0l2.9,0c2.6,0,4.4-1.2,5.5-3.6L19.7,43.7z M7.8,50.6
		c0.1,0,0.1,0,0.2,0c0.9,0,1.4-0.4,1.8-1.3c0.7-1.6,1.4-3.2,2.1-4.7l0.8-1.7c0.1-0.2,0.2-0.3,0.3-0.5l3.3,1.5c0,0.1,0,0.1-0.1,0.2
		L15,46.8c-0.8,1.8-1.7,3.6-2.5,5.5c-0.6,1.3-1.6,2-3.1,2l-4.4,0c-0.7,0-1.3-0.2-1.7-0.6C3.1,53.4,3,52.9,3,52.4
		c0-1.6,1.4-1.8,2.2-1.8l0.7,0c0.3,0,0.6,0,0.9,0C7.1,50.6,7.5,50.6,7.8,50.6z"/>
	<path class="st0" d="M33.2,14.5c2,0,3.8-0.8,5.2-2.1s2.1-3.2,2.1-5.2c0-4-3.2-7.2-7.2-7.2C29.3,0,26,3.3,26,7.2
		c0,2,0.8,3.8,2.2,5.2C29.5,13.8,31.3,14.5,33.2,14.5z M33.3,3c2.3,0,4.2,2,4.2,4.4c0,2.3-1.9,4.2-4.3,4.2c-1.1,0-2.2-0.5-3-1.3
		C29.4,9.5,29,8.4,29,7.2C29,4.8,30.9,3,33.3,3l-0.1-0.4c0,0,0,0,0,0L33.3,3z"/>
</g>
</svg>
