<?xml version="1.0" encoding="utf-8"?>
<!-- Generator: Adobe Illustrator 22.1.0, SVG Export Plug-In . SVG Version: 6.00 Build 0)  -->
<svg version="1.1" id="Layer_1" xmlns="http://www.w3.org/2000/svg" xmlns:xlink="http://www.w3.org/1999/xlink" x="0px" y="0px"
	 viewBox="0 0 97.9 91.7" style="enable-background:new 0 0 97.9 91.7;" xml:space="preserve">
<style type="text/css">
	.st0{fill:#3C70BA;}
</style>
<g>
	<path class="st0" d="M94.4,30.7C87,12.4,68.3,0,47.8,0l-0.3,0c-4.7,0-10.3,1.1-15.3,3.1C18.3,8.4,8.5,18.2,3.1,31.9
		c-2,5.2-3.1,10.9-3.1,17c0,0.9,0.5,1.6,0.7,1.7c0.1,0,0.3,0.1,0.5,0.1c0.8,0,1.6-0.4,1.9-0.8c1.8-2.5,4-4.7,6.7-6.4
		c2.5-1.6,5-2.4,7.6-2.4c2.2,0,4.4,0.6,6.6,1.7c3,1.5,5.5,3.8,7.6,6.7c0.6,0.8,1.2,1.3,1.6,1.3c0.2,0,0.8-0.2,1.7-1.3
		c1.5-1.9,3-3.4,4.5-4.6c3-2.4,6.1-3.6,9.3-3.6c0.9,0,1.9,0.1,2.8,0.3c4.3,0.9,8,3.5,11.5,7.9c0.4,0.5,1,1.1,1.8,1.1
		c0.7,0,1.3-0.6,1.7-1.1c1.2-1.4,2.7-3.1,4.5-4.5c3.1-2.5,6.3-3.8,9.5-3.8c1.8,0,3.7,0.4,5.6,1.3c3.2,1.4,5.9,3.7,8.6,7.3
		c0.5,0.6,0.9,0.9,1.3,0.9c0.1,0,0.2,0,0.3-0.1c1.5-0.7,1.7-1.4,1.7-2.1C97.8,42.4,96.6,36.4,94.4,30.7z M31.2,43.7l-1.9-1.4
		c-3.8-2.9-7.3-4.3-11-4.5c-0.3,0-0.6,0-0.9,0c-3.7,0-7.2,1.2-10.7,3.7l-3,2.2l0.8-3.6C6.4,31.5,10.1,24.2,16,18
		c6-6.3,13-10.5,21.5-12.8l3.1-0.8l-1.5,2.8c-2.7,4.9-4.4,10.4-5.4,16.6c-0.6,4-1.1,8.2-1.6,12.2l0,0.1c-0.2,1.8-0.4,3.5-0.6,5.3
		L31.2,43.7z M35.4,41c0-0.2-0.1-0.4-0.1-0.7c0.4-6.7,1.1-15.4,3.9-24.1c0.9-2.9,2.2-6.3,4.5-9.3c1-1.3,2.4-2.7,4.7-3.1
		c0.3,0,0.6-0.1,1-0.1c1.7,0,3.3,0.8,4.7,2.2c2.3,2.5,3.6,5.5,4.5,8.1c2,5.5,3.2,11.5,4.1,19.6c0.2,1.6,0.3,3.3,0.5,5
		c0,0,0.1,1.8,0.2,2.6l0.3,3.1l-2.5-1.9c-4.3-3.2-8.3-4.8-12.3-4.8c-3.8,0-7.4,1.4-11.2,4.3l-1.9,1.5l-0.3-2.4L35.4,41z M57.2,4.3
		l3.2,0.9c16.5,4.4,30,18.8,32.9,34.9l0.6,3.4l-2.8-2.1c-3.4-2.5-6.9-3.7-10.8-3.7c-0.2,0-0.5,0-0.7,0c-3.7,0.1-7.2,1.6-11,4.5
		l-1.9,1.5l-0.3-2.4c-0.2-1.8-0.4-3.6-0.6-5.4c-0.4-4-0.9-8.1-1.5-12.1c-1-6.6-2.8-11.8-5.4-16.5L57.2,4.3z"/>
	<path class="st0" d="M50.7,49.8c0-0.5-0.1-0.9-0.2-1.4c-0.1-0.4-0.3-0.9-1.2-1.1c-0.2,0-0.3,0-0.5,0c-1,0-1.6,0.7-1.7,1.8
		c0,3.7,0,7.3,0,11l0,9.8c0,3.6,0,7.1,0,10.7c0,3.4-2.5,6.5-5.8,7.4c-0.6,0.2-1.3,0.3-2,0.3c-2.8,0-5.2-1.4-6.5-3.8
		c-0.6-1-0.8-2.2-1-3.3c-0.1-0.3-0.1-0.5-0.2-0.8c-0.3-1.4-1.1-1.5-1.7-1.5c-0.1,0-0.2,0-0.3,0c-0.8,0.1-1.5,0.6-1.5,1.7
		c0.1,1.5,0.4,2.8,0.8,3.9c1.5,4.2,5.8,7.3,10.3,7.3c0.4,0,0.8,0,1.3-0.1c6-0.8,10-5.5,10.1-11.6c0-8.9,0-17.8,0-26.7L50.7,49.8z"/>
</g>
</svg>
