<?xml version="1.0" encoding="utf-8"?>
<!-- Generator: Adobe Illustrator 22.1.0, SVG Export Plug-In . SVG Version: 6.00 Build 0)  -->
<svg version="1.1" id="Layer_1" xmlns="http://www.w3.org/2000/svg" xmlns:xlink="http://www.w3.org/1999/xlink" x="0px" y="0px"
	 viewBox="0 0 89.7 89.7" style="enable-background:new 0 0 89.7 89.7;" xml:space="preserve">
<style type="text/css">
	.st0{fill:#3C70BA;}
</style>
<g>
	<path class="st0" d="M28.8,57.6c0-0.5,0-0.8,0-1.2c0-5.3,0-10.6,0-15.8c0-1.7,0.5-2.2,2.2-2.2c8.5,0,17,0,25.4,0c0.3,0,0.7,0,1.2,0
		c0-0.3,0-0.6,0-1c0-5.4,0-10.7,0-16.1c0-1.7,0.5-2.2,2.2-2.2c9.2,0,18.5,0,27.7,0c1.7,0,2.2,0.5,2.2,2.2c0,22,0,44.1,0,66.1
		c0,1.7-0.5,2.2-2.2,2.2c-28.4,0-56.9,0-85.3,0c-1.7,0-2.2-0.5-2.2-2.2C0,78.3,0,69,0,59.8c0-1.7,0.5-2.2,2.2-2.2c8.5,0,17,0,25.5,0
		C28,57.6,28.4,57.6,28.8,57.6z M32.1,41.7c0,4.3,0,8.5,0,12.7c8.5,0,17,0,25.5,0c0-4.3,0-8.5,0-12.7C49.1,41.7,40.6,41.7,32.1,41.7
		z M86.4,35.2c0-4.3,0-8.5,0-12.7c-8.5,0-17,0-25.5,0c0,4.3,0,8.5,0,12.7C69.4,35.2,77.9,35.2,86.4,35.2z M28.8,60.9
		c-8.5,0-17,0-25.5,0c0,4.3,0,8.5,0,12.7c8.5,0,17,0,25.5,0C28.8,69.3,28.8,65.2,28.8,60.9z M32.1,67.2c8.6,0,17,0,25.5,0
		c0-1.1,0-2.1,0-3.1c-8.5,0-17,0-25.5,0C32.1,65.1,32.1,66.1,32.1,67.2z M32.1,73.6c8.6,0,17,0,25.5,0c0-1.1,0-2.1,0-3.1
		c-8.5,0-17,0-25.5,0C32.1,71.5,32.1,72.5,32.1,73.6z M32.1,57.7c0,1.1,0,2.1,0,3.1c8.5,0,17,0,25.5,0c0-1.1,0-2.1,0-3.1
		C49.1,57.7,40.6,57.7,32.1,57.7z M32.1,80c8.6,0,17,0,25.5,0c0-1.1,0-2.1,0-3.1c-8.5,0-17,0-25.5,0C32.1,77.9,32.1,78.9,32.1,80z
		 M32.1,86.4c8.6,0,17,0,25.5,0c0-1.1,0-2.1,0-3.1c-8.5,0-17,0-25.5,0C32.1,84.4,32.1,85.3,32.1,86.4z M3.2,80c8.6,0,17,0,25.5,0
		c0-1.1,0-2.1,0-3.1c-8.5,0-17,0-25.5,0C3.2,77.9,3.2,78.9,3.2,80z M86.4,70.5c-8.6,0-17,0-25.5,0c0,1.1,0,2.1,0,3.1
		c8.5,0,17,0,25.5,0C86.4,72.5,86.4,71.6,86.4,70.5z M86.4,76.9c-8.6,0-17,0-25.5,0c0,1.1,0,2.1,0,3.1c8.5,0,17,0,25.5,0
		C86.4,78.9,86.4,78,86.4,76.9z M28.8,83.3c-8.5,0-17,0-25.5,0c0,1.1,0,2.1,0,3.1c8.5,0,17,0,25.5,0C28.8,85.3,28.8,84.4,28.8,83.3z
		 M86.4,64.1c-8.6,0-17,0-25.5,0c0,1.1,0,2.1,0,3.1c8.5,0,17,0,25.5,0C86.4,66.1,86.4,65.2,86.4,64.1z M60.9,86.4c8.5,0,17,0,25.5,0
		c0-1.1,0-2.1,0-3.1c-8.5,0-17,0-25.5,0C60.9,84.3,60.9,85.3,60.9,86.4z M60.9,60.8c8.5,0,17,0,25.5,0c0-1.1,0-2.1,0-3.1
		c-8.5,0-17,0-25.5,0C60.9,58.7,60.9,59.7,60.9,60.8z M60.9,54.4c8.5,0,17,0,25.5,0c0-1.1,0-2.1,0-3.1c-8.5,0-17,0-25.5,0
		C60.9,52.3,60.9,53.3,60.9,54.4z M60.9,47.9c8.6,0,17,0,25.5,0c0-1.1,0-2.1,0-3.1c-8.5,0-17,0-25.5,0
		C60.9,45.9,60.9,46.9,60.9,47.9z M60.9,41.6c8.5,0,17,0,25.5,0c0-1.1,0-2.1,0-3.1c-8.5,0-17,0-25.5,0
		C60.9,39.5,60.9,40.5,60.9,41.6z"/>
	<path class="st0" d="M2.8,47.6C2,46.7,1.3,46,0.6,45.3c0.2-0.2,0.3-0.4,0.5-0.6c9.3-9.3,18.5-18.5,27.8-27.8c1.2-1.2,1.9-1.2,3.1,0
		c2.7,2.6,5.3,5.3,7.9,7.9c7.2-7.2,14.3-14.3,21.5-21.5c-1.1,0-2.4,0-3.7,0c0-1.2,0-2.2,0-3.3c2.7,0,5.4,0,8.1,0
		c0.8,0,1.4,0.6,1.4,1.4c0,2.7,0,5.4,0,8.1c-1.1,0-2.1,0-3.2,0c0-1.3,0-2.6,0-4.1c-0.3,0.3-0.6,0.5-0.8,0.7
		c-7.2,7.2-14.4,14.4-21.6,21.6c-1.3,1.3-2,1.3-3.3,0c-2.6-2.6-5.3-5.3-7.9-8C21.2,29.1,12,38.3,2.8,47.6z"/>
	<path class="st0" d="M44.8,52.8c-2.6,0-4.8-2.1-4.8-4.8c0-2.6,2.1-4.8,4.8-4.8c2.7,0,4.9,2.2,4.9,4.8
		C49.6,50.7,47.5,52.8,44.8,52.8z M46.4,48c0-0.9-0.7-1.6-1.6-1.6c-0.9,0-1.6,0.7-1.6,1.6c0,0.9,0.7,1.6,1.6,1.6
		C45.7,49.6,46.4,48.9,46.4,48z"/>
	<path class="st0" d="M73.7,24c2.7,0,4.8,2.1,4.8,4.8c0,2.7-2.1,4.8-4.8,4.8c-2.7,0-4.8-2.1-4.7-4.8C68.9,26.1,71,24,73.7,24z
		 M75.3,28.9c0-0.9-0.7-1.6-1.6-1.6c-0.9,0-1.6,0.7-1.6,1.6c0,0.9,0.7,1.6,1.6,1.6C74.5,30.4,75.2,29.7,75.3,28.9z"/>
	<path class="st0" d="M16,72c-2.7,0-4.8-2.1-4.8-4.8c0-2.7,2.1-4.8,4.8-4.8c2.7,0,4.8,2.1,4.7,4.8C20.8,69.9,18.7,72,16,72z
		 M16,68.8c0.9,0,1.6-0.8,1.6-1.6c0-0.9-0.8-1.6-1.6-1.6c-0.9,0-1.6,0.8-1.6,1.6C14.4,68.1,15.2,68.8,16,68.8z"/>
</g>
</svg>
