<?xml version="1.0" encoding="utf-8"?>
<!-- Generator: Adobe Illustrator 22.1.0, SVG Export Plug-In . SVG Version: 6.00 Build 0)  -->
<svg version="1.1" id="Layer_1" xmlns="http://www.w3.org/2000/svg" xmlns:xlink="http://www.w3.org/1999/xlink" x="0px" y="0px"
	 viewBox="0 0 92.5 92.5" style="enable-background:new 0 0 92.5 92.5;" xml:space="preserve">
<style type="text/css">
	.st0{fill:#3C70BA;}
</style>
<g>
	<path class="st0" d="M88.6,92.5c-7.7,0-15.3,0-23,0c0-3.8,0-7.6,0-11.5c1.2,0,2.5,0,3.8,0c0-11.6,0-23.1,0-34.7c-1.2,0-2.5,0-3.8,0
		c0-2.6,0-5.1,0-7.6c-12.9,0-25.6,0-38.5,0c0,2.5,0,5,0,7.6c-1.3,0-2.5,0-3.8,0c0,11.6,0,23.1,0,34.7c1.2,0,2.5,0,3.8,0
		c0,3.9,0,7.7,0,11.5c-7.7,0-15.3,0-23,0c0-3.8,0-7.6,0-11.5c1.2,0,2.5,0,3.7,0c0-11.6,0-23.1,0-34.7c-1.2,0-2.4,0-3.8,0
		c0-2.6,0-5.1,0-7.7c-0.6,0-1.1,0-1.6,0c-1.1,0-1.8-0.5-2.1-1.4c-0.3-0.8,0-1.6,0.9-2.3C12,26.3,23.1,17.6,34.1,9
		c3.5-2.7,7-5.5,10.5-8.2c1.3-1,1.9-1,3.2,0c14.5,11.4,29,22.7,43.5,34.1c1.3,1,1.5,2.3,0.4,3.2c-0.4,0.3-1.1,0.4-1.7,0.5
		c-0.5,0.1-0.9,0-1.5,0c0,2.6,0,5.1,0,7.7c-1.3,0-2.5,0-3.8,0c0,11.6,0,23.1,0,34.7c1.2,0,2.4,0,3.7,0
		C88.6,84.8,88.6,88.6,88.6,92.5z M84.9,34.6c-13-10.2-25.8-20.2-38.7-30.3C33.4,14.5,20.5,24.5,7.6,34.6
		C33.4,34.6,59.1,34.6,84.9,34.6z M11.6,46.3c0,11.6,0,23.1,0,34.6c2.6,0,5.1,0,7.6,0c0-11.6,0-23.1,0-34.6
		C16.7,46.3,14.2,46.3,11.6,46.3z M73.3,80.9c2.6,0,5.1,0,7.6,0c0-11.6,0-23.1,0-34.6c-2.6,0-5.1,0-7.6,0
		C73.3,57.8,73.3,69.3,73.3,80.9z M7.7,42.3c5.2,0,10.3,0,15.3,0c0-1.3,0-2.5,0-3.7c-5.1,0-10.2,0-15.3,0
		C7.7,39.9,7.7,41.1,7.7,42.3z M69.4,38.6c0,1.3,0,2.5,0,3.7c5.1,0,10.2,0,15.3,0c0-1.3,0-2.5,0-3.7C79.6,38.6,74.5,38.6,69.4,38.6z
		 M23.1,84.9c-5.2,0-10.2,0-15.3,0c0,1.3,0,2.5,0,3.7c5.1,0,10.2,0,15.3,0C23.1,87.3,23.1,86.1,23.1,84.9z M84.8,84.9
		c-5.2,0-10.3,0-15.3,0c0,1.3,0,2.5,0,3.7c5.1,0,10.2,0,15.3,0C84.8,87.3,84.8,86.1,84.8,84.9z"/>
	<path class="st0" d="M48.2,77.1c0,1.3,0,2.6,0,3.8c-1.3,0-2.5,0-3.8,0c0-1.2,0-2.5,0-3.8c-0.3,0-0.6,0-0.9,0c-2.7,0-5.4,0-8,0
		c-0.6,0-0.8-0.1-0.8-0.7c0-1,0-2,0-3.1c3.2,0,6.4,0,9.6,0c0-2.6,0-5.1,0-7.8c-0.8,0-1.5,0-2.3,0c-4.2-0.2-7.4-3.6-7.3-7.9
		c0-4,3.4-7.3,7.5-7.5c0.7,0,1.3,0,2.1,0c0-1.3,0-2.5,0-3.8c1.3,0,2.5,0,3.8,0c0,1.2,0,2.5,0,3.8c0.4,0,0.6,0,0.9,0
		c2.1,0,4.1,0,6.2,0c0.5,0,0.7,0.1,0.7,0.7c0,1,0,2.1,0,3.2c-2.6,0-5.1,0-7.7,0c0,2.6,0,5.1,0,7.7c0.8,0,1.5,0,2.2,0
		c4.1,0.2,7.3,3.4,7.4,7.5c0.1,4.3-3.2,7.7-7.5,7.9C49.6,77.1,49,77.1,48.2,77.1z M44.3,53.9c-0.8,0-1.4,0-2.1,0
		c-1.6,0.1-3,1.2-3.5,2.7c-0.5,1.6-0.1,2.9,1.1,4c1.3,1.2,2.9,1,4.5,0.9c0-2.4,0-4.7,0-7C44.3,54.4,44.3,54.2,44.3,53.9z M48.2,73.2
		c2.1,0.1,4.1,0,5.2-2c0.8-1.4,0.6-3.1-0.5-4.4c-1-1.2-3.1-1.7-4.8-1.2c0,2.3,0,4.7,0,7C48.2,72.8,48.2,73,48.2,73.2z"/>
	<path class="st0" d="M53.9,23.2c0,4.3-3.5,7.6-7.7,7.6c-4.3,0-7.7-3.5-7.6-7.7c0-4.3,3.5-7.6,7.7-7.6C50.5,15.5,54,18.9,53.9,23.2z
		 M42.4,23.1c-0.1,2.1,1.7,3.9,3.8,3.9c2.1,0,3.8-1.7,3.9-3.8c0.1-2.1-1.6-3.9-3.8-4C44.2,19.2,42.4,20.9,42.4,23.1z"/>
</g>
</svg>
