<?xml version="1.0" encoding="utf-8"?>
<!-- Generator: Adobe Illustrator 22.1.0, SVG Export Plug-In . SVG Version: 6.00 Build 0)  -->
<svg version="1.1" id="Layer_1" xmlns="http://www.w3.org/2000/svg" xmlns:xlink="http://www.w3.org/1999/xlink" x="0px" y="0px"
	 viewBox="0 0 2175.1 1114.2" style="enable-background:new 0 0 2175.1 1114.2;" xml:space="preserve">
<style type="text/css">
	.st0{fill:#777777;}
</style>
<g>
	<g>
		<path class="st0" d="M424.4,398.2h89.4l116.6,171.3V398.2h90.2v309.7h-90.2l-116-170v170h-90V398.2z"/>
		<path class="st0" d="M990.4,581.2l83.9,25.3c-5.6,23.5-14.5,43.2-26.6,58.9c-12.1,15.8-27.2,27.7-45.1,35.7c-18,8-40.8,12-68.6,12
			c-33.7,0-61.2-4.9-82.5-14.7c-21.3-9.8-39.8-27-55.2-51.6c-15.5-24.6-23.2-56.2-23.2-94.6c0-51.2,13.6-90.6,40.9-118.1
			c27.3-27.5,65.8-41.3,115.7-41.3c39,0,69.7,7.9,92,23.7c22.3,15.8,38.9,40,49.8,72.7l-84.5,18.8c-3-9.4-6.1-16.3-9.3-20.7
			c-5.3-7.3-11.9-13-19.6-16.9c-7.7-3.9-16.4-5.9-26-5.9c-21.7,0-38.3,8.7-49.9,26.2c-8.7,12.9-13.1,33.3-13.1,61
			c0,34.3,5.2,57.9,15.6,70.6c10.4,12.7,25.1,19.1,43.9,19.1c18.3,0,32.1-5.1,41.5-15.4C979.3,615.7,986.1,600.7,990.4,581.2z"/>
		<path class="st0" d="M1322.2,398.2h95.5v184.5c0,18.3-2.8,35.6-8.6,51.8c-5.7,16.3-14.6,30.5-26.8,42.6
			c-12.2,12.2-25,20.7-38.3,25.6c-18.6,6.9-40.9,10.3-67,10.3c-15.1,0-31.5-1.1-49.3-3.2c-17.8-2.1-32.7-6.3-44.7-12.6
			c-12-6.3-22.9-15.2-32.9-26.7s-16.7-23.4-20.4-35.7c-5.9-19.7-8.9-37.2-8.9-52.4V398.2h95.5v188.9c0,16.9,4.7,30.1,14,39.6
			c9.4,9.5,22.4,14.2,39,14.2c16.5,0,29.4-4.7,38.8-14c9.4-9.4,14-22.6,14-39.8V398.2z"/>
		<path class="st0" d="M1656.7,656.8h-108.6l-15.1,51.1h-97.7l116.4-309.7h104.4l116.4,309.7h-100.2L1656.7,656.8z M1636.9,589.8
			l-34.2-111.3l-33.8,111.3H1636.9z"/>
	</g>
</g>
<g>
	<path class="st0" d="M2175.1,1114.2H0V0h2175.1V1114.2z M74.3,1039.9h2026.6V74.3H74.3V1039.9z"/>
</g>
<g>
	<path class="st0" d="M2014.2,953.3H161V161h1853.2V953.3z M230.3,883.9h1714.6V230.3H230.3V883.9z"/>
</g>
</svg>
