<?xml version="1.0" encoding="utf-8"?>
<!-- Generator: Adobe Illustrator 22.1.0, SVG Export Plug-In . SVG Version: 6.00 Build 0)  -->
<svg version="1.1" id="Layer_1" xmlns="http://www.w3.org/2000/svg" xmlns:xlink="http://www.w3.org/1999/xlink" x="0px" y="0px"
	 viewBox="0 0 243.8 110.5" style="enable-background:new 0 0 243.8 110.5;" xml:space="preserve">
<style type="text/css">
	.st0{fill:#1A468D;}
</style>
<g>
	<path class="st0" d="M197.3,52.1h9.9c5.6,0,12.5-4.6,15.3-10.2L243.8,0h-3c0,0-2.5,7.1-10.4,7L82.8,6.9c-5.6,0-12.5,4.6-15.3,10.2
		l-21,41.3h-9.9c-5.6,0-12.5,4.6-15.3,10.2L0,110.5h3c0,0,2.5-7.1,10.4-7l147.6,0.1c5.7,0,12.5-4.6,15.3-10.2L197.3,52.1z
		 M94.1,58.5H49.4C50.2,56.8,53,52,59.6,52h49.9l21.9-21.5l4.2,21.5l58.9,0.1c-0.8,1.7-3.6,6.5-10.2,6.5h-41.8l-5.2,2.2l5.1,26.7
		l-27.5-14.2L77.4,83.5l22-21.6L94.1,58.5z"/>
</g>
</svg>
