<?xml version="1.0" encoding="utf-8"?>
<!-- Generator: Adobe Illustrator 22.1.0, SVG Export Plug-In . SVG Version: 6.00 Build 0)  -->
<svg version="1.1" id="Layer_1" xmlns="http://www.w3.org/2000/svg" xmlns:xlink="http://www.w3.org/1999/xlink" x="0px" y="0px"
	 viewBox="0 0 674.6 98.5" style="enable-background:new 0 0 674.6 98.5;" xml:space="preserve">
<style type="text/css">
	.st0{fill:#1A468D;}
</style>
<g>
	<path class="st0" d="M51.9,19.7l0.6-1.5c1.4-3.7,1.1-6.9-1.9-6.9c-3.3,0-5.9,2.8-7,5.6c-4.7,12.6,23,6.4,14.4,29.7
		c-5.1,13.6-14.8,19.6-28.5,19.6c-12.9,0-18.3-4.7-13.4-17.9l0.8-2.2H32l-0.6,1.5c-2,5.4-0.7,7.4,2.3,7.4c3.2,0,6-2.7,7.3-6.2
		c4.7-12.6-22.1-6.3-13.6-28.9C32.2,7,41.3,0,54.4,0c13.6,0,17.1,6,12,19.6L51.9,19.7L51.9,19.7z"/>
	<polygon class="st0" points="80.9,1.3 116.3,1.3 111.2,14.9 91.4,14.9 87.3,25.8 105.9,25.8 101,38.8 82.4,38.8 77.7,51.5 
		98.3,51.5 93.2,65.1 57.1,65.1 	"/>
	<polygon class="st0" points="263.3,1.3 278.9,1.3 255.1,65.1 239.5,65.1 	"/>
	<polygon class="st0" points="288.7,15.4 277,15.4 282.2,1.3 321.2,1.3 316,15.4 304.2,15.4 285.7,65.1 270.2,65.1 	"/>
	<polygon class="st0" points="324,40 323.1,1.3 340.2,1.3 337.8,23.6 338,23.6 352.1,1.3 369.2,1.3 339.5,40 330.2,65.1 314.6,65.1 
			"/>
	<polygon class="st0" points="436.5,1.3 471.9,1.3 466.9,14.9 447,14.9 443,25.8 461.6,25.8 456.7,38.8 438.1,38.8 433.4,51.5 
		454,51.5 448.9,65.1 412.8,65.1 	"/>
	<polygon class="st0" points="520.4,1.3 537,1.3 525.3,49.3 525.5,49.3 549.7,1.3 566.3,1.3 529.6,65.1 509.5,65.1 	"/>
	<polygon class="st0" points="572,1.3 587.5,1.3 563.7,65.1 548.2,65.1 	"/>
	<polygon class="st0" points="639.2,1.3 674.6,1.3 669.6,14.9 649.7,14.9 645.7,25.8 664.3,25.8 659.4,38.8 640.8,38.8 636.1,51.5 
		656.7,51.5 651.6,65.1 615.5,65.1 	"/>
	<polygon class="st0" points="8.5,75.6 21.7,75.6 20.3,79.3 11.9,79.3 9.9,84.6 17.8,84.6 16.4,88.3 8.5,88.3 4.8,98.1 0,98.1 	"/>
	<polygon class="st0" points="54.3,75.6 52.9,79.3 44.4,79.3 42.4,84.6 50.4,84.6 49,88.3 41,88.3 38.8,94.4 47.5,94.4 46.1,98.1 
		32.6,98.1 41.1,75.6 	"/>
	<polygon class="st0" points="123.7,75.6 122.3,79.3 113.9,79.3 111.9,84.6 119.8,84.6 118.4,88.3 110.5,88.3 108.2,94.4 117,94.4 
		115.6,98.1 102,98.1 110.5,75.6 	"/>
	<path class="st0" d="M179.3,89.6h4.6l1.5-10.1h-0.1L179.3,89.6z M183.9,75.6h5.9l-2.2,22.5h-5l0.7-4.8H177l-2.9,4.8h-5L183.9,75.6z
		"/>
	<polygon class="st0" points="206.5,98.1 215,75.6 219.8,75.6 212.7,94.4 221.1,94.4 219.7,98.1 	"/>
	<polygon class="st0" points="356.6,75.6 355.2,79.3 346.8,79.3 344.8,84.6 352.8,84.6 351.4,88.3 343.4,88.3 341.1,94.4 
		349.9,94.4 348.5,98.1 335,98.1 343.4,75.6 	"/>
	<polygon class="st0" points="404.6,98.1 413.1,75.6 417.9,75.6 409.4,98.1 	"/>
	<polygon class="st0" points="452.5,75.6 451.1,79.3 445.9,79.3 438.9,98.1 434.1,98.1 441.2,79.3 436,79.3 437.4,75.6 	"/>
	<polygon class="st0" points="537.5,75.6 537.5,91 537.6,91 543.4,75.6 547.7,75.6 539.3,98.1 533.8,98.1 533.9,82.3 533.9,82.3 
		527.9,98.1 523.6,98.1 532,75.6 	"/>
	<polygon class="st0" points="560.1,98.1 568.5,75.6 573.3,75.6 564.8,98.1 	"/>
	<polygon class="st0" points="635.2,75.6 635.2,91 635.3,91 641.1,75.6 645.4,75.6 637,98.1 631.5,98.1 631.6,82.3 631.6,82.3 
		625.6,98.1 621.3,98.1 629.7,75.6 	"/>
	<path class="st0" d="M139.8,20.7c2.7-7.2,2.2-9.4-0.8-9.4c-4.8,0-7,4.6-13.4,21.9c-6.4,17.2-7.7,21.9-2.9,21.9
		c3.8,0,6-3.6,10.5-15.6h15.1l-1.8,4.7c-6.7,17.8-18,22.1-28,22.1c-17.5,0-17.8-9.4-9-33.1C118.6,8.8,127,0.1,143.2,0.1
		c14.1,0,16.4,7.9,11.8,20.2l-1.5,4h-15.1L139.8,20.7z"/>
	<path class="st0" d="M183.4,1.3l-17.1,46c-2.3,6.2-1.1,7.8,1.8,7.8s5.3-1.6,7.6-7.8l17.1-46h15.6l-15.6,41.8
		c-6.7,17.8-15.9,23.2-28.9,23.2c-13.1,0-18.3-5.4-11.6-23.2l15.6-41.8C167.9,1.3,183.4,1.3,183.4,1.3z"/>
	<path class="st0" d="M220.9,28.3h3.1c4.4,0,7.7-3,9.4-7.6c1.9-5.2,0.8-7.4-3.8-7.4h-3L220.9,28.3z M215.4,1.3h24.4
		c11.9,0,13.7,7.1,10.1,17c-3.2,8.5-8.3,14-15.9,15.2l-0.1,0.2c7.3,0.7,7.6,5.8,4.5,14.3l-2,5.4c-1.2,3.3-2.8,7.6-2.5,8.8
		c0.1,0.7,0.2,1.4,1,2l-0.3,0.9H218c-0.2-3.4,2-9.5,3-12.1l1.6-4.3c2.7-7.2,2.1-9.1-1.7-9.1h-4.1l-9.5,25.5h-15.6L215.4,1.3z"/>
	<path class="st0" d="M408.6,19.7l0.6-1.5c1.4-3.7,1.1-6.9-1.9-6.9c-3.3,0-5.9,2.8-7,5.6c-4.7,12.6,23,6.4,14.4,29.7
		c-5.1,13.6-14.8,19.6-28.5,19.6c-12.9,0-18.3-4.7-13.4-17.9l0.8-2.2h15.1l-0.6,1.5c-2,5.4-0.7,7.4,2.3,7.4c3.2,0,6-2.7,7.3-6.2
		c4.7-12.6-22.1-6.3-13.7-28.9C388.8,7,397.9,0,411,0c13.6,0,17.1,6,12,19.6L408.6,19.7L408.6,19.7z"/>
	<path class="st0" d="M483.3,28.3h3.1c4.4,0,7.7-3,9.4-7.6c1.9-5.2,0.8-7.4-3.8-7.4h-3L483.3,28.3z M477.8,1.3h24.4
		c11.9,0,13.7,7.1,10.1,17c-3.2,8.5-8.3,14-15.9,15.2l-0.1,0.2c7.3,0.7,7.6,5.8,4.5,14.3l-2,5.4c-1.2,3.3-2.8,7.6-2.5,8.8
		c0.1,0.7,0.2,1.4,1,2l-0.3,0.9h-16.6c-0.2-3.4,2-9.5,3-12.1l1.6-4.3c2.7-7.2,2.1-9.1-1.7-9.1h-4.1l-9.6,25.5H454L477.8,1.3z"/>
	<path class="st0" d="M610.9,20.7c2.7-7.2,2.2-9.4-0.8-9.4c-4.8,0-7,4.6-13.4,21.9c-6.4,17.2-7.7,21.9-2.9,21.9
		c3.8,0,6-3.6,10.5-15.6h15.1l-1.8,4.7c-6.7,17.8-18,22.1-28,22.1c-17.5,0-17.8-9.4-9-33.1c9.1-24.4,17.5-33.1,33.7-33.1
		c14.1,0,16.4,7.9,11.8,20.2l-1.5,4h-15L610.9,20.7z"/>
	<path class="st0" d="M72,94.7h2.1c3.3,0,4.7-2,7-8.1c1.9-5.1,2.5-7.7-1.2-7.7h-2L72,94.7z M74.5,75.6h7.8c6.6,0,6.2,4.3,3.7,10.9
		c-3,8-6.1,11.6-12.5,11.6H66L74.5,75.6z"/>
	<path class="st0" d="M144.7,85.4h2c2.3,0,3.9-0.9,4.8-3.4c0.8-2.1,0-3.1-2.1-3.1h-2.3L144.7,85.4z M143.7,75.6h8.8
		c3.9,0,5.6,2,4.1,5.8c-1.1,3-3.1,5-6,5.5V87c3.1,0.4,2.9,2.1,1.2,6.9c-0.9,2.4-1.2,3.6-0.5,4l-0.1,0.2H146c-0.2-0.6,0-1.5,0.3-2.4
		l1.5-4.3c0.6-1.8,0.2-2.8-1.7-2.8h-2.5l-3.6,9.5h-4.8L143.7,75.6z"/>
	<path class="st0" d="M280,83.2c1.2-3.3,1.1-4.7-1.1-4.7c-2.4,0-3.8,2.3-6.2,8.7c-2.6,6.8-2,8,0,8c1.7,0,3.3-0.9,5.1-5.7h4.8
		c-1.8,4.9-4.7,9-10.9,9c-7.2,0-6.2-4.9-3.6-11.7s5.3-11.7,12.4-11.7c6.8,0,5.5,4.8,4.3,8L280,83.2L280,83.2z"/>
	<path class="st0" d="M308.8,85.4h2c2.3,0,3.9-0.9,4.8-3.4c0.8-2.1,0-3.1-2.1-3.1h-2.3L308.8,85.4z M307.8,75.6h8.8
		c3.9,0,5.6,2,4.1,5.8c-1.1,3-3.1,5-6,5.5V87c3.1,0.4,2.9,2.1,1.2,6.9c-0.9,2.4-1.2,3.6-0.5,4l-0.1,0.2h-5.2c-0.2-0.6,0-1.5,0.3-2.4
		l1.5-4.3c0.6-1.8,0.2-2.8-1.7-2.8h-2.6l-3.6,9.5h-4.8L307.8,75.6z"/>
	<path class="st0" d="M374.4,94.7h2.1c3.3,0,4.7-2,7-8.1c1.9-5.1,2.5-7.7-1.2-7.7h-2L374.4,94.7z M376.8,75.6h7.8
		c6.6,0,6.2,4.3,3.7,10.9c-3,8-6.1,11.6-12.5,11.6h-7.5L376.8,75.6z"/>
	<path class="st0" d="M501.5,75.6l-5.9,15.7c-0.8,2.2-0.9,3.9,1.3,3.9s3.4-1.7,4.3-3.9l5.9-15.7h4.8L506,91.3
		c-2.2,5.7-6.4,7.2-10.3,7.2c-3.9,0-7.1-1.2-4.8-7.2l5.9-15.7H501.5z"/>
	<path class="st0" d="M594.3,95.2c2.8,0,4.1-2.3,6.4-8.4c2.3-6,2.7-8.3-0.1-8.3c-2.8,0-4.2,2.3-6.4,8.3
		C591.8,92.9,591.4,95.2,594.3,95.2 M601.8,75.1c7.2,0,6.2,4.9,3.6,11.7c-2.6,6.8-5.3,11.7-12.4,11.7c-7.2,0-6.2-4.9-3.6-11.7
		C591.9,80,594.7,75.1,601.8,75.1"/>
</g>
</svg>
