<?xml version="1.0" encoding="utf-8"?>
<!-- Generator: Adobe Illustrator 22.1.0, SVG Export Plug-In . SVG Version: 6.00 Build 0)  -->
<svg version="1.1" id="Layer_1" xmlns="http://www.w3.org/2000/svg" xmlns:xlink="http://www.w3.org/1999/xlink" x="0px" y="0px"
	 viewBox="0 0 71.2 80.3" style="enable-background:new 0 0 71.2 80.3;" xml:space="preserve">
<style type="text/css">
	.st0{fill:none;stroke:#3C70BA;stroke-width:3;stroke-miterlimit:10;}
	.st1{clip-path:url(#SVGID_2_);}
	.st2{fill:none;stroke:#3C70BA;stroke-miterlimit:10;}
	.st3{clip-path:url(#SVGID_4_);}
</style>
<g>
	<g>
		<path class="st0" d="M28.4,32.2v8.7c0,0.5,0.3,0.8,0.8,0.8h8"/>
	</g>
	<g>
		<path class="st0" d="M41.3,32.2v8.7c0,0.5,0.3,0.8,0.8,0.8h8"/>
	</g>
	<g>
		<path class="st0" d="M54.3,32.2v8.7c0,0.5,0.3,0.8,0.8,0.8h8"/>
	</g>
	<g>
		<path class="st0" d="M28.4,46.4V55c0,0.5,0.3,0.8,0.8,0.8h8"/>
	</g>
	<g>
		<path class="st0" d="M41.3,46.4V55c0,0.5,0.3,0.8,0.8,0.8h8"/>
	</g>
	<g>
		<path class="st0" d="M54.3,46.4v22.8c0,0.5,0.3,0.8,0.8,0.8h8"/>
	</g>
	<g>
		<path class="st0" d="M37.2,70h-8c-0.4,0-0.8-0.4-0.8-0.8v-8.7"/>
	</g>
	<g>
		<path class="st0" d="M41.3,60.5v8.7c0,0.5,0.3,0.8,0.8,0.8h8"/>
	</g>
</g>
<path class="st0" d="M67.5,78.8h-46c-1.2,0-2.2-1-2.2-2.2v-73c0-1.2,1-2.2,2.2-2.2h46c1.2,0,2.2,1,2.2,2.2v73
	C69.7,77.9,68.7,78.8,67.5,78.8z"/>
<path class="st0" d="M12.4,78.8c-1.1,0-2-1-2-2.2v-73c0-1.2,0.9-2.2,2-2.2"/>
<path class="st0" d="M22.1,1.5H3.5c-1.1,0-2,1-2,2.2v73c0,1.2,0.9,2.2,2,2.2h19.3"/>
<path class="st0" d="M60.9,8.9H28.2c-1,0-1.9,0.8-1.9,1.9v11.3c0,1,0.8,1.9,1.9,1.9h32.6c1,0,1.9-0.8,1.9-1.9V10.8
	C62.7,9.8,61.9,8.9,60.9,8.9z"/>
<line class="st0" x1="41.2" y1="13.7" x2="41.2" y2="19.2"/>
<line class="st0" x1="46.2" y1="13.7" x2="46.2" y2="19.2"/>
<line class="st0" x1="51.3" y1="13.7" x2="51.3" y2="19.2"/>
<line class="st0" x1="56.3" y1="13.7" x2="56.3" y2="19.2"/>
<g>
	<defs>
		<polygon id="SVGID_1_" points="20.1,1.5 19.3,4.6 19.3,78.8 14.9,78.8 14.3,75.1 14.3,2.4 16.9,1.5 		"/>
	</defs>
	<clipPath id="SVGID_2_">
		<use xlink:href="#SVGID_1_"  style="overflow:visible;"/>
	</clipPath>
	<g class="st1">
		<line class="st2" x1="36.4" y1="-14.1" x2="12" y2="10.3"/>
		<line class="st2" x1="36.4" y1="-8.8" x2="12" y2="15.5"/>
		<line class="st2" x1="36.4" y1="-3.6" x2="12" y2="20.7"/>
		<line class="st2" x1="36.4" y1="1.6" x2="12" y2="26"/>
		<line class="st2" x1="36.4" y1="6.8" x2="12" y2="31.2"/>
		<line class="st2" x1="36.4" y1="12" x2="12" y2="36.4"/>
		<line class="st2" x1="36.4" y1="17.2" x2="12" y2="41.6"/>
		<line class="st2" x1="36.4" y1="22.4" x2="12" y2="46.8"/>
		<line class="st2" x1="36.4" y1="27.6" x2="12" y2="52"/>
		<line class="st2" x1="36.4" y1="32.8" x2="12" y2="57.2"/>
		<line class="st2" x1="36.4" y1="38" x2="12" y2="62.4"/>
		<line class="st2" x1="36.4" y1="43.2" x2="12" y2="67.6"/>
		<line class="st2" x1="36.4" y1="48.4" x2="12" y2="72.8"/>
		<line class="st2" x1="36.4" y1="53.6" x2="12" y2="78"/>
		<line class="st2" x1="36.4" y1="58.9" x2="12" y2="83.2"/>
		<line class="st2" x1="36.4" y1="64.1" x2="12" y2="88.4"/>
	</g>
</g>
<g>
	<defs>
		<polygon id="SVGID_3_" points="10.9,1.5 10.1,4.6 10.1,78.8 5.7,78.8 5.1,75.1 5.1,2.4 7.8,1.5 		"/>
	</defs>
	<clipPath id="SVGID_4_">
		<use xlink:href="#SVGID_3_"  style="overflow:visible;"/>
	</clipPath>
	<g class="st3">
		<line class="st2" x1="27.3" y1="-14.1" x2="2.9" y2="10.3"/>
		<line class="st2" x1="27.3" y1="-8.8" x2="2.9" y2="15.5"/>
		<line class="st2" x1="27.3" y1="-3.6" x2="2.9" y2="20.7"/>
		<line class="st2" x1="27.3" y1="1.6" x2="2.9" y2="26"/>
		<line class="st2" x1="27.3" y1="6.8" x2="2.9" y2="31.2"/>
		<line class="st2" x1="27.3" y1="12" x2="2.9" y2="36.4"/>
		<line class="st2" x1="27.3" y1="17.2" x2="2.9" y2="41.6"/>
		<line class="st2" x1="27.3" y1="22.4" x2="2.9" y2="46.8"/>
		<line class="st2" x1="27.3" y1="27.6" x2="2.9" y2="52"/>
		<line class="st2" x1="27.3" y1="32.8" x2="2.9" y2="57.2"/>
		<line class="st2" x1="27.3" y1="38" x2="2.9" y2="62.4"/>
		<line class="st2" x1="27.3" y1="43.2" x2="2.9" y2="67.6"/>
		<line class="st2" x1="27.3" y1="48.4" x2="2.9" y2="72.8"/>
		<line class="st2" x1="27.3" y1="53.6" x2="2.9" y2="78"/>
		<line class="st2" x1="27.3" y1="58.9" x2="2.9" y2="83.2"/>
		<line class="st2" x1="27.3" y1="64.1" x2="2.9" y2="88.4"/>
	</g>
</g>
</svg>
