<?xml version="1.0" encoding="utf-8"?>
<!-- Generator: Adobe Illustrator 22.1.0, SVG Export Plug-In . SVG Version: 6.00 Build 0)  -->
<svg version="1.1" id="Layer_1" xmlns="http://www.w3.org/2000/svg" xmlns:xlink="http://www.w3.org/1999/xlink" x="0px" y="0px"
	 viewBox="0 0 99.8 87.7" style="enable-background:new 0 0 99.8 87.7;" xml:space="preserve">
<style type="text/css">
	.st0{fill:none;stroke:#3C70BA;stroke-width:3.3;stroke-miterlimit:10;}
	.st1{fill:none;stroke:#3C70BA;stroke-width:3;stroke-miterlimit:10;}
	.st2{fill:none;stroke:#3C70BA;stroke-width:3.1;stroke-miterlimit:10;}
	.st3{clip-path:url(#SVGID_2_);}
	.st4{fill:none;stroke:#3C70BA;stroke-miterlimit:10;}
</style>
<path class="st0" d="M33,75h-29c-0.7,0-1.2-0.6-1.2-1.3V2.9c0-0.7,0.6-1.3,1.2-1.3h91.6c0.7,0,1.2,0.6,1.2,1.3v70.8
	c0,0.7-0.6,1.3-1.2,1.3h-29"/>
<path class="st1" d="M45.4,16.8l3.8-4.9c0.2-0.3,0.6-0.3,0.9,0l3.8,4.9c0.2,0.2,0.5,0.3,0.7,0.1l5.5-3c0.3-0.2,0.7,0,0.8,0.4l1.4,6
	c0.1,0.3,0.3,0.4,0.6,0.4l6.2-0.5c0.4,0,0.6,0.3,0.6,0.6l-1.1,6.1c0,0.3,0.1,0.5,0.4,0.6l5.8,2.1c0.3,0.1,0.5,0.5,0.3,0.8l-3.5,5.1
	c-0.2,0.2-0.1,0.5,0.1,0.7l4.5,4.3c0.3,0.2,0.2,0.7-0.1,0.9l-5.3,3.2c-0.2,0.1-0.3,0.4-0.2,0.7l2.4,5.7c0.1,0.3-0.1,0.7-0.4,0.7
	l-6.2,0.8c-0.3,0-0.5,0.3-0.5,0.5l-0.2,6.2c0,0.4-0.4,0.6-0.7,0.5l-5.9-1.8c-0.3-0.1-0.5,0-0.6,0.3L55.5,64
	c-0.2,0.3-0.6,0.4-0.8,0.2l-4.7-4c-0.2-0.2-0.5-0.2-0.7,0l-4.7,4c-0.3,0.2-0.7,0.1-0.8-0.2L41,58.4c-0.1-0.2-0.4-0.4-0.6-0.3
	l-5.9,1.8c-0.3,0.1-0.7-0.1-0.7-0.5l-0.1-6.2c0-0.3-0.2-0.5-0.5-0.5L27,51.8c-0.4,0-0.6-0.4-0.4-0.7l2.4-5.7c0.1-0.2,0-0.5-0.2-0.7
	l-5.3-3.2c-0.3-0.2-0.3-0.6-0.1-0.9l4.5-4.3c0.2-0.2,0.2-0.5,0.1-0.7l-3.5-5.1c-0.2-0.3-0.1-0.7,0.3-0.8l5.9-2.1
	c0.3-0.1,0.4-0.3,0.4-0.6l-1.1-6.1c-0.1-0.4,0.2-0.7,0.6-0.6l6.2,0.5c0.3,0,0.5-0.2,0.6-0.4l1.4-6c0.1-0.3,0.5-0.5,0.8-0.3l5.4,3
	C45,17.1,45.3,17.1,45.4,16.8z"/>
<path class="st1" d="M38.2,59.2v25.9c0,0.4,0.4,0.6,0.8,0.4l10.7-6.2c0.2-0.1,0.4-0.1,0.5,0L61,85.5c0.3,0.2,0.8,0,0.8-0.4V59.2"/>
<circle class="st2" cx="49.9" cy="38.3" r="11.5"/>
<g>
	<defs>
		<polygon id="SVGID_1_" points="49.9,60.1 49.9,79.3 39,85.5 39,58.5 42,58.5 44.5,64.2 		"/>
	</defs>
	<clipPath id="SVGID_2_">
		<use xlink:href="#SVGID_1_"  style="overflow:visible;"/>
	</clipPath>
	<g class="st3">
		<g>
			<line class="st4" x1="60.1" y1="22.9" x2="27.7" y2="55.3"/>
			<line class="st4" x1="60.8" y1="26.3" x2="28" y2="59.1"/>
			<line class="st4" x1="61.5" y1="29.7" x2="28.2" y2="63"/>
			<line class="st4" x1="62.2" y1="33" x2="28.4" y2="66.9"/>
			<line class="st4" x1="62.9" y1="36.4" x2="28.6" y2="70.7"/>
			<line class="st4" x1="63.6" y1="39.8" x2="28.9" y2="74.6"/>
			<line class="st4" x1="64.3" y1="43.2" x2="29.1" y2="78.4"/>
			<line class="st4" x1="65" y1="46.6" x2="29.3" y2="82.3"/>
			<line class="st4" x1="65.7" y1="50" x2="29.5" y2="86.2"/>
			<line class="st4" x1="66.4" y1="53.4" x2="29.8" y2="90"/>
			<line class="st4" x1="67.1" y1="56.8" x2="30" y2="93.9"/>
			<line class="st4" x1="67.8" y1="60.2" x2="30.2" y2="97.7"/>
			<line class="st4" x1="68.5" y1="63.6" x2="30.4" y2="101.6"/>
			<line class="st4" x1="69.2" y1="67" x2="30.7" y2="105.5"/>
			<line class="st4" x1="69.9" y1="70.3" x2="30.9" y2="109.3"/>
			<line class="st4" x1="70.6" y1="73.7" x2="31.1" y2="113.2"/>
		</g>
	</g>
</g>
</svg>
