<?xml version="1.0" encoding="utf-8"?>
<!-- Generator: Adobe Illustrator 22.1.0, SVG Export Plug-In . SVG Version: 6.00 Build 0)  -->
<svg version="1.1" id="Layer_1" xmlns="http://www.w3.org/2000/svg" xmlns:xlink="http://www.w3.org/1999/xlink" x="0px" y="0px"
	 viewBox="0 0 97.3 65.4" style="enable-background:new 0 0 97.3 65.4;" xml:space="preserve">
<style type="text/css">
	.st0{fill:#3C70BA;}
	.st1{clip-path:url(#SVGID_2_);}
	.st2{fill:none;stroke:#3C70BA;stroke-width:1.5;stroke-miterlimit:10;}
	.st3{clip-path:url(#SVGID_4_);}
	.st4{clip-path:url(#SVGID_6_);}
</style>
<g>
	<path class="st0" d="M17.1,17.1c0-0.6,0-3.1,0-3.7c-1,0-1.9,0-2.8,0c-1.2,0-1.8-0.6-1.8-1.9C12.4,6.9,16,3.1,20.6,3
		C28.4,3,36.2,3,44,3.1c4.7,0,8.3,3.9,8.2,8.5c0,1.3-0.6,1.8-1.8,1.8c-0.8,0-1.6,0-2.4,0c0,0-0.1,0-0.2,0.1c0,0.5,0,3,0,3.6
		c0.3,0,0.7,0,1,0c1.8,0,3.6,0,5.4,0.1c3.7,0.1,6.7,1.7,9.3,4.3c3.5,3.7,7.1,7.3,10.6,11.1c0.7,0.8,1.4,1,2.4,1
		c3.8-0.1,7.6,0,11.3,0c3.5,0,6.3,1.9,7.5,5.2c0.7,1.9,1.3,3.7,1.8,5.7c0.6,2.4-0.1,4.8-0.6,7.2c-0.1,0.4-0.2,0.9-0.3,1.3
		c-0.5,2.8-2.4,4.3-5.2,4.3c-0.8,0-1.1,0.2-1.3,1c-1.3,4.4-5.1,7.3-9.6,7.2c-4.4-0.1-8.2-3-9.3-7.3c-0.2-0.7-0.5-0.9-1.2-0.9
		c-8.8,0-17.6,0-26.4,0c-5.2,0-10.5,0-15.7,0c-0.7,0-1,0.1-1.2,0.9c-1.2,4.4-5.1,7.4-9.6,7.3c-4.5,0-8.4-3.2-9.5-7.6
		c-0.1-0.6-0.4-0.7-0.9-0.8c-3.7-0.7-6.2-3.6-6.3-7.3c0-4.5-0.1-9,0-13.5c0.1-4.2,1.8-7.9,4-11.3c1.5-2.3,3.3-4.4,5.5-5.9
		c1.8-1.3,3.8-2.1,6.1-2C16.1,17.1,16.5,17.1,17.1,17.1z M40.5,53.8c0.2,0,0.4,0,0.5,0c9.6,0,19.2,0,28.7,0c0.6,0,0.7-0.2,0.9-0.8
		c1.1-4.3,4.9-7.4,9.2-7.5c4.7-0.1,8.7,2.9,10,7.5c0.1,0.3,0.2,0.6,0.4,0.7c1.4,0.5,2.5-0.2,2.8-1.7c0.1-0.3,0.1-0.6,0.2-0.9
		c0.2-1.9,0.7-3.8,0.6-5.7c-0.2-1.8-1-3.6-1.6-5.3c-0.8-2.4-2.1-3.2-4.6-3.2c-15.4,0-30.7,0-46.1,0c-0.3,0-0.6,0-1,0
		C40.5,42.6,40.5,48.2,40.5,53.8z M7,53.6c1.6-4.9,4.8-7.8,9.1-8c2.1-0.1,4.1,0.4,5.9,1.5c2.5,1.6,3.8,3.8,4.4,6.6
		c3.6,0,7.1,0,10.6,0c0-5.6,0-11.2,0-16.8c-11.2,0-22.4,0-33.5,0c-0.1,0.1-0.1,0.2-0.1,0.2c0,4.2-0.1,8.3,0,12.5
		C3.4,51.9,5,53.4,7,53.6z M70.3,33.5c-0.1-0.2-0.1-0.3-0.2-0.3c-3.2-3.3-6.4-6.7-9.7-10c-1.8-1.8-4.2-2.7-6.8-2.7
		c-4.1,0-8.2,0-12.2,0c-0.3,0-0.5,0-0.8,0c0,4.4,0,8.7,0,13C50.5,33.5,60.3,33.5,70.3,33.5z M20.6,20.5c0,4.4,0,8.7,0,13
		c5.5,0,11,0,16.4,0c0-4.4,0-8.7,0-13C31.5,20.5,26.1,20.5,20.6,20.5z M17.1,33.5c0-4.3,0-8.6,0-12.8c-2.3-0.3-4.3,0.2-6.1,1.7
		c-3.2,2.5-5.3,5.8-6.7,9.6c-0.2,0.5-0.3,1-0.5,1.6C8.2,33.5,12.6,33.5,17.1,33.5z M16.1,10.2c10.9,0,21.7,0,32.6,0
		c-0.1-0.4-0.2-0.6-0.4-0.9c-1.1-2-2.8-2.7-5-2.7c-7,0-14,0-21,0c-0.7,0-1.4,0-2.1,0.1C18.2,6.8,16.6,8.2,16.1,10.2z M80.2,62.1
		c3.3,0.2,6.4-2.7,6.6-6.2c0.2-3.8-2.6-6.8-6.4-6.9c-3.4-0.1-6.5,2.8-6.7,6.1C73.5,59,76.2,61.9,80.2,62.1z M23.3,55.5
		c0-3.7-2.8-6.5-6.5-6.5c-3.5,0-6.6,3-6.6,6.6c0,3.7,3,6.5,6.8,6.5C20.4,62.1,23.3,59,23.3,55.5z M44.3,13.6c-7.9,0-15.8,0-23.7,0
		c0,0.6,0,3,0,3.6c7.9,0,15.8,0,23.7,0C44.3,16.7,44.3,14.2,44.3,13.6z"/>
	<path class="st0" d="M44.5,42.8c-1,0-1.6-0.6-1.7-1.6c0-1,0.6-1.7,1.6-1.7s1.7,0.7,1.7,1.7C46.1,42.1,45.5,42.8,44.5,42.8z"/>
</g>
<g>
	<defs>
		<polygon id="SVGID_1_" points="2.5,35.3 73.7,35.3 59.5,20.5 51,18.5 23.3,18.5 15,18.5 8.1,21.8 4.6,26.2 1.7,33.5 		"/>
	</defs>
	<clipPath id="SVGID_2_">
		<use xlink:href="#SVGID_1_"  style="overflow:visible;"/>
	</clipPath>
	<g class="st1">
		<line class="st2" x1="10.8" y1="85.5" x2="40.8" y2="-6.6"/>
		<line class="st2" x1="14.3" y1="86.9" x2="44.3" y2="-5.3"/>
		<line class="st2" x1="31.3" y1="92.2" x2="61.2" y2="0"/>
		<line class="st2" x1="35" y1="93.5" x2="65" y2="1.4"/>
		<line class="st2" x1="38.8" y1="94.8" x2="68.8" y2="2.7"/>
	</g>
</g>
<g>
	<defs>
		<circle id="SVGID_3_" cx="16.8" cy="55.5" r="4.4"/>
	</defs>
	<clipPath id="SVGID_4_">
		<use xlink:href="#SVGID_3_"  style="overflow:visible;"/>
	</clipPath>
	<g class="st3">
		<line class="st2" x1="-43.8" y1="86.5" x2="-18.1" y2="7.4"/>
		<line class="st2" x1="-40.3" y1="87.7" x2="-14.6" y2="8.5"/>
		<line class="st2" x1="-36.8" y1="88.8" x2="-11.1" y2="9.7"/>
		<line class="st2" x1="-33.3" y1="90" x2="-7.6" y2="10.8"/>
		<line class="st2" x1="-29.8" y1="91.1" x2="-4" y2="12"/>
		<line class="st2" x1="-26.3" y1="92.3" x2="-0.5" y2="13.1"/>
		<line class="st2" x1="-22.7" y1="93.4" x2="3" y2="14.3"/>
		<line class="st2" x1="-19.2" y1="94.5" x2="6.5" y2="15.4"/>
		<line class="st2" x1="-15.7" y1="95.7" x2="10" y2="16.5"/>
		<line class="st2" x1="-12.2" y1="96.8" x2="13.5" y2="17.7"/>
		<line class="st2" x1="-8.7" y1="98" x2="17" y2="18.8"/>
		<line class="st2" x1="-5.2" y1="99.1" x2="20.5" y2="20"/>
		<line class="st2" x1="-1.7" y1="100.2" x2="24" y2="21.1"/>
		<line class="st2" x1="1.8" y1="101.4" x2="27.6" y2="22.2"/>
		<line class="st2" x1="5.4" y1="102.5" x2="31.1" y2="23.4"/>
		<line class="st2" x1="8.9" y1="103.7" x2="34.6" y2="24.5"/>
		<line class="st2" x1="12.4" y1="104.8" x2="38.1" y2="25.7"/>
		<line class="st2" x1="15.9" y1="105.9" x2="41.6" y2="26.8"/>
		<line class="st2" x1="19.4" y1="107.1" x2="45.1" y2="27.9"/>
		<line class="st2" x1="22.9" y1="108.2" x2="48.6" y2="29.1"/>
		<line class="st2" x1="26.4" y1="109.4" x2="52.1" y2="30.2"/>
		<line class="st2" x1="29.9" y1="110.5" x2="55.7" y2="31.4"/>
		<line class="st2" x1="33.5" y1="111.7" x2="59.2" y2="32.5"/>
	</g>
</g>
<g>
	<defs>
		<circle id="SVGID_5_" cx="80.2" cy="55.5" r="4.4"/>
	</defs>
	<clipPath id="SVGID_6_">
		<use xlink:href="#SVGID_5_"  style="overflow:visible;"/>
	</clipPath>
	<g class="st4">
		<line class="st2" x1="19.7" y1="86.5" x2="45.4" y2="7.4"/>
		<line class="st2" x1="23.2" y1="87.7" x2="48.9" y2="8.5"/>
		<line class="st2" x1="26.7" y1="88.8" x2="52.4" y2="9.7"/>
		<line class="st2" x1="30.2" y1="90" x2="55.9" y2="10.8"/>
		<line class="st2" x1="33.7" y1="91.1" x2="59.5" y2="12"/>
		<line class="st2" x1="37.2" y1="92.3" x2="63" y2="13.1"/>
		<line class="st2" x1="40.8" y1="93.4" x2="66.5" y2="14.3"/>
		<line class="st2" x1="44.3" y1="94.5" x2="70" y2="15.4"/>
		<line class="st2" x1="47.8" y1="95.7" x2="73.5" y2="16.5"/>
		<line class="st2" x1="51.3" y1="96.8" x2="77" y2="17.7"/>
		<line class="st2" x1="54.8" y1="98" x2="80.5" y2="18.8"/>
		<line class="st2" x1="58.3" y1="99.1" x2="84" y2="20"/>
		<line class="st2" x1="61.8" y1="100.2" x2="87.5" y2="21.1"/>
		<line class="st2" x1="65.3" y1="101.4" x2="91.1" y2="22.2"/>
		<line class="st2" x1="68.9" y1="102.5" x2="94.6" y2="23.4"/>
		<line class="st2" x1="72.4" y1="103.7" x2="98.1" y2="24.5"/>
		<line class="st2" x1="75.9" y1="104.8" x2="101.6" y2="25.7"/>
		<line class="st2" x1="79.4" y1="105.9" x2="105.1" y2="26.8"/>
		<line class="st2" x1="82.9" y1="107.1" x2="108.6" y2="27.9"/>
		<line class="st2" x1="86.4" y1="108.2" x2="112.1" y2="29.1"/>
		<line class="st2" x1="89.9" y1="109.4" x2="115.6" y2="30.2"/>
		<line class="st2" x1="93.4" y1="110.5" x2="119.2" y2="31.4"/>
		<line class="st2" x1="97" y1="111.7" x2="122.7" y2="32.5"/>
	</g>
</g>
</svg>
