<?xml version="1.0" encoding="utf-8"?>
<!-- Generator: Adobe Illustrator 22.1.0, SVG Export Plug-In . SVG Version: 6.00 Build 0)  -->
<svg version="1.1" id="Layer_1" xmlns="http://www.w3.org/2000/svg" xmlns:xlink="http://www.w3.org/1999/xlink" x="0px" y="0px"
	 viewBox="0 0 110 99.5" style="enable-background:new 0 0 110 99.5;" xml:space="preserve">
<style type="text/css">
	.st0{fill:none;stroke:#3C70BA;stroke-width:3.7;stroke-miterlimit:10;}
	.st1{fill:none;stroke:#3C70BA;stroke-width:3.4;stroke-miterlimit:10;}
	.st2{clip-path:url(#SVGID_2_);}
	.st3{fill:none;stroke:#3C70BA;stroke-width:1.2;stroke-miterlimit:10;}
	.st4{clip-path:url(#SVGID_4_);}
	.st5{fill:none;stroke:#3C70BA;stroke-width:2;stroke-miterlimit:10;}
	.st6{clip-path:url(#SVGID_6_);}
</style>
<path class="st0" d="M55,2.5L4,36.9c-0.3,0.2-0.2,0.7,0.2,0.7h102c0.4,0,0.5-0.5,0.2-0.7l-51-34.4C55.3,2.4,55.2,2.4,55,2.5z"/>
<circle class="st1" cx="55.2" cy="22.8" r="6.4"/>
<path class="st0" d="M8.9,45.1c-2.3,0-4.3,1.9-4.3,4.3s1.9,4.3,4.3,4.3s4.3-1.9,4.3-4.3"/>
<path class="st0" d="M21.8,49.3c0,2.3,1.9,4.3,4.3,4.3s4.3-1.9,4.3-4.3s-1.9-4.3-4.3-4.3"/>
<line class="st0" x1="8.9" y1="45.1" x2="26.1" y2="45.1"/>
<path class="st0" d="M24.5,53.9v35.3h1.1c0,0,3.5,2.8,3.5,7.4H17.5h-4H5.9c0-4.6,3.5-7.4,3.5-7.4h1.1V53.9"/>
<path class="st0" d="M84.3,45.1c-2.3,0-4.3,1.9-4.3,4.3s1.9,4.3,4.3,4.3c2.3,0,4.3-1.9,4.3-4.3"/>
<path class="st0" d="M97.2,49.3c0,2.3,1.9,4.3,4.3,4.3c2.3,0,4.3-1.9,4.3-4.3s-1.9-4.3-4.3-4.3"/>
<line class="st0" x1="84.3" y1="45.1" x2="101.4" y2="45.1"/>
<path class="st0" d="M99.9,53.9v35.3h1.1c0,0,3.5,2.8,3.5,7.4H91.9h-3h-7.6c0-4.6,3.5-7.4,3.5-7.4h1.1V53.9"/>
<g>
	<path class="st1" d="M45.2,79.4h7.3h4.3h3c3.1,0,5.5-2.5,5.5-5.5c0-3.1-2.5-5.5-5.5-5.5h-3.4h-3.9c-3.1,0-5.5-2.5-5.5-5.5
		c0-3.1,2.5-5.5,5.5-5.5h3.8"/>
	<polyline class="st1" points="65.3,57.2 59.8,57.2 56.3,57.2 	"/>
	<line class="st1" x1="56.1" y1="51.9" x2="56.1" y2="84.8"/>
</g>
<g>
	<defs>
		<polygon id="SVGID_1_" points="17,45.1 17,95.6 5.9,95.6 7.4,91 10.5,88.3 10.5,53.3 5.9,52.5 4.7,48.1 7.9,45.2 		"/>
	</defs>
	<clipPath id="SVGID_2_">
		<use xlink:href="#SVGID_1_"  style="overflow:visible;"/>
	</clipPath>
	<g class="st2">
		<g>
			<g>
				<line class="st3" x1="31.7" y1="19.4" x2="-0.7" y2="51.8"/>
				<line class="st3" x1="32.5" y1="23.8" x2="-0.5" y2="56.8"/>
				<line class="st3" x1="33.4" y1="28.2" x2="-0.2" y2="61.8"/>
				<line class="st3" x1="34.3" y1="32.6" x2="0.1" y2="66.8"/>
				<line class="st3" x1="35.1" y1="37.1" x2="0.4" y2="71.8"/>
				<line class="st3" x1="36" y1="41.5" x2="0.7" y2="76.8"/>
				<line class="st3" x1="36.9" y1="45.9" x2="1" y2="81.8"/>
				<line class="st3" x1="37.8" y1="50.3" x2="1.2" y2="86.8"/>
				<line class="st3" x1="38.6" y1="54.8" x2="1.5" y2="91.8"/>
				<line class="st3" x1="39.5" y1="59.2" x2="1.8" y2="96.9"/>
				<line class="st3" x1="40.4" y1="63.6" x2="2.1" y2="101.9"/>
				<line class="st3" x1="41.2" y1="68" x2="2.4" y2="106.9"/>
				<line class="st3" x1="42.1" y1="72.4" x2="2.7" y2="111.9"/>
			</g>
		</g>
	</g>
</g>
<g>
	<defs>
		<polygon id="SVGID_3_" points="92,45.1 92,95.6 80.9,95.6 82.4,91 85.5,88.3 85.5,53.3 80.9,52.5 79.7,48.1 82.9,45.2 		"/>
	</defs>
	<clipPath id="SVGID_4_">
		<use xlink:href="#SVGID_3_"  style="overflow:visible;"/>
	</clipPath>
	<g class="st4">
		<g>
			<g>
				<line class="st3" x1="106.7" y1="19.4" x2="74.3" y2="51.8"/>
				<line class="st3" x1="107.6" y1="23.8" x2="74.6" y2="56.8"/>
				<line class="st3" x1="108.4" y1="28.2" x2="74.9" y2="61.8"/>
				<line class="st3" x1="109.3" y1="32.6" x2="75.1" y2="66.8"/>
				<line class="st3" x1="110.2" y1="37.1" x2="75.4" y2="71.8"/>
				<line class="st3" x1="111" y1="41.5" x2="75.7" y2="76.8"/>
				<line class="st3" x1="111.9" y1="45.9" x2="76" y2="81.8"/>
				<line class="st3" x1="112.8" y1="50.3" x2="76.3" y2="86.8"/>
				<line class="st3" x1="113.7" y1="54.8" x2="76.6" y2="91.8"/>
				<line class="st3" x1="114.5" y1="59.2" x2="76.8" y2="96.9"/>
				<line class="st3" x1="115.4" y1="63.6" x2="77.1" y2="101.9"/>
				<line class="st3" x1="116.3" y1="68" x2="77.4" y2="106.9"/>
				<line class="st3" x1="117.1" y1="72.4" x2="77.7" y2="111.9"/>
			</g>
		</g>
	</g>
</g>
<line class="st5" x1="86.2" y1="90.1" x2="99.7" y2="90.1"/>
<line class="st5" x1="9.7" y1="90.1" x2="23.2" y2="90.1"/>
<g>
	<defs>
		<polygon id="SVGID_5_" points="55.2,1.9 55.2,16.2 50.1,18.2 48.2,22.8 51,28.1 55.2,29.2 55.2,36.4 4.2,36.4 		"/>
	</defs>
	<clipPath id="SVGID_6_">
		<use xlink:href="#SVGID_5_"  style="overflow:visible;"/>
	</clipPath>
	<g class="st6">
		<g>
			<g>
				<line class="st3" x1="49.8" y1="-38.7" x2="4.2" y2="6.9"/>
				<line class="st3" x1="50.8" y1="-34.4" x2="4.5" y2="11.9"/>
				<line class="st3" x1="51.7" y1="-30.1" x2="4.8" y2="16.8"/>
				<line class="st3" x1="52.7" y1="-25.8" x2="5.1" y2="21.8"/>
				<line class="st3" x1="53.7" y1="-21.5" x2="5.5" y2="26.7"/>
				<line class="st3" x1="54.7" y1="-17.2" x2="5.8" y2="31.7"/>
				<line class="st3" x1="55.6" y1="-12.9" x2="6.1" y2="36.7"/>
				<line class="st3" x1="56.6" y1="-8.6" x2="6.4" y2="41.6"/>
				<line class="st3" x1="57.6" y1="-4.3" x2="6.7" y2="46.6"/>
				<line class="st3" x1="58.6" y1="0" x2="7" y2="51.6"/>
				<line class="st3" x1="59.6" y1="4.3" x2="7.4" y2="56.5"/>
				<line class="st3" x1="60.5" y1="8.6" x2="7.7" y2="61.5"/>
				<line class="st3" x1="61.5" y1="12.9" x2="8" y2="66.4"/>
				<line class="st3" x1="62.5" y1="17.2" x2="8.3" y2="71.4"/>
				<line class="st3" x1="63.5" y1="21.5" x2="8.6" y2="76.4"/>
				<line class="st3" x1="64.5" y1="25.8" x2="9" y2="81.3"/>
			</g>
		</g>
	</g>
</g>
<line class="st0" x1="4.2" y1="96.6" x2="106" y2="96.6"/>
</svg>
