<?xml version="1.0" encoding="utf-8"?>
<!-- Generator: Adobe Illustrator 22.1.0, SVG Export Plug-In . SVG Version: 6.00 Build 0)  -->
<svg version="1.1" id="Layer_1" xmlns="http://www.w3.org/2000/svg" xmlns:xlink="http://www.w3.org/1999/xlink" x="0px" y="0px"
	 viewBox="0 0 90.3 90.2" style="enable-background:new 0 0 90.3 90.2;" xml:space="preserve">
<style type="text/css">
	.st0{fill:#3C70BA;}
	.st1{clip-path:url(#SVGID_2_);}
	.st2{fill:none;stroke:#3C70BA;stroke-miterlimit:10;}
	.st3{clip-path:url(#SVGID_4_);}
</style>
<path class="st0" d="M45.2,90.2C20.3,90.2,0,70,0,45.1c0-12,4.7-23.3,13.3-31.8C21.8,4.7,33.1,0,45.1,0h0.1
	C70,0.1,90.3,20.3,90.3,45.1c0,12-4.7,23.3-13.2,31.9C68.5,85.5,57.2,90.2,45.2,90.2L45.2,90.2z M45.3,63.7c-0.5,0-1.1,0-1.7,0
	c-9.2,0.5-16.4,5.5-21.5,14.7l-0.4,0.8l0.7,0.5c6.3,4.4,14.3,6.9,22.6,6.9s16.2-2.4,22.8-6.9l0.8-0.5l-0.5-0.8
	C62.5,68.5,55.1,63.7,45.3,63.7z M45.2,60.1C56,60.1,64.7,65.5,71,76l0.6,1l0.9-0.8C85.3,65.3,90.1,47.1,84.2,31
	c-6-16.7-21.5-27.4-39.4-27.4c-0.5,0-1.1,0-1.6,0c-17,0.6-32.9,13-37.8,29.4c-5.5,18.2,2.3,34.9,12.4,43.3l0.9,0.7l0.6-1
	c6.2-10.5,14.9-15.8,25.8-15.9H45.2z"/>
<path class="st0" d="M45.1,53.7c-4.5,0-8.8-1.9-12-5.1c-3.1-3.2-4.8-7.4-4.8-11.8c0.1-9.2,7.5-16.7,16.5-16.7h0.3
	C54.5,20.3,62,27.8,61.9,37s-7.6,16.7-16.7,16.7H45.1z M45.3,23.7c-7.4,0.1-13.3,6-13.3,13.2c0,3.5,1.4,6.8,3.9,9.3s5.8,3.9,9.3,3.9
	c7.3,0,13.2-5.9,13.2-13.2c0-3.5-1.4-6.9-3.9-9.4C51.9,25.1,48.7,23.7,45.3,23.7L45.3,23.7L45.3,23.7z"/>
<g>
	<defs>
		<polygon id="SVGID_1_" points="45,21.5 37,24.1 31,29.4 29.6,40.7 34.5,50.5 42.8,52.5 45,52.5 		"/>
	</defs>
	<clipPath id="SVGID_2_">
		<use xlink:href="#SVGID_1_"  style="overflow:visible;"/>
	</clipPath>
	<g class="st1">
		<line class="st2" x1="46.3" y1="1.9" x2="31" y2="17.2"/>
		<line class="st2" x1="46.3" y1="6.2" x2="31" y2="21.5"/>
		<line class="st2" x1="46.3" y1="10.5" x2="31" y2="25.8"/>
		<line class="st2" x1="46.3" y1="14.8" x2="31" y2="30.1"/>
		<line class="st2" x1="46.3" y1="19.1" x2="31" y2="34.4"/>
		<line class="st2" x1="46.3" y1="23.4" x2="31" y2="38.7"/>
		<line class="st2" x1="46.3" y1="27.7" x2="31" y2="43"/>
		<line class="st2" x1="46.3" y1="32" x2="31" y2="47.3"/>
		<line class="st2" x1="46.3" y1="36.3" x2="31" y2="51.6"/>
		<line class="st2" x1="46.3" y1="40.6" x2="31" y2="55.9"/>
		<line class="st2" x1="46.3" y1="44.9" x2="31" y2="60.2"/>
		<line class="st2" x1="46.3" y1="49.2" x2="31" y2="64.5"/>
		<line class="st2" x1="46.3" y1="53.5" x2="31" y2="68.8"/>
		<line class="st2" x1="46.3" y1="57.8" x2="31" y2="73.2"/>
	</g>
</g>
<g>
	<defs>
		<polygon id="SVGID_3_" points="45,61.3 45,90.2 39,88.3 25.3,83.5 19.5,79 23.3,73.5 29.6,66.1 35.8,63.7 42.3,62.3 		"/>
	</defs>
	<clipPath id="SVGID_4_">
		<use xlink:href="#SVGID_3_"  style="overflow:visible;"/>
	</clipPath>
	<g class="st3">
		<line class="st2" x1="43.5" y1="35.2" x2="19.5" y2="59.2"/>
		<line class="st2" x1="44.2" y1="38.4" x2="19.5" y2="63.2"/>
		<line class="st2" x1="45" y1="41.7" x2="19.5" y2="67.1"/>
		<line class="st2" x1="45.7" y1="45" x2="19.5" y2="71.1"/>
		<line class="st2" x1="46.4" y1="48.2" x2="19.5" y2="75.1"/>
		<line class="st2" x1="47.1" y1="51.5" x2="19.5" y2="79"/>
		<line class="st2" x1="47.8" y1="54.7" x2="19.5" y2="83"/>
		<line class="st2" x1="48.5" y1="58" x2="19.5" y2="87"/>
		<line class="st2" x1="49.2" y1="61.3" x2="19.5" y2="90.9"/>
		<line class="st2" x1="49.9" y1="64.5" x2="19.5" y2="94.9"/>
		<line class="st2" x1="50.6" y1="67.8" x2="19.5" y2="98.9"/>
		<line class="st2" x1="51.3" y1="71.1" x2="19.5" y2="102.8"/>
		<line class="st2" x1="52" y1="74.3" x2="19.5" y2="106.8"/>
		<line class="st2" x1="52.7" y1="77.6" x2="19.5" y2="110.8"/>
	</g>
</g>
</svg>
