<?xml version="1.0" encoding="utf-8"?>
<!-- Generator: Adobe Illustrator 22.1.0, SVG Export Plug-In . SVG Version: 6.00 Build 0)  -->
<svg version="1.1" id="Layer_1" xmlns="http://www.w3.org/2000/svg" xmlns:xlink="http://www.w3.org/1999/xlink" x="0px" y="0px"
	 viewBox="0 0 55.7 57.7" style="enable-background:new 0 0 55.7 57.7;" xml:space="preserve">
<style type="text/css">
	.st0{fill:none;stroke:#3C70BA;stroke-width:2.2;stroke-miterlimit:10;}
	.st1{fill:none;stroke:#3C70BA;stroke-width:1.8;stroke-miterlimit:10;}
	.st2{clip-path:url(#SVGID_2_);}
	.st3{fill:none;stroke:#3C70BA;stroke-width:0.7;stroke-miterlimit:10;}
	.st4{clip-path:url(#SVGID_4_);}
	.st5{clip-path:url(#SVGID_6_);}
</style>
<g>
	<path class="st0" d="M51.7,2.7H14.9c-0.2,0-0.3,0.1-0.3,0.3v23.4c0,0.2,0.1,0.3,0.3,0.3h36.8c0.2,0,0.3-0.1,0.3-0.3V3
		C52,2.8,51.9,2.7,51.7,2.7z"/>
	<circle class="st0" cx="33.3" cy="14.7" r="6.2"/>
	<path class="st0" d="M46,2.7c0,3.3,2.7,6,6,6"/>
	<path class="st0" d="M20.5,2.7c0,3.3-2.7,6-6,6"/>
	<path class="st0" d="M46,26.6c0-3.3,2.7-6,6-6"/>
	<path class="st0" d="M20.5,26.6c0-3.3-2.7-6-6-6"/>
</g>
<g>
	<path class="st1" d="M14.5,2.7H8.8C8.6,2.7,8.5,2.8,8.5,3v23.4c0,0.2,0.1,0.3,0.3,0.3h5.7"/>
</g>
<g>
	<path class="st0" d="M19.5,2.7H2.8C2.6,2.7,2.5,2.8,2.5,3v23.4c0,0.2,0.1,0.3,0.3,0.3h16.7"/>
</g>
<g>
	<defs>
		<polygon id="SVGID_1_" points="15.1,2.7 11.1,2.7 11.1,26.6 15.1,26.6 		"/>
	</defs>
	<clipPath id="SVGID_2_">
		<use xlink:href="#SVGID_1_"  style="overflow:visible;"/>
	</clipPath>
	<g class="st2">
		<line class="st3" x1="15.6" y1="-16.2" x2="1.5" y2="-2.1"/>
		<line class="st3" x1="15.6" y1="-12.5" x2="1.5" y2="1.6"/>
		<line class="st3" x1="15.6" y1="-8.8" x2="1.5" y2="5.3"/>
		<line class="st3" x1="15.6" y1="-5.1" x2="1.5" y2="9"/>
		<line class="st3" x1="15.6" y1="-1.4" x2="1.5" y2="12.7"/>
		<line class="st3" x1="15.6" y1="2.3" x2="1.5" y2="16.4"/>
		<line class="st3" x1="15.6" y1="5.9" x2="1.5" y2="20"/>
		<line class="st3" x1="15.6" y1="9.6" x2="1.5" y2="23.7"/>
		<line class="st3" x1="15.6" y1="13.3" x2="1.5" y2="27.4"/>
		<line class="st3" x1="15.6" y1="17" x2="1.5" y2="31.1"/>
		<line class="st3" x1="15.6" y1="20.7" x2="1.5" y2="34.8"/>
		<line class="st3" x1="15.6" y1="24.4" x2="1.5" y2="38.5"/>
		<line class="st3" x1="15.6" y1="28" x2="1.5" y2="42.1"/>
		<line class="st3" x1="15.6" y1="31.7" x2="1.5" y2="45.8"/>
		<line class="st3" x1="15.6" y1="35.4" x2="1.5" y2="49.5"/>
	</g>
</g>
<g>
	<defs>
		<polygon id="SVGID_3_" points="9.1,2.7 5.4,2.7 5.4,26.6 9.2,26.6 		"/>
	</defs>
	<clipPath id="SVGID_4_">
		<use xlink:href="#SVGID_3_"  style="overflow:visible;"/>
	</clipPath>
	<g class="st4">
		<line class="st3" x1="10.7" y1="-15.2" x2="-3.4" y2="-1.1"/>
		<line class="st3" x1="10.7" y1="-11.5" x2="-3.4" y2="2.6"/>
		<line class="st3" x1="10.7" y1="-7.8" x2="-3.4" y2="6.3"/>
		<line class="st3" x1="10.7" y1="-4.1" x2="-3.4" y2="10"/>
		<line class="st3" x1="10.7" y1="-0.4" x2="-3.4" y2="13.7"/>
		<line class="st3" x1="10.7" y1="3.3" x2="-3.4" y2="17.4"/>
		<line class="st3" x1="10.7" y1="6.9" x2="-3.4" y2="21"/>
		<line class="st3" x1="10.7" y1="10.6" x2="-3.4" y2="24.7"/>
		<line class="st3" x1="10.7" y1="14.3" x2="-3.4" y2="28.4"/>
		<line class="st3" x1="10.7" y1="18" x2="-3.4" y2="32.1"/>
		<line class="st3" x1="10.7" y1="21.7" x2="-3.4" y2="35.8"/>
		<line class="st3" x1="10.7" y1="25.4" x2="-3.4" y2="39.5"/>
		<line class="st3" x1="10.7" y1="29" x2="-3.4" y2="43.1"/>
		<line class="st3" x1="10.7" y1="32.7" x2="-3.4" y2="46.8"/>
		<line class="st3" x1="10.7" y1="36.4" x2="-3.4" y2="50.5"/>
	</g>
</g>
<path class="st0" d="M48.6,49.6h-4.4l-13,6c-0.8,0.4-1.6,0.3-2.4-0.1L3.1,41.3c-2.4-1.3-1.1-5,1.6-4.5l23.1,3.9l7.4-6.6
	c0.3-0.2,0.6-0.4,1-0.4h12.4"/>
<path class="st0" d="M36.9,42l-4.1,3.7l-2.6,2.4c-0.6,0.5-1.4,0.9-2.3,0.9c-1.9,0-3.5-1.6-3.5-3.5c0-1.1,0.5-2,1.2-2.6l1.8-1.6
	l0.6-0.5"/>
<rect x="48.6" y="31.8" transform="matrix(-1 -1.224647e-16 1.224647e-16 -1 102.5549 83.2662)" class="st0" width="5.3" height="19.6"/>
<g>
	<defs>
		<path id="SVGID_5_" d="M2.9,38.3l31.3,13.6l3.2,0.2l11.3-6.3c0,0,0.4,3.9-0.9,3.9c-1.3,0-4,0.3-4,0.3l-12.4,5.8l-2.9-0.4L3.1,41.3
			C3.1,41.3,0.3,38.6,2.9,38.3z"/>
	</defs>
	<clipPath id="SVGID_6_">
		<use xlink:href="#SVGID_5_"  style="overflow:visible;"/>
	</clipPath>
	<g class="st5">
		<line class="st3" x1="37.8" y1="5.8" x2="-10.7" y2="54.3"/>
		<line class="st3" x1="39.1" y1="8.2" x2="-8.3" y2="55.5"/>
		<line class="st3" x1="40.3" y1="10.6" x2="-5.8" y2="56.7"/>
		<line class="st3" x1="41.6" y1="13" x2="-3.4" y2="58"/>
		<line class="st3" x1="42.9" y1="15.4" x2="-0.9" y2="59.2"/>
		<line class="st3" x1="44.1" y1="17.8" x2="1.6" y2="60.4"/>
		<line class="st3" x1="45.4" y1="20.3" x2="4" y2="61.6"/>
		<line class="st3" x1="46.7" y1="22.7" x2="6.5" y2="62.9"/>
		<line class="st3" x1="47.9" y1="25.1" x2="8.9" y2="64.1"/>
		<line class="st3" x1="49.2" y1="27.5" x2="11.4" y2="65.3"/>
		<line class="st3" x1="50.5" y1="29.9" x2="13.8" y2="66.5"/>
		<line class="st3" x1="51.8" y1="32.3" x2="16.3" y2="67.8"/>
		<line class="st3" x1="53" y1="34.7" x2="18.8" y2="69"/>
		<line class="st3" x1="54.3" y1="37.1" x2="21.2" y2="70.2"/>
		<line class="st3" x1="55.6" y1="39.6" x2="23.7" y2="71.5"/>
	</g>
</g>
</svg>
