<?xml version="1.0" encoding="utf-8"?>
<!-- Generator: Adobe Illustrator 22.1.0, SVG Export Plug-In . SVG Version: 6.00 Build 0)  -->
<svg version="1.1" id="Layer_1" xmlns="http://www.w3.org/2000/svg" xmlns:xlink="http://www.w3.org/1999/xlink" x="0px" y="0px"
	 viewBox="0 0 804 74.7" style="enable-background:new 0 0 804 74.7;" xml:space="preserve" preserveAspectRatio="none">
<style type="text/css">
	.st0{clip-path:url(#SVGID_2_);}
	.st1{fill:#C5CFDD;}
	.st2{fill:none;stroke:#EEEEEE;stroke-miterlimit:10;}
	.st3{clip-path:url(#SVGID_4_);}
	.st4{fill:none;stroke:#C5CFDD;stroke-miterlimit:10;}
</style>
<g>
	<defs>
		<rect id="SVGID_1_" width="804" height="74.7"/>
	</defs>
	<clipPath id="SVGID_2_">
		<use xlink:href="#SVGID_1_"  style="overflow:visible;"/>
	</clipPath>
	<g class="st0">
		<path class="st1" d="M662.4,48.4c-22.3,0-42.1-2.2-60.5-5.4c-16,2.9-32.8,4.9-51.6,4.9c-70,0-94.7-17.7-147.7-25.9
			c-50.6,8.8-87.4,26.4-157.2,26.4c-14,0-28.8-2.1-44.2-5.2c-16.4,2.8-34.2,4.7-54.8,4.7c-44.7,0-84-11-105.4-17S0,22.9,0,22.9v51.8
			h804V22.9C777.5,22.9,727.2,48.4,662.4,48.4z"/>
		<path class="st2" d="M0,39.5c13.4,0,43.8,3.9,70.6,10.9s62.5,19,117.9,19c85.8,0,112.6-30,201.9-30c80.4,0,114.3,30,200.1,30
			c87.5,0,116.1-30,200.1-30c7.1,0,13.4,0.1,13.4,0.1"/>
		<path class="st2" d="M0,53.2c0,0,10.5,0,22.6,0c71.2,0,109.1,29.8,196.2,29.8c82,0,106.5-29.8,199.4-29.8s104.5,29.8,200.3,29.8
			c77,0,122.8-29.8,181.3-29.8h4"/>
		<g>
			<defs>
				<path id="SVGID_3_" d="M245.4,48.4c-14,0-28.8-2.1-44.2-5.2c49.4-8.4,85.9-25.3,143.6-25.3c23.2,0,41.8,1.6,57.8,4.1
					C352,30.8,315.2,48.4,245.4,48.4z M804,22.9c0,0-25-5-50-5c-65.1,0-105.5,16.6-152.1,25.1c18.4,3.2,38.3,5.4,60.5,5.4
					C727.2,48.4,777.5,22.9,804,22.9z M601.9,43c-51.4-9-91.6-25.9-142-25.9c-21.8,0-40.3,2-57.2,4.9c53,8.2,77.7,25.9,147.7,25.9
					C569.1,47.9,585.8,45.9,601.9,43z M146.5,47.9c20.5,0,38.3-1.9,54.8-4.7c-44.5-8.9-94.4-26.2-146.2-26.2
					C17.6,17.1,0,22.9,0,22.9s19.7,2,41.1,8S101.8,47.9,146.5,47.9z"/>
			</defs>
			<clipPath id="SVGID_4_">
				<use xlink:href="#SVGID_3_"  style="overflow:visible;"/>
			</clipPath>
			<g class="st3">
				<line class="st4" x1="2.7" y1="17.1" x2="2.7" y2="61.7"/>
				<line class="st4" x1="6.3" y1="17.1" x2="6.3" y2="61.7"/>
				<line class="st4" x1="10" y1="17.1" x2="10" y2="61.7"/>
				<line class="st4" x1="13.7" y1="17.1" x2="13.7" y2="61.7"/>
				<line class="st4" x1="17.3" y1="17.1" x2="17.3" y2="61.7"/>
				<line class="st4" x1="21" y1="17.1" x2="21" y2="61.7"/>
				<line class="st4" x1="24.7" y1="17.1" x2="24.7" y2="61.7"/>
				<line class="st4" x1="28.3" y1="17.1" x2="28.3" y2="61.7"/>
				<line class="st4" x1="32" y1="17.1" x2="32" y2="61.7"/>
				<line class="st4" x1="35.6" y1="17.1" x2="35.6" y2="61.7"/>
				<line class="st4" x1="39.3" y1="17.1" x2="39.3" y2="61.7"/>
				<line class="st4" x1="43" y1="17.1" x2="43" y2="61.7"/>
				<line class="st4" x1="46.6" y1="17.1" x2="46.6" y2="61.7"/>
				<line class="st4" x1="50.3" y1="17.1" x2="50.3" y2="61.7"/>
				<line class="st4" x1="53.9" y1="17.1" x2="53.9" y2="61.7"/>
				<line class="st4" x1="57.6" y1="17.1" x2="57.6" y2="61.7"/>
				<line class="st4" x1="61.3" y1="17.1" x2="61.3" y2="61.7"/>
				<line class="st4" x1="64.9" y1="17.1" x2="64.9" y2="61.7"/>
				<line class="st4" x1="68.6" y1="17.1" x2="68.6" y2="61.7"/>
				<line class="st4" x1="72.3" y1="17.1" x2="72.3" y2="61.7"/>
				<line class="st4" x1="75.9" y1="17.1" x2="75.9" y2="61.7"/>
				<line class="st4" x1="79.6" y1="17.1" x2="79.6" y2="61.7"/>
				<line class="st4" x1="83.2" y1="17.1" x2="83.2" y2="61.7"/>
				<line class="st4" x1="86.9" y1="17.1" x2="86.9" y2="61.7"/>
				<line class="st4" x1="90.6" y1="17.1" x2="90.6" y2="61.7"/>
				<line class="st4" x1="94.2" y1="17.1" x2="94.2" y2="61.7"/>
				<line class="st4" x1="97.9" y1="17.1" x2="97.9" y2="61.7"/>
				<line class="st4" x1="101.6" y1="17.1" x2="101.6" y2="61.7"/>
				<line class="st4" x1="105.2" y1="17.1" x2="105.2" y2="61.7"/>
				<line class="st4" x1="108.9" y1="17.1" x2="108.9" y2="61.7"/>
				<line class="st4" x1="112.5" y1="17.1" x2="112.5" y2="61.7"/>
				<line class="st4" x1="116.2" y1="17.1" x2="116.2" y2="61.7"/>
				<line class="st4" x1="119.9" y1="17.1" x2="119.9" y2="61.7"/>
				<line class="st4" x1="123.5" y1="17.1" x2="123.5" y2="61.7"/>
				<line class="st4" x1="127.2" y1="17.1" x2="127.2" y2="61.7"/>
				<line class="st4" x1="130.8" y1="17.1" x2="130.8" y2="61.7"/>
				<line class="st4" x1="134.5" y1="17.1" x2="134.5" y2="61.7"/>
				<line class="st4" x1="138.2" y1="17.1" x2="138.2" y2="61.7"/>
				<line class="st4" x1="141.8" y1="17.1" x2="141.8" y2="61.7"/>
				<line class="st4" x1="145.5" y1="17.1" x2="145.5" y2="61.7"/>
				<line class="st4" x1="149.2" y1="17.1" x2="149.2" y2="61.7"/>
				<line class="st4" x1="152.8" y1="17.1" x2="152.8" y2="61.7"/>
				<line class="st4" x1="156.5" y1="17.1" x2="156.5" y2="61.7"/>
				<line class="st4" x1="160.1" y1="17.1" x2="160.1" y2="61.7"/>
				<line class="st4" x1="163.8" y1="17.1" x2="163.8" y2="61.7"/>
				<line class="st4" x1="167.5" y1="17.1" x2="167.5" y2="61.7"/>
				<line class="st4" x1="171.1" y1="17.1" x2="171.1" y2="61.7"/>
				<line class="st4" x1="174.8" y1="17.1" x2="174.8" y2="61.7"/>
				<line class="st4" x1="178.5" y1="17.1" x2="178.5" y2="61.7"/>
				<line class="st4" x1="182.1" y1="17.1" x2="182.1" y2="61.7"/>
				<line class="st4" x1="185.8" y1="17.1" x2="185.8" y2="61.7"/>
				<line class="st4" x1="189.4" y1="17.1" x2="189.4" y2="61.7"/>
				<line class="st4" x1="193.1" y1="17.1" x2="193.1" y2="61.7"/>
				<line class="st4" x1="196.8" y1="17.1" x2="196.8" y2="61.7"/>
				<line class="st4" x1="200.4" y1="17.1" x2="200.4" y2="61.7"/>
				<line class="st4" x1="204.1" y1="17.1" x2="204.1" y2="61.7"/>
				<line class="st4" x1="207.7" y1="17.1" x2="207.7" y2="61.7"/>
				<line class="st4" x1="211.4" y1="17.1" x2="211.4" y2="61.7"/>
				<line class="st4" x1="215.1" y1="17.1" x2="215.1" y2="61.7"/>
				<line class="st4" x1="218.7" y1="17.1" x2="218.7" y2="61.7"/>
				<line class="st4" x1="222.4" y1="17.1" x2="222.4" y2="61.7"/>
				<line class="st4" x1="226.1" y1="17.1" x2="226.1" y2="61.7"/>
				<line class="st4" x1="229.7" y1="17.1" x2="229.7" y2="61.7"/>
				<line class="st4" x1="233.4" y1="17.1" x2="233.4" y2="61.7"/>
				<line class="st4" x1="237" y1="17.1" x2="237" y2="61.7"/>
				<line class="st4" x1="240.7" y1="17.1" x2="240.7" y2="61.7"/>
				<line class="st4" x1="244.4" y1="17.1" x2="244.4" y2="61.7"/>
				<line class="st4" x1="248" y1="17.1" x2="248" y2="61.7"/>
				<line class="st4" x1="251.7" y1="17.1" x2="251.7" y2="61.7"/>
				<line class="st4" x1="255.4" y1="17.1" x2="255.4" y2="61.7"/>
				<line class="st4" x1="259" y1="17.1" x2="259" y2="61.7"/>
				<line class="st4" x1="262.7" y1="17.1" x2="262.7" y2="61.7"/>
				<line class="st4" x1="266.3" y1="17.1" x2="266.3" y2="61.7"/>
				<line class="st4" x1="270" y1="17.1" x2="270" y2="61.7"/>
				<line class="st4" x1="273.7" y1="17.1" x2="273.7" y2="61.7"/>
				<line class="st4" x1="277.3" y1="17.1" x2="277.3" y2="61.7"/>
				<line class="st4" x1="281" y1="17.1" x2="281" y2="61.7"/>
				<line class="st4" x1="284.7" y1="17.1" x2="284.7" y2="61.7"/>
				<line class="st4" x1="288.3" y1="17.1" x2="288.3" y2="61.7"/>
				<line class="st4" x1="292" y1="17.1" x2="292" y2="61.7"/>
				<line class="st4" x1="295.6" y1="17.1" x2="295.6" y2="61.7"/>
				<line class="st4" x1="299.3" y1="17.1" x2="299.3" y2="61.7"/>
				<line class="st4" x1="303" y1="17.1" x2="303" y2="61.7"/>
				<line class="st4" x1="306.6" y1="17.1" x2="306.6" y2="61.7"/>
				<line class="st4" x1="310.3" y1="17.1" x2="310.3" y2="61.7"/>
				<line class="st4" x1="313.9" y1="17.1" x2="313.9" y2="61.7"/>
				<line class="st4" x1="317.6" y1="17.1" x2="317.6" y2="61.7"/>
				<line class="st4" x1="321.3" y1="17.1" x2="321.3" y2="61.7"/>
				<line class="st4" x1="324.9" y1="17.1" x2="324.9" y2="61.7"/>
				<line class="st4" x1="328.6" y1="17.1" x2="328.6" y2="61.7"/>
				<line class="st4" x1="332.3" y1="17.1" x2="332.3" y2="61.7"/>
				<line class="st4" x1="335.9" y1="17.1" x2="335.9" y2="61.7"/>
				<line class="st4" x1="339.6" y1="17.1" x2="339.6" y2="61.7"/>
				<line class="st4" x1="343.2" y1="17.1" x2="343.2" y2="61.7"/>
				<line class="st4" x1="346.9" y1="17.1" x2="346.9" y2="61.7"/>
				<line class="st4" x1="350.6" y1="17.1" x2="350.6" y2="61.7"/>
				<line class="st4" x1="354.2" y1="17.1" x2="354.2" y2="61.7"/>
				<line class="st4" x1="357.9" y1="17.1" x2="357.9" y2="61.7"/>
				<line class="st4" x1="361.6" y1="17.1" x2="361.6" y2="61.7"/>
				<line class="st4" x1="365.2" y1="17.1" x2="365.2" y2="61.7"/>
				<line class="st4" x1="368.9" y1="17.1" x2="368.9" y2="61.7"/>
				<line class="st4" x1="372.5" y1="17.1" x2="372.5" y2="61.7"/>
				<line class="st4" x1="376.2" y1="17.1" x2="376.2" y2="61.7"/>
				<line class="st4" x1="379.9" y1="17.1" x2="379.9" y2="61.7"/>
				<line class="st4" x1="383.5" y1="17.1" x2="383.5" y2="61.7"/>
				<line class="st4" x1="387.2" y1="17.1" x2="387.2" y2="61.7"/>
				<line class="st4" x1="390.8" y1="17.1" x2="390.8" y2="61.7"/>
				<line class="st4" x1="394.5" y1="17.1" x2="394.5" y2="61.7"/>
				<line class="st4" x1="398.2" y1="17.1" x2="398.2" y2="61.7"/>
				<line class="st4" x1="401.8" y1="17.1" x2="401.8" y2="61.7"/>
				<line class="st4" x1="405.5" y1="17.1" x2="405.5" y2="61.7"/>
				<line class="st4" x1="409.2" y1="17.1" x2="409.2" y2="61.7"/>
				<line class="st4" x1="412.8" y1="17.1" x2="412.8" y2="61.7"/>
				<line class="st4" x1="416.5" y1="17.1" x2="416.5" y2="61.7"/>
				<line class="st4" x1="420.1" y1="17.1" x2="420.1" y2="61.7"/>
				<line class="st4" x1="423.8" y1="17.1" x2="423.8" y2="61.7"/>
				<line class="st4" x1="427.5" y1="17.1" x2="427.5" y2="61.7"/>
				<line class="st4" x1="431.1" y1="17.1" x2="431.1" y2="61.7"/>
				<line class="st4" x1="434.8" y1="17.1" x2="434.8" y2="61.7"/>
				<line class="st4" x1="438.5" y1="17.1" x2="438.5" y2="61.7"/>
				<line class="st4" x1="442.1" y1="17.1" x2="442.1" y2="61.7"/>
				<line class="st4" x1="445.8" y1="17.1" x2="445.8" y2="61.7"/>
				<line class="st4" x1="449.4" y1="17.1" x2="449.4" y2="61.7"/>
				<line class="st4" x1="453.1" y1="17.1" x2="453.1" y2="61.7"/>
				<line class="st4" x1="456.8" y1="17.1" x2="456.8" y2="61.7"/>
				<line class="st4" x1="460.4" y1="17.1" x2="460.4" y2="61.7"/>
				<line class="st4" x1="464.1" y1="17.1" x2="464.1" y2="61.7"/>
				<line class="st4" x1="467.7" y1="17.1" x2="467.7" y2="61.7"/>
				<line class="st4" x1="471.4" y1="17.1" x2="471.4" y2="61.7"/>
				<line class="st4" x1="475.1" y1="17.1" x2="475.1" y2="61.7"/>
				<line class="st4" x1="478.7" y1="17.1" x2="478.7" y2="61.7"/>
				<line class="st4" x1="482.4" y1="17.1" x2="482.4" y2="61.7"/>
				<line class="st4" x1="486.1" y1="17.1" x2="486.1" y2="61.7"/>
				<line class="st4" x1="489.7" y1="17.1" x2="489.7" y2="61.7"/>
				<line class="st4" x1="493.4" y1="17.1" x2="493.4" y2="61.7"/>
				<line class="st4" x1="497" y1="17.1" x2="497" y2="61.7"/>
				<line class="st4" x1="500.7" y1="17.1" x2="500.7" y2="61.7"/>
				<line class="st4" x1="504.4" y1="17.1" x2="504.4" y2="61.7"/>
				<line class="st4" x1="508" y1="17.1" x2="508" y2="61.7"/>
				<line class="st4" x1="511.7" y1="17.1" x2="511.7" y2="61.7"/>
				<line class="st4" x1="515.4" y1="17.1" x2="515.4" y2="61.7"/>
				<line class="st4" x1="519" y1="17.1" x2="519" y2="61.7"/>
				<line class="st4" x1="522.7" y1="17.1" x2="522.7" y2="61.7"/>
				<line class="st4" x1="526.3" y1="17.1" x2="526.3" y2="61.7"/>
				<line class="st4" x1="530" y1="17.1" x2="530" y2="61.7"/>
				<line class="st4" x1="533.7" y1="17.1" x2="533.7" y2="61.7"/>
				<line class="st4" x1="537.3" y1="17.1" x2="537.3" y2="61.7"/>
				<line class="st4" x1="541" y1="17.1" x2="541" y2="61.7"/>
				<line class="st4" x1="544.6" y1="17.1" x2="544.6" y2="61.7"/>
				<line class="st4" x1="548.3" y1="17.1" x2="548.3" y2="61.7"/>
				<line class="st4" x1="552" y1="17.1" x2="552" y2="61.7"/>
				<line class="st4" x1="555.6" y1="17.1" x2="555.6" y2="61.7"/>
				<line class="st4" x1="559.3" y1="17.1" x2="559.3" y2="61.7"/>
				<line class="st4" x1="563" y1="17.1" x2="563" y2="61.7"/>
				<line class="st4" x1="566.6" y1="17.1" x2="566.6" y2="61.7"/>
				<line class="st4" x1="570.3" y1="17.1" x2="570.3" y2="61.7"/>
				<line class="st4" x1="573.9" y1="17.1" x2="573.9" y2="61.7"/>
				<line class="st4" x1="577.6" y1="17.1" x2="577.6" y2="61.7"/>
				<line class="st4" x1="581.3" y1="17.1" x2="581.3" y2="61.7"/>
				<line class="st4" x1="584.9" y1="17.1" x2="584.9" y2="61.7"/>
				<line class="st4" x1="588.6" y1="17.1" x2="588.6" y2="61.7"/>
				<line class="st4" x1="592.3" y1="17.1" x2="592.3" y2="61.7"/>
				<line class="st4" x1="595.9" y1="17.1" x2="595.9" y2="61.7"/>
				<line class="st4" x1="599.6" y1="17.1" x2="599.6" y2="61.7"/>
				<line class="st4" x1="603.2" y1="17.1" x2="603.2" y2="61.7"/>
				<line class="st4" x1="606.9" y1="17.1" x2="606.9" y2="61.7"/>
				<line class="st4" x1="610.6" y1="17.1" x2="610.6" y2="61.7"/>
				<line class="st4" x1="614.2" y1="17.1" x2="614.2" y2="61.7"/>
				<line class="st4" x1="617.9" y1="17.1" x2="617.9" y2="61.7"/>
				<line class="st4" x1="621.5" y1="17.1" x2="621.5" y2="61.7"/>
				<line class="st4" x1="625.2" y1="17.1" x2="625.2" y2="61.7"/>
				<line class="st4" x1="628.9" y1="17.1" x2="628.9" y2="61.7"/>
				<line class="st4" x1="632.5" y1="17.1" x2="632.5" y2="61.7"/>
				<line class="st4" x1="636.2" y1="17.1" x2="636.2" y2="61.7"/>
				<line class="st4" x1="639.9" y1="17.1" x2="639.9" y2="61.7"/>
				<line class="st4" x1="643.5" y1="17.1" x2="643.5" y2="61.7"/>
				<line class="st4" x1="647.2" y1="17.1" x2="647.2" y2="61.7"/>
				<line class="st4" x1="650.8" y1="17.1" x2="650.8" y2="61.7"/>
				<line class="st4" x1="654.5" y1="17.1" x2="654.5" y2="61.7"/>
				<line class="st4" x1="658.2" y1="17.1" x2="658.2" y2="61.7"/>
				<line class="st4" x1="661.8" y1="17.1" x2="661.8" y2="61.7"/>
				<line class="st4" x1="665.5" y1="17.1" x2="665.5" y2="61.7"/>
				<line class="st4" x1="669.2" y1="17.1" x2="669.2" y2="61.7"/>
				<line class="st4" x1="672.8" y1="17.1" x2="672.8" y2="61.7"/>
				<line class="st4" x1="676.5" y1="17.1" x2="676.5" y2="61.7"/>
				<line class="st4" x1="680.1" y1="17.1" x2="680.1" y2="61.7"/>
				<line class="st4" x1="683.8" y1="17.1" x2="683.8" y2="61.7"/>
				<line class="st4" x1="687.5" y1="17.1" x2="687.5" y2="61.7"/>
				<line class="st4" x1="691.1" y1="17.1" x2="691.1" y2="61.7"/>
				<line class="st4" x1="694.8" y1="17.1" x2="694.8" y2="61.7"/>
				<line class="st4" x1="698.5" y1="17.1" x2="698.5" y2="61.7"/>
				<line class="st4" x1="702.1" y1="17.1" x2="702.1" y2="61.7"/>
				<line class="st4" x1="705.8" y1="17.1" x2="705.8" y2="61.7"/>
				<line class="st4" x1="709.4" y1="17.1" x2="709.4" y2="61.7"/>
				<line class="st4" x1="713.1" y1="17.1" x2="713.1" y2="61.7"/>
				<line class="st4" x1="716.8" y1="17.1" x2="716.8" y2="61.7"/>
				<line class="st4" x1="720.4" y1="17.1" x2="720.4" y2="61.7"/>
				<line class="st4" x1="724.1" y1="17.1" x2="724.1" y2="61.7"/>
				<line class="st4" x1="727.7" y1="17.1" x2="727.7" y2="61.7"/>
				<line class="st4" x1="731.4" y1="17.1" x2="731.4" y2="61.7"/>
				<line class="st4" x1="735.1" y1="17.1" x2="735.1" y2="61.7"/>
				<line class="st4" x1="738.7" y1="17.1" x2="738.7" y2="61.7"/>
				<line class="st4" x1="742.4" y1="17.1" x2="742.4" y2="61.7"/>
				<line class="st4" x1="746.1" y1="17.1" x2="746.1" y2="61.7"/>
				<line class="st4" x1="749.7" y1="17.1" x2="749.7" y2="61.7"/>
				<line class="st4" x1="753.4" y1="17.1" x2="753.4" y2="61.7"/>
				<line class="st4" x1="757" y1="17.1" x2="757" y2="61.7"/>
				<line class="st4" x1="760.7" y1="17.1" x2="760.7" y2="61.7"/>
				<line class="st4" x1="764.4" y1="17.1" x2="764.4" y2="61.7"/>
				<line class="st4" x1="768" y1="17.1" x2="768" y2="61.7"/>
				<line class="st4" x1="771.7" y1="17.1" x2="771.7" y2="61.7"/>
				<line class="st4" x1="775.4" y1="17.1" x2="775.4" y2="61.7"/>
				<line class="st4" x1="779" y1="17.1" x2="779" y2="61.7"/>
				<line class="st4" x1="782.7" y1="17.1" x2="782.7" y2="61.7"/>
				<line class="st4" x1="786.3" y1="17.1" x2="786.3" y2="61.7"/>
				<line class="st4" x1="790" y1="17.1" x2="790" y2="61.7"/>
				<line class="st4" x1="793.7" y1="17.1" x2="793.7" y2="61.7"/>
				<line class="st4" x1="797.3" y1="17.1" x2="797.3" y2="61.7"/>
				<line class="st4" x1="801" y1="17.1" x2="801" y2="61.7"/>
			</g>
		</g>
		<path class="st2" d="M804,22.9c-26.5,0-76.8,25.5-141.6,25.5c-22.3,0-42.1-2.2-60.5-5.4c-16,2.9-32.8,4.9-51.6,4.9
			c-70,0-94.7-17.7-147.7-25.9c-50.6,8.8-87.4,26.4-157.2,26.4c-14,0-28.8-2.1-44.2-5.2c-16.4,2.8-34.2,4.7-54.8,4.7
			c-44.7,0-84-11-105.4-17S0,22.9,0,22.9"/>
	</g>
</g>
</svg>
