<?xml version="1.0" encoding="utf-8"?>
<!-- Generator: Adobe Illustrator 22.1.0, SVG Export Plug-In . SVG Version: 6.00 Build 0)  -->
<svg version="1.1" id="Layer_1" xmlns="http://www.w3.org/2000/svg" xmlns:xlink="http://www.w3.org/1999/xlink" x="0px" y="0px"
	 viewBox="0 0 425.2 225.2" style="enable-background:new 0 0 425.2 225.2;" xml:space="preserve">
<style type="text/css">
	.st0{fill:#FFFFFF;}
	.st1{fill:#A4CE39;}
</style>
<g>
	<path class="st0" d="M7.4,3.3H5V0h10.6c7.6,0,12.2,3.7,12.2,10.9c0,7-4.5,11.8-11.9,11.8H5v-3.3h2.4V3.3z M14.9,19.4
		c3.8,0,7.7-2.2,7.7-8.4c0-5.8-3.6-7.7-7.8-7.7h-2.6v16.1C12.2,19.4,14.9,19.4,14.9,19.4z"/>
	<path class="st0" d="M38.6,5.4c5.7,0,8.9,3.1,8.9,9c0,5.1-3.5,8.7-8.9,8.7s-8.9-2.9-8.9-8.7C29.7,9.5,33.1,5.4,38.6,5.4z
		 M38.6,19.4c2.8,0,4-1.8,4-4.9c0-3.6-1.2-5.4-4-5.4s-4,2.4-4,5.4S35.8,19.4,38.6,19.4z"/>
	<path class="st0" d="M70.6,0h8.2v3.3H77l-7.5,10.3v5.7h2v3.3h-8.8v-3.3h2v-5.7L57.3,3.3h-1.8V0h9v3.3h-1.8c0.5,0.5,0.8,0.9,1.2,1.5
		l3.8,5.5l4-5.6c0.4-0.5,0.7-0.9,1.2-1.4h-2.3C70.6,3.3,70.6,0,70.6,0z"/>
	<path class="st0" d="M85.5,5.4c5.7,0,8.9,3.1,8.9,9c0,5.1-3.5,8.7-8.9,8.7s-8.9-2.9-8.9-8.7C76.6,9.5,80,5.4,85.5,5.4z M85.5,19.4
		c2.8,0,4-1.8,4-4.9c0-3.6-1.2-5.4-4-5.4s-4,2.4-4,5.4S82.7,19.4,85.5,19.4z"/>
	<path class="st0" d="M107.4,5.7h6.7v13.7h2v3.3h-6.4c0-1.1,0-2.7,0.4-3.5H110c-1.1,2.7-3,3.9-5.9,3.9c-3.9,0-5.7-2.3-5.7-5.9V9
		h-2.3V5.7h6.8v9.5c0,2.4,0.3,4.2,3,4.2c1.9,0,3.5-1.6,3.5-4.2V9h-2.1L107.4,5.7L107.4,5.7z"/>
	<path class="st0" d="M120.5,9h-2.2V5.7h6.6c0,1.2-0.1,2.3-0.3,3.9h0.1c0.7-2.9,2.3-4.3,4.9-4.3c0.6,0,1,0.1,1.5,0.2l-0.4,4.1
		c-0.5-0.1-1-0.2-1.5-0.2c-2.5,0-4.2,1.7-4.2,4.5v5.5h2.1v3.3h-8.5v-3.3h1.8L120.5,9L120.5,9z"/>
	<path class="st0" d="M7.4,37.3h-2V34h8.8v3.3h-2v16.1h2v3.3H5.4v-3.3h2V37.3z"/>
	<path class="st0" d="M18.6,43h-2.2v-3.3H23c0,1.2,0,2.3-0.3,3.5h0.1c0.8-2.2,2.9-3.9,5.9-3.9c4,0,5.9,2.6,5.9,6.6v7.4h1.9v3.3h-8.3
		v-3.3H30v-7c0-2.3-1.2-3.2-3-3.2c-2.8,0-4,1.9-4,4.5v5.6h1.9v3.3h-8.1v-3.3h1.7V43H18.6z"/>
	<path class="st0" d="M48.9,42.9c-0.9-0.3-1.8-0.5-2.6-0.5c-2.1,0-3,0.8-3,1.8c0,0.8,0.2,1.1,1.5,1.3l3.6,0.5c3.9,0.6,5.5,2,5.5,5.1
		c0,3-2.1,5.9-8,5.9c-2,0-4.9-0.4-6.7-1.1v-4.8h4.1v2c0.7,0.3,2,0.6,3,0.6c0.9,0,3.3-0.3,3.3-2.1c0-0.9-0.6-1.4-2.6-1.7l-3.8-0.6
		c-3-0.5-4.2-2.1-4.2-4.5c0-4.2,4-5.5,7.5-5.5c1.8,0,4.1,0.3,6.6,1.1v4.2H49L48.9,42.9L48.9,42.9z"/>
	<path class="st0" d="M67.1,39.7h6.6v13.7h2v3.3h-6.4c0-1.1,0-2.7,0.4-3.5l0,0c-1.1,2.7-3,3.9-5.9,3.9c-3.9,0-5.7-2.3-5.7-5.9V43
		h-2.3v-3.3h6.9v9.5c0,2.4,0.3,4.2,3,4.2c1.9,0,3.5-1.6,3.5-4.2V43h-2.1V39.7z"/>
	<path class="st0" d="M80.2,43H78v-3.3h6.6c0,1.2-0.1,2.3-0.3,3.9h0.1c0.7-2.9,2.3-4.3,4.9-4.3c0.6,0,1,0.1,1.5,0.2l-0.3,4.1
		c-0.5-0.1-1-0.2-1.5-0.2c-2.5,0-4.2,1.7-4.2,4.5v5.5h2.1v3.3h-8.5v-3.3h1.8V43z"/>
	<path class="st0" d="M102.1,45.9c0-2.6-1.1-3.2-3.2-3.2c-0.6,0-2,0.2-2.8,0.5v2.3h-3.9v-4.3c1.1-0.6,3.8-1.8,6.8-1.8
		c4.5,0,7.4,1.6,7.4,6.5c0,2.8-0.1,5.1-0.2,7.5h1.9v3.3h-5.7v-1c0-1.1,0.1-1.7,0.2-2.3h-0.1c-1.1,2.6-2.7,3.8-5.5,3.8
		c-3.8,0-5.7-2.3-5.7-4.9c0-2.4,1.6-4,3.4-4.7c1.7-0.6,4-0.8,7.3-0.8L102.1,45.9L102.1,45.9z M100.8,49.5c-3.7,0-4.9,0.8-4.9,2.2
		c0,1,0.7,2,2.5,2s3.6-1.2,3.6-4.3L100.8,49.5L100.8,49.5z"/>
	<path class="st0" d="M112.3,43h-2.2v-3.3h6.6c0,1.2,0,2.3-0.3,3.5h0.1c0.8-2.2,2.9-3.9,5.9-3.9c4,0,5.9,2.6,5.9,6.6v7.4h1.9v3.3
		h-8.3v-3.3h1.8v-7c0-2.3-1.2-3.2-3-3.2c-2.8,0-4,1.9-4,4.5v5.6h1.9v3.3h-7.9v-3.3h1.7L112.3,43L112.3,43z"/>
	<path class="st0" d="M142.8,42.9c-0.6-0.1-1-0.2-1.6-0.2c-3,0-4.3,2.8-4.3,5.1c0,2.9,1.5,5.6,5.4,5.6c1.5,0,2.9-0.3,4.2-0.9
		l-0.3,3.8c-1.7,0.6-2.8,0.8-5.1,0.8c-5.8,0-8.8-4-8.8-8.9c0-5.5,3.5-8.9,8.9-8.9c2,0,3.8,0.3,5.4,0.8v5h-3.9v-2.2
		C142.7,42.9,142.8,42.9,142.8,42.9z"/>
	<path class="st0" d="M153.6,49.2c0.1,2.7,2.2,4.3,5.4,4.3c2.2,0,3.6-0.4,5.5-1.2l-0.2,3.6c-2.1,0.8-4,1.1-6.3,1.1
		c-6.6,0-9.3-4.1-9.3-8.8c0-5.3,3.2-8.9,8.5-8.9c5.8,0,8.2,4.4,8.2,9.9C165.4,49.2,153.6,49.2,153.6,49.2z M160.4,46.1
		c0-2.3-1.3-3.7-3.4-3.7c-2.1,0-3.3,1.4-3.5,3.7H160.4z"/>
	<path class="st0" d="M179.2,37.3H177V34h10c2.7,0,3.5,0.2,4.8,0.8c2,1,3,3.1,3,5.4c0,3.4-2.8,5.8-5.4,5.9v0.1
		c1.1,0.1,1.8,0.5,2.9,2.4l2,3.4c0.7,1.2,1.2,1.4,1.8,1.4h0.8v3.3h-3.6c-1.2,0-2-0.4-3.8-3.4l-2.8-4.7c-0.5-0.7-1-1.1-1.9-1.1h-1.1
		v6h2v3.3h-8.8v-3.3h2V37.3H179.2z M183.9,43.9h2.4c2.5,0,3.7-1.1,3.7-3.3s-1.1-3.3-4-3.3h-2.1L183.9,43.9L183.9,43.9z"/>
	<path class="st0" d="M208.9,45.9c0-2.6-1.1-3.2-3.2-3.2c-0.6,0-2,0.2-2.8,0.5v2.3H199v-4.3c1.1-0.6,3.8-1.8,6.8-1.8
		c4.5,0,7.4,1.6,7.4,6.5c0,2.8-0.1,5.1-0.2,7.5h1.9v3.3h-5.7v-1c0-1.1,0.1-1.7,0.2-2.3h-0.1c-1.1,2.6-2.7,3.8-5.5,3.8
		c-3.8,0-5.7-2.3-5.7-4.9c0-2.4,1.6-4,3.4-4.7c1.7-0.6,4-0.8,7.3-0.8v-0.9C208.8,45.9,208.9,45.9,208.9,45.9z M207.6,49.5
		c-3.7,0-4.9,0.8-4.9,2.2c0,1,0.7,2,2.5,2s3.6-1.2,3.6-4.3L207.6,49.5L207.6,49.5z"/>
	<path class="st0" d="M218.6,36.2l4.5-0.3v3.8h4.5V43h-4.5v7.6c0,2.4,0.6,3,2.5,3c0.6,0,1.4-0.2,2.2-0.5l-0.2,3.2
		c-1.7,0.6-2.9,0.8-4,0.8c-3.3,0-5.1-1.6-5.1-4.5V43h-2.3v-3.3h2.3v-3.5H218.6z"/>
	<path class="st0" d="M233.4,49.2c0.1,2.7,2.2,4.3,5.4,4.3c2.2,0,3.6-0.4,5.5-1.2l-0.2,3.6c-2.1,0.8-4,1.1-6.3,1.1
		c-6.5,0-9.3-4.1-9.3-8.8c0-5.3,3.2-8.9,8.5-8.9c5.8,0,8.2,4.4,8.2,9.9C245.2,49.2,233.4,49.2,233.4,49.2z M240.3,46.1
		c0-2.3-1.3-3.7-3.4-3.7c-2.1,0-3.3,1.4-3.5,3.7H240.3z"/>
	<path class="st0" d="M257.3,42.9c-0.9-0.3-1.8-0.5-2.6-0.5c-2.1,0-3,0.8-3,1.8c0,0.8,0.2,1.1,1.5,1.3l3.6,0.5
		c3.9,0.6,5.5,2,5.5,5.1c0,3-2.1,5.9-8,5.9c-2,0-4.9-0.4-6.7-1.1v-4.8h4.1v2c0.7,0.3,2,0.6,3,0.6c0.9,0,3.3-0.3,3.3-2.1
		c0-0.9-0.6-1.4-2.6-1.7l-3.8-0.6c-3-0.5-4.2-2.1-4.2-4.5c0-4.2,4-5.5,7.5-5.5c1.8,0,4.1,0.3,6.6,1.1v4.2h-4.1v-1.7H257.3z"/>
	<path class="st0" d="M274.4,53.4h2V37.3h-2V34h8.8v3.3h-2v7.2l6.1-5.7c0.9-0.8,1.4-1.2,2-1.4v-0.1h-2.4V34h9.2v3.3h-1.8l-8.4,7.5
		l8.8,8.6h1.8v3.3h-10v-3.3h2.7v-0.1c-0.5-0.3-1.1-0.8-1.6-1.2l-6.4-6.3v7.5h2v3.3h-8.8L274.4,53.4L274.4,53.4z"/>
	<path class="st0" d="M302.4,49.2c0.1,2.7,2.2,4.3,5.4,4.3c2.2,0,3.6-0.4,5.5-1.2l-0.2,3.6c-2.1,0.8-4,1.1-6.3,1.1
		c-6.5,0-9.3-4.1-9.3-8.8c0-5.3,3.2-8.9,8.5-8.9c5.8,0,8.2,4.4,8.2,9.9C314.2,49.2,302.4,49.2,302.4,49.2z M309.3,46.1
		c0-2.3-1.3-3.7-3.4-3.7s-3.3,1.4-3.5,3.7H309.3z"/>
	<path class="st0" d="M321.1,49.2c0.1,2.7,2.2,4.3,5.4,4.3c2.2,0,3.6-0.4,5.5-1.2l-0.3,3.7c-2.1,0.8-4,1.1-6.3,1.1
		c-6.5,0-9.3-4.1-9.3-8.8c0-5.3,3.2-8.9,8.5-8.9c5.8,0,8.2,4.4,8.2,9.9h-11.7L321.1,49.2L321.1,49.2z M327.9,46.1
		c0-2.3-1.3-3.7-3.4-3.7s-3.3,1.4-3.5,3.7H327.9z"/>
	<path class="st0" d="M336.6,43H334v-3.3h7.1c0,1.1-0.1,2.1-0.3,3.2h0.1c1-2.3,2.9-3.6,5.8-3.6c3.7,0,6.5,2.7,6.5,7.7
		c0,4.6-2.2,10-9.5,10c-0.7,0-1.8-0.1-2.6-0.3v4.7h1.9v3.3h-8.3v-3.3h1.8V43H336.6z M341,52.9c0.6,0.2,1.9,0.5,2.9,0.5
		c3.3,0,4.7-2.8,4.7-5.8c0-2.3-0.8-4.6-3.7-4.6c-3,0-3.9,2.2-3.9,4.3V52.9z"/>
	<path class="st1" d="M17.2,164.3c-0.8-0.3-1.9-0.5-2.9-0.5c-3,0-4,1.5-4,2.8c0,1.6,1.1,2,2.6,2.4l2.6,0.7c3.2,0.8,6.7,1.9,6.7,6.4
		c0,4.1-2.8,7.1-9,7.1c-2.4,0-4.9-0.2-7.8-1.2v-5.7h4.5v2.9c1.1,0.5,2.4,0.6,3.7,0.6c2.7,0,3.8-1.3,3.8-2.9c0-1.1-0.6-1.9-3.5-2.7
		l-2.4-0.6c-4.5-1.1-6-2.9-6-6.2c0-3.4,2.4-6.5,8.6-6.5c2.6,0,5.3,0.4,7.1,1.1v5.2h-4.1v-2.9L17.2,164.3L17.2,164.3z"/>
	<path class="st1" d="M44.5,166.5h7.8v3.2h-1.5l-5.6,13.1h-4.5l-2.2-5.6c-0.2-0.4-0.3-0.8-0.4-1.4H38c-0.1,0.6-0.2,1-0.4,1.4
		l-2.4,5.6h-4.5l-5.5-13.1h-1.5v-3.2h7.8v3.2H30c0.3,0.5,0.5,1.1,0.8,1.8l2,5.5c0.2,0.6,0.4,1.2,0.5,1.9h0.1
		c0.2-0.7,0.4-1.2,0.7-1.9l2.4-5.4l-0.7-1.9h-1.7v-3.2H42v3.2h-1.7c0.3,0.5,0.5,1.1,0.8,1.8l2,5.5c0.3,0.7,0.4,1.2,0.5,1.9h0.1
		c0.1-0.7,0.2-1.1,0.5-1.9l2-5.5c0.2-0.7,0.5-1.3,0.8-1.8h-2.1v-3.2L44.5,166.5L44.5,166.5z"/>
	<path class="st1" d="M55.3,169.6h-2.1v-3.2h6.5v13.1h1.9v3.2h-8v-3.2h1.8v-9.9L55.3,169.6L55.3,169.6z M57.3,158.4
		c1.8,0,2.9,1.1,2.9,2.7s-1.1,2.7-2.9,2.7c-1.8,0-2.9-1.1-2.9-2.7S55.5,158.4,57.3,158.4z"/>
	<path class="st1" d="M65.6,163.1l4.3-0.2v3.6h4.3v3.2h-4.3v7.2c0,2.3,0.6,2.9,2.4,2.9c0.6,0,1.3-0.2,2.1-0.5l-0.2,3.1
		c-1.6,0.6-2.7,0.8-3.8,0.8c-3.2,0-4.9-1.5-4.9-4.3v-9.1h-2.2v-3.2h2.2L65.6,163.1L65.6,163.1z"/>
	<path class="st1" d="M85,169.5c-0.6-0.1-1-0.2-1.5-0.2c-2.9,0-4.1,2.6-4.1,4.9c0,2.8,1.4,5.4,5.1,5.4c1.5,0,2.8-0.3,4.1-0.9
		l-0.2,3.7c-1.6,0.6-2.7,0.8-4.9,0.8c-5.5,0-8.4-3.8-8.4-8.5c0-5.2,3.3-8.5,8.5-8.5c2,0,3.6,0.3,5.1,0.8v4.7H85V169.5z"/>
	<path class="st1" d="M92,162h-2.5v-3.2h6.7v7.6c0,1.1,0,2.2-0.2,3.3h0.1c0.8-2.1,2.8-3.7,5.6-3.7c3.8,0,5.6,2.4,5.6,6.3v7.1h1.9
		v3.2h-8v-3.2h1.8v-6.7c0-2.2-1.2-3-2.8-3c-2.6,0-3.8,1.9-3.8,4.3v5.4h1.9v3.2h-8v-3.2h1.8L92,162L92,162z"/>
	<path class="st1" d="M134.5,169.1h6.9v3h-1.7c-0.1,2.4-0.9,4.4-2.3,6.2c0.7,0.8,1.6,1.3,2.8,1.3c0.3,0,0.8-0.1,1.1-0.1v3.2
		c-0.5,0-1.1,0.1-1.6,0.1c-2.4,0-3.3-0.3-4.5-1.8c-2,1.7-3.8,2.3-6.5,2.3c-4.5,0-7.7-2.5-7.7-6.4c0-2.9,1.8-4.7,4.3-6.2
		c-2-2.1-2.6-3.3-2.6-4.9c0-2.9,2.5-5.1,6.3-5.1c3.8,0,5.5,2.1,5.5,4.7c0,1.9-1.1,3.7-4.1,5.5l4.9,5.1c0.7-0.9,1.2-2.5,1.2-3.9h-1.9
		L134.5,169.1L134.5,169.1L134.5,169.1z M127.4,172.9c-1.5,0.8-2.4,2.1-2.4,3.5c0,1.5,1.3,3.5,4.5,3.5c1.1,0,2.2-0.3,3.4-1.3
		L127.4,172.9z M128.7,163.6c-1.1,0-2.3,0.6-2.3,2.1c0,0.9,0.7,1.9,1.9,2.9c1.1-0.5,2.7-1.6,2.7-3
		C130.9,164.2,129.8,163.6,128.7,163.6z"/>
	<path class="st1" d="M164.7,164.3c-0.8-0.3-1.9-0.5-2.9-0.5c-3,0-4,1.5-4,2.8c0,1.6,1.1,2,2.6,2.4l2.6,0.7c3.2,0.8,6.7,1.9,6.7,6.4
		c0,4.1-2.8,7.1-9,7.1c-2.4,0-4.9-0.2-7.8-1.2v-5.7h4.5v2.9c1.1,0.5,2.4,0.6,3.7,0.6c2.7,0,3.8-1.3,3.8-2.9c0-1.1-0.6-1.9-3.5-2.7
		l-2.4-0.6c-4.5-1.1-6-2.9-6-6.2c0-3.4,2.4-6.5,8.6-6.5c2.6,0,5.3,0.4,7.1,1.1v5.2h-4L164.7,164.3L164.7,164.3z"/>
	<path class="st1" d="M182.7,172.4c0-2.4-1-3.1-3.1-3.1c-0.6,0-2,0.2-2.7,0.5v2.2h-3.7v-4.1c1.1-0.6,3.6-1.7,6.5-1.7
		c4.3,0,7.1,1.5,7.1,6.2c0,2.7-0.1,4.9-0.2,7.2h1.8v3.2h-5.5v-1c0-1.1,0.1-1.6,0.2-2.2H183c-1.1,2.4-2.6,3.6-5.3,3.6
		c-3.7,0-5.4-2.2-5.4-4.7c0-2.3,1.6-3.8,3.3-4.5c1.6-0.6,3.8-0.7,7-0.7L182.7,172.4L182.7,172.4z M181.4,175.8
		c-3.5,0-4.7,0.7-4.7,2.1c0,1,0.7,2,2.4,2s3.5-1.1,3.5-4.1H181.4z"/>
	<path class="st1" d="M199.5,166.5h7.8v3.2h-1.6l-5.6,13.1h-4.7l-5.6-13.1h-1.5v-3.2h8v3.2h-1.5l2.9,8c0.2,0.4,0.2,0.8,0.3,1.3h0.1
		c0.1-0.6,0.2-0.9,0.3-1.3l2.9-8h-1.8L199.5,166.5L199.5,166.5z"/>
	<path class="st1" d="M212.3,175.6c0.1,2.6,2.1,4.2,5.1,4.2c2.1,0,3.4-0.3,5.2-1.1l-0.2,3.4c-2,0.7-3.8,1-6,1
		c-6.3,0-8.9-3.9-8.9-8.4c0-5.1,3.1-8.6,8.2-8.6c5.6,0,7.8,4.2,7.8,9.5L212.3,175.6L212.3,175.6z M218.8,172.6
		c0-2.2-1.3-3.5-3.3-3.5s-3.1,1.3-3.3,3.5H218.8z"/>
	<path class="st1" d="M254.5,166.5h7.8v3.2h-1.6l-5.6,13.1h-4.5l-2.2-5.6c-0.2-0.4-0.3-0.8-0.4-1.4h-0.1c-0.1,0.6-0.2,1-0.4,1.4
		l-2.4,5.6h-4.5l-5.5-13.1h-1.5v-3.2h7.8v3.2h-1.5c0.3,0.5,0.5,1.1,0.8,1.8l2,5.5c0.2,0.6,0.4,1.2,0.5,1.9h0.1
		c0.2-0.7,0.4-1.2,0.7-1.9l2.4-5.4l-0.7-1.9H244v-3.2h7.9v3.2h-1.7c0.3,0.5,0.5,1.1,0.8,1.8l2,5.5c0.3,0.7,0.4,1.2,0.5,1.9h0.1
		c0.1-0.7,0.2-1.1,0.5-1.9l2-5.5c0.2-0.7,0.5-1.3,0.8-1.8h-2.1v-3.2L254.5,166.5L254.5,166.5z"/>
	<path class="st1" d="M265.2,169.6h-2.1v-3.2h6.4v13.1h1.9v3.2h-8v-3.2h1.8L265.2,169.6L265.2,169.6z M267.3,158.4
		c1.8,0,2.9,1.1,2.9,2.7s-1.1,2.7-2.9,2.7s-2.9-1.1-2.9-2.7S265.5,158.4,267.3,158.4z"/>
	<path class="st1" d="M275.5,163.1l4.3-0.2v3.6h4.3v3.2h-4.3v7.2c0,2.3,0.6,2.9,2.4,2.9c0.6,0,1.3-0.2,2.1-0.5l-0.2,3.1
		c-1.6,0.6-2.7,0.8-3.8,0.8c-3.2,0-4.9-1.5-4.9-4.3v-9.1h-2.2v-3.2h2.2v-3.5H275.5z"/>
	<path class="st1" d="M287,162h-2.5v-3.2h6.7v7.6c0,1.1,0,2.2-0.2,3.3h0.1c0.8-2.1,2.8-3.7,5.6-3.7c3.8,0,5.6,2.4,5.6,6.3v7.1h1.9
		v3.2h-8v-3.2h1.8v-6.7c0-2.2-1.2-3-2.8-3c-2.6,0-3.8,1.9-3.8,4.3v5.4h1.9v3.2h-8v-3.2h1.8V162H287z"/>
	<path class="st1" d="M17.2,198.6c-0.8-0.3-1.9-0.5-2.9-0.5c-3,0-4,1.5-4,2.8c0,1.6,1.1,2,2.6,2.4l2.6,0.7c3.2,0.8,6.7,1.9,6.7,6.4
		c0,4.1-2.8,7.1-9,7.1c-2.4,0-4.9-0.2-7.8-1.2v-5.7h4.5v2.9c1.1,0.5,2.4,0.6,3.7,0.6c2.7,0,3.8-1.3,3.8-2.9c0-1.1-0.6-1.9-3.5-2.7
		l-2.4-0.6c-4.5-1.1-6-2.9-6-6.2c0-3.4,2.4-6.5,8.6-6.5c2.6,0,5.3,0.4,7.1,1.1v5.2h-4.1v-2.9L17.2,198.6L17.2,198.6z"/>
	<path class="st1" d="M29.3,209.9c0.1,2.6,2.1,4.2,5.1,4.2c2.1,0,3.4-0.3,5.2-1.1l-0.2,3.4c-2,0.7-3.8,1-6,1c-6.3,0-8.9-3.9-8.9-8.4
		c0-5.1,3.1-8.6,8.2-8.6c5.6,0,7.8,4.2,7.8,9.5L29.3,209.9L29.3,209.9z M35.9,206.9c0-2.2-1.3-3.5-3.3-3.5s-3.1,1.3-3.3,3.5H35.9z"
		/>
	<path class="st1" d="M52.3,203.8c-0.6-0.1-1-0.2-1.5-0.2c-2.9,0-4.1,2.6-4.1,4.9c0,2.8,1.4,5.4,5.1,5.4c1.5,0,2.8-0.3,4.1-0.9
		l-0.2,3.7c-1.6,0.6-2.7,0.8-4.9,0.8c-5.5,0-8.4-3.8-8.4-8.5c0-5.2,3.3-8.5,8.5-8.5c2,0,3.6,0.3,5.1,0.8v4.7h-3.7
		C52.3,206,52.3,203.8,52.3,203.8z"/>
	<path class="st1" d="M68.3,200.8h6.4v13.1h1.9v3.2h-6.1c0-1.1,0-2.6,0.4-3.3h-0.1c-1,2.6-2.8,3.7-5.6,3.7c-3.7,0-5.5-2.2-5.5-5.7
		V204h-2.2v-3.2H64v9.1c0,2.3,0.2,4,2.9,4c1.9,0,3.4-1.5,3.4-4.1V204h-2V200.8z"/>
	<path class="st1" d="M80.9,203.9h-2.2v-3.2H85c0,1.1-0.1,2.2-0.3,3.7h0.1c0.7-2.7,2.2-4.1,4.7-4.1c0.5,0,1,0.1,1.4,0.2l-0.3,3.9
		c-0.5-0.1-1-0.2-1.4-0.2c-2.4,0-4,1.6-4,4.3v5.2h2v3.2H79v-3.2h1.8L80.9,203.9L80.9,203.9z"/>
	<path class="st1" d="M94.2,203.9h-2.1v-3.2h6.4v13.1h1.9v3.2h-8v-3.2h1.8C94.2,213.8,94.2,203.9,94.2,203.9z M96.2,192.7
		c1.8,0,2.9,1.1,2.9,2.7s-1.1,2.7-2.9,2.7s-2.9-1.1-2.9-2.7S94.4,192.7,96.2,192.7z"/>
	<path class="st1" d="M104.4,197.4l4.3-0.2v3.6h4.3v3.2h-4.3v7.2c0,2.3,0.6,2.9,2.4,2.9c0.6,0,1.3-0.2,2.1-0.5l-0.2,3.1
		c-1.6,0.6-2.7,0.8-3.8,0.8c-3.2,0-4.9-1.5-4.9-4.3v-9.1h-2.2v-3.2h2.2L104.4,197.4L104.4,197.4z"/>
	<path class="st1" d="M124.3,200.8h7.3v3.2h-1.5l-5,13.4c-2.3,6.2-4.2,7.8-8.2,7.8c-0.7,0-1.6-0.2-2.4-0.4v-3.3
		c0.8,0.2,1.7,0.4,2.4,0.4c1.8,0,2.5-0.7,4.1-3.7l-6.2-14.1h-1.5v-3.2h8.1v3.2h-1.7c0.2,0.3,0.4,0.7,0.6,1.1l2,5.5
		c0.3,0.9,0.6,2.1,0.7,3.1h0.1c0.1-1,0.4-2.2,0.7-3.1l1.9-5.5c0.2-0.4,0.3-0.8,0.6-1.1h-2C124.3,204.1,124.3,200.8,124.3,200.8z"/>
	<path class="st1" d="M154.2,198.6c-0.8-0.3-1.9-0.5-2.9-0.5c-3,0-4,1.5-4,2.8c0,1.6,1.1,2,2.6,2.4l2.6,0.7c3.2,0.8,6.7,1.9,6.7,6.4
		c0,4.1-2.8,7.1-9,7.1c-2.4,0-4.9-0.2-7.8-1.2v-5.7h4.5v2.9c1.1,0.5,2.4,0.6,3.7,0.6c2.7,0,3.8-1.3,3.8-2.9c0-1.1-0.6-1.9-3.5-2.7
		l-2.4-0.6c-4.5-1.1-6-2.9-6-6.2c0-3.4,2.4-6.5,8.6-6.5c2.6,0,5.3,0.4,7.1,1.1v5.2h-4.1L154.2,198.6L154.2,198.6z"/>
	<path class="st1" d="M166.3,209.9c0.1,2.6,2.1,4.2,5.1,4.2c2.1,0,3.4-0.3,5.2-1.1l-0.2,3.4c-2,0.7-3.8,1-6,1
		c-6.3,0-8.9-3.9-8.9-8.4c0-5.1,3.1-8.6,8.2-8.6c5.6,0,7.8,4.2,7.8,9.5L166.3,209.9L166.3,209.9z M172.8,206.9
		c0-2.2-1.3-3.5-3.3-3.5s-3.1,1.3-3.3,3.5H172.8z"/>
	<path class="st1" d="M181.6,203.9h-2.1v-3.2h6.3c0,1.1-0.1,2.2-0.3,3.7h0.1c0.7-2.7,2.2-4.1,4.7-4.1c0.5,0,1,0.1,1.4,0.2l-0.3,3.9
		c-0.5-0.1-1-0.2-1.4-0.2c-2.4,0-4,1.6-4,4.3v5.2h2v3.2h-8.2v-3.2h1.8V203.9z"/>
	<path class="st1" d="M202.5,200.8h7.8v3.2h-1.6l-5.6,13.1h-4.7l-5.6-13.1h-1.5v-3.2h8v3.2h-1.5l2.9,8c0.2,0.4,0.2,0.8,0.3,1.3h0.1
		c0.1-0.6,0.2-0.9,0.3-1.3l2.9-8h-1.8L202.5,200.8L202.5,200.8z"/>
	<path class="st1" d="M212.9,203.9h-2.1v-3.2h6.4v13.1h1.9v3.2h-8v-3.2h1.8L212.9,203.9L212.9,203.9z M215,192.7
		c1.8,0,2.9,1.1,2.9,2.7s-1.1,2.7-2.9,2.7c-1.8,0-2.9-1.1-2.9-2.7S213.2,192.7,215,192.7z"/>
	<path class="st1" d="M231.1,203.8c-0.6-0.1-1-0.2-1.5-0.2c-2.9,0-4.1,2.6-4.1,4.9c0,2.8,1.4,5.4,5.1,5.4c1.5,0,2.8-0.3,4.1-0.9
		l-0.2,3.7c-1.6,0.6-2.7,0.8-4.9,0.8c-5.5,0-8.4-3.8-8.4-8.5c0-5.2,3.3-8.5,8.5-8.5c2,0,3.6,0.3,5.1,0.8v4.7h-3.7L231.1,203.8
		L231.1,203.8z"/>
	<path class="st1" d="M241.4,209.9c0.1,2.6,2.1,4.2,5.1,4.2c2.1,0,3.4-0.3,5.2-1.1l-0.2,3.4c-2,0.7-3.8,1-6,1
		c-6.3,0-8.9-3.9-8.9-8.4c0-5.1,3.1-8.6,8.2-8.6c5.6,0,7.8,4.2,7.8,9.5L241.4,209.9L241.4,209.9z M248,206.9c0-2.2-1.3-3.5-3.3-3.5
		s-3.1,1.3-3.3,3.5H248z"/>
	<path class="st1" d="M265.9,198.5h-2v-3.2h8.4v3.2h-2v15.4h2v3.2h-8.4v-3.2h2V198.5z"/>
	<path class="st1" d="M276.6,203.9h-2.1v-3.2h6.4c0,1.1,0,2.2-0.2,3.3h0.1c0.8-2.1,2.8-3.7,5.6-3.7c3.8,0,5.6,2.4,5.6,6.3v7.1h1.9
		v3.2h-8v-3.2h1.8V207c0-2.2-1.2-3-2.8-3c-2.6,0-3.8,1.9-3.8,4.3v5.4h1.9v3.2h-7.8v-3.2h1.6v-9.8H276.6L276.6,203.9z"/>
	<path class="st1" d="M305.6,203.9c-0.9-0.3-1.7-0.5-2.5-0.5c-2,0-2.9,0.8-2.9,1.7c0,0.8,0.2,1.1,1.5,1.3l3.4,0.5
		c3.7,0.5,5.3,2,5.3,4.9s-2,5.6-7.7,5.6c-2,0-4.7-0.4-6.4-1v-4.6h3.9v1.9c0.7,0.2,2,0.5,2.9,0.5s3.2-0.3,3.2-2
		c0-0.9-0.6-1.4-2.4-1.6l-3.7-0.6c-2.8-0.4-4-2-4-4.3c0-4,3.8-5.3,7.1-5.3c1.7,0,3.9,0.3,6.3,1.1v4h-3.9L305.6,203.9L305.6,203.9z"
		/>
	<path class="st1" d="M322.9,200.8h6.4v13.1h1.9v3.2h-6.1c0-1.1,0-2.6,0.4-3.3h-0.1c-1,2.6-2.8,3.7-5.6,3.7c-3.7,0-5.5-2.2-5.5-5.7
		V204h-2.2v-3.2h6.5v9.1c0,2.3,0.2,4,2.9,4c1.9,0,3.4-1.5,3.4-4.1V204h-2L322.9,200.8L322.9,200.8z"/>
	<path class="st1" d="M335.5,203.9h-2.1v-3.2h6.3c0,1.1-0.1,2.2-0.3,3.7h0.1c0.7-2.7,2.2-4.1,4.7-4.1c0.5,0,1,0.1,1.4,0.2l-0.3,3.9
		c-0.5-0.1-1-0.2-1.4-0.2c-2.4,0-4,1.6-4,4.3v5.2h2v3.2h-8.2v-3.2h1.8V203.9z"/>
	<path class="st1" d="M356.4,206.7c0-2.4-1-3.1-3.1-3.1c-0.6,0-2,0.2-2.7,0.5v2.2h-3.7v-4.1c1.1-0.6,3.6-1.7,6.5-1.7
		c4.3,0,7.1,1.5,7.1,6.2c0,2.7-0.1,4.9-0.2,7.2h1.8v3.2h-5.4v-1c0-1.1,0.1-1.6,0.2-2.2h-0.1c-1.1,2.4-2.6,3.6-5.3,3.6
		c-3.7,0-5.4-2.2-5.4-4.7c0-2.3,1.5-3.8,3.3-4.5c1.6-0.6,3.8-0.7,7-0.7L356.4,206.7L356.4,206.7z M355.1,210.1
		c-3.5,0-4.7,0.7-4.7,2.1c0,1,0.7,2,2.4,2c1.7,0,3.5-1.1,3.5-4.1H355.1z"/>
	<path class="st1" d="M366.2,203.9h-2.1v-3.2h6.4c0,1.1,0,2.2-0.2,3.3h0.1c0.8-2.1,2.8-3.7,5.6-3.7c3.8,0,5.6,2.4,5.6,6.3v7.1h1.9
		v3.2h-8v-3.2h1.8V207c0-2.2-1.2-3-2.8-3c-2.6,0-3.8,1.9-3.8,4.3v5.4h1.9v3.2h-7.8v-3.2h1.6v-9.8H366.2L366.2,203.9z"/>
	<path class="st1" d="M395.3,203.8c-0.6-0.1-1-0.2-1.5-0.2c-2.9,0-4.1,2.6-4.1,4.9c0,2.8,1.4,5.4,5.1,5.4c1.5,0,2.8-0.3,4.1-0.9
		l-0.2,3.7c-1.6,0.6-2.7,0.8-4.9,0.8c-5.5,0-8.4-3.8-8.4-8.5c0-5.2,3.3-8.5,8.5-8.5c2,0,3.6,0.3,5.1,0.8v4.7h-3.7V203.8z"/>
	<path class="st1" d="M405.6,209.9c0.1,2.6,2.1,4.2,5.1,4.2c2.1,0,3.4-0.3,5.2-1.1l-0.2,3.4c-2,0.7-3.8,1-6,1
		c-6.3,0-8.9-3.9-8.9-8.4c0-5.1,3.1-8.6,8.2-8.6c5.6,0,7.8,4.2,7.8,9.5L405.6,209.9L405.6,209.9z M412.2,206.9
		c0-2.2-1.3-3.5-3.3-3.5s-3.1,1.3-3.3,3.5H412.2z"/>
	<path class="st1" d="M422.3,211.9c1.6,0,2.9,1,2.9,2.8c0,1.6-1.1,2.8-2.9,2.8s-2.9-1.2-2.9-2.8
		C419.4,212.9,420.7,211.9,422.3,211.9z M419.9,193.2h4.9l-0.4,16.9h-4.2L419.9,193.2z"/>
	<g>
		<path class="st0" d="M39.2,115.4h10.3L49,133c-6.2,2.1-11.7,2.9-18.5,2.9c-19.1,0-30.5-11.4-30.5-29C0,91.4,9.9,77,30.9,77
			c7.3,0,13.2,1.4,18.8,3.3v15.9H39.4V87c-2.9-1-5.1-1.3-8.1-1.3c-13.7,0-18.5,9.9-18.5,20.3c0,8.6,3.8,20.5,19.2,20.5
			c1.7,0,4.6-0.1,6.6-0.8L39.2,115.4z"/>
		<path class="st0" d="M60,80.6h-6.5v-8.3h17.9v54.3h4.9v8.3H55.4v-8.3H60V80.6z"/>
		<path class="st0" d="M86.3,100.6h-5.5v-8.4h16.9v34.2h5v8.3h-21v-8.3h4.6V100.6z M91.6,71.1c4.7,0,7.6,2.9,7.6,7.1s-3,7.1-7.6,7.1
			S84,82.4,84,78.2S86.9,71.1,91.6,71.1z"/>
		<path class="st0" d="M164.9,126.6h4.2v-17.4c0-5.8-3.1-7.9-7.4-7.9c-5.5,0-9.1,4.5-9.1,11.3v14.1h4.9v8.3h-20.4v-8.3h4.2v-17.4
			c0-5.8-3.1-7.9-7.4-7.9c-6.1,0-9.1,4.9-9.1,11.3v14.1h4.9v8.3h-20.9v-8.3h4.6v-25.9h-5.5v-8.4h16.7c0,3,0,5.7-0.7,8.6h0.1
			c2.3-6.2,7.6-9.6,14.7-9.6c7,0,11.4,3.2,12.6,9.6h0.1c2-6,6.7-9.6,14.2-9.6c10,0,14.7,6.4,14.7,16.6v18.7h4.9v8.3h-20.4v-8.2h0.1
			V126.6z"/>
		<path class="st0" d="M193.1,80.6h-6.5v-8.3h17.9V89c0,3.4-0.4,7.3-0.8,11.4h0.1c2.5-5.7,7.3-9.1,14.3-9.1
			c9.4,0,16.4,6.7,16.4,19.4c0,11.6-5.6,25.1-23.7,25.1c-7.4,0-15-1.9-17.8-3.5V80.6H193.1z M204.3,125c1.5,0.8,4.7,1.5,7.3,1.5
			c8.2,0,11.8-7,11.8-14.5c0-5.8-2.1-11.5-9.2-11.5c-7.6,0-9.8,5.4-9.8,10.7V125H204.3z"/>
		<path class="st0" d="M245.9,100.6h-5.5v-8.4h16.9v34.2h4.9v8.3h-20.9v-8.3h4.6V100.6z M251.2,71.1c4.7,0,7.6,2.9,7.6,7.1
			s-3,7.1-7.6,7.1s-7.6-2.9-7.6-7.1C243.5,73.9,246.4,71.1,251.2,71.1z"/>
		<path class="st0" d="M272.8,100.6h-5.5v-8.4H284c0,3,0,5.7-0.7,8.8h0.1c2.1-5.6,7.3-9.7,14.7-9.7c10,0,14.7,6.4,14.7,16.6v18.7
			h4.9v8.3h-20.9v-8.3h4.6v-17.4c0-5.8-3.1-7.9-7.4-7.9c-7,0-9.9,4.9-9.9,11.3v14.1h4.9v8.3h-20.4v-8.3h4.2v-25.9h0V100.6z"/>
		<path class="st0" d="M340.7,144.3c6.3,0,11.7-2.9,11.7-10.8v-2.6c0-1,0.1-2.3,0.1-2.3h-0.1c-2.4,3.8-6.1,6-11.6,6
			c-11.9,0-18.7-9.9-18.7-21.9s6.4-21.5,18.4-21.5c5,0,10.6,2,12.8,6.5h0.1c0,0-0.1-0.6-0.1-1.4c0-2.3,1.4-4.1,4.7-4.1h10.4v8.1h-4
			c-1.1,0-1.8,0.6-1.8,1.7v30.8c0,14.8-11,20.4-21.9,20.4c-5.2,0-10.7-1.5-14.8-3.8l3.2-7.9C329.2,141.5,334.3,144.3,340.7,144.3z
			 M352.6,112.8c0-9.8-4.7-12.5-10.3-12.5c-6.3,0-9.7,4.7-9.7,12c0,7.5,3.8,13.1,10.4,13.1C347.9,125.5,352.6,122.5,352.6,112.8z"/>
		<path class="st0" d="M375.7,72.8c4.5-1.1,9.2-1.8,13-1.8c16.3,0,20.1,9.6,20.1,15.1c0,16.9-20.3,16.9-20.3,24.6c0,1.2,1,3,1.8,4.2
			l-10.3,3c-1.7-2.3-3-5.3-3-8.1c0-11.8,19.3-10.8,19.3-22.2c0-5.2-4.7-7.4-10.2-7.4c-3.1,0-6.8,0.6-10.2,1.5L375.7,72.8z
			 M384.1,121.6c4.3,0,7.6,2.5,7.6,7.3c0,4.1-2.8,7.3-7.6,7.3c-4.9,0-7.6-3.2-7.6-7.3C376.5,124.1,379.8,121.6,384.1,121.6z"/>
	</g>
</g>
</svg>
