<?xml version="1.0" encoding="utf-8"?>
<!-- Generator: Adobe Illustrator 22.1.0, SVG Export Plug-In . SVG Version: 6.00 Build 0)  -->
<svg version="1.1" id="Layer_1" xmlns="http://www.w3.org/2000/svg" xmlns:xlink="http://www.w3.org/1999/xlink" x="0px" y="0px"
	 viewBox="0 0 181 181" style="enable-background:new 0 0 181 181;" xml:space="preserve">
<style type="text/css">
	.st0{fill:#CCCCCC;}
</style>
<path class="st0" d="M90.5,0C40.5,0,0,40.5,0,90.5c0,50,40.5,90.5,90.5,90.5S181,140.5,181,90.5C181,40.5,140.5,0,90.5,0z
	 M69.4,127.1c0,1.8,0,1.8-1.8,1.8c-4.7,0-9.4,0-14.1,0c-0.4,0-0.9,0-1.5,0c0-0.6,0-1,0-1.4c0-17.6,0-35.1,0-52.7
	c0-1.5,0-1.5,1.5-1.5c4.7,0,9.4,0,14.1,0c1.8,0,1.8,0,1.8,1.8c0,7.7,0,15.4,0,23.1C69.4,107.8,69.4,117.4,69.4,127.1z M60.6,66.1
	c-5.7-0.1-10-4.5-10-10.2c0-5.5,4.5-10.1,10-10.1c5.6,0,10.2,4.6,10.2,10.2C70.8,61.5,66.1,66.1,60.6,66.1z M132.5,128.9
	c-4.9-0.1-9.9-0.1-14.8,0c-1.1,0-1.4-0.4-1.4-1.4c0-9,0.1-17.9,0-26.9c0-2.4-0.2-4.9-0.8-7.3c-0.9-3.9-3.6-5.8-7.7-5.9
	c-4-0.1-7.3,1.1-9,5c-0.7,1.7-1.3,3.6-1.3,5.4c-0.2,9.8-0.2,19.7-0.3,29.5c0,0.5,0,1,0,1.7c-0.9,0-1.7,0-2.4,0c-4.5,0-9,0-13.4,0
	c-1.5,0-1.5,0-1.5-1.6c0-7.6,0-15.3,0-22.9c0-9.8,0-19.5,0-29.3c0-1.8,0-1.8,1.8-1.8c4.5,0,9,0,13.6,0c1,0,1.4,0.2,1.4,1.3
	c-0.1,2,0,4,0,6.3c0.6-0.8,0.9-1.4,1.4-1.9c3.6-4.5,8.4-6.8,14-7c2.7-0.1,5.6,0.2,8.2,0.8c6.9,1.5,10.7,6.2,12.4,12.8
	c1.1,4.4,1.4,8.8,1.4,13.3c0,9.5,0,19,0,28.5C134,128.6,133.7,128.9,132.5,128.9z"/>
</svg>
