<?xml version="1.0" encoding="utf-8"?>
<!-- Generator: Adobe Illustrator 22.1.0, SVG Export Plug-In . SVG Version: 6.00 Build 0)  -->
<svg version="1.1" id="Layer_1" xmlns="http://www.w3.org/2000/svg" xmlns:xlink="http://www.w3.org/1999/xlink" x="0px" y="0px"
	 viewBox="0 0 181 181" style="enable-background:new 0 0 181 181;" xml:space="preserve">
<style type="text/css">
	.st0{fill:#CCCCCC;}
</style>
<path class="st0" d="M90.5,0C40.5,0,0,40.5,0,90.5c0,50,40.5,90.5,90.5,90.5S181,140.5,181,90.5C181,40.5,140.5,0,90.5,0z
	 M144.9,64.1c0,0.2,0,0.3-0.1,0.3c-1.6,2.5-3.1,5-5.3,7.1c-0.6,0.6-1.3,1.2-2.1,1.7c-0.4,0.3-0.5,0.6-0.5,1c0.1,1.2,0.1,2.4,0.1,3.6
	c-0.1,2.7-0.3,5.3-0.6,7.9c-0.5,4.2-1.7,8.3-3.3,12.2c-2.3,5.7-5.5,10.9-9.6,15.5c-4.7,5.4-10.3,9.6-16.8,12.6
	c-4.8,2.3-9.8,3.8-15.1,4.7c-3.2,0.5-6.4,0.8-9.6,0.9c-5.7,0.1-11.3-0.4-16.8-1.7c-4.7-1-9.2-2.5-13.4-4.7c-0.8-0.4-1.6-0.9-2.4-1.3
	c-0.2-0.1-0.3-0.2-0.5-0.4c0.3,0,0.4-0.1,0.5-0.1c2,0,4,0.1,6,0c2.6-0.2,5.2-0.5,7.8-0.9c4.8-0.8,9.4-2.2,13.8-4.5
	c1.1-0.6,2.1-1.3,3.1-1.9c0.1-0.1,0.3-0.2,0.3-0.3c-2-0.3-4.1-0.5-6.1-0.9c-4.6-0.9-9.1-2.5-12.9-5.4c-1.8-1.3-3.2-3-4.1-5
	c-0.1-0.3-0.2-0.5-0.3-0.9c3.8-0.1,7.5-0.3,11-2c-0.7-0.2-1.4-0.4-2.1-0.6c-3.3-1-6.3-2.7-8.7-5.3c-2.4-2.5-3.8-5.5-4.3-8.9
	c-0.1-0.7-0.2-1.4-0.2-2.1c0-0.3,0-0.7,0-1.1c3.8,1.7,7.5,3.4,11.5,4c0,0,0-0.1,0.1-0.1c-0.7-0.6-1.5-1.1-2.2-1.7
	c-3.3-2.8-6.1-6-7.9-10c-0.9-2-1.5-4-1.5-6.2c0-3.3,0.8-6.5,2.4-9.4c0.1-0.1,0.1-0.2,0.2-0.4c0,0,0.1,0,0.2-0.1
	c0.6,0.7,1.2,1.4,1.8,2.1c4.2,4.7,8.8,9,14,12.6c3.7,2.6,7.6,4.8,11.9,6.5c3.6,1.4,7.3,2.4,11.2,2.6c0.5,0,1,0.1,1.5,0.1
	c0.9,0,0.9,0,0.9-0.9c0-2.5,0-5,0-7.5c0.1-5.5,1.9-10.3,5.7-14.2c2.9-3,6.5-4.8,10.8-5.2c4.1-0.4,8.1,0.2,11.9,2
	c1.5,0.7,2.9,1.7,4.1,2.9c0.3,0.3,0.6,0.4,1,0.3c4.7-1.1,9.2-2.6,13.5-4.8c0.3-0.2,0.6-0.3,0.9-0.4c0.1,0,0.1,0.1,0.2,0.1
	c-0.3,0.7-0.6,1.4-1,2c-1.8,2.8-4.2,5-6.9,7.1c-1.2,0.9-2.4,1.7-3.5,2.6C137.5,66.9,141.2,65.6,144.9,64.1z"/>
</svg>
