<?xml version="1.0" encoding="utf-8"?>
<!-- Generator: Adobe Illustrator 22.1.0, SVG Export Plug-In . SVG Version: 6.00 Build 0)  -->
<svg version="1.1" id="Layer_1" xmlns="http://www.w3.org/2000/svg" xmlns:xlink="http://www.w3.org/1999/xlink" x="0px" y="0px"
	 viewBox="0 0 56.5 56.5" style="enable-background:new 0 0 56.5 56.5;" xml:space="preserve">
<style type="text/css">
	.st0{fill:#1A468D;}
	.st1{fill:url(#SVGID_1_);}
	.st2{fill:url(#SVGID_2_);}
	.st3{fill:url(#SVGID_3_);}
	.st4{fill:url(#SVGID_4_);}
</style>
<circle class="st0" cx="28.2" cy="28.2" r="25.5"/>
<g>
	<linearGradient id="SVGID_1_" gradientUnits="userSpaceOnUse" x1="10.0941" y1="49.8568" x2="46.3779" y2="6.6153">
		<stop  offset="0" style="stop-color:#F4B34A"/>
		<stop  offset="0.2634" style="stop-color:#F5B74B"/>
		<stop  offset="0.5043" style="stop-color:#FAC250"/>
		<stop  offset="0.6912" style="stop-color:#FFD055"/>
		<stop  offset="0.7596" style="stop-color:#FCC952"/>
		<stop  offset="1" style="stop-color:#F4B34A"/>
	</linearGradient>
	<path class="st1" d="M28.2,56.5C12.7,56.5,0,43.8,0,28.2C0,12.7,12.7,0,28.2,0c15.6,0,28.2,12.7,28.2,28.2
		C56.5,43.8,43.8,56.5,28.2,56.5z M28.2,5.5C15.7,5.5,5.5,15.7,5.5,28.2c0,12.5,10.2,22.7,22.7,22.7c12.5,0,22.7-10.2,22.7-22.7
		C50.9,15.7,40.8,5.5,28.2,5.5z"/>
</g>
<g>
	<linearGradient id="SVGID_2_" gradientUnits="userSpaceOnUse" x1="22.9062" y1="26.6423" x2="25.4613" y2="26.6423">
		<stop  offset="0" style="stop-color:#F4B34A"/>
		<stop  offset="0.2634" style="stop-color:#F5B74B"/>
		<stop  offset="0.5043" style="stop-color:#FAC250"/>
		<stop  offset="0.6912" style="stop-color:#FFD055"/>
		<stop  offset="0.7596" style="stop-color:#FCC952"/>
		<stop  offset="1" style="stop-color:#F4B34A"/>
	</linearGradient>
	<path class="st2" d="M25.5,26.6c0-0.7-0.6-1.3-1.3-1.2c-0.7,0-1.3,0.6-1.3,1.3c0,0.7,0.6,1.3,1.3,1.3
		C24.9,27.9,25.5,27.3,25.5,26.6z"/>
	<linearGradient id="SVGID_3_" gradientUnits="userSpaceOnUse" x1="31.0151" y1="33.9805" x2="33.5621" y2="33.9805">
		<stop  offset="0" style="stop-color:#F4B34A"/>
		<stop  offset="0.2634" style="stop-color:#F5B74B"/>
		<stop  offset="0.5043" style="stop-color:#FAC250"/>
		<stop  offset="0.6912" style="stop-color:#FFD055"/>
		<stop  offset="0.7596" style="stop-color:#FCC952"/>
		<stop  offset="1" style="stop-color:#F4B34A"/>
	</linearGradient>
	<path class="st3" d="M32.3,32.7c-0.7,0-1.3,0.6-1.3,1.3c0,0.7,0.6,1.3,1.3,1.3c0.7,0,1.3-0.6,1.3-1.3C33.6,33.3,33,32.7,32.3,32.7z
		"/>
	<linearGradient id="SVGID_4_" gradientUnits="userSpaceOnUse" x1="13.4569" y1="26.7627" x2="43.0152" y2="26.7627">
		<stop  offset="0" style="stop-color:#F4B34A"/>
		<stop  offset="0.2634" style="stop-color:#F5B74B"/>
		<stop  offset="0.5043" style="stop-color:#FAC250"/>
		<stop  offset="0.6912" style="stop-color:#FFD055"/>
		<stop  offset="0.7596" style="stop-color:#FCC952"/>
		<stop  offset="1" style="stop-color:#F4B34A"/>
	</linearGradient>
	<path class="st4" d="M28.2,13.2l-14.8,15h5.2v12.2h19.1V28.1H43L28.2,13.2z M21,26.6c0-1.8,1.4-3.1,3.1-3.1c1.8,0,3.2,1.4,3.2,3.1
		c0,1.7-1.4,3.2-3.2,3.2C22.5,29.8,21.1,28.4,21,26.6z M24.2,36.1c2-3.9,4-7.8,6-11.7c0.5,0.2,1,0.5,1.6,0.7c-2,3.9-4,7.8-6,11.7
		C25.3,36.6,24.8,36.3,24.2,36.1z M32.3,37.1c-1.7,0-3.2-1.4-3.2-3.1c0-1.7,1.4-3.2,3.1-3.2c1.7,0,3.1,1.4,3.1,3.2
		C35.4,35.7,34.1,37.1,32.3,37.1z"/>
</g>
</svg>
