<?xml version="1.0" encoding="utf-8"?>
<!-- Generator: Adobe Illustrator 22.1.0, SVG Export Plug-In . SVG Version: 6.00 Build 0)  -->
<svg version="1.1" id="Layer_1" xmlns="http://www.w3.org/2000/svg" xmlns:xlink="http://www.w3.org/1999/xlink" x="0px" y="0px"
	 viewBox="0 0 56.4 56.5" style="enable-background:new 0 0 56.4 56.5;" xml:space="preserve">
<style type="text/css">
	.st0{fill:#1A468D;}
	.st1{fill:#FFFFFF;}
</style>
<g>
	<path class="st0" d="M28.2,56.5C12.7,56.5,0,43.8,0,28.2C0,12.7,12.7,0,28.2,0c15.6,0,28.2,12.7,28.2,28.2
		C56.5,43.8,43.8,56.5,28.2,56.5z"/>
</g>
<g>
	<path class="st1" d="M12.3,18.7v-3.4h0.5v0.5c0.1-0.2,0.2-0.3,0.4-0.4s0.4-0.2,0.6-0.2c0.3,0,0.5,0.1,0.6,0.2s0.3,0.3,0.3,0.4
		c0.3-0.4,0.6-0.6,1.1-0.6c0.3,0,0.6,0.1,0.8,0.3c0.2,0.2,0.3,0.5,0.3,0.9v2.3h-0.6v-2.2c0-0.2,0-0.4-0.1-0.5c0-0.1-0.1-0.2-0.2-0.2
		c-0.1-0.1-0.2-0.1-0.3-0.1c-0.2,0-0.4,0.1-0.6,0.2s-0.2,0.4-0.2,0.8v2h-0.6v-2.2c0-0.3,0-0.5-0.1-0.6c-0.1-0.1-0.2-0.2-0.5-0.2
		c-0.2,0-0.3,0-0.5,0.1c-0.1,0.1-0.2,0.2-0.3,0.4s-0.1,0.4-0.1,0.7v1.8H12.3z"/>
	<path class="st1" d="M17.6,17c0-0.6,0.2-1.1,0.5-1.4c0.3-0.3,0.7-0.4,1.1-0.4c0.5,0,0.9,0.2,1.2,0.5c0.3,0.3,0.4,0.7,0.4,1.3
		c0,0.4-0.1,0.8-0.2,1s-0.3,0.4-0.6,0.6c-0.3,0.1-0.5,0.2-0.8,0.2c-0.5,0-0.9-0.2-1.2-0.5S17.6,17.6,17.6,17z M18.2,17
		c0,0.4,0.1,0.8,0.3,1s0.4,0.3,0.7,0.3c0.3,0,0.5-0.1,0.7-0.3c0.2-0.2,0.3-0.6,0.3-1c0-0.4-0.1-0.7-0.3-1c-0.2-0.2-0.4-0.3-0.7-0.3
		c-0.3,0-0.5,0.1-0.7,0.3C18.3,16.3,18.2,16.6,18.2,17z"/>
	<path class="st1" d="M21.5,18.7v-3.4H22v0.5c0.3-0.4,0.6-0.6,1.1-0.6c0.2,0,0.4,0,0.6,0.1c0.2,0.1,0.3,0.2,0.4,0.3s0.1,0.3,0.2,0.4
		c0,0.1,0,0.3,0,0.6v2.1h-0.6v-2.1c0-0.2,0-0.4-0.1-0.5c0-0.1-0.1-0.2-0.2-0.3c-0.1-0.1-0.2-0.1-0.4-0.1c-0.2,0-0.5,0.1-0.6,0.2
		c-0.2,0.2-0.3,0.5-0.3,0.9v1.9H21.5z"/>
	<path class="st1" d="M25.2,14.7V14h0.6v0.7H25.2z M25.2,18.7v-3.4h0.6v3.4H25.2z"/>
	<path class="st1" d="M27.9,18.2l0.1,0.5c-0.2,0-0.3,0.1-0.4,0.1c-0.2,0-0.4,0-0.5-0.1s-0.2-0.2-0.2-0.3s-0.1-0.3-0.1-0.7v-2h-0.4
		v-0.5h0.4v-0.8l0.6-0.3v1.2h0.6v0.5h-0.6v2c0,0.2,0,0.3,0,0.3c0,0,0.1,0.1,0.1,0.1c0,0,0.1,0,0.2,0C27.7,18.2,27.8,18.2,27.9,18.2z
		"/>
	<path class="st1" d="M28.2,17c0-0.6,0.2-1.1,0.5-1.4c0.3-0.3,0.7-0.4,1.1-0.4c0.5,0,0.9,0.2,1.2,0.5c0.3,0.3,0.4,0.7,0.4,1.3
		c0,0.4-0.1,0.8-0.2,1s-0.3,0.4-0.6,0.6c-0.3,0.1-0.5,0.2-0.8,0.2c-0.5,0-0.9-0.2-1.2-0.5S28.2,17.6,28.2,17z M28.8,17
		c0,0.4,0.1,0.8,0.3,1c0.2,0.2,0.4,0.3,0.7,0.3c0.3,0,0.5-0.1,0.7-0.3c0.2-0.2,0.3-0.6,0.3-1c0-0.4-0.1-0.7-0.3-1
		c-0.2-0.2-0.4-0.3-0.7-0.3c-0.3,0-0.5,0.1-0.7,0.3C28.9,16.3,28.8,16.6,28.8,17z"/>
	<path class="st1" d="M32.1,18.7v-3.4h0.5v0.5c0.1-0.2,0.3-0.4,0.4-0.5c0.1-0.1,0.2-0.1,0.4-0.1c0.2,0,0.4,0.1,0.6,0.2L33.8,16
		c-0.1-0.1-0.3-0.1-0.4-0.1c-0.1,0-0.2,0-0.3,0.1s-0.2,0.2-0.2,0.3c-0.1,0.2-0.1,0.4-0.1,0.7v1.8H32.1z"/>
	<path class="st1" d="M34.3,14.7V14h0.6v0.7H34.3z M34.3,18.7v-3.4h0.6v3.4H34.3z"/>
	<path class="st1" d="M35.8,18.7v-3.4h0.5v0.5c0.3-0.4,0.6-0.6,1.1-0.6c0.2,0,0.4,0,0.6,0.1c0.2,0.1,0.3,0.2,0.4,0.3
		s0.1,0.3,0.2,0.4c0,0.1,0,0.3,0,0.6v2.1H38v-2.1c0-0.2,0-0.4-0.1-0.5c0-0.1-0.1-0.2-0.2-0.3c-0.1-0.1-0.2-0.1-0.4-0.1
		c-0.2,0-0.5,0.1-0.6,0.2c-0.2,0.2-0.3,0.5-0.3,0.9v1.9H35.8z"/>
	<path class="st1" d="M39.3,19l0.6,0.1c0,0.2,0.1,0.3,0.2,0.4c0.1,0.1,0.3,0.2,0.6,0.2c0.3,0,0.5-0.1,0.6-0.2
		c0.1-0.1,0.2-0.3,0.3-0.5c0-0.1,0-0.4,0-0.7c-0.3,0.3-0.6,0.4-0.9,0.4c-0.5,0-0.8-0.2-1.1-0.5c-0.3-0.3-0.4-0.7-0.4-1.2
		c0-0.3,0.1-0.6,0.2-0.9c0.1-0.3,0.3-0.5,0.5-0.6c0.2-0.1,0.5-0.2,0.8-0.2c0.4,0,0.7,0.2,1,0.5v-0.4h0.5v3c0,0.5-0.1,0.9-0.2,1.1
		c-0.1,0.2-0.3,0.4-0.5,0.5c-0.2,0.1-0.5,0.2-0.9,0.2c-0.4,0-0.7-0.1-1-0.3S39.3,19.4,39.3,19z M39.8,17c0,0.4,0.1,0.8,0.3,1
		c0.2,0.2,0.4,0.3,0.7,0.3c0.3,0,0.5-0.1,0.7-0.3c0.2-0.2,0.3-0.5,0.3-1c0-0.4-0.1-0.7-0.3-0.9s-0.4-0.3-0.7-0.3
		c-0.3,0-0.5,0.1-0.7,0.3C39.9,16.2,39.8,16.6,39.8,17z"/>
	<path class="st1" d="M15.4,25.6l0.6-0.1c0,0.2,0.1,0.4,0.3,0.5c0.1,0.1,0.4,0.2,0.6,0.2c0.3,0,0.5-0.1,0.6-0.2
		c0.1-0.1,0.2-0.2,0.2-0.4c0-0.1-0.1-0.2-0.2-0.3c-0.1-0.1-0.3-0.1-0.6-0.2c-0.4-0.1-0.7-0.2-0.9-0.3c-0.2-0.1-0.3-0.2-0.4-0.3
		c-0.1-0.1-0.1-0.3-0.1-0.5c0-0.2,0-0.3,0.1-0.4s0.2-0.2,0.3-0.3c0.1-0.1,0.2-0.1,0.4-0.2c0.2,0,0.3-0.1,0.5-0.1
		c0.3,0,0.5,0,0.7,0.1s0.4,0.2,0.4,0.3c0.1,0.1,0.2,0.3,0.2,0.5l-0.6,0.1c0-0.2-0.1-0.3-0.2-0.4c-0.1-0.1-0.3-0.1-0.5-0.1
		c-0.3,0-0.5,0-0.6,0.1c-0.1,0.1-0.2,0.2-0.2,0.3c0,0.1,0,0.1,0.1,0.2c0,0.1,0.1,0.1,0.2,0.2c0.1,0,0.2,0.1,0.5,0.1
		c0.4,0.1,0.7,0.2,0.9,0.3c0.2,0.1,0.3,0.2,0.4,0.3s0.1,0.3,0.1,0.5c0,0.2-0.1,0.4-0.2,0.5c-0.1,0.2-0.3,0.3-0.5,0.4
		c-0.2,0.1-0.5,0.1-0.7,0.1c-0.4,0-0.8-0.1-1-0.3C15.6,26.3,15.5,26,15.4,25.6z"/>
	<path class="st1" d="M21.3,25.5l0.6,0.1c-0.1,0.3-0.3,0.6-0.5,0.8s-0.6,0.3-1,0.3c-0.5,0-0.9-0.2-1.2-0.5c-0.3-0.3-0.4-0.7-0.4-1.3
		c0-0.6,0.1-1,0.4-1.3c0.3-0.3,0.7-0.5,1.2-0.5c0.5,0,0.8,0.2,1.1,0.5c0.3,0.3,0.4,0.7,0.4,1.3c0,0,0,0.1,0,0.2h-2.5
		c0,0.4,0.1,0.7,0.3,0.9s0.4,0.3,0.7,0.3c0.2,0,0.4-0.1,0.5-0.2C21.1,26,21.2,25.8,21.3,25.5z M19.4,24.6h1.9c0-0.3-0.1-0.5-0.2-0.6
		c-0.2-0.2-0.4-0.3-0.7-0.3c-0.3,0-0.5,0.1-0.7,0.3C19.5,24.1,19.4,24.3,19.4,24.6z"/>
	<path class="st1" d="M22.6,26.6v-3.4h0.5v0.5c0.1-0.2,0.3-0.4,0.4-0.5c0.1-0.1,0.2-0.1,0.4-0.1c0.2,0,0.4,0.1,0.6,0.2l-0.2,0.5
		c-0.1-0.1-0.3-0.1-0.4-0.1c-0.1,0-0.2,0-0.3,0.1c-0.1,0.1-0.2,0.2-0.2,0.3c-0.1,0.2-0.1,0.4-0.1,0.7v1.8H22.6z"/>
	<path class="st1" d="M25.7,26.6l-1.3-3.4H25l0.7,2c0.1,0.2,0.2,0.5,0.2,0.7c0.1-0.2,0.1-0.4,0.2-0.6l0.8-2.1h0.6l-1.3,3.4H25.7z"/>
	<path class="st1" d="M28.1,22.6v-0.7h0.6v0.7H28.1z M28.1,26.6v-3.4h0.6v3.4H28.1z"/>
	<path class="st1" d="M31.8,25.4l0.6,0.1c-0.1,0.4-0.2,0.7-0.5,0.9c-0.3,0.2-0.6,0.3-0.9,0.3c-0.5,0-0.8-0.2-1.1-0.5
		s-0.4-0.7-0.4-1.3c0-0.4,0.1-0.7,0.2-1c0.1-0.3,0.3-0.5,0.6-0.6s0.5-0.2,0.8-0.2c0.4,0,0.7,0.1,0.9,0.3c0.2,0.2,0.4,0.5,0.5,0.8
		l-0.6,0.1c-0.1-0.2-0.1-0.4-0.3-0.5c-0.1-0.1-0.3-0.2-0.5-0.2c-0.3,0-0.5,0.1-0.7,0.3c-0.2,0.2-0.3,0.5-0.3,1c0,0.5,0.1,0.8,0.3,1
		c0.2,0.2,0.4,0.3,0.7,0.3c0.2,0,0.4-0.1,0.6-0.2C31.6,25.9,31.7,25.7,31.8,25.4z"/>
	<path class="st1" d="M35.2,25.5l0.6,0.1c-0.1,0.3-0.3,0.6-0.5,0.8c-0.3,0.2-0.6,0.3-1,0.3c-0.5,0-0.9-0.2-1.2-0.5
		c-0.3-0.3-0.4-0.7-0.4-1.3c0-0.6,0.1-1,0.4-1.3c0.3-0.3,0.7-0.5,1.2-0.5c0.5,0,0.8,0.2,1.1,0.5c0.3,0.3,0.4,0.7,0.4,1.3
		c0,0,0,0.1,0,0.2h-2.5c0,0.4,0.1,0.7,0.3,0.9c0.2,0.2,0.4,0.3,0.7,0.3c0.2,0,0.4-0.1,0.5-0.2C35,26,35.1,25.8,35.2,25.5z
		 M33.3,24.6h1.9c0-0.3-0.1-0.5-0.2-0.6c-0.2-0.2-0.4-0.3-0.7-0.3c-0.3,0-0.5,0.1-0.7,0.3C33.4,24.1,33.3,24.3,33.3,24.6z"/>
	<path class="st1" d="M36.3,25.6l0.6-0.1c0,0.2,0.1,0.4,0.3,0.5c0.1,0.1,0.4,0.2,0.6,0.2c0.3,0,0.5-0.1,0.6-0.2
		c0.1-0.1,0.2-0.2,0.2-0.4c0-0.1-0.1-0.2-0.2-0.3c-0.1-0.1-0.3-0.1-0.6-0.2c-0.4-0.1-0.7-0.2-0.9-0.3c-0.2-0.1-0.3-0.2-0.4-0.3
		c-0.1-0.1-0.1-0.3-0.1-0.5c0-0.2,0-0.3,0.1-0.4c0.1-0.1,0.2-0.2,0.3-0.3c0.1-0.1,0.2-0.1,0.4-0.2c0.2,0,0.3-0.1,0.5-0.1
		c0.3,0,0.5,0,0.7,0.1c0.2,0.1,0.4,0.2,0.4,0.3s0.2,0.3,0.2,0.5l-0.6,0.1c0-0.2-0.1-0.3-0.2-0.4s-0.3-0.1-0.5-0.1
		c-0.3,0-0.5,0-0.6,0.1c-0.1,0.1-0.2,0.2-0.2,0.3c0,0.1,0,0.1,0.1,0.2c0,0.1,0.1,0.1,0.2,0.2c0.1,0,0.2,0.1,0.5,0.1
		c0.4,0.1,0.7,0.2,0.9,0.3s0.3,0.2,0.4,0.3c0.1,0.1,0.1,0.3,0.1,0.5c0,0.2-0.1,0.4-0.2,0.5s-0.3,0.3-0.5,0.4
		c-0.2,0.1-0.5,0.1-0.7,0.1c-0.4,0-0.8-0.1-1-0.3C36.5,26.3,36.3,26,36.3,25.6z"/>
	<path class="st1" d="M17.5,34.5v-3.4H18v0.5c0.1-0.2,0.3-0.4,0.4-0.5c0.1-0.1,0.2-0.1,0.4-0.1c0.2,0,0.4,0.1,0.6,0.2l-0.2,0.5
		c-0.1-0.1-0.3-0.1-0.4-0.1c-0.1,0-0.2,0-0.3,0.1c-0.1,0.1-0.2,0.2-0.2,0.3c-0.1,0.2-0.1,0.4-0.1,0.7v1.8H17.5z"/>
	<path class="st1" d="M22,33.4l0.6,0.1c-0.1,0.3-0.3,0.6-0.5,0.8c-0.3,0.2-0.6,0.3-1,0.3c-0.5,0-0.9-0.2-1.2-0.5s-0.4-0.7-0.4-1.3
		c0-0.6,0.1-1,0.4-1.3c0.3-0.3,0.7-0.5,1.2-0.5c0.5,0,0.8,0.2,1.1,0.5c0.3,0.3,0.4,0.7,0.4,1.3c0,0,0,0.1,0,0.2h-2.5
		c0,0.4,0.1,0.7,0.3,0.9s0.4,0.3,0.7,0.3c0.2,0,0.4-0.1,0.5-0.2C21.8,33.9,21.9,33.7,22,33.4z M20.1,32.5H22c0-0.3-0.1-0.5-0.2-0.6
		c-0.2-0.2-0.4-0.3-0.7-0.3c-0.3,0-0.5,0.1-0.7,0.3C20.2,32,20.1,32.2,20.1,32.5z"/>
	<path class="st1" d="M25.5,35.9v-1.7c-0.1,0.1-0.2,0.2-0.4,0.3c-0.2,0.1-0.3,0.1-0.5,0.1c-0.4,0-0.8-0.2-1-0.5
		c-0.3-0.3-0.4-0.8-0.4-1.3c0-0.3,0.1-0.7,0.2-0.9s0.3-0.5,0.5-0.6c0.2-0.1,0.5-0.2,0.7-0.2c0.4,0,0.8,0.2,1,0.5v-0.5h0.5v4.7H25.5z
		 M23.7,32.8c0,0.4,0.1,0.8,0.3,1c0.2,0.2,0.4,0.3,0.7,0.3c0.2,0,0.5-0.1,0.6-0.3s0.3-0.5,0.3-1c0-0.5-0.1-0.8-0.3-1
		c-0.2-0.2-0.4-0.3-0.7-0.3c-0.3,0-0.5,0.1-0.6,0.3C23.8,32,23.7,32.4,23.7,32.8z"/>
	<path class="st1" d="M29.2,34.5V34c-0.3,0.4-0.6,0.6-1.1,0.6c-0.2,0-0.4,0-0.6-0.1c-0.2-0.1-0.3-0.2-0.4-0.3
		C27.1,34.1,27,34,27,33.8c0-0.1,0-0.3,0-0.5v-2.1h0.6V33c0,0.3,0,0.5,0,0.6c0,0.2,0.1,0.3,0.2,0.4c0.1,0.1,0.3,0.1,0.4,0.1
		s0.3,0,0.5-0.1c0.2-0.1,0.3-0.2,0.3-0.4c0.1-0.2,0.1-0.4,0.1-0.7v-1.8h0.6v3.4H29.2z"/>
	<path class="st1" d="M30.7,30.5v-0.7h0.6v0.7H30.7z M30.7,34.5v-3.4h0.6v3.4H30.7z"/>
	<path class="st1" d="M32.1,34.5v-3.4h0.5v0.5c0.1-0.2,0.3-0.4,0.4-0.5c0.1-0.1,0.2-0.1,0.4-0.1c0.2,0,0.4,0.1,0.6,0.2l-0.2,0.5
		c-0.1-0.1-0.3-0.1-0.4-0.1c-0.1,0-0.2,0-0.3,0.1s-0.2,0.2-0.2,0.3c-0.1,0.2-0.1,0.4-0.1,0.7v1.8H32.1z"/>
	<path class="st1" d="M36.6,33.4l0.6,0.1c-0.1,0.3-0.3,0.6-0.5,0.8c-0.3,0.2-0.6,0.3-1,0.3c-0.5,0-0.9-0.2-1.2-0.5s-0.4-0.7-0.4-1.3
		c0-0.6,0.1-1,0.4-1.3s0.7-0.5,1.2-0.5c0.5,0,0.8,0.2,1.1,0.5c0.3,0.3,0.4,0.7,0.4,1.3c0,0,0,0.1,0,0.2h-2.5c0,0.4,0.1,0.7,0.3,0.9
		c0.2,0.2,0.4,0.3,0.7,0.3c0.2,0,0.4-0.1,0.5-0.2C36.4,33.9,36.6,33.7,36.6,33.4z M34.7,32.5h1.9c0-0.3-0.1-0.5-0.2-0.6
		c-0.2-0.2-0.4-0.3-0.7-0.3c-0.3,0-0.5,0.1-0.7,0.3C34.9,32,34.8,32.2,34.7,32.5z"/>
	<path class="st1" d="M16.9,42c-0.2,0.2-0.4,0.3-0.6,0.4s-0.4,0.1-0.6,0.1c-0.4,0-0.7-0.1-0.9-0.3c-0.2-0.2-0.3-0.4-0.3-0.7
		c0-0.2,0-0.3,0.1-0.5s0.2-0.2,0.3-0.3c0.1-0.1,0.3-0.1,0.4-0.2c0.1,0,0.3-0.1,0.5-0.1c0.5-0.1,0.8-0.1,1-0.2c0-0.1,0-0.1,0-0.2
		c0-0.2-0.1-0.4-0.2-0.5c-0.1-0.1-0.4-0.2-0.7-0.2c-0.3,0-0.5,0-0.6,0.1c-0.1,0.1-0.2,0.3-0.3,0.5L14.6,40c0.1-0.2,0.1-0.4,0.3-0.6
		c0.1-0.1,0.3-0.3,0.5-0.3s0.5-0.1,0.8-0.1c0.3,0,0.5,0,0.7,0.1s0.3,0.2,0.4,0.3c0.1,0.1,0.1,0.2,0.2,0.4c0,0.1,0,0.3,0,0.5V41
		c0,0.5,0,0.9,0,1s0.1,0.3,0.1,0.4h-0.6C17,42.3,17,42.2,16.9,42z M16.9,40.7c-0.2,0.1-0.5,0.2-0.9,0.2c-0.2,0-0.4,0.1-0.5,0.1
		s-0.2,0.1-0.2,0.2c-0.1,0.1-0.1,0.2-0.1,0.3c0,0.2,0.1,0.3,0.2,0.4c0.1,0.1,0.3,0.2,0.5,0.2c0.2,0,0.4,0,0.6-0.1
		c0.2-0.1,0.3-0.2,0.4-0.4c0.1-0.1,0.1-0.3,0.1-0.6V40.7z"/>
	<path class="st1" d="M20.6,41.2l0.6,0.1c-0.1,0.4-0.2,0.7-0.5,0.9c-0.3,0.2-0.6,0.3-0.9,0.3c-0.5,0-0.8-0.2-1.1-0.5
		c-0.3-0.3-0.4-0.7-0.4-1.3c0-0.4,0.1-0.7,0.2-1c0.1-0.3,0.3-0.5,0.6-0.6s0.5-0.2,0.8-0.2c0.4,0,0.7,0.1,0.9,0.3s0.4,0.5,0.5,0.8
		l-0.6,0.1c-0.1-0.2-0.1-0.4-0.3-0.5c-0.1-0.1-0.3-0.2-0.5-0.2c-0.3,0-0.5,0.1-0.7,0.3c-0.2,0.2-0.3,0.5-0.3,1c0,0.5,0.1,0.8,0.3,1
		s0.4,0.3,0.7,0.3c0.2,0,0.4-0.1,0.6-0.2C20.5,41.7,20.6,41.5,20.6,41.2z"/>
	<path class="st1" d="M22.9,41.9l0.1,0.5c-0.2,0-0.3,0.1-0.4,0.1c-0.2,0-0.4,0-0.5-0.1s-0.2-0.2-0.2-0.3c0-0.1-0.1-0.3-0.1-0.7v-2
		h-0.4V39h0.4v-0.8l0.6-0.3V39h0.6v0.5h-0.6v2c0,0.2,0,0.3,0,0.3c0,0,0.1,0.1,0.1,0.1c0,0,0.1,0,0.2,0C22.7,42,22.8,42,22.9,41.9z"
		/>
	<path class="st1" d="M23.5,38.4v-0.7h0.6v0.7H23.5z M23.5,42.5V39h0.6v3.4H23.5z"/>
	<path class="st1" d="M25.9,42.5L24.6,39h0.6l0.7,2c0.1,0.2,0.2,0.5,0.2,0.7c0.1-0.2,0.1-0.4,0.2-0.6l0.8-2.1h0.6l-1.3,3.4H25.9z"/>
	<path class="st1" d="M30.5,42c-0.2,0.2-0.4,0.3-0.6,0.4c-0.2,0.1-0.4,0.1-0.6,0.1c-0.4,0-0.7-0.1-0.9-0.3c-0.2-0.2-0.3-0.4-0.3-0.7
		c0-0.2,0-0.3,0.1-0.5s0.2-0.2,0.3-0.3c0.1-0.1,0.3-0.1,0.4-0.2c0.1,0,0.3-0.1,0.5-0.1c0.5-0.1,0.8-0.1,1-0.2c0-0.1,0-0.1,0-0.2
		c0-0.2-0.1-0.4-0.2-0.5c-0.1-0.1-0.4-0.2-0.7-0.2c-0.3,0-0.5,0-0.6,0.1c-0.1,0.1-0.2,0.3-0.3,0.5L28.2,40c0.1-0.2,0.1-0.4,0.3-0.6
		c0.1-0.1,0.3-0.3,0.5-0.3s0.5-0.1,0.8-0.1c0.3,0,0.5,0,0.7,0.1s0.3,0.2,0.4,0.3c0.1,0.1,0.1,0.2,0.2,0.4c0,0.1,0,0.3,0,0.5V41
		c0,0.5,0,0.9,0,1s0.1,0.3,0.1,0.4h-0.6C30.5,42.3,30.5,42.2,30.5,42z M30.4,40.7c-0.2,0.1-0.5,0.2-0.9,0.2c-0.2,0-0.4,0.1-0.5,0.1
		c-0.1,0-0.2,0.1-0.2,0.2c-0.1,0.1-0.1,0.2-0.1,0.3c0,0.2,0.1,0.3,0.2,0.4c0.1,0.1,0.3,0.2,0.5,0.2c0.2,0,0.4,0,0.6-0.1
		c0.2-0.1,0.3-0.2,0.4-0.4c0.1-0.1,0.1-0.3,0.1-0.6V40.7z"/>
	<path class="st1" d="M33.2,41.9l0.1,0.5c-0.2,0-0.3,0.1-0.4,0.1c-0.2,0-0.4,0-0.5-0.1c-0.1-0.1-0.2-0.2-0.2-0.3
		c0-0.1-0.1-0.3-0.1-0.7v-2h-0.4V39H32v-0.8l0.6-0.3V39h0.6v0.5h-0.6v2c0,0.2,0,0.3,0,0.3c0,0,0.1,0.1,0.1,0.1c0,0,0.1,0,0.2,0
		C33,42,33.1,42,33.2,41.9z"/>
	<path class="st1" d="M33.8,38.4v-0.7h0.6v0.7H33.8z M33.8,42.5V39h0.6v3.4H33.8z"/>
	<path class="st1" d="M35,40.7c0-0.6,0.2-1.1,0.5-1.4c0.3-0.3,0.7-0.4,1.1-0.4c0.5,0,0.9,0.2,1.2,0.5c0.3,0.3,0.4,0.7,0.4,1.3
		c0,0.4-0.1,0.8-0.2,1c-0.1,0.3-0.3,0.4-0.6,0.6s-0.5,0.2-0.8,0.2c-0.5,0-0.9-0.2-1.2-0.5S35,41.3,35,40.7z M35.6,40.7
		c0,0.4,0.1,0.8,0.3,1c0.2,0.2,0.4,0.3,0.7,0.3c0.3,0,0.5-0.1,0.7-0.3c0.2-0.2,0.3-0.6,0.3-1c0-0.4-0.1-0.7-0.3-1
		c-0.2-0.2-0.4-0.3-0.7-0.3c-0.3,0-0.5,0.1-0.7,0.3C35.7,40,35.6,40.3,35.6,40.7z"/>
	<path class="st1" d="M38.9,42.5V39h0.5v0.5c0.3-0.4,0.6-0.6,1.1-0.6c0.2,0,0.4,0,0.6,0.1s0.3,0.2,0.4,0.3s0.1,0.3,0.2,0.4
		c0,0.1,0,0.3,0,0.6v2.1h-0.6v-2.1c0-0.2,0-0.4-0.1-0.5c0-0.1-0.1-0.2-0.2-0.3c-0.1-0.1-0.2-0.1-0.4-0.1c-0.2,0-0.5,0.1-0.6,0.2
		s-0.3,0.5-0.3,0.9v1.9H38.9z"/>
</g>
</svg>
