<?xml version="1.0" encoding="utf-8"?>
<!-- Generator: Adobe Illustrator 22.1.0, SVG Export Plug-In . SVG Version: 6.00 Build 0)  -->
<svg version="1.1" id="Layer_1" xmlns="http://www.w3.org/2000/svg" xmlns:xlink="http://www.w3.org/1999/xlink" x="0px" y="0px"
	 viewBox="0 0 679.9 430.2" style="enable-background:new 0 0 679.9 430.2;" xml:space="preserve">
<style type="text/css">
	.st0{fill:#FFFFFF;}
	.st1{fill:#FAA729;}
</style>
<g>
	<g>
		<path class="st0" d="M192.9,334.9h8c4.6,0,10.2-3.7,12.5-8.3l17.3-34h-2.5c0,0-2.1,5.8-8.5,5.7l-119.9-0.1
			c-4.6,0-10.2,3.7-12.5,8.3l-17.2,33.6h-8c-4.6,0-10.2,3.7-12.5,8.3l-17.3,34.1h2.5c0,0,2.1-5.8,8.5-5.7l119.9,0.1
			c4.7,0,10.2-3.7,12.5-8.3L192.9,334.9z M108.9,340.2H72.6c0.7-1.4,3-5.3,8.3-5.3h40.6l17.8-17.4l3.4,17.4l47.8,0.1
			c-0.7,1.4-3,5.3-8.3,5.3h-33.9L144,342l4.2,21.6l-22.4-11.5l-30.5,8.3l17.9-17.5L108.9,340.2z"/>
		<path class="st0" d="M264,302.5l0.4-0.9c0.8-2.1,0.7-4-1.1-4c-2,0-3.4,1.6-4,3.2c-2.7,7.3,13.2,3.6,8.3,17
			c-3,7.8-8.5,11.2-16.3,11.2c-7.4,0-10.4-2.7-7.7-10.2l0.5-1.2h8.6l-0.4,0.9c-1.1,3.1-0.5,4.2,1.4,4.2s3.4-1.6,4.2-3.5
			c2.7-7.3-12.7-3.6-7.8-16.5c2.7-7.4,7.9-11.5,15.4-11.5c7.8,0,9.8,3.4,6.9,11.2L264,302.5L264,302.5z"/>
		<polygon class="st0" points="280.5,291.9 300.9,291.9 297.9,299.8 286.6,299.8 284.3,306 295,306 292.1,313.5 281.5,313.5 
			278.8,320.8 290.5,320.8 287.6,328.6 266.9,328.6 		"/>
		<polygon class="st0" points="385.1,291.9 394,291.9 380.3,328.6 371.4,328.6 		"/>
		<polygon class="st0" points="399.6,300.1 392.9,300.1 395.8,291.9 418.2,291.9 415.2,300.1 408.4,300.1 397.9,328.6 388.9,328.6 
					"/>
		<polygon class="st0" points="419.8,314.1 419.3,291.9 429,291.9 427.7,304.7 427.8,304.7 435.8,291.9 445.6,291.9 428.6,314.1 
			423.2,328.6 414.5,328.6 		"/>
		<polygon class="st0" points="484.1,291.9 504.5,291.9 501.6,299.8 490.1,299.8 487.9,306 498.5,306 495.7,313.5 485.1,313.5 
			482.5,320.8 494.2,320.8 491.3,328.6 470.6,328.6 		"/>
		<polygon class="st0" points="532.2,291.9 541.7,291.9 535.1,319.5 535.2,319.5 549,291.9 558.5,291.9 537.4,328.6 525.9,328.6 		
			"/>
		<polygon class="st0" points="561.8,291.9 570.6,291.9 557,328.6 548,328.6 		"/>
		<polygon class="st0" points="600.3,291.9 620.5,291.9 617.7,299.8 606.2,299.8 604,306 614.6,306 611.8,313.5 601.1,313.5 
			598.4,320.8 610.2,320.8 607.3,328.6 586.6,328.6 		"/>
		<path class="st0" d="M314.3,303c1.6-4.1,1.2-5.3-0.5-5.3c-2.7,0-4,2.6-7.7,12.6c-3.6,9.9-4.4,12.6-1.7,12.6c2.1,0,3.4-2.1,6-9h8.6
			l-1,2.7c-3.8,10.2-10.4,12.7-15.9,12.7c-10,0-10.2-5.3-5.1-18.9c5.2-13.9,10-18.9,19.3-18.9c8,0,9.4,4.6,6.8,11.6l-0.9,2.2h-8.6
			L314.3,303z"/>
		<path class="st0" d="M339.3,291.9l-9.8,26.3c-1.4,3.5-0.7,4.4,1,4.4s3.1-0.9,4.3-4.4l9.8-26.3h9l-9,23.9
			c-3.8,10.2-9,13.2-16.5,13.2c-7.5,0-10.4-3.1-6.7-13.2l9-23.9H339.3z"/>
		<path class="st0" d="M360.7,307.5h1.8c2.5,0,4.4-1.7,5.3-4.3c1.1-3,0.5-4.2-2.1-4.2h-1.7L360.7,307.5z M357.7,291.9h13.9
			c6.8,0,7.8,4.1,5.8,9.8c-1.8,4.8-4.8,8-9,8.8l-0.1,0.1c4.2,0.5,4.3,3.3,2.6,8.2l-1.1,3.1c-0.7,2-1.6,4.3-1.5,4.9
			c0.1,0.5,0.1,0.8,0.6,1.1l-0.2,0.6H359c-0.1-2,1.1-5.4,1.7-6.9l0.9-2.5c1.6-4.1,1.2-5.2-1-5.2h-2.4l-5.4,14.6h-9L357.7,291.9z"/>
		<path class="st0" d="M468.2,302.5l0.4-0.9c0.8-2.1,0.7-4-1.1-4c-2,0-3.4,1.6-4,3.2c-2.7,7.3,13.2,3.6,8.3,17
			c-3,7.8-8.5,11.2-16.3,11.2c-7.4,0-10.4-2.7-7.7-10.2l0.5-1.2h8.6l-0.4,0.9c-1.1,3.1-0.5,4.2,1.4,4.2c1.8,0,3.4-1.6,4.2-3.5
			c2.7-7.3-12.7-3.6-7.8-16.5c2.7-7.4,7.9-11.5,15.4-11.5c7.8,0,9.8,3.4,6.9,11.2L468.2,302.5L468.2,302.5z"/>
		<path class="st0" d="M511,307.5h1.8c2.5,0,4.4-1.7,5.3-4.3c1.1-3,0.5-4.2-2.1-4.2h-1.8L511,307.5z M507.8,291.9h13.9
			c6.8,0,7.8,4.1,5.8,9.8c-1.8,4.8-4.8,8-9,8.8l-0.1,0.1c4.2,0.5,4.3,3.3,2.6,8.2l-1.1,3.1c-0.7,2-1.6,4.3-1.5,4.9
			c0.1,0.5,0.1,0.8,0.6,1.1l-0.2,0.6h-9.5c-0.1-2,1.1-5.4,1.7-6.9l0.9-2.5c1.6-4.1,1.2-5.2-1-5.2h-2.4l-5.4,14.6h-9L507.8,291.9z"/>
		<path class="st0" d="M584,303c1.6-4.1,1.2-5.3-0.5-5.3c-2.7,0-4,2.6-7.7,12.6c-3.6,9.9-4.4,12.6-1.7,12.6c2.1,0,3.4-2.1,6-9h8.6
			l-1,2.7c-3.8,10.2-10.4,12.7-15.9,12.7c-10,0-10.2-5.3-5.1-18.9c5.2-13.9,10-18.9,19.3-18.9c8,0,9.4,4.6,6.8,11.6l-0.9,2.2h-8.5
			L584,303z"/>
		<g>
			<path class="st0" d="M408.4,352.6h-2.8l-1.2,5.7h3.1c1.2-0.1,2.5-0.9,2.8-3C410.7,352.9,409.8,352.6,408.4,352.6z"/>
			<path class="st0" d="M430.9,353.1c-0.4,0.9-0.6,2-1,2.8l-2.4,5.9h3.3l0.2-5.9c0-0.9,0.1-2,0.2-2.8c0.1-0.5,0.1-0.9,0.1-1.4l0,0
				C431.1,352.3,431,352.7,430.9,353.1z"/>
			<path class="st0" d="M624.8,334.9c-0.7,1.4-3,5.3-8.3,5.3h-30v-0.1H280.3h-29h-7.4c0,0,0,0,0-0.1h-2.4h-8
				c-4.6,0-10.2,3.7-12.5,8.3l-17.3,33.9h2.5c0,0,2.1-5.8,8.5-5.7l383,0.1c4.7,0,10.2-3.7,12.5-8.3l17.2-33.6L624.8,334.9
				L624.8,334.9z M318,370.2h-3.8l4.4-20.5h3.8L318,370.2z M341.8,370.2h-4l-1.5-7.4c-0.5-2.5-0.8-4.9-1-8.2l0,0
				c-0.2,1.7-0.5,3.7-0.8,5.9c-0.4,2.1-0.7,4.1-1,5.8l-0.8,3.8h-3.8l4.4-20.5h4l1.4,7.5c0.5,2.4,0.8,4.8,1,8.2l0,0
				c0.2-1.8,0.6-3.8,0.9-5.9c0.4-2.1,0.7-4,1-5.8l0.9-4.1h3.8L341.8,370.2z M366.9,355.7h-3.7c0.5-1.8,0.7-3.6-1.5-3.6
				c-1.2,0-2.2,0.6-2.5,2c-0.4,1.6,0.6,2.1,1.6,3c1.1,0.8,3.1,2.4,4,3.4c1,1.2,1.1,2.5,0.8,4.3c-0.8,3.8-3.8,5.9-7.6,5.9
				c-4.7,0-5.7-2.6-4.8-6.2l0.4-1.5h3.8l-0.2,1.2c-0.5,2.1-0.2,3.4,1.7,3.4c1.6,0,2.6-0.8,3-2.4c0.2-1.2-0.1-2.1-0.9-2.7
				c-1.7-1.6-4-2.7-5.1-4.8c-0.5-0.9-0.6-2.1-0.4-3.2c0.8-3.5,3.2-5.4,7.2-5.4C368.5,349.1,367.3,353.8,366.9,355.7z M388.8,363.9
				c-1,4.6-3,6.7-7.9,6.7c-5.1,0-6.2-2.1-5.1-6.7l3.1-14.3h3.8l-3,14.1c-0.5,2-0.7,4,2,4c2.5,0,3.1-2,3.5-4l3-14.1h3.8L388.8,363.9z
				 M414.5,354.5c-0.5,2.2-1.6,4.7-4.2,4.9l0,0c2.2,0.4,2.6,1.7,2.1,3.7c-0.2,0.9-1.4,5.9-0.6,6.4l-0.1,0.4h-4.3
				c-0.2-1.4,0.5-3.8,0.7-5.2c0.2-1.2,0.7-3-0.6-3.4c-1-0.4-2.1-0.2-3.2-0.2h-0.7l-2,8.9H398l4.4-20.5h7.3
				C413,349.6,415.2,350.7,414.5,354.5z M430.6,370.2l0.1-5.2h-4.6l-2.1,5.2h-4.1l9.3-20.5h5.2l0.2,20.5H430.6z M456.7,370.2h-4
				l-1.5-7.4c-0.5-2.5-0.8-4.9-1-8.2l0,0c-0.2,1.7-0.5,3.7-0.8,5.9c-0.4,2.1-0.7,4.1-1,5.8l-0.8,3.8h-3.8l4.4-20.5h4l1.4,7.5
				c0.5,2.4,0.8,4.8,1,8.2l0,0c0.2-1.8,0.6-3.8,0.9-5.9s0.7-4,1-5.8l0.9-4.1h3.8L456.7,370.2z M482.7,354.4c0,0.6-0.1,1-0.2,1.6
				h-3.7c0.1-1.4,0.8-3.7-1.1-3.7c-3.1,0-3.5,3.6-3.8,5.2l-1.2,5.7c-0.4,1.7-0.8,4.4,1.8,4.4c2.1,0,2.6-3.4,3-4.8h3.8
				c-0.1,0.4-0.2,0.8-0.4,1.1c-1,3.7-2.8,6.7-7.2,6.7c-6.3,0-5.9-4-4.7-9.5l0.7-3c1.2-5.2,2.5-9.1,8.6-9.1
				C481.5,349.1,483.1,350.9,482.7,354.4z M503.8,352.6h-6.9l-1.1,5.2h6.4l-0.7,3.1h-6.4l-1.4,6.3h6.9l-0.7,3.1h-10.7l4.4-20.5h10.8
				L503.8,352.6z"/>
		</g>
	</g>
</g>
<g>
	<path class="st1" d="M65.1,225.1l-0.9,4.3c-0.8,3.5-0.3,6.7,4.3,6.7c3.4,0,5.4-3.1,6.1-6.1c1.1-5.2-2.7-7.1-6-9.4
		c-3.8-2.5-7.1-5-9.2-8.1c-2-3.1-2.7-6.9-1.6-12.3c2.5-11.6,10.8-17.4,21.9-17.4c12.6,0,17.3,8.4,14,20H80.5
		c0.6-3.7,1.8-8.5-2.8-8.9c-3-0.3-5,1.4-5.9,4.1c-1.3,3.7,0.3,5.5,2.7,7.6c4.7,3.4,8.9,5.5,11.7,8.8c2.7,3.1,3.8,7.2,2.1,14.7
		c-2.5,11.8-10.6,18.4-22.5,18.4c-13.3,0-17.3-7.4-15.6-15.6l1.4-6.6h13.4L65.1,225.1L65.1,225.1z"/>
	<path class="st1" d="M135.9,227.4L135.9,227.4l13.8-43.2h13.7L140,246h-16.2l4.8-43.5h-0.1l-14,43.5h-16l2.7-61.8h14l-4.8,43.2
		l0.3-0.1l15.1-43.2h14L135.9,227.4z"/>
	<path class="st1" d="M155.4,245.8l13.2-61.8h14.6L170,245.8H155.4z"/>
	<path class="st1" d="M189.1,184h37.5l-2.6,12.3h-11.7l-10.6,49.4h-14.6l10.6-49.4h-11.3L189.1,184z"/>
	<path class="st1" d="M251.7,205.6l0.8-4c1.1-5.2-0.3-7.9-3-7.9c-4.5-0.1-6.1,2.4-6.9,6.5l-6.6,30.6c-0.7,3.4,0.3,5.5,4,5.5
		c5,0,6.5-5.1,7.2-8.9l1.3-5.5h14.6l-1.6,7.6c-2.3,10.6-9.9,18-24.8,18c-13.3,0-17-7.1-14.3-19.7l5.4-25.3
		c2.8-13.4,10.3-19.7,23.6-19.7c12.3,0,18.6,5.2,16,17.8l-1.1,5.2h-14.6V205.6z"/>
	<path class="st1" d="M264.5,245.8l13.2-61.8h14.6l-5,23.7h10l5-23.7h14.6l-13.2,61.8H289l5.4-25.6h-10l-5.4,25.6H264.5z"/>
</g>
<g>
	<path class="st1" d="M439.7,225.1l-0.9,4.3c-0.8,3.5-0.3,6.7,4.3,6.7c3.4,0,5.4-3.1,6.1-6.1c1.1-5.2-2.7-7.1-6-9.4
		c-3.8-2.5-7.1-5-9.2-8.1c-2-3.1-2.7-6.9-1.6-12.3c2.5-11.6,10.8-17.4,21.9-17.4c12.6,0,17.3,8.4,14,20h-13.2
		c0.6-3.7,1.8-8.5-2.8-8.9c-3-0.3-5,1.4-5.9,4.1c-1.3,3.7,0.3,5.5,2.7,7.6c4.7,3.4,8.9,5.5,11.7,8.8c2.7,3.1,3.8,7.2,2.1,14.7
		c-2.5,11.8-10.6,18.4-22.5,18.4c-13.3,0-17.3-7.4-15.6-15.6l1.4-6.6h13.4L439.7,225.1L439.7,225.1z"/>
	<path class="st1" d="M464.1,245.8l26.6-61.8h17.4l0.3,61.8h-14.6l0.4-12h-11.3l-4.3,12H464.1z M497,195.3L497,195.3L486.8,223h8.4
		L497,195.3z"/>
	<path class="st1" d="M520.4,245.8l-0.3-61.8h14.6l-1.8,43.2h0.1l16.6-43.2h14.6l-26.6,61.8H520.4z"/>
	<path class="st1" d="M557.1,245.8l13.2-61.8h33.1l-2.6,12.3h-18.7l-2.4,11.3h18.1l-2.6,12.3H577l-2.8,13.3h19.7l-2.6,12.3h-34.1
		L557.1,245.8L557.1,245.8z"/>
	<path class="st1" d="M601.3,245.8l3-14h14l-3,14H601.3z M610.8,199.6l3.3-15.6h14.6l-3.3,15.6l-9.2,26.3h-7.4L610.8,199.6z"/>
</g>
<g>
	<path class="st1" d="M346.5,199.9l7.9,32.6h-9.1l-0.9-5.7h-6.8l-0.9,5.7h-8.9l7.8-32.6H346.5z M341,206.7l-2.4,13.9h4.8L341,206.7
		L341,206.7z"/>
	<path class="st1" d="M365.3,199.9l5.4,20.1h0.1v-20.1h7.9v32.6h-9.3l-5.7-20.2h-0.1v20.2h-7.9v-32.6H365.3z"/>
	<path class="st1" d="M395.1,199.9c2.5,0,4.4,0.4,5.8,1.4c1.4,0.9,2.4,2.1,3.1,3.7c0.7,1.4,1.1,3.3,1.3,5.2c0.1,2,0.3,4,0.3,6.1
		s-0.1,4.2-0.3,6.1c-0.1,2-0.6,3.7-1.3,5.2c-0.7,1.4-1.7,2.7-3.1,3.7c-1.4,0.9-3.3,1.4-5.8,1.4h-12.3V200L395.1,199.9L395.1,199.9z
		 M393,226.5c0.8,0,1.4-0.1,2-0.3c0.4-0.3,0.9-0.7,1.1-1.4c0.3-0.7,0.4-1.8,0.4-3.1c0.1-1.4,0.1-3.1,0.1-5.4s0-4-0.1-5.4
		s-0.3-2.4-0.4-3.1c-0.3-0.7-0.7-1.3-1.1-1.4c-0.4-0.3-1.1-0.3-2-0.3h-1.7v20.4H393z"/>
</g>
<g>
	<path class="st0" d="M134.4,37.2c2.7,2.2,4,5.7,4,10.3c0,4.7-1.4,8-4.1,10.2c-2.7,2.1-6.9,3.3-12.5,3.3H115v11.2h-6.4V33.9h13.2
		C127.5,33.9,131.8,35,134.4,37.2z M129.8,53.1c1.3-1.4,2-3.4,2-6.1c0-2.6-0.8-4.5-2.4-5.6c-1.7-1.1-4.2-1.7-7.7-1.7h-6.5V55h7.5
		C126.1,55.1,128.5,54.4,129.8,53.1z"/>
	<path class="st0" d="M168.7,72.2h-5.6v-3.9c-2.4,2.9-5.6,4.3-9.7,4.3c-3,0-5.5-0.8-7.6-2.6c-2-1.7-3-4-3-6.9s1-5,3.2-6.4
		c2.1-1.4,4.9-2.1,8.6-2.1h8v-1.1c0-3.8-2.1-5.8-6.4-5.8c-2.7,0-5.5,1-8.4,3l-2.7-3.8c3.5-2.8,7.6-4.2,12-4.2c3.5,0,6.2,0.8,8.4,2.6
		c2.1,1.8,3.3,4.5,3.3,8.2L168.7,72.2L168.7,72.2z M162.7,61.3v-2.4h-6.9c-4.4,0-6.6,1.4-6.6,4.2c0,1.4,0.6,2.5,1.7,3.3
		s2.6,1.1,4.6,1.1c2,0,3.6-0.6,5.1-1.7C161.9,64.6,162.7,63.2,162.7,61.3z"/>
	<path class="st0" d="M180.9,83.8c-2.7,0-5-0.9-7.2-2.9l2.8-4.9c1.3,1.2,2.6,1.8,4,1.8c1.4,0,2.5-0.5,3.4-1.5c0.8-1,1.3-2.1,1.3-3.3
		c0-0.5-3.9-10.5-11.8-29.9h6.5l8.7,21.5l8.7-21.5h6.5l-14.1,34.6c-0.8,1.9-2.1,3.4-3.6,4.5C184.6,83.2,182.9,83.8,180.9,83.8z"/>
	<path class="st0" d="M209.1,37.2c-0.7-0.7-1.1-1.7-1.1-2.7s0.4-2,1.1-2.7c0.7-0.7,1.7-1.1,2.7-1.1s2,0.4,2.7,1.1
		c0.7,0.7,1.1,1.7,1.1,2.7s-0.4,2-1.1,2.7c-0.7,0.7-1.7,1.1-2.7,1.1C210.8,38.3,209.8,38,209.1,37.2z M214.9,72.2h-6.2V43h6.2V72.2z
		"/>
	<path class="st0" d="M229.8,56.4v15.8h-6.2V43h6.2v5.3c1-1.8,2.3-3.2,4.1-4.2s3.6-1.5,5.6-1.5c3.3,0,6,1,7.9,3c2,2,3.1,4.9,3.1,8.7
		v17.8h-6.2V56.2c0-5.4-2.2-8-6.7-8c-2.1,0-3.9,0.7-5.5,2.1C230.6,51.7,229.8,53.7,229.8,56.4z"/>
	<path class="st0" d="M286,43v25.4c0,5.1-1.4,9-4.2,11.6c-2.8,2.6-6.3,3.8-10.7,3.8s-8.3-1.4-11.8-4.1l2.9-4.7
		c2.9,2.1,5.7,3.3,8.6,3.3c2.9,0,5.2-0.7,6.9-2.2c1.7-1.5,2.5-3.9,2.5-7.2v-3.7c-0.9,1.7-2.2,3.1-3.9,4.1c-1.7,1-3.6,1.5-5.7,1.5
		c-3.8,0-7.1-1.3-9.5-4c-2.5-2.7-3.7-6.1-3.7-10.1s1.2-7.4,3.7-10.1s5.7-4,9.5-4s7,1.6,9.4,4.8V43C280,43,286,43,286,43z
		 M263.3,56.4c0,2.4,0.7,4.5,2.2,6.2c1.5,1.8,3.5,2.6,6,2.6c2.5,0,4.6-0.8,6.1-2.5c1.6-1.7,2.3-3.7,2.3-6.2s-0.7-4.6-2.3-6.3
		s-3.6-2.6-6.1-2.6c-2.5,0-4.5,0.9-6,2.7C264,52,263.3,54.1,263.3,56.4z"/>
	<path class="st0" d="M317.5,48v14.7c0,1.4,0.4,2.5,1.1,3.4c0.7,0.8,1.8,1.2,3.1,1.2s2.6-0.7,3.8-2l2.5,4.3c-2.1,2-4.6,2.9-7.2,2.9
		s-4.8-0.9-6.7-2.7c-1.9-1.8-2.8-4.2-2.8-7.3V48h-3.6V43h3.6v-9.1h6.2V43h7.6V48H317.5z"/>
	<path class="st0" d="M357.1,68.3c-2.9,2.9-6.5,4.4-10.9,4.4s-8-1.5-10.9-4.4c-2.9-2.9-4.4-6.4-4.4-10.6s1.5-7.7,4.4-10.6
		c2.9-2.9,6.5-4.4,10.9-4.4s8,1.5,10.9,4.4c2.9,2.9,4.4,6.4,4.4,10.6S360,65.4,357.1,68.3z M339.6,64.5c1.8,1.8,3.9,2.6,6.6,2.6
		s4.8-0.8,6.6-2.6c1.8-1.8,2.6-4.1,2.6-6.9c0-2.8-0.8-5.1-2.6-6.9c-1.8-1.8-3.9-2.6-6.6-2.6s-4.8,0.8-6.6,2.6
		c-1.8,1.8-2.6,4.1-2.6,6.9C337,60.4,337.8,62.7,339.6,64.5z"/>
	<path class="st0" d="M392.8,68.3c-2.9,2.9-6.5,4.4-10.9,4.4s-8-1.5-10.9-4.4c-2.9-2.9-4.4-6.4-4.4-10.6s1.5-7.7,4.4-10.6
		c2.9-2.9,6.5-4.4,10.9-4.4s8,1.5,10.9,4.4c2.9,2.9,4.4,6.4,4.4,10.6S395.7,65.4,392.8,68.3z M375.3,64.5c1.8,1.8,3.9,2.6,6.6,2.6
		s4.8-0.8,6.6-2.6c1.8-1.8,2.6-4.1,2.6-6.9c0-2.8-0.8-5.1-2.6-6.9c-1.8-1.8-3.9-2.6-6.6-2.6s-4.8,0.8-6.6,2.6
		c-1.8,1.8-2.6,4.1-2.6,6.9C372.7,60.4,373.5,62.7,375.3,64.5z"/>
	<path class="st0" d="M425.3,56.4v15.8h-6.2V43h6.2v5.3c0.8-1.8,2.2-3.2,4-4.2s3.6-1.5,5.7-1.5c4.6,0,7.7,1.9,9.3,5.7
		c2.9-3.8,6.4-5.7,10.8-5.7c3.3,0,6,1,7.9,3c2,2,3.1,4.9,3.1,8.7v17.8H460V56.2c0-5.4-2.2-8-6.7-8c-2.1,0-3.9,0.7-5.4,2
		c-1.6,1.3-2.3,3.3-2.4,5.9v16.2h-6.2v-16c0-2.8-0.5-4.8-1.5-6.1c-1-1.3-2.5-2-4.7-2s-3.9,0.7-5.5,2.1
		C426,51.7,425.3,53.7,425.3,56.4z"/>
	<path class="st0" d="M495.1,58.8V43h6.2v29.1h-6.2v-5.3c-1,1.8-2.3,3.2-4.1,4.2c-1.8,1-3.6,1.5-5.6,1.5c-3.3,0-6-1-7.9-3
		c-2-2-3.1-4.9-3.1-8.7V43h6.2V59c0,5.4,2.2,8,6.7,8c2.1,0,3.9-0.7,5.5-2.1C494.3,63.4,495.1,61.5,495.1,58.8z"/>
	<path class="st0" d="M522.9,72.6c-4,0-7.6-1.4-10.4-4.1c-2.9-2.8-4.4-6.3-4.4-10.8s1.5-8.1,4.6-10.9c3.1-2.8,6.8-4.2,11.1-4.2
		c4.4,0,8.1,1.5,11.1,4.6l-3.6,4.5c-2.5-2.1-5-3.3-7.6-3.3s-4.7,0.8-6.5,2.5c-1.9,1.7-2.8,3.9-2.8,6.5c0,2.7,0.9,4.9,2.8,6.8
		c1.9,1.9,4.2,2.8,6.9,2.8c2.7,0,5.3-1.2,7.6-3.7l3.6,3.9C531.7,70.8,527.6,72.6,522.9,72.6z"/>
	<path class="st0" d="M547.8,56.4v15.8h-6.2V31.6h6.2v16.8c0.8-1.8,2.2-3.2,4-4.2s3.6-1.5,5.7-1.5c3.3,0,6,1,7.9,3s3.1,4.9,3.1,8.7
		v17.8h-6.2v-16c0-5.4-2.2-8-6.7-8c-2.1,0-3.9,0.7-5.5,2.1C548.5,51.7,547.8,53.7,547.8,56.4z"/>
	<path class="st0" d="M155.2,106v2.4h7.6v4.9h-7.6v24.2H149v-24.2h-3.6v-4.9h3.6v-2.2c0-3.1,0.9-5.5,2.8-7.3
		c1.9-1.8,4.1-2.7,6.7-2.7c2.6,0,5,0.9,7.2,2.9l-2.5,4.3c-1.2-1.3-2.4-2-3.8-2c-1.3,0-2.3,0.4-3.1,1.2
		C155.6,103.4,155.2,104.6,155.2,106z"/>
	<path class="st0" d="M193.1,133.6c-2.9,2.9-6.5,4.4-10.9,4.4s-8-1.5-10.9-4.4c-2.9-2.9-4.4-6.4-4.4-10.6c0-4.2,1.5-7.7,4.4-10.6
		s6.5-4.4,10.9-4.4s8,1.5,10.9,4.4c2.9,2.9,4.4,6.4,4.4,10.6C197.4,127.1,196,130.7,193.1,133.6z M175.5,129.7
		c1.8,1.8,3.9,2.6,6.6,2.6c2.7,0,4.8-0.8,6.6-2.6c1.8-1.8,2.6-4.1,2.6-6.9c0-2.8-0.8-5.1-2.6-6.9c-1.8-1.8-3.9-2.6-6.6-2.6
		c-2.7,0-4.8,0.8-6.6,2.6c-1.8,1.8-2.6,4.1-2.6,6.9C172.9,125.6,173.8,128,175.5,129.7z"/>
	<path class="st0" d="M219.7,114.1c-3,0-5.3,1-6.8,3c-1.5,2-2.3,4.7-2.3,7.9v12.5h-6.2v-29.2h6.2v5.9c1-1.9,2.3-3.4,4-4.5
		c1.7-1.2,3.5-1.8,5.4-1.8l0.1,6.2C219.9,114.1,219.8,114.1,219.7,114.1z"/>
	<path class="st0" d="M241.6,102.5c-0.7-0.7-1.1-1.7-1.1-2.7s0.4-2,1.1-2.7c0.7-0.7,1.7-1.1,2.7-1.1c1,0,2,0.4,2.7,1.1
		c0.7,0.7,1.1,1.7,1.1,2.7s-0.4,2-1.1,2.7c-0.7,0.7-1.7,1.1-2.7,1.1C243.2,103.6,242.3,103.3,241.6,102.5z M247.3,137.5h-6.2v-29.2
		h6.2V137.5z"/>
	<path class="st0" d="M262.3,121.7v15.8h-6.2v-29.2h6.2v5.3c1-1.8,2.3-3.2,4.1-4.2c1.8-1,3.6-1.5,5.6-1.5c3.3,0,6,1,7.9,3
		c2,2,3.1,4.9,3.1,8.7v17.8h-6.2v-15.9c0-5.4-2.2-8-6.7-8c-2.1,0-3.9,0.7-5.5,2.1C263.1,117,262.3,119,262.3,121.7z"/>
	<path class="st0" d="M312.3,128.7c0,2.8-1,5-3,6.6c-2.1,1.7-4.6,2.5-7.7,2.5c-2.1,0-4.3-0.4-6.6-1.1c-2.2-0.7-4.3-1.9-6.1-3.3
		l3-4.8c3.4,2.5,6.7,3.8,9.9,3.8c1.4,0,2.5-0.3,3.3-0.9c0.8-0.7,1.2-1.5,1.2-2.4c0-1.5-2-2.8-5.8-3.9c-0.3-0.1-0.5-0.2-0.7-0.2
		c-6.1-1.7-9-4.4-9-8.2c0-2.7,1-4.8,3.2-6.5c2.1-1.6,4.8-2.4,8.2-2.4c3.4,0,6.5,1,9.5,3l-2.3,4.6c-2.3-1.6-4.9-2.3-7.7-2.3
		c-1.5,0-2.6,0.3-3.5,0.8c-0.9,0.6-1.4,1.3-1.4,2.4c0,0.9,0.5,1.7,1.4,2.1c0.7,0.4,1.6,0.7,2.8,0.9c1.2,0.3,2.2,0.6,3.2,0.8
		s1.8,0.7,2.6,1c0.8,0.4,1.8,0.8,2.8,1.5C311.3,124,312.3,126,312.3,128.7z"/>
	<path class="st0" d="M339.6,124.1v-15.8h6.2v29.1h-6.2v-5.3c-1,1.8-2.3,3.2-4.1,4.2s-3.6,1.5-5.6,1.5c-3.3,0-6-1-7.9-3
		c-2-2-3.1-4.9-3.1-8.7v-17.8h6.2v15.9c0,5.4,2.2,8,6.7,8c2.1,0,3.9-0.7,5.5-2.1C338.8,128.7,339.6,126.8,339.6,124.1z"/>
	<path class="st0" d="M369.9,114.1c-3,0-5.3,1-6.8,3c-1.5,2-2.3,4.7-2.3,7.9v12.5h-6.2v-29.2h6.2v5.9c1-1.9,2.3-3.4,4-4.5
		c1.7-1.2,3.5-1.8,5.4-1.8l0.1,6.2C370.1,114.1,370,114.1,369.9,114.1z"/>
	<path class="st0" d="M399.9,137.5h-5.6v-3.9c-2.4,2.9-5.6,4.3-9.7,4.3c-3,0-5.5-0.8-7.6-2.6c-2-1.7-3-4-3-6.9s1-5,3.2-6.4
		c2.1-1.4,4.9-2.1,8.6-2.1h7.9v-1.1c0-3.8-2.1-5.8-6.4-5.8c-2.7,0-5.5,1-8.4,3l-2.7-3.8c3.5-2.8,7.6-4.2,12-4.2
		c3.5,0,6.2,0.8,8.4,2.6s3.3,4.5,3.3,8.2V137.5z M393.8,126.6v-2.4h-6.9c-4.4,0-6.6,1.4-6.6,4.2c0,1.4,0.6,2.5,1.7,3.3
		c1.1,0.7,2.6,1.1,4.6,1.1s3.6-0.6,5.1-1.7S393.8,128.4,393.8,126.6z"/>
	<path class="st0" d="M414.6,121.7v15.8h-6.2v-29.2h6.2v5.3c1-1.8,2.3-3.2,4.1-4.2c1.8-1,3.6-1.5,5.6-1.5c3.3,0,6,1,7.9,3
		c2,2,3.1,4.9,3.1,8.7v17.8h-6.2v-15.9c0-5.4-2.2-8-6.7-8c-2.1,0-3.9,0.7-5.5,2.1C415.4,117,414.6,119,414.6,121.7z"/>
	<path class="st0" d="M456.7,137.9c-4,0-7.6-1.4-10.4-4.1c-2.9-2.8-4.4-6.3-4.4-10.8c0-4.5,1.5-8.1,4.6-10.9
		c3.1-2.8,6.8-4.2,11.1-4.2c4.4,0,8.1,1.5,11.1,4.6l-3.6,4.5c-2.5-2.1-5-3.3-7.6-3.3c-2.6,0-4.8,0.8-6.6,2.5s-2.8,3.9-2.8,6.5
		c0,2.7,0.9,4.9,2.8,6.8c1.9,1.9,4.2,2.8,6.9,2.8c2.7,0,5.3-1.2,7.6-3.7l3.6,3.9C465.5,136.1,461.4,137.9,456.7,137.9z"/>
	<path class="st0" d="M502.5,125.6h-22.9c0.2,2.1,1.1,3.8,2.9,5.1c1.8,1.3,3.8,2,6.2,2c3.6,0,6.4-1.1,8.3-3.5l3.5,3.8
		c-3.2,3.3-7.2,4.8-12.2,4.8c-4.1,0-7.6-1.4-10.4-4.1c-2.9-2.7-4.3-6.3-4.3-10.9c0-4.6,1.5-8.2,4.4-10.9c2.9-2.7,6.3-4,10.4-4
		c3.9,0,7.4,1.2,10.1,3.5c2.8,2.4,4.2,5.7,4.2,9.9L502.5,125.6L502.5,125.6z M479.7,120.8h16.7c0-2.4-0.7-4.3-2.3-5.6
		c-1.5-1.3-3.5-2-5.7-2c-2.2,0-4.3,0.7-6.1,2.1C480.5,116.6,479.7,118.5,479.7,120.8z"/>
	<path class="st0" d="M521.4,125.6h-6.2v-3.4c0-1.5,0.2-2.5,0.6-3.3s1.1-1.7,2.2-2.8l4-4c0.8-0.9,1.3-2.1,1.3-3.4s-0.5-2.5-1.3-3.4
		c-0.8-0.9-2.1-1.3-3.4-1.3c-1.4,0-2.5,0.5-3.5,1.3c-0.9,0.8-1.5,2-1.6,3.5H507c0.4-3.3,1.7-5.8,3.8-7.6c2.1-1.9,4.8-2.8,8.1-2.8
		c3.3,0,5.9,0.9,7.9,2.6c2.1,1.8,3.1,4.2,3.1,7.5c0,2.1-0.6,4-1.8,5.5c-0.7,0.8-1.2,1.5-1.6,1.9c-0.4,0.4-0.8,0.8-1.5,1.4
		c-0.6,0.6-1.1,1-1.5,1.5c-0.5,0.5-0.7,0.7-1,1c-0.7,0.8-1,2-1,3.4v2.4H521.4z M518.4,137.8c-1.1,0-2.1-0.4-3-1.2
		c-0.8-0.7-1.2-1.8-1.2-2.9c0-1.1,0.4-2.1,1.2-2.9c0.8-0.8,1.8-1.2,3-1.2c1.2,0,2.1,0.4,3,1.2c0.8,0.7,1.3,1.8,1.3,2.9
		c0,1.1-0.4,2.1-1.2,2.9C520.4,137.3,519.5,137.8,518.4,137.8z"/>
</g>
</svg>
