<?xml version="1.0" encoding="utf-8"?>
<!-- Generator: Adobe Illustrator 22.1.0, SVG Export Plug-In . SVG Version: 6.00 Build 0)  -->
<svg version="1.1" id="Layer_1" xmlns="http://www.w3.org/2000/svg" xmlns:xlink="http://www.w3.org/1999/xlink" x="0px" y="0px"
	 viewBox="0 0 289.2 198.9" style="enable-background:new 0 0 289.2 198.9;" xml:space="preserve">
<style type="text/css">
	.st0{fill:#1A468D;}
</style>
<g>
	<path class="st0" d="M289.2,29.1C289.1,10.6,278.4,0,260,0H29.2C10.7,0,0.1,10.6,0.1,29C0,75.8,0,123.4,0.1,170.2
		c0.1,18,10.9,28.7,28.9,28.7h231.4c18.3,0,28.8-10.5,28.8-28.7C289.3,123.4,289.3,75.9,289.2,29.1z M18,30.1
		c0-9.3,2.6-11.8,11.9-11.8h230.7c7.7,0,10.5,2.8,10.5,10.4c0.1,46.8,0.1,94.3,0,141.1c0,8.2-2.8,10.8-11.5,10.8H29.5
		c-9,0-11.5-2.4-11.5-11.3V30.1z"/>
	<path class="st0" d="M235.3,110.1l-1-0.8l-0.1-0.1c-0.6-0.4-1.4-0.6-2.4-0.6c-0.2,0-0.5,0-0.8,0c-0.3,0-0.7,0.1-1,0.1
		c-0.2,0-0.4,0-0.6,0c-0.2,0-0.5,0.1-0.6,0.1h-172c-0.3,0-0.9,0-1.4-0.1l-0.1,0c-0.4-0.1-0.9-0.1-1.4-0.1c-1,0-1.7,0.2-2.3,0.5
		l-0.1,0.1l-0.6,0.5l-0.2,0.2c-2.6,1.9-5.8,4.2-5.9,6.9c-0.1,3.1,3.4,6.1,6.1,8.2l0.1,0.1l0.1,0.1l0.2,0.1c1,0.6,2.1,0.6,3.2,0.6
		c0.6,0,1.1,0,1.6-0.1l0.1,0h0.1c0.2,0,0.3,0,0.5,0c0.3,0,0.6-0.1,0.9-0.1h172.1c0.4,0,0.7,0,1.1,0.1l0.1,0c0.2,0,0.4,0,0.5,0
		c1.4,0,2.8-0.1,4-1l0.1-0.1c1.4-0.9,5.3-4.1,5.6-7.1l0-0.2l-0.1-0.7C240.4,114.1,237.7,112,235.3,110.1z"/>
	<path class="st0" d="M53.8,93.6h20.7c4.8,0,8.6,0,12.1,0.1h0.3c6,0,9.3-3.2,9.4-9.1c0.2-11.2,0.2-22.4,0-33.4
		c-0.2-8.2-5.2-9.3-10-9.3H59c-1.9,0-3.8,0-5.6-0.1h-0.2c-6,0-9.1,3.3-9.1,9.4C44,61.9,44,72.9,44,83.6l0,0.4
		C44.2,90.4,47.3,93.5,53.8,93.6z M79.6,73.1v3.4H61.4V58.4h9.1c2.7,0,5,0,7.1,0.1l0.6,0l0.4,0.4c0.3,0.3,0.6,0.6,0.8,1l0.1,0.3
		l0,0.3C79.6,64.7,79.6,68.8,79.6,73.1z"/>
	<path class="st0" d="M122,143.1c-1.4-1.6-3.7-2.5-6.7-2.5H53.5c-5.8,0-9.3,3.1-9.3,8.3c0,3.6,1.5,5.5,2.7,6.4c1.5,1.3,3.8,2,6.6,2
		l0.4,0l0,0c4.4-0.1,9.3-0.1,15.4-0.1h30.6c6,0,10.8,0,15.1,0.1h0.4c5.7,0,8.8-2.9,8.9-8C124.3,146.7,123.6,144.7,122,143.1
		L122,143.1z"/>
	<path class="st0" d="M197.1,58.2c6.7,0.1,13.2,0.2,19.8,0.2c5.2,0,10.6,0,16-0.1c2.7-0.1,4.7-0.9,6.1-2.5c1.5-1.6,2.2-3.9,2-6.3
		c-0.3-4.8-3.5-7.7-8.5-7.7h-17.3c-5.7,0-11.5,0-17.3-0.1c-5.4,0-8.5,2.9-8.7,8.1c-0.1,1.7,0.2,4.2,2,6
		C192.7,57.3,194.7,58.1,197.1,58.2z"/>
	<path class="st0" d="M176.5,140.7c-5.3-0.1-10.8-0.1-16.1-0.1s-10.8,0-16.1,0.1c-1.9,0.1-4.5,0.6-6.4,2.5c-1.5,1.6-2.2,3.7-2,6
		l0,0.1c0.2,4.9,3.5,7.9,8.9,7.9h30.9c5.4,0,8.4-2.9,8.5-8.2C184.5,144.2,181.5,140.9,176.5,140.7z"/>
</g>
</svg>
