<?xml version="1.0" encoding="utf-8"?>
<!-- Generator: Adobe Illustrator 22.1.0, SVG Export Plug-In . SVG Version: 6.00 Build 0)  -->
<svg version="1.1" id="Layer_1" xmlns="http://www.w3.org/2000/svg" xmlns:xlink="http://www.w3.org/1999/xlink" x="0px" y="0px"
	 viewBox="0 0 181 181" style="enable-background:new 0 0 181 181;" xml:space="preserve">
<style type="text/css">
	.st0{fill:#CCCCCC;}
</style>
<path class="st0" d="M90.5,0C40.5,0,0,40.5,0,90.5c0,50,40.5,90.5,90.5,90.5S181,140.5,181,90.5C181,40.5,140.5,0,90.5,0z
	 M111.8,91.9c-5.7,0-11.5,0-17.2,0c-1.4,0-1.4,0-1.4,1.4c0,15.4,0,30.7,0,46.1c0,1.6,0,1.6-1.6,1.6c-5.3,0-10.7,0-16,0
	c-1.5,0-1.5,0-1.5-1.4c0-7.7,0-15.5,0-23.2c0-7.8,0-15.5,0-23.3c0-1.2,0-1.2-1.2-1.2c-4.9,0-9.7,0-14.6,0c-0.9,0-1.2-0.3-1.2-1.2
	c0-4.7,0-9.4,0-14.1c0-0.9,0.3-1.2,1.2-1.1c4.7,0,9.5,0,14.2,0c1.6,0,1.6,0,1.6-1.7c0-3.7-0.1-7.4,0.2-11.1
	c0.6-9,7.2-18.7,17.4-21.1c1.9-0.5,4-0.6,6-0.6c4.7-0.1,9.4,0,14.1-0.1c0.9,0,1.2,0.2,1.2,1.1c-0.1,5-0.1,10.1-0.1,15.1
	c0,0.9-0.3,1.2-1.2,1.2c-4.5,0-9,0.1-13.6,0.2c-0.1,0-0.2,0-0.4,0c-2.9-0.1-3.8,0.9-4.3,4.1c-0.3,2-0.2,4-0.2,6c0,1.8,0,3.7,0,5.5
	c0,0.9,0.2,1.2,1.2,1.2c5.7,0,11.5,0,17.2,0c1.4,0,1.4,0,1.4,1.4c0,4.6,0,9.2,0,13.9C113,91.7,112.7,91.9,111.8,91.9z"/>
</svg>
