<?xml version="1.0" encoding="utf-8"?>
<!-- Generator: Adobe Illustrator 22.1.0, SVG Export Plug-In . SVG Version: 6.00 Build 0)  -->
<svg version="1.1" id="Layer_1" xmlns="http://www.w3.org/2000/svg" xmlns:xlink="http://www.w3.org/1999/xlink" x="0px" y="0px"
	 viewBox="0 0 57.8 57.8" style="enable-background:new 0 0 57.8 57.8;" xml:space="preserve">
<style type="text/css">
	.st0{fill:#1A468D;}
</style>
<g>
	<path class="st0" d="M28.2,57.8C12.7,57.8,0,45.2,0,29.6C0,14,12.7,1.4,28.2,1.4c15.6,0,28.2,12.7,28.2,28.2
		C56.5,45.2,43.8,57.8,28.2,57.8z M28.2,6.9C15.7,6.9,5.5,17.1,5.5,29.6c0,12.5,10.2,22.7,22.7,22.7c12.5,0,22.7-10.2,22.7-22.7
		C50.9,17.1,40.8,6.9,28.2,6.9z"/>
	<circle class="st0" cx="47.5" cy="10.3" r="10.3"/>
	<g>
		<defs>
			<path id="SVGID_1_" d="M47.2,12.3c-0.3-0.1-0.5-0.4-0.5-0.8c0-0.5,0.4-0.8,0.8-0.8c0.5,0,0.8,0.4,0.8,0.8c0,0.3-0.2,0.6-0.5,0.8
				v1.1h-0.6V12.3z M46.1,5.4c0-0.5,0.4-0.9,1-0.9h0.9c0.5,0,1,0.4,1,0.9v2.7h-2.9V5.4z M47.1,3.6c-1.1,0-2,0.8-2,1.7v2.7h-0.5
				c-0.4,0-0.8,0.3-0.8,0.8v5.9c0,0.4,0.3,0.8,0.8,0.8h5.9c0.4,0,0.8-0.3,0.8-0.8V8.9c0-0.4-0.3-0.8-0.8-0.8h-0.5V5.4
				c0-0.9-0.9-1.7-2-1.7H47.1z"/>
		</defs>
		<use xlink:href="#SVGID_1_"  style="overflow:visible;fill:#FFFFFF;"/>
		<clipPath id="SVGID_2_">
			<use xlink:href="#SVGID_1_"  style="overflow:visible;"/>
		</clipPath>
	</g>
</g>
<g>
	<path class="st0" d="M39.6,38.5c6.6-1.8,10.6-8,10.3-14c-0.1-1-0.3-1.9-0.4-2.8c-0.3-1.5,0.3-2.7,1.6-3.3c1.5-0.7,3.2,0,3.8,1.5
		c0.7,1.7,0.9,3.5,0.8,5.3c-0.3,7.9-4,13.8-11.1,17.4c-5.9,3-11.9,2.7-17.8-0.3c-0.1-0.1-0.3-0.2-0.4-0.2c-0.9-0.5-1.3-0.4-2.1,0.2
		c-0.6,0.5-1.3,0.9-1.9,1.4c-0.6,0.4-0.9,0.3-1-0.4c-0.2-1.6-0.4-3.2-0.6-4.8c-0.3-2.6-0.6-5.2-0.9-7.8c0-0.3,0-0.7,0.1-1
		c0.3,0.1,0.7,0,1,0.2c3.9,1.6,7.7,3.2,11.5,4.9c0.3,0.1,0.5,0.4,0.8,0.6c-0.2,0.2-0.4,0.5-0.7,0.7c-0.5,0.4-1,0.7-1.5,1.1
		c-0.5,0.4-0.5,0.7,0.1,0.9c1.1,0.3,2.2,0.6,3.3,0.7C36.2,39.1,37.9,38.9,39.6,38.5z"/>
	<path class="st0" d="M15.9,21c-3.7,1.1-7,4.1-8.6,8.8c-0.7,2.1-0.8,4.2-0.5,6.3c0.1,0.7,0.3,1.4,0.3,2.2c0,1.8-1.3,3-3.1,2.9
		c-1.3-0.1-2.1-1-2.5-2.2c-0.7-2.3-0.9-4.6-0.6-7c1-7,4.6-12.3,11-15.4c5.9-2.9,11.9-2.7,17.7,0.2c0.1,0,0.1,0.1,0.2,0.1
		c0.9,0.6,1.8,0.6,2.6-0.2c0.5-0.5,1.1-0.8,1.7-1.2c0.6-0.5,0.9-0.4,1,0.4c0.2,1.2,0.3,2.5,0.4,3.7c0.4,3,0.7,6.1,1.1,9.1
		c0.1,0.8-0.1,0.9-0.9,0.6c-3-1.2-5.9-2.5-8.9-3.8c-1.1-0.5-2.1-0.9-3.2-1.3c-0.6-0.3-0.7-0.5-0.1-0.9c0.6-0.5,1.3-1,2-1.5
		c0.1-0.1,0.2-0.3,0.2-0.4c0-0.1-0.2-0.3-0.3-0.3C22.6,20.1,19.8,19.9,15.9,21z"/>
</g>
</svg>
