<?xml version="1.0" encoding="utf-8"?>
<!-- Generator: Adobe Illustrator 22.1.0, SVG Export Plug-In . SVG Version: 6.00 Build 0)  -->
<svg version="1.1" id="Layer_1" xmlns="http://www.w3.org/2000/svg" xmlns:xlink="http://www.w3.org/1999/xlink" x="0px" y="0px"
	 viewBox="0 0 57.8 57.8" style="enable-background:new 0 0 57.8 57.8;" xml:space="preserve">
<style type="text/css">
	.st0{fill:#1A468D;}
</style>
<g>
	<path class="st0" d="M28.2,57.8C12.7,57.8,0,45.2,0,29.6C0,14,12.7,1.4,28.2,1.4c15.6,0,28.2,12.7,28.2,28.2
		C56.5,45.2,43.8,57.8,28.2,57.8z M28.2,6.9C15.7,6.9,5.5,17.1,5.5,29.6c0,12.5,10.2,22.7,22.7,22.7c12.5,0,22.7-10.2,22.7-22.7
		C50.9,17.1,40.8,6.9,28.2,6.9z"/>
	<circle class="st0" cx="47.5" cy="10.3" r="10.3"/>
	<g>
		<defs>
			<path id="SVGID_1_" d="M47.2,12.3c-0.3-0.1-0.5-0.4-0.5-0.8c0-0.5,0.4-0.8,0.8-0.8c0.5,0,0.8,0.4,0.8,0.8c0,0.3-0.2,0.6-0.5,0.8
				v1.1h-0.6V12.3z M46.1,5.4c0-0.5,0.4-0.9,1-0.9h0.9c0.5,0,1,0.4,1,0.9v2.7h-2.9V5.4z M47.1,3.6c-1.1,0-2,0.8-2,1.7v2.7h-0.5
				c-0.4,0-0.8,0.3-0.8,0.8v5.9c0,0.4,0.3,0.8,0.8,0.8h5.9c0.4,0,0.8-0.3,0.8-0.8V8.9c0-0.4-0.3-0.8-0.8-0.8h-0.5V5.4
				c0-0.9-0.9-1.7-2-1.7H47.1z"/>
		</defs>
		<use xlink:href="#SVGID_1_"  style="overflow:visible;fill:#FFFFFF;"/>
		<clipPath id="SVGID_2_">
			<use xlink:href="#SVGID_1_"  style="overflow:visible;"/>
		</clipPath>
	</g>
</g>
<g>
	<path class="st0" d="M25.6,23.3c0-0.5,0-1,0-1.5c0-0.2,0-0.3,0.1-0.5c0.1-0.3,0.4-0.5,0.8-0.6c1.2,0,2.4,0,3.6,0
		c0.5,0,0.8,0.3,0.8,0.8c0,0.5,0,0.9,0,1.4c0,0.1,0,0.2,0,0.3c0.1,0,0.2,0,0.3,0c2.7,0,5.3,0,8,0c0.5,0,0.8,0.2,1,0.6
		c0,0.1,0,0.2,0,0.4c0,5,0,10,0,15c0,0.7-0.3,1-1,1c-7.3,0-14.5,0-21.8,0c-0.7,0-1-0.3-1-1c0-5,0-10,0-15c0-0.7,0.3-1,1-1
		c2.7,0,5.3,0,8,0C25.4,23.3,25.5,23.3,25.6,23.3z M24.3,31.8c1.2-0.6,1.5-1.7,1.3-2.6c-0.2-1-1-1.7-1.9-1.7c-1-0.1-1.9,0.4-2.3,1.4
		c-0.2,0.5-0.2,1.1,0,1.7c0.2,0.6,0.6,1,1.2,1.2c-0.1,0-0.1,0-0.1,0.1c-1,0.3-1.7,1-2.2,1.9c-0.4,0.7-0.4,1.5-0.3,2.3
		c0,0.4,0.4,0.7,0.8,0.7c1.8,0,3.6,0,5.4,0c0.4,0,0.8-0.3,0.8-0.8c0-0.2,0-0.5,0-0.7c0-0.8-0.2-1.5-0.7-2.2
		C25.7,32.4,25.1,32,24.3,31.8z M36.2,35.5c0-0.6,0-1.2,0-1.7c-2.4,0-4.7,0-7.1,0c0,0.6,0,1.1,0,1.7C31.5,35.5,33.9,35.5,36.2,35.5z
		 M29.1,32.1c1.4,0,2.8,0,4.2,0c0-0.6,0-1.1,0-1.7c-1.4,0-2.8,0-4.2,0C29.1,30.9,29.1,31.5,29.1,32.1z M29.1,22.5
		c-0.6,0-1.2,0-1.7,0c0,0.9,0,1.8,0,2.7c0.6,0,1.2,0,1.7,0C29.1,24.3,29.1,23.4,29.1,22.5z"/>
</g>
</svg>
