<?xml version="1.0" encoding="utf-8"?>
<!-- Generator: Adobe Illustrator 22.1.0, SVG Export Plug-In . SVG Version: 6.00 Build 0)  -->
<svg version="1.1" id="Layer_1" xmlns="http://www.w3.org/2000/svg" xmlns:xlink="http://www.w3.org/1999/xlink" x="0px" y="0px"
	 viewBox="0 0 56.5 56.5" style="enable-background:new 0 0 56.5 56.5;" xml:space="preserve">
<style type="text/css">
	.st0{fill:url(#SVGID_1_);}
	.st1{fill:#1A468D;}
</style>
<g>
	
		<linearGradient id="SVGID_1_" gradientUnits="userSpaceOnUse" x1="10.0948" y1="8.1375" x2="46.3614" y2="51.3586" gradientTransform="matrix(1 0 0 -1 0 58)">
		<stop  offset="0" style="stop-color:#F4B34A"/>
		<stop  offset="0.2634" style="stop-color:#F5B74B"/>
		<stop  offset="0.5043" style="stop-color:#FAC250"/>
		<stop  offset="0.6912" style="stop-color:#FFD055"/>
		<stop  offset="0.7596" style="stop-color:#FCC952"/>
		<stop  offset="1" style="stop-color:#F4B34A"/>
	</linearGradient>
	<path class="st0" d="M28.2,56.5C12.7,56.5,0,43.8,0,28.2C0,12.7,12.7,0,28.2,0c15.6,0,28.2,12.7,28.2,28.2
		C56.5,43.8,43.8,56.5,28.2,56.5z"/>
</g>
<path class="st1" d="M30.3,27.6v-4.1c1.6,0.4,3.3,1.1,4.7,2.1l2.9-4.7c-2.1-1.4-4.6-2.4-7.4-2.8v-3h4.3l-6-6l-6,6h4.1V18
	c-5.4,0.4-8.4,3.3-8.4,7.4v0.1c0,4.4,2.9,6.3,8.6,7.6v4.2c-2.2-0.4-4.3-1.3-6.6-2.9l-3.2,4.7c2.6,1.9,6.1,3.1,9.5,3.5v3.5h3.7v-3.5
	c5-0.5,8.3-3.1,8.3-7.4v-0.1C38.8,30.9,35.9,28.9,30.3,27.6z M27,27c-1.9-0.5-2.4-1.1-2.4-2V25c0-0.9,0.7-1.6,2.4-1.8V27z
	 M32.7,35.8c0,1-0.7,1.6-2.4,1.8v-3.9C32.1,34.3,32.7,34.8,32.7,35.8L32.7,35.8z"/>
</svg>
