<?xml version="1.0" encoding="utf-8"?>
<!-- Generator: Adobe Illustrator 22.1.0, SVG Export Plug-In . SVG Version: 6.00 Build 0)  -->
<svg version="1.1" id="Layer_1" xmlns="http://www.w3.org/2000/svg" xmlns:xlink="http://www.w3.org/1999/xlink" x="0px" y="0px"
	 viewBox="0 0 143.2 194.1" style="enable-background:new 0 0 143.2 194.1;" xml:space="preserve">
<style type="text/css">
	.st0{fill:#1A468D;}
</style>
<g>
	<path class="st0" d="M141.7,83.7l-0.2-0.3l-0.2-0.2c-1.9-3.1-3.9-6.4-6.2-9.6c0-0.1-0.1-0.1-0.1-0.2c0,0,0.1-0.1,0.1-0.2
		c1-1.6,2-3.2,3-4.8c1-1.5,1.9-3,2.9-4.5l0.5-0.5l0.2-0.3c2.5-4.3,1.7-8.2-2.4-10.8c-2.5-1.7-5-3.2-7.5-4.7
		c-0.9-0.6-1.8-1.1-2.7-1.7c-0.2-0.1-0.3-0.2-0.3-0.2c0.6-2.6,0.8-5.4,1.1-8.4c0.1-1.2,0.2-2.4,0.4-3.6l0-0.1c0.4-4.9-2-7.8-7.2-8.5
		l-1.9-0.2c-3.3-0.5-6.7-0.8-10-1c-0.1,0-0.1,0-0.2,0c0-0.1-0.1-0.1-0.1-0.2c-1-3.6-2.3-7.2-3.5-10.6l-0.3-0.8
		c-1.5-4.6-4.8-5.3-6.6-5.3c-1.3,0-2.3,0.4-3.2,0.7L95.8,8L94,8.6c-2.5,0.8-5.1,1.7-7.6,2.7c-0.2,0.1-0.4,0.1-0.7,0.1
		c0,0-0.1-0.1-0.4-0.4c-2.3-2.6-4.6-4.9-6.9-7.1l-1.3-1.3C75.4,0.9,73.4,0,71.5,0c-2,0-4,1-5.5,2.8l-0.3,0.3
		c-2.8,2.6-5.6,5.4-8.2,8.2c0,0,0,0,0,0l0,0c-1.7-0.7-3.5-1.2-5.2-1.8c-1.5-0.5-3.1-1-4.6-1.6l-0.9-0.6l-0.5-0.1
		c-1.2-0.3-2.4-0.6-3.5-0.6c-4.6,0-6.1,4-6.8,5.6l-0.8,1.9l0,0.1c-0.3,1-0.7,2-1,3c-0.7,2-1.4,4-2,6.1c-0.1,0.2-0.1,0.3-0.1,0.4
		c-0.1,0-0.3,0.1-0.6,0.1l-0.3,0c-2.6,0.2-5.3,0.5-7.7,0.7c-0.6,0-1.2,0.1-1.8,0.1c-0.5,0.1-1,0.1-1.3,0.1h-0.1l-0.1,0
		c-5.2,0.4-7.7,3.3-7.3,8.5l0,0.1c0.6,4.8,1.1,8.7,1.5,12c0,0.1,0,0.1,0,0.1c0,0,0,0-0.1,0c-2.3,1.3-4.4,2.7-6.5,4
		C6.5,50.4,5.2,51.2,4,52L3.9,52c-2,1.4-3.3,3-3.8,4.8c-0.5,2,0.3,4.3,1.9,5.8l0.7,1.1l5.3,8.4c0.1,0.2,0.2,0.3,0.2,0.4
		c0,0.1-0.1,0.2-0.2,0.3c-2.1,2.9-3.9,5.9-5.1,7.9l-1.3,1.8l-0.1,0.1c-1.3,2.4-1.8,4.3-1.3,6.2c0.5,2.5,2.6,4.1,4,5.1l1.6,1
		c0,0,8.5,5.4,8.5,5.4c0,0,0,0.1,0,0.1c-0.8,4.1-1.3,8.3-1.6,12.4c-0.2,2.5,0.3,4.4,1.5,5.8c1.3,1.5,3.2,2.3,5.7,2.4
		c1.3,0.1,2.6,0.3,4,0.5c1.4,0.2,2.8,0.4,4.2,0.5l1.7,0.3v63.4c0,3.5,1.3,6,3.8,7.4l0.1,0.1c0.4,0.2,1.8,0.8,3.1,0.8
		c1.6,0,3.1-0.6,4.6-1.2l0.3-0.1l0.2-0.2c4.6-3,8.6-5.5,12.6-7.8c5.7-3.5,11.6-7.1,17.3-10.7c0.2-0.1,0.3-0.2,0.4-0.2
		c0.1,0,0.2,0.1,0.4,0.3c1,0.6,2.1,1.3,3.2,1.9c1,0.6,2.1,1.2,3.1,1.9l8.8,5.3c4.8,3.3,9.9,6.3,14.9,9.3c1.4,1,3,1.5,4.7,1.5
		c4.1,0,6.8-2.9,6.8-7.3v-64.3l1.6-0.2c1.3-0.1,2.5-0.3,3.7-0.4c1.2-0.1,2.4-0.3,3.6-0.4l0.2,0c6.5-1,7-5.6,6.8-8.3l0-0.2
		c-0.5-4-1-8-1.5-12.3l0-0.1c0,0,0,0,0,0c3.3-1.9,6.7-3.9,10.5-6.4C143.5,91.8,144.3,87.9,141.7,83.7z M114.3,100.6
		c0.5,2.1,0.7,4.1,0.9,6.4c0,0.3,0,0.6,0.1,0.9l-1.8,0.2l-0.1,0c-2.6,0.5-5.3,0.7-7.9,1c-4.6,0.1-6,3.8-6.5,5l-3.3,9.2
		c-0.5-0.2-0.9-0.3-1.3-0.4c-1.2-0.5-2.4-0.9-3.6-1.4c-1.2-0.4-2.4-0.9-3.6-1.4l-0.2-0.1c-0.9-0.3-2-0.7-3.2-0.7
		c-2.2,0-4.2,0.9-6.2,2.9c-0.9,0.9-1.8,1.7-2.7,2.6c-1,0.9-1.9,1.8-2.9,2.7l-0.6,0.6c-0.1-0.1-0.3-0.3-0.4-0.4l-0.1-0.1l-0.1-0.1
		c-1.7-1.4-3.4-3.2-5.1-4.9c-2.1-2.1-4.3-3.2-6.7-3.2c-2.1,0-3.7,0.9-4.6,2.8c-1.9,0.8-3.7,1.4-5.5,1.9c-0.5,0.1-1,0.3-1.5,0.4
		c-0.2-0.5-0.4-1-0.6-1.5c-1-2.3-1.7-4.5-2.3-6.6c-1.1-4.2-3.7-6.4-8.2-6.7c-1.3-0.1-2.5-0.3-3.7-0.4c-1.2-0.1-2.4-0.2-3.5-0.4
		l-1.3-0.2c0-0.4,0.1-0.9,0.1-1.4c0-2,0.2-4.1,0.7-6.2l0-0.1l0-0.1c0.4-3.3,0.4-8-5.1-10.6l-6-3.8l-0.1-0.1
		c-0.3-0.1-0.5-0.3-0.8-0.5l0.8-1.3c0.8-1.2,1.5-2.3,2.2-3.5c0.7-1.1,1.4-2.2,2.1-3.4c1.9-3,1.9-6,0-9.1c-0.7-1.1-1.4-2.2-2.1-3.3
		c-0.7-1.1-1.4-2.3-2.2-3.5L16.7,61c0.3-0.2,0.6-0.4,0.8-0.5l0.1-0.1c0,0,1-0.6,1.4-0.9c1.6-1,3.3-2.1,4.7-2.8l0.2-0.1
		c4.2-2.4,5.7-6,4.7-10.8c-0.5-2.1-0.7-4.1-0.9-6.3c0-0.4,0-0.8,0-1.2c0.5-0.1,0.9-0.1,1.5-0.3c2.4-0.5,4.4-0.7,6.4-0.7
		c4.8,0,7.8-2.3,9.2-7.2l2.3-6.9l0-0.1c0-0.2,0.1-0.4,0.2-0.7c0.4,0.1,0.7,0.3,0.8,0.4l0.1,0.1l0.1,0c1.3,0.5,2.5,1,3.7,1.4
		c1.2,0.4,2.4,0.9,3.6,1.4l0.2,0.1c0.9,0.3,2,0.7,3.2,0.7c2.2,0,4.2-0.9,5.9-2.6l6.3-6.3l0.9,0.9l0.1,0.1c1.6,1.4,3.3,3.1,4.7,4.7
		l0.1,0.1l0.1,0.1c2.1,2.1,4.3,3.2,6.7,3.2c1.6,0,2.8-0.4,4.1-1l0.1,0c2.1-0.9,4.2-1.6,6.4-2.4l0.4-0.1c0.3-0.1,0.7-0.2,1-0.3
		c0.1,0.2,0.3,0.8,0.3,0.8l1,2.2c0.2,0.8,0.5,1.5,0.7,2.2c0.3,1,0.7,2,0.9,3l0,0.1c1.1,3.7,3.7,5.8,7.6,6.2c2.2,0.2,4.7,0.5,7.2,0.7
		l1.3,0.3c0,0.4-0.1,0.8-0.1,1.3c0,2-0.2,4.1-0.7,6.2c-1,5.1,0.6,8.7,5.1,11.1c1.9,0.9,3.8,2.1,5.8,3.4l0.1,0.1l0.1,0.1
		c0.2,0.1,0.5,0.3,0.7,0.5l-0.6,1c-0.6,0.9-1.2,1.8-1.7,2.7c-0.8,1.3-1.6,2.6-2.5,3.8l-0.1,0.1c-2.2,3.3-2.2,6.4,0,9.6l0.1,0.1
		c0.9,1.1,1.7,2.4,2.5,3.8c0.5,0.9,1.1,1.8,1.7,2.6l0.7,1c-0.3,0.2-0.5,0.4-0.7,0.5l-0.1,0.1c0,0-1,0.6-1.5,0.9
		c-1.6,1-3.3,2.1-4.7,2.8C114.8,92.1,113.3,95.5,114.3,100.6z M45,174.3v-34.7c0.9-0.3,1.8-0.6,2.6-0.9c2.9-1,6-2,9-3.3
		c0.3-0.1,0.5-0.1,0.7-0.2c0.3-0.1,0.5-0.2,0.6-0.2c0.1,0,0.5,0.1,0.9,0.6l0.1,0.1c1.8,2.1,3.9,4.2,5.9,6.2l0.1,0.1l1.7,1.4
		c1.5,1.7,3.4,2.7,5.4,2.7c2.5,0,4.3-1.5,5.4-2.6l0.5-0.5c2.5-2.5,5-5,7.6-7.8c0,0,0.1-0.1,0.1-0.1l0,0l0.1,0.1
		c3.3,1.3,6.9,2.6,10.7,3.8l0.1,0l0.1,0c0.7,0.2,1.3,0.3,1.9,0.3c0.3,0,0.6,0.1,0.9,0.1v34.8L76.8,160c-1.6-1-3.2-1.4-4.8-1.4
		c-2.4,0-3.9,1-4.8,2c-2.9,1.8-5.7,3.6-8.6,5.3c-3,1.8-5.9,3.7-8.9,5.5L45,174.3z"/>
	<path class="st0" d="M71.5,45.4h-0.2c-15,0-27.4,12.4-27.7,27.7c0,7.6,2.9,14.6,8,19.8c4.6,4.8,10.5,7.6,16.9,8.2v0.3h2.5
		c15.6,0,28.3-12.5,28.3-27.9C99.4,58.2,86.9,45.6,71.5,45.4z M71.7,89.4h-0.4c-4.3,0-8.5-1.8-11.4-4.9c-2.9-2.9-4.5-7.1-4.5-11.6
		c0.2-8.7,7.4-15.8,16.2-15.8h0.4c4.3,0,8.2,1.7,11.2,4.9c2.9,2.9,4.5,7.1,4.5,11.6C87.5,82.3,80.3,89.4,71.7,89.4z"/>
</g>
</svg>
