<?xml version="1.0" encoding="utf-8"?>
<!-- Generator: Adobe Illustrator 22.1.0, SVG Export Plug-In . SVG Version: 6.00 Build 0)  -->
<svg version="1.1" id="Layer_1" xmlns="http://www.w3.org/2000/svg" xmlns:xlink="http://www.w3.org/1999/xlink" x="0px" y="0px"
	 viewBox="0 0 57.8 57.8" style="enable-background:new 0 0 57.8 57.8;" xml:space="preserve">
<style type="text/css">
	.st0{fill:#1A468D;}
</style>
<g>
	<path class="st0" d="M15.7,24.8c0-0.8,0-1.5,0.1-2.2c0.2-1,1-1.6,2-1.6c0.5,0,0.9,0,1.4,0c6.5,0,12.9,0,19.4,0c0.8,0,1.5,0.3,1.9,1
		c0.1,0.3,0.2,0.6,0.2,0.9c0,0.6,0,1.2,0,1.8c0,0,0,0.1,0,0.1C32.4,24.8,24.1,24.8,15.7,24.8z"/>
	<g>
		<path class="st0" d="M28.8,33.7l0-1L28.8,33.7c-2.7,0-4.9,2-5.2,4.6c3.1,0,6.3,0,9.4,0c0.3,0,0.6,0,0.9,0
			C33.7,35.7,31.5,33.7,28.8,33.7z"/>
		<path class="st0" d="M22.6,32.1c1.7-1.6,3.9-2.4,6.3-2.4c2.1,0,4.1,0.7,5.8,2.1c1,0.8,1.7,1.7,2.3,2.8c0.6,1.1,0.9,2.2,1,3.5
			c0,0.1,0,0.2,0,0.3c0.2,0,0.4,0,0.7,0c1.3,0,2.1-1,2.1-2.1c0-2.7,0-5.4,0-8c0-0.1,0-0.2,0-0.3c-8.3,0-16.6,0-25,0
			c0,0.1,0,0.2,0,0.3c0,2.2,0,4.4,0,6.6c0,0.5,0,1.1,0,1.6c0,1.1,0.9,1.9,2,1.9c0.6,0,1.2,0,1.8,0C19.7,36,20.7,33.8,22.6,32.1z"/>
	</g>
</g>
<g>
	<path class="st0" d="M28.2,57.8C12.7,57.8,0,45.2,0,29.6C0,14,12.7,1.4,28.2,1.4c15.6,0,28.2,12.7,28.2,28.2
		C56.5,45.2,43.8,57.8,28.2,57.8z M28.2,6.9C15.7,6.9,5.5,17.1,5.5,29.6c0,12.5,10.2,22.7,22.7,22.7c12.5,0,22.7-10.2,22.7-22.7
		C50.9,17.1,40.8,6.9,28.2,6.9z"/>
	<circle class="st0" cx="47.5" cy="10.3" r="10.3"/>
	<g>
		<defs>
			<path id="SVGID_1_" d="M47.2,12.3c-0.3-0.1-0.5-0.4-0.5-0.8c0-0.5,0.4-0.8,0.8-0.8c0.5,0,0.8,0.4,0.8,0.8c0,0.3-0.2,0.6-0.5,0.8
				v1.1h-0.6V12.3z M46.1,5.4c0-0.5,0.4-0.9,1-0.9h0.9c0.5,0,1,0.4,1,0.9v2.7h-2.9V5.4z M47.1,3.6c-1.1,0-2,0.8-2,1.7v2.7h-0.5
				c-0.4,0-0.8,0.3-0.8,0.8v5.9c0,0.4,0.3,0.8,0.8,0.8h5.9c0.4,0,0.8-0.3,0.8-0.8V8.9c0-0.4-0.3-0.8-0.8-0.8h-0.5V5.4
				c0-0.9-0.9-1.7-2-1.7H47.1z"/>
		</defs>
		<use xlink:href="#SVGID_1_"  style="overflow:visible;fill:#FFFFFF;"/>
		<clipPath id="SVGID_2_">
			<use xlink:href="#SVGID_1_"  style="overflow:visible;"/>
		</clipPath>
	</g>
</g>
<g>
	<path class="st0" d="M35.2,46.4c-0.4-0.4-0.7-0.8-1.1-1.1c-2,1.6-4.3,2.2-6.8,1.7c-2.1-0.4-3.8-1.5-5.1-3.2c-2.4-3.2-2.2-8,1-11
		c2.9-2.7,7.5-3,10.8-0.3c0.9,0.7,1.6,1.5,2.1,2.5c0.5,1,0.8,2,0.9,3.1c0.1,1.1,0,2.2-0.3,3.2c-0.3,1-0.8,2-1.5,2.8
		c0.4,0.4,0.7,0.7,1.2,1.2c0-0.1,0.1-0.1,0.1-0.2c0.5-0.5,1.3-0.5,1.8,0c1.7,1.6,3.3,3.3,4.9,4.9c0.5,0.5,0.5,1.3,0,1.8
		c-0.4,0.5-0.9,0.9-1.3,1.3c-0.5,0.5-1.3,0.5-1.9,0c-0.4-0.4-0.8-0.8-1.2-1.2c-1.2-1.2-2.5-2.5-3.7-3.7c-0.6-0.6-0.6-1.3,0-1.9
		C35.1,46.4,35.2,46.4,35.2,46.4z M35,38.9c0-3.5-2.8-6.2-6.2-6.2c-3.4,0-6.2,2.8-6.2,6.2c0,3.5,2.8,6.3,6.2,6.3
		C32.2,45.1,35,42.3,35,38.9z"/>
</g>
</svg>
