<?xml version="1.0" encoding="utf-8"?>
<!-- Generator: Adobe Illustrator 22.1.0, SVG Export Plug-In . SVG Version: 6.00 Build 0)  -->
<svg version="1.1" id="Layer_1" xmlns="http://www.w3.org/2000/svg" xmlns:xlink="http://www.w3.org/1999/xlink" x="0px" y="0px"
	 viewBox="0 0 275.1 218.8" style="enable-background:new 0 0 275.1 218.8;" xml:space="preserve">
<style type="text/css">
	.st0{fill:#BABABA;}
</style>
<g>
	<path class="st0" d="M84.5,31.2c0-5.2-0.1-9.9,0-14.6c0.2-10,6.1-16.4,16-16.5c24.6-0.2,49.3-0.2,73.9,0
		c9.9,0.1,15.9,6.5,16.1,16.5c0.1,4.7,0,9.4,0,14.6c2.5,0,4.4,0,6.3,0c15.8,0,31.7-0.2,47.5,0.1c17,0.3,30.3,13.2,30.5,30.2
		c0.3,42.6,0.3,85.2,0,127.8c-0.1,15.8-13.7,28.7-29.7,29.4c-1.2,0.1-2.5,0-3.7,0c-69.4,0-138.7,0-208.1,0C12.9,218.8,0,206,0,185.6
		C0,144.7,0,103.9,0,63c0-18,13-31.4,31.1-31.7c15.7-0.3,31.3-0.1,47-0.1C80,31.2,81.9,31.2,84.5,31.2z M66,50.4
		c0,49.7,0,99.5,0,149.3c47.9,0,95.5,0,143.1,0c0-50,0-99.5,0-149.3C161.4,50.4,114,50.4,66,50.4z M46.5,50.1c-4.3,0-7.9,0-11.6,0
		c-12.2,0-16.1,3.9-16.1,16.1c0,39.2,0,78.5,0,117.7c0,1.8,0,3.5,0.2,5.3c0.7,5.6,4.6,10.2,10.1,10.7c5.7,0.5,11.5,0.1,17.4,0.1
		C46.5,149.9,46.5,100.3,46.5,50.1z M228.6,50.2c0,50.2,0,99.8,0,149.9c3.7,0,7.2,0,10.7,0c13.3,0,17-3.7,17-16.8
		c0-38.7,0-77.4,0-116.1c0-2.1,0-4.2-0.3-6.3c-0.8-6.1-5.1-10.3-11.2-10.6C239.5,50,234.3,50.2,228.6,50.2z M171.6,19.1
		c-22.9,0-45.4,0-68.2,0c0,4.1,0,7.9,0,11.8c22.9,0,45.4,0,68.2,0C171.6,26.8,171.6,23.1,171.6,19.1z"/>
</g>
</svg>
