<?xml version="1.0" encoding="utf-8"?>
<!-- Generator: Adobe Illustrator 22.1.0, SVG Export Plug-In . SVG Version: 6.00 Build 0)  -->
<svg version="1.1" id="Layer_1" xmlns="http://www.w3.org/2000/svg" xmlns:xlink="http://www.w3.org/1999/xlink" x="0px" y="0px"
	 viewBox="0 0 58.1 84.2" style="enable-background:new 0 0 58.1 84.2;" xml:space="preserve">
<style type="text/css">
	.st0{fill:#3C70BA;}
</style>
<g>
	<path class="st0" d="M58.1,50.1l0-18.4c0-9,0-18,0-27c0-2.9-1.7-4.6-4.6-4.6L4.7,0C4.2,0,3.8,0,3.4,0.1C1.3,0.5,0,2.2,0,4.5v74.6
		c0,0.4,0,0.9,0,1.3c0.2,2.1,2,3.7,4.1,3.7l18.8,0c10.2,0,20.4,0,30.7,0c0.7,0,1.3-0.1,1.9-0.4c1.7-0.8,2.5-2.2,2.5-4.3
		C58.1,69.7,58.1,59.9,58.1,50.1z M3.2,4.8c0-1.3,0.3-1.5,1.5-1.5l24.3,0l24.3,0c1.3,0,1.5,0.3,1.5,1.5v74.7c0,1.3-0.2,1.5-1.5,1.5
		H4.8c-1.3,0-1.5-0.3-1.5-1.5V4.8z"/>
	<path class="st0" d="M7.2,24.3c0.7,1.2,2,1.2,3,1.2c6,0,12,0,18,0l19.5,0c0.5,0,0.9,0,1.4-0.1c1.5-0.2,2.4-1.3,2.4-2.7
		c0-3.6,0-8.4,0-13.2c0-0.7-0.4-1.4-0.6-1.8c-0.6-1-1.7-1.1-2.6-1.1l-38.4,0c-2.2,0-3.3,1.1-3.3,3.2c0,4.6,0,8.5,0,12.4
		C6.6,22.8,6.8,23.6,7.2,24.3z M10,9.4L10,9.7c0.1,0,0.1,0,0.2,0l37.3,0c0.3,0,0.7,0,0.7,0c0,0.1,0,0.4,0,0.7l0,2.7
		c0,2.8,0,5.6,0,8.5c0,0.2,0,0.4-0.1,0.4c0,0-0.1,0.1-0.4,0.1h0c-9.8,0-19.7,0-29.5,0l-8.3,0c-0.1,0-0.2,0-0.4,0l0-2.5
		c0-3.2,0-6.4,0-9.6c0-0.2,0-0.2,0.1-0.3c0,0,0.1,0,0.2,0L10,9.4C10,9.4,10,9.4,10,9.4z"/>
	<rect x="6.6" y="27.5" class="st0" width="44.9" height="3.1"/>
	<path class="st0" d="M45,56.2h-3.1l0,0.5c0,0.1,0,0.2,0,0.4l0,3.8c0,4.5,0,9.1,0,13.6c0,2,1.2,3.2,3.2,3.2c0.7,0,1.5,0,2.2,0l3.4,0
		c0.1,0,0.3,0,0.4,0l0.4,0v-3.2H45V56.2z"/>
	<path class="st0" d="M18.3,32.7l0,2.3c0,1.5,0,2.9,0,4.4c0,1.8,1.2,3,3,3c0.5,0,0.9,0,1.4,0l5.3,0v-3.2h-6.5v-6.5H18.3z"/>
	<path class="st0" d="M21.5,67.9h-3.2v0.3c0,0,0,4.8,0,6.2c0,2,1.2,3.2,3.2,3.2c0.6,0,1.2,0,1.8,0l4.7,0v-3.3h-6.5V67.9z"/>
	<path class="st0" d="M33.3,67.9H30l0,2.2c0,1.4,0,2.8,0,4.2c0,2.1,1.2,3.3,3.3,3.3c0.7,0,1.5,0,2.2,0l3.3,0c0.2,0,0.3,0,0.4,0
		l0.4,0v-3.2h-6.5V67.9z"/>
	<path class="st0" d="M18.3,56.2l0,6.4c0,2.1,1.1,3.2,3.2,3.3c0.8,0,1.5,0,2.3,0l3.4,0c0.1,0,0.3,0,0.4,0l0.4,0v-3.2h-6.5v-6.4H18.3
		z"/>
	<path class="st0" d="M33.2,56.2H30l0,2.2c0,1.4,0,2.9,0,4.3c0,2,1.1,3.1,3.1,3.2c0.5,0,1,0,1.6,0l2.4,0h2.6v-3.2h-6.5V56.2z"/>
	<path class="st0" d="M6.5,32.7l0,2.3c0,1.5,0,3,0,4.5c0,1.6,1.2,2.8,2.7,2.8c0.9,0,1.8,0,2.7,0c0.7,0,1.3,0,2,0c0.7,0,1.3,0,2,0
		h0.3v-3.2H9.7v-6.5H6.5z"/>
	<path class="st0" d="M21.5,44.5h-3.2l0,2.3c0,1.4,0,2.8,0,4.2c0,2,1.2,3.2,3.2,3.2c0.7,0,1.3,0,2,0l4.5,0v-3.2h-6.5V44.5z"/>
	<path class="st0" d="M30,46.7c0,1.5,0,2.9,0,4.4c0,1.9,1.2,3.1,3.1,3.1c0.8,0,1.5,0,2.3,0l3.3,0c0.2,0,0.3,0,0.5,0l0.5,0v-3.2h-6.5
		v-6.5H30L30,46.7z"/>
	<path class="st0" d="M9.7,68H6.5l0,2.2c0,1.4,0,2.8,0,4.2c0,2.1,1.2,3.3,3.3,3.3c0.7,0,1.4,0,2.2,0l3.4,0c0.1,0,0.3,0,0.4,0l0.4,0
		v-3.2H9.7V68z"/>
	<path class="st0" d="M41.8,46.7c0,1.5,0,3.1,0,4.7c0,1.5,1.2,2.7,2.8,2.7c0.8,0,1.7,0,2.5,0c0.7,0,3.7,0,3.7,0c0.1,0,0.2,0,0.3-0.1
		l0.2-0.1v-3.1H45v-6.5h-3.2C41.8,44.4,41.8,46.1,41.8,46.7z"/>
	<path class="st0" d="M9.7,56.2H6.5v6.3c0,2.3,1.1,3.4,3.4,3.4l2.1,0l3.2,0c0.2,0,0.3,0,0.5,0l0.5,0v-3.2H9.7V56.2z"/>
	<path class="st0" d="M6.5,46.6c0,1.4,0,2.9,0,4.3c0,2,1.2,3.2,3.2,3.2c0.8,0,1.5,0,2.2,0l3.4,0c0.1,0,0.3,0,0.4,0l0.5,0v-3.1H9.7
		v-6.5H6.6l0,0.5c0,0.2,0,0.3,0,0.4L6.5,46.6z"/>
	<rect x="30.1" y="32.7" class="st0" width="9.7" height="3.1"/>
	<rect x="41.8" y="32.7" class="st0" width="9.6" height="3.2"/>
	<rect x="43.1" y="14.4" class="st0" width="3.1" height="3.1"/>
	<rect x="37.9" y="14.4" class="st0" width="3.1" height="3.1"/>
	<rect x="32.7" y="14.4" class="st0" width="3.1" height="3.1"/>
	<rect x="27.5" y="14.4" class="st0" width="3.1" height="3.1"/>
</g>
</svg>
