<?xml version="1.0" encoding="utf-8"?>
<!-- Generator: Adobe Illustrator 22.1.0, SVG Export Plug-In . SVG Version: 6.00 Build 0)  -->
<svg version="1.1" id="Layer_1" xmlns="http://www.w3.org/2000/svg" xmlns:xlink="http://www.w3.org/1999/xlink" x="0px" y="0px"
	 viewBox="0 0 94.5 93" style="enable-background:new 0 0 94.5 93;" xml:space="preserve">
<style type="text/css">
	.st0{fill:#3C70BA;}
</style>
<g>
	<path class="st0" d="M1,49.7v3.5h42.2l41.2,0c1.7,0,2.2-0.6,2.2-2.3V2.3c0-1.7-0.6-2.3-2.2-2.3L26.5,0c-1.7,0-2.3,0.6-2.3,2.3
		l0,10.9c0,0.2,0,0.4,0,0.7l0,0.1l-6.6,0c-1.7,0-3.4,0-5.2,0c-0.8,0-1.4,0.3-2,0.8c-2.3,2.3-4.7,4.7-7,7l-3,3
		c-0.1,0.1-0.2,0.2-0.3,0.4L0,25.4l0.3,0.3l0.1-0.1l2.1,2.2l2.3-2.3c2.5-2.5,5.1-5.1,7.6-7.6c0.3-0.3,0.8-0.5,1.2-0.5
		c1.7,0,3.5,0,5.2,0l4.8,0c0.2,0,0.4,0,0.6,0l0.1,0v8.9h-7.6v3.5l19.9,0c1.6,0,2.8,0.7,3.2,2c0.3,0.9,0.1,1.8-0.4,2.5
		c-0.6,0.8-1.5,1.2-2.5,1.2c-1.2,0-2.3,0-3.5,0l-3,0c-1.2,0-2.4,0-3.7,0c-0.8,0-1.3,0.1-1.6,0.4c-1.2,1.1-2.4,2.3-3.5,3.5l-1.3,1.3
		l2.5,2.7l1.5-1.7v7.9H1z M42.2,36.4c1.2-1.7,1.4-3.8,0.8-5.7c-0.9-2.5-3.2-4.2-5.8-4.3c-1.3,0-2.6,0-4,0l-5.3,0v-2.9
		c4-1,6.5-3.5,7.5-7.6l14,0c8.5,0,17,0,25.5,0c0.6,0,0.8,0.1,0.9,0.7c1,3.5,3.2,5.7,6.6,6.7c0.7,0.2,0.8,0.5,0.8,1.2
		c0,4.2,0,8.5,0,12.7l0,4.6c-0.4,0.2-0.8,0.4-1.2,0.5c-0.9,0.4-1.8,0.8-2.6,1.4c-1.8,1.2-3.1,3-3.6,5.3c-0.1,0.5-0.3,0.6-0.7,0.6
		c-7.2,0-14.5,0-21.7,0l-17.5,0c-0.4,0-0.5,0-0.6-0.4c-1-3.8-3.4-6.1-7.2-7.1c-0.1,0-0.1,0-0.2-0.1l0,0v-2.8c0,0,4.9,0,5.7,0
		c1.1,0,2.1,0,3.2,0C39,39.2,41,38.1,42.2,36.4z M27.8,6.1V3.5h55.3v2.6H27.8z M27.9,19.8V16h3.8C31.3,17.7,29.7,19.3,27.9,19.8z
		 M79.3,16h3.9v3.8C81.6,19.6,79.7,17.7,79.3,16z M83.2,9.8v2.6H27.8l0-0.1c0-0.2,0-0.3,0-0.5c0-0.5,0-2,0-2H83.2z M31.7,49.6h-3.8
		v-3.8C29.5,46.1,31.2,47.8,31.7,49.6z M83.2,45.7v3.8h-3.8C79.6,48,81.4,46.2,83.2,45.7z"/>
	<path class="st0" d="M94.5,68.8c0-3.1,0-6.1,0-9.2c0-1.6-0.6-2.2-2.2-2.2l-2.3,0l-2.9,0c-1.4,0-1.8,0.3-2.3,1.5l-7.9,0
		c-2.2,0-4.5,0-6.8,0c-0.9,0-1.6,0.3-2.3,1c-1.1,1.1-2.1,2.1-3.2,3.2c-1.4,1.4-2.9,2.9-4.3,4.3c-0.4,0.4-0.7,0.6-1.2,0.6
		c-0.2,0-0.3,0-0.5-0.1c-9.8-1.7-19.7-3.4-29.5-5.1c-0.3-0.1-0.7-0.1-1-0.1c-2.2,0-4.2,1.3-4.9,3.4c-0.9,2.5,0.1,5.1,2.4,6.5
		l33.3,19.5c1,0.6,2,0.9,3,0.9c0.9,0,1.8-0.2,2.7-0.7c3.9-2,8-4,11.9-6l3.7-1.9c0.3-0.1,0.5-0.3,0.7-0.3c0.6,0,1.2,0,1.9,0l2,0
		c0.5,1.3,0.9,1.5,2.2,1.5h5.2c1.7,0,2.3-0.6,2.3-2.3C94.5,80.8,94.5,68.8,94.5,68.8z M88.3,82.2V60.9h2.6v21.2H88.3z M61.9,89.4
		c-0.5,0-0.9-0.1-1.5-0.5c-8.6-5-17.1-10-25.7-15l-7.3-4.3c-1-0.6-1.3-1.3-1-2.3c0.2-0.7,0.9-1.1,1.7-1.1c0.2,0,0.3,0,0.5,0
		l27.6,4.8c0.1,0,0.2,0,0.3,0.1c-0.1,0.2-0.3,0.3-0.4,0.5c-0.5,0.5-0.9,1-1.2,1.5c-1.7,2.5-1.3,5.9,1,7.9c1.2,1,2.6,1.6,4.2,1.6
		c1.4,0,2.8-0.5,3.8-1.5c2-1.9,3.9-3.9,5.8-5.9c0.8-0.9,1.6-1.7,2.5-2.6l0.1-0.1l-2.4-2.4l-0.9,0.9c-0.5,0.6-1.1,1.2-1.6,1.7
		c-1.8,1.8-3.6,3.6-5.4,5.4c-0.6,0.6-1.2,0.9-1.9,0.9c-0.4,0-0.9-0.1-1.3-0.3c-1-0.6-1.6-1.7-1.3-2.8c0.1-0.5,0.4-1.1,0.8-1.4
		c3.8-3.8,7.5-7.6,11.7-11.7c0.2-0.2,0.4-0.3,0.6-0.3c3.2,0,6.4,0,9.6,0l4.7,0v18.2c-0.3,0-1.7,0-2.1,0c-0.5,0-1.1,0-1.6,0
		c-0.5,0-1.3,0.1-2,0.5c-6.2,3-11.2,5.5-15.7,7.9C62.8,89.3,62.3,89.4,61.9,89.4z"/>
	<path class="st0" d="M55.5,42.3L55.5,42.3c5.3,0,9.5-4.3,9.5-9.5c0-5.2-4.3-9.5-9.5-9.5c-2.5,0-4.9,1-6.7,2.8
		C47,27.9,46,30.3,46,32.8C46,38,50.3,42.3,55.5,42.3z M55.5,26.8c3.3,0,6,2.7,6,6c0,3.3-2.7,6-6,6c-1.6,0-3.1-0.6-4.3-1.8
		c-1.1-1.2-1.8-2.7-1.8-4.3C49.5,29.5,52.2,26.8,55.5,26.8l0-0.2c0,0,0,0,0,0L55.5,26.8z"/>
</g>
</svg>
