<?xml version="1.0" encoding="utf-8"?>
<!-- Generator: Adobe Illustrator 22.1.0, SVG Export Plug-In . SVG Version: 6.00 Build 0)  -->
<svg version="1.1" id="Layer_1" xmlns="http://www.w3.org/2000/svg" xmlns:xlink="http://www.w3.org/1999/xlink" x="0px" y="0px"
	 viewBox="0 0 68.3 30.8" style="enable-background:new 0 0 68.3 30.8;" xml:space="preserve">
<style type="text/css">
	.st0{fill:#FFFFFF;}
</style>
<path class="st0" d="M55.2,14.5H58c1.6,0,3.5-1.3,4.3-2.8l6-11.7h-0.8c0,0-0.7,2-2.9,2H23.4c-1.6,0-3.5,1.3-4.3,2.8l-6,11.5h-2.8
	c-1.6,0-3.5,1.3-4.3,2.8L0,30.8h0.8c0,0,0.7-2,2.9-2h41.2c1.6,0,3.5-1.3,4.3-2.9L55.2,14.5z M26.4,16.3H13.9c0.2-0.5,1-1.8,2.8-1.8
	h13.9l6.1-6l1.2,6h16.4c-0.2,0.5-1,1.8-2.8,1.8H39.8l-1.5,0.6l1.4,7.4l-7.7-4l-10.3,3l6.2-6L26.4,16.3z"/>
</svg>
