<?xml version="1.0" encoding="utf-8"?>
<!-- Generator: Adobe Illustrator 22.1.0, SVG Export Plug-In . SVG Version: 6.00 Build 0)  -->
<svg version="1.1" id="Layer_1" xmlns="http://www.w3.org/2000/svg" xmlns:xlink="http://www.w3.org/1999/xlink" x="0px" y="0px"
	 viewBox="0 0 95.1 95.1" style="enable-background:new 0 0 95.1 95.1;" xml:space="preserve">
<style type="text/css">
	.st0{fill:#1A468D;}
	.st1{fill:#FFFFFF;}
</style>
<circle class="st0" cx="47.6" cy="47.6" r="47.6"/>
<path class="st1" d="M70.5,48.2l2.8,0c1.6,0,3.5-1.3,4.3-2.8l6-11.7h-0.8c0,0-0.7,2-2.9,2l-41.2,0c-1.6,0-3.5,1.3-4.3,2.8L28.4,50
	l-2.8,0c-1.6,0-3.5,1.3-4.3,2.8l-6,11.7h0.8c0,0,0.7-2,2.9-2l41.2,0c1.6,0,3.5-1.3,4.3-2.9L70.5,48.2z M41.7,50l-12.5,0
	c0.2-0.5,1-1.8,2.8-1.8l13.9,0l6.1-6l1.2,6l16.4,0c-0.2,0.5-1,1.8-2.8,1.8l-11.7,0l-1.5,0.6l1.4,7.4l-7.7-4L37,57l6.2-6L41.7,50z"/>
</svg>
