<?xml version="1.0" encoding="utf-8"?>
<!-- Generator: Adobe Illustrator 22.1.0, SVG Export Plug-In . SVG Version: 6.00 Build 0)  -->
<svg version="1.1" id="Layer_1" xmlns="http://www.w3.org/2000/svg" xmlns:xlink="http://www.w3.org/1999/xlink" x="0px" y="0px"
	 viewBox="0 0 35.5 37.7" style="enable-background:new 0 0 35.5 37.7;" xml:space="preserve">
<style type="text/css">
	.st0{fill:#777777;}
	.st1{fill-rule:evenodd;clip-rule:evenodd;fill:#777777;}
</style>
<g>
	<path class="st0" d="M20.6,33.7h-2.1v4h2c1.7,0,2.6-0.4,2.6-1.9C23.1,34.2,22.1,33.7,20.6,33.7 M20.5,36.9h-0.9v-2.3h1
		c0.7,0,1.4,0.4,1.4,1.2C21.9,36.7,21.3,36.9,20.5,36.9"/>
	<path class="st0" d="M32.8,36c0.8-0.1,1.1-0.4,1.1-1.1c0-0.9-0.4-1.3-1.5-1.3h-2.9v4h1.1V36h1l1.2,1.7h1.2L32.8,36z M32.1,35.2
		h-1.6v-0.6h1.7c0.4,0,0.6,0.1,0.6,0.3C32.8,35.2,32.7,35.2,32.1,35.2"/>
	<polygon class="st1" points="12.5,33.7 12.5,37.7 13.5,37.7 13.5,35.3 15.6,37.7 16.9,37.7 16.9,33.7 15.8,33.7 15.8,36.2 
		13.7,33.7 	"/>
	<polygon class="st1" points="2.2,33.7 2.2,37.7 6.1,37.7 6.1,36.9 3.3,36.8 3.3,33.7 	"/>
	<polygon class="st1" points="7.2,37.7 11.1,37.7 11.1,36.9 8.4,36.9 8.4,36 10.6,36 10.6,35.2 8.4,35.2 8.4,34.6 11.1,34.6 
		11.1,33.7 7.2,33.7 	"/>
	<polygon class="st1" points="24.4,33.7 24.4,37.7 28.2,37.7 28.2,36.9 25.5,36.9 25.5,36 27.8,36 27.8,35.2 25.5,35.2 25.5,34.6 
		28.2,34.6 28.2,33.7 	"/>
	<path class="st0" d="M11.8,29.2H11l-1,3.6h0.7l0.2-0.8h0.9l0.2,0.8h0.8L11.8,29.2z M11.1,31.3l0.3-1.4l0.3,1.4H11.1z"/>
	<path class="st0" d="M6.6,32.2c0.1-0.3,0.2-0.5,0.2-1v-0.8c0-0.9-0.2-1.5-1.2-1.5c-0.9,0-1.2,0.5-1.2,1.4v1c0,1.2,0.7,1.3,2.8,1.3
		l0-0.3L6.6,32.2z M6.1,31.4c0,0.7-0.1,0.8-0.4,0.8c-0.3,0-0.5-0.2-0.5-0.9v-0.9c0-0.7,0.1-0.9,0.5-0.9c0.3,0,0.4,0.1,0.4,0.8V31.4z
		"/>
	<path class="st1" d="M24.8,31.8c0,0.6,0.3,1,1.1,1c0.7,0,1.2-0.5,1.2-1c0-0.9-1.6-1.3-1.6-1.8c0-0.2,0.2-0.3,0.4-0.3
		c0.3,0,0.4,0.2,0.6,0.5l0.5-0.2C27.1,29.5,26.7,29,26,29c-0.6,0-1.1,0.3-1.1,0.9c0,1,1.6,1.3,1.6,1.9c0,0.3-0.1,0.4-0.4,0.4
		c-0.3,0-0.5-0.2-0.6-0.6L24.8,31.8z"/>
	<path class="st0" d="M20.6,29c-0.8,0-1.2,0.4-1.2,1.4v1.2c0,0.9,0.2,1.2,1.2,1.2c0.9,0,1.2-0.4,1.2-1.4v-1.1
		C21.8,29.4,21.5,29,20.6,29 M21,31.4c0,0.6-0.1,0.8-0.4,0.8c-0.4,0-0.5-0.3-0.5-0.8v-1.1c0-0.5,0.1-0.8,0.5-0.8
		c0.4,0,0.4,0.4,0.4,0.8V31.4z"/>
	<path class="st1" d="M31.5,31.4c0,1.1,0.3,1.4,1.3,1.4c0.8,0,1-0.4,1-0.8v-1.2h-1v0.6h0.3v0.4c0,0.3-0.1,0.5-0.3,0.5
		c-0.5,0-0.6-0.4-0.6-0.9v-0.8c0-0.6,0.1-1,0.6-1c0.3,0,0.5,0.3,0.6,0.6l0.5-0.2c0-0.6-0.4-1-1.1-1c-1,0-1.2,0.6-1.2,1.3V31.4z"/>
	<path class="st1" d="M22.1,29.1v2.1c0,1.2,0.2,1.6,1.3,1.6c0.8,0,1.1-0.4,1.1-1.5v-2.2h-0.7v2.1c0,0.8-0.1,1-0.5,1
		c-0.4,0-0.4-0.3-0.4-1.1v-2H22.1z"/>
	<polygon class="st1" points="28.8,29.1 28.8,32.7 29.4,32.7 29.4,30.3 30.2,32.7 31.1,32.7 31.1,29.1 30.5,29.1 30.5,31.4 
		29.7,29.1 	"/>
	<path class="st1" d="M7.5,29.1v2.2c0,1,0.1,1.5,1.1,1.5c1.1,0,1.2-0.6,1.2-1.6v-2.1H9.1v2.1c0,0.7-0.1,0.9-0.5,0.9
		c-0.4,0-0.4-0.2-0.4-1v-2H7.5z"/>
	<polygon class="st1" points="16.6,29.1 16.6,32.7 17.3,32.7 17.3,31.1 18.2,31.1 18.2,32.7 18.9,32.7 18.9,29.1 18.2,29.1 
		18.2,30.5 17.3,30.5 17.3,29.1 	"/>
	<polygon class="st1" points="2.1,29.1 2.1,32.7 3.9,32.7 3.9,32.2 2.8,32.2 2.8,31.2 3.8,31.2 3.8,30.7 2.8,30.7 2.8,29.7 
		3.9,29.7 3.9,29.1 	"/>
	<rect x="27.6" y="29.2" class="st1" width="0.6" height="3.6"/>
	<polygon class="st1" points="13.2,29.1 13.2,32.7 14.8,32.7 14.8,32.2 13.8,32.2 13.8,29.1 	"/>
</g>
<g>
	<polygon class="st0" points="32.9,26.4 2.6,26.4 2.6,9.9 5.6,9.9 5.6,23.4 29.9,23.4 29.9,9.9 32.9,9.9 	"/>
	<rect x="11.8" y="11.1" class="st0" width="12.2" height="3"/>
	<rect x="11.8" y="16.1" class="st0" width="12.2" height="3"/>
	<polygon class="st0" points="35.5,14.3 31.4,14.3 31.4,11.5 17.8,3.5 4.1,11.5 4.1,14.3 0,14.3 0,10.4 17.8,0 35.5,10.4 	"/>
</g>
</svg>
