<?xml version="1.0" encoding="utf-8"?>
<!-- Generator: Adobe Illustrator 22.1.0, SVG Export Plug-In . SVG Version: 6.00 Build 0)  -->
<svg version="1.1" id="Layer_1" xmlns="http://www.w3.org/2000/svg" xmlns:xlink="http://www.w3.org/1999/xlink" x="0px" y="0px"
	 viewBox="0 0 897 110.5" style="enable-background:new 0 0 897 110.5;" xml:space="preserve">
<style type="text/css">
	.st0{fill:#898989;}
</style>
<g>
	<path class="st0" d="M197.3,52.1h9.9c5.6,0,12.5-4.6,15.3-10.2L243.8,0h-3c0,0-2.5,7.1-10.4,7L82.8,6.9c-5.6,0-12.5,4.6-15.3,10.2
		l-21,41.3h-9.9c-5.6,0-12.5,4.6-15.3,10.2L0,110.5h3c0,0,2.5-7.1,10.4-7l147.6,0.1c5.7,0,12.5-4.6,15.3-10.2L197.3,52.1z
		 M94.1,58.5H49.4C50.2,56.8,53,52,59.6,52h49.9l21.9-21.5l4.2,21.5l58.9,0.1c-0.8,1.7-3.6,6.5-10.2,6.5h-41.8l-5.2,2.2l5.1,26.7
		l-27.5-14.2L77.4,83.5l22-21.6L94.1,58.5z"/>
	<path class="st0" d="M274.3,23.8l0.6-1.5c1.4-3.7,1.1-6.9-1.9-6.9c-3.3,0-5.9,2.8-7,5.6c-4.7,12.6,23,6.4,14.4,29.7
		c-5.1,13.6-14.8,19.6-28.5,19.6c-12.9,0-18.3-4.7-13.4-17.9l0.8-2.2h15.1l-0.6,1.5c-2,5.4-0.7,7.4,2.3,7.4c3.2,0,6-2.7,7.3-6.2
		c4.7-12.6-22.1-6.3-13.6-28.9c4.8-12.9,13.9-19.9,27-19.9c13.6,0,17.1,6,12,19.6L274.3,23.8L274.3,23.8z"/>
	<polygon class="st0" points="303.3,5.4 338.7,5.4 333.6,19 313.8,19 309.7,29.9 328.3,29.9 323.4,42.9 304.8,42.9 300.1,55.6 
		320.7,55.6 315.6,69.2 279.5,69.2 	"/>
	<polygon class="st0" points="485.7,5.4 501.3,5.4 477.5,69.2 461.9,69.2 	"/>
	<polygon class="st0" points="511.1,19.5 499.4,19.5 504.6,5.4 543.6,5.4 538.4,19.5 526.6,19.5 508.1,69.2 492.6,69.2 	"/>
	<polygon class="st0" points="546.4,44.1 545.5,5.4 562.6,5.4 560.2,27.7 560.4,27.7 574.5,5.4 591.6,5.4 561.9,44.1 552.6,69.2 
		537,69.2 	"/>
	<polygon class="st0" points="658.9,5.4 694.3,5.4 689.3,19 669.4,19 665.4,29.9 684,29.9 679.1,42.9 660.5,42.9 655.8,55.6 
		676.4,55.6 671.3,69.2 635.2,69.2 	"/>
	<polygon class="st0" points="742.8,5.4 759.4,5.4 747.7,53.4 747.9,53.4 772.1,5.4 788.7,5.4 752,69.2 731.9,69.2 	"/>
	<polygon class="st0" points="794.4,5.4 809.9,5.4 786.1,69.2 770.6,69.2 	"/>
	<polygon class="st0" points="861.6,5.4 897,5.4 892,19 872.1,19 868.1,29.9 886.7,29.9 881.8,42.9 863.2,42.9 858.5,55.6 
		879.1,55.6 874,69.2 837.9,69.2 	"/>
	<polygon class="st0" points="230.9,79.7 244.1,79.7 242.7,83.4 234.3,83.4 232.3,88.7 240.2,88.7 238.8,92.4 230.9,92.4 
		227.2,102.2 222.4,102.2 	"/>
	<polygon class="st0" points="276.7,79.7 275.3,83.4 266.8,83.4 264.8,88.7 272.8,88.7 271.4,92.4 263.4,92.4 261.2,98.5 
		269.9,98.5 268.5,102.2 255,102.2 263.5,79.7 	"/>
	<polygon class="st0" points="346.1,79.7 344.7,83.4 336.3,83.4 334.3,88.7 342.2,88.7 340.8,92.4 332.9,92.4 330.6,98.5 
		339.4,98.5 338,102.2 324.4,102.2 332.9,79.7 	"/>
	<path class="st0" d="M401.7,93.7h4.6l1.5-10.1h-0.1L401.7,93.7z M406.3,79.7h5.9l-2.2,22.5h-5l0.7-4.8h-6.3l-2.9,4.8h-5L406.3,79.7
		z"/>
	<polygon class="st0" points="428.9,102.2 437.4,79.7 442.2,79.7 435.1,98.5 443.5,98.5 442.1,102.2 	"/>
	<polygon class="st0" points="579,79.7 577.6,83.4 569.2,83.4 567.2,88.7 575.2,88.7 573.8,92.4 565.8,92.4 563.5,98.5 572.3,98.5 
		570.9,102.2 557.4,102.2 565.8,79.7 	"/>
	<polygon class="st0" points="627,102.2 635.5,79.7 640.3,79.7 631.8,102.2 	"/>
	<polygon class="st0" points="674.9,79.7 673.5,83.4 668.3,83.4 661.3,102.2 656.5,102.2 663.6,83.4 658.4,83.4 659.8,79.7 	"/>
	<polygon class="st0" points="759.9,79.7 759.9,95.1 760,95.1 765.8,79.7 770.1,79.7 761.7,102.2 756.2,102.2 756.3,86.4 
		756.3,86.4 750.3,102.2 746,102.2 754.4,79.7 	"/>
	<polygon class="st0" points="782.5,102.2 790.9,79.7 795.7,79.7 787.2,102.2 	"/>
	<polygon class="st0" points="857.6,79.7 857.6,95.1 857.7,95.1 863.5,79.7 867.8,79.7 859.4,102.2 853.9,102.2 854,86.4 854,86.4 
		848,102.2 843.7,102.2 852.1,79.7 	"/>
	<path class="st0" d="M362.2,24.8c2.7-7.2,2.2-9.4-0.8-9.4c-4.8,0-7,4.6-13.4,21.9c-6.4,17.2-7.7,21.9-2.9,21.9
		c3.8,0,6-3.6,10.5-15.6h15.1l-1.8,4.7c-6.7,17.8-18,22.1-28,22.1c-17.5,0-17.8-9.4-9-33.1c9.1-24.4,17.5-33.1,33.7-33.1
		c14.1,0,16.4,7.9,11.8,20.2l-1.5,4h-15.1L362.2,24.8z"/>
	<path class="st0" d="M405.8,5.4l-17.1,46c-2.3,6.2-1.1,7.8,1.8,7.8s5.3-1.6,7.6-7.8l17.1-46h15.6l-15.6,41.8
		c-6.7,17.8-15.9,23.2-28.9,23.2c-13.1,0-18.3-5.4-11.6-23.2l15.6-41.8C390.3,5.4,405.8,5.4,405.8,5.4z"/>
	<path class="st0" d="M443.3,32.4h3.1c4.4,0,7.7-3,9.4-7.6c1.9-5.2,0.8-7.4-3.8-7.4h-3L443.3,32.4z M437.8,5.4h24.4
		c11.9,0,13.7,7.1,10.1,17c-3.2,8.5-8.3,14-15.9,15.2l-0.1,0.2c7.3,0.7,7.6,5.8,4.5,14.3l-2,5.4c-1.2,3.3-2.8,7.6-2.5,8.8
		c0.1,0.7,0.2,1.4,1,2l-0.3,0.9h-16.6c-0.2-3.4,2-9.5,3-12.1l1.6-4.3c2.7-7.2,2.1-9.1-1.7-9.1h-4.1l-9.5,25.5h-15.6L437.8,5.4z"/>
	<path class="st0" d="M631,23.8l0.6-1.5c1.4-3.7,1.1-6.9-1.9-6.9c-3.3,0-5.9,2.8-7,5.6c-4.7,12.6,23,6.4,14.4,29.7
		c-5.1,13.6-14.8,19.6-28.5,19.6c-12.9,0-18.3-4.7-13.4-17.9l0.8-2.2h15.1l-0.6,1.5c-2,5.4-0.7,7.4,2.3,7.4c3.2,0,6-2.7,7.3-6.2
		c4.7-12.6-22.1-6.3-13.7-28.9c4.8-12.9,13.9-19.9,27-19.9c13.6,0,17.1,6,12,19.6L631,23.8L631,23.8z"/>
	<path class="st0" d="M705.7,32.4h3.1c4.4,0,7.7-3,9.4-7.6c1.9-5.2,0.8-7.4-3.8-7.4h-3L705.7,32.4z M700.2,5.4h24.4
		c11.9,0,13.7,7.1,10.1,17c-3.2,8.5-8.3,14-15.9,15.2l-0.1,0.2c7.3,0.7,7.6,5.8,4.5,14.3l-2,5.4c-1.2,3.3-2.8,7.6-2.5,8.8
		c0.1,0.7,0.2,1.4,1,2l-0.3,0.9h-16.6c-0.2-3.4,2-9.5,3-12.1l1.6-4.3c2.7-7.2,2.1-9.1-1.7-9.1h-4.1L692,69.2h-15.6L700.2,5.4z"/>
	<path class="st0" d="M833.3,24.8c2.7-7.2,2.2-9.4-0.8-9.4c-4.8,0-7,4.6-13.4,21.9c-6.4,17.2-7.7,21.9-2.9,21.9
		c3.8,0,6-3.6,10.5-15.6h15.1l-1.8,4.7c-6.7,17.8-18,22.1-28,22.1c-17.5,0-17.8-9.4-9-33.1c9.1-24.4,17.5-33.1,33.7-33.1
		c14.1,0,16.4,7.9,11.8,20.2l-1.5,4h-15L833.3,24.8z"/>
	<path class="st0" d="M294.4,98.8h2.1c3.3,0,4.7-2,7-8.1c1.9-5.1,2.5-7.7-1.2-7.7h-2L294.4,98.8z M296.9,79.7h7.8
		c6.6,0,6.2,4.3,3.7,10.9c-3,8-6.1,11.6-12.5,11.6h-7.5L296.9,79.7z"/>
	<path class="st0" d="M367.1,89.5h2c2.3,0,3.9-0.9,4.8-3.4c0.8-2.1,0-3.1-2.1-3.1h-2.3L367.1,89.5z M366.1,79.7h8.8
		c3.9,0,5.6,2,4.1,5.8c-1.1,3-3.1,5-6,5.5v0.1c3.1,0.4,2.9,2.1,1.2,6.9c-0.9,2.4-1.2,3.6-0.5,4l-0.1,0.2h-5.2
		c-0.2-0.6,0-1.5,0.3-2.4l1.5-4.3c0.6-1.8,0.2-2.8-1.7-2.8H366l-3.6,9.5h-4.8L366.1,79.7z"/>
	<path class="st0" d="M502.4,87.3c1.2-3.3,1.1-4.7-1.1-4.7c-2.4,0-3.8,2.3-6.2,8.7c-2.6,6.8-2,8,0,8c1.7,0,3.3-0.9,5.1-5.7h4.8
		c-1.8,4.9-4.7,9-10.9,9c-7.2,0-6.2-4.9-3.6-11.7c2.6-6.8,5.3-11.7,12.4-11.7c6.8,0,5.5,4.8,4.3,8L502.4,87.3L502.4,87.3z"/>
	<path class="st0" d="M531.2,89.5h2c2.3,0,3.9-0.9,4.8-3.4c0.8-2.1,0-3.1-2.1-3.1h-2.3L531.2,89.5z M530.2,79.7h8.8
		c3.9,0,5.6,2,4.1,5.8c-1.1,3-3.1,5-6,5.5v0.1c3.1,0.4,2.9,2.1,1.2,6.9c-0.9,2.4-1.2,3.6-0.5,4l-0.1,0.2h-5.2
		c-0.2-0.6,0-1.5,0.3-2.4l1.5-4.3c0.6-1.8,0.2-2.8-1.7-2.8H530l-3.6,9.5h-4.8L530.2,79.7z"/>
	<path class="st0" d="M596.8,98.8h2.1c3.3,0,4.7-2,7-8.1c1.9-5.1,2.5-7.7-1.2-7.7h-2L596.8,98.8z M599.2,79.7h7.8
		c6.6,0,6.2,4.3,3.7,10.9c-3,8-6.1,11.6-12.5,11.6h-7.5L599.2,79.7z"/>
	<path class="st0" d="M723.9,79.7L718,95.4c-0.8,2.2-0.9,3.9,1.3,3.9s3.4-1.7,4.3-3.9l5.9-15.7h4.8l-5.9,15.7
		c-2.2,5.7-6.4,7.2-10.3,7.2c-3.9,0-7.1-1.2-4.8-7.2l5.9-15.7C719.2,79.7,723.9,79.7,723.9,79.7z"/>
	<path class="st0" d="M816.7,99.3c2.8,0,4.1-2.3,6.4-8.4c2.3-6,2.7-8.3-0.1-8.3s-4.2,2.3-6.4,8.3C814.2,97,813.8,99.3,816.7,99.3
		 M824.2,79.2c7.2,0,6.2,4.9,3.6,11.7c-2.6,6.8-5.3,11.7-12.4,11.7c-7.2,0-6.2-4.9-3.6-11.7C814.3,84.1,817.1,79.2,824.2,79.2"/>
</g>
</svg>
